<?xml version="1.0" encoding="UTF-8"?> <svg xmlns="http://www.w3.org/2000/svg" width="400" height="32" viewBox="0 0 400 32" fill="none"><g clip-path="url(#clip0_4785_2372)"><path d="M31.1147 0.941176L0 32H4.82197C7.03167 32 9.14296 31.1216 10.7175 29.5619L31.7678 8.56022C32.6713 7.6549 34.1385 7.6549 35.042 8.56022L56.0923 29.5619C57.6579 31.1216 59.7781 32 61.9878 32H66.8098L35.6772 0.941176C34.4158 -0.313726 32.385 -0.313726 31.1236 0.941176" fill="black"></path><path d="M128.807 0C126.597 0 124.477 0.878431 122.911 2.4381L101.861 23.4398C100.957 24.3451 99.49 24.3451 98.5864 23.4398L77.5451 2.4381C75.9795 0.878431 73.8593 0 71.6496 0H66.8276L97.9423 31.0499C99.2037 32.3048 101.235 32.3048 102.496 31.0499L133.628 0H128.807Z" fill="black"></path><path d="M233.441 12.0291H230.56C229.737 12.0291 229.075 12.6924 229.075 13.5171V30.5031C229.075 31.3277 229.737 31.991 230.56 31.991H233.441C234.264 31.991 234.926 31.3277 234.926 30.5031V13.5171C234.926 12.6924 234.264 12.0291 233.441 12.0291Z" fill="black"></path><path d="M260.172 2.44706C258.597 0.887396 256.477 0.00896454 254.267 0.00896454H200.42L203.829 3.3972C205.403 4.95686 207.524 5.8353 209.733 5.8353H263.58L260.172 2.44706Z" fill="black"></path><path d="M164.743 0.941176L133.628 31.991H138.45C140.66 31.991 142.78 31.1126 144.346 29.5529L165.396 8.55126C166.3 7.64594 167.767 7.64594 168.67 8.55126L189.721 29.5529C191.286 31.1126 193.407 31.991 195.616 31.991H200.429L169.297 0.941176C168.035 -0.313726 166.005 -0.313726 164.743 0.941176Z" fill="black"></path><path d="M319.878 18.1513H324.682C329.862 18.1513 334.031 13.8667 333.799 8.66779C333.584 3.77367 329.352 0.00896454 324.45 0.00896454H276.454L279.871 3.3972C281.446 4.95686 283.575 5.8353 285.785 5.8353H324.477C326.185 5.8353 327.724 7.08123 327.876 8.78432C328.046 10.7025 326.525 12.316 324.629 12.316H277.939C277.116 12.316 276.445 12.9793 276.445 13.8039V30.5031C276.445 31.3277 277.116 31.991 277.939 31.991H280.828C281.651 31.991 282.322 31.3277 282.322 30.5031V18.1513H311.567L323.045 29.535C324.62 31.1126 326.758 31.991 328.986 31.991H333.807L319.869 18.1423L319.878 18.1513Z" fill="black"></path><path d="M369.673 32H366.64C366.148 32 365.754 31.5966 365.754 31.1126V8.25546C365.754 7.49356 365.987 6.52549 366.39 5.91596C366.819 5.25266 368.966 2.02577 369.843 0.779829C369.959 0.618485 370.066 0.475067 370.245 0.475067C370.424 0.475067 370.567 0.564703 370.567 0.833611V31.1126C370.567 31.6056 370.174 32 369.682 32" fill="black"></path><path d="M394.239 27.4913C394.91 27.4913 395.572 27.6975 396.126 28.0739L399.937 31.4801C400.098 31.6952 399.946 32 399.678 32L380.891 31.9821C380.399 31.9821 380.005 31.5787 380.005 31.0857V28.4056C380.005 28.0919 380.113 27.7961 380.318 27.5541L392.208 13.1048C393.407 11.6347 393.899 10.4784 393.899 8.87395C393.899 6.02353 392.217 4.0605 389.283 4.0605C387.064 4.0605 384.962 5.18992 384.648 8.17479C384.604 8.62297 384.219 8.95462 383.772 8.95462H381.016C380.488 8.95462 380.077 8.51541 380.122 7.99552C380.551 3.14622 384.228 0 389.283 0C394.704 0 398.434 3.44202 398.425 8.91877C398.425 11.7244 397.397 13.3737 395.437 15.7759L386.626 26.5501C386.33 26.9176 386.59 27.4644 387.055 27.4734H394.221L394.239 27.4913Z" fill="black"></path></g><defs><clipPath id="clip0_4785_2372"><rect width="400" height="32" fill="white"></rect></clipPath></defs></svg> 