<?xml version="1.0" encoding="UTF-8"?> <svg xmlns="http://www.w3.org/2000/svg" width="316" height="26" viewBox="0 0 316 26" fill="none"><g clip-path="url(#clip0_4478_3552)"><path d="M24.5806 0.764706L0 26H3.80936C5.55502 26 7.22294 25.2863 8.46681 24.019L25.0965 6.95518C25.8103 6.21961 26.9694 6.21961 27.6832 6.95518L44.3129 24.019C45.5497 25.2863 47.2247 26 48.9704 26H52.7797L28.185 0.764706C27.1885 -0.254902 25.5842 -0.254902 24.5877 0.764706" fill="white"></path><path d="M101.757 0C100.012 0 98.3366 0.713726 97.0998 1.98095L80.4701 19.0448C79.7563 19.7804 78.5972 19.7804 77.8834 19.0448L61.2608 1.98095C60.024 0.713726 58.349 0 56.6033 0H52.7939L77.3746 25.228C78.3711 26.2476 79.9754 26.2476 80.9719 25.228L105.567 0H101.757Z" fill="white"></path><path d="M184.418 9.77368H182.142C181.492 9.77368 180.969 10.3126 180.969 10.9826V24.7838C180.969 25.4538 181.492 25.9927 182.142 25.9927H184.418C185.068 25.9927 185.591 25.4538 185.591 24.7838V10.9826C185.591 10.3126 185.068 9.77368 184.418 9.77368Z" fill="white"></path><path d="M205.536 1.98828C204.292 0.72105 202.617 0.00732422 200.871 0.00732422H158.332L161.025 2.76027C162.269 4.02749 163.944 4.74122 165.689 4.74122H208.228L205.536 1.98828Z" fill="white"></path><path d="M130.147 0.764706L105.566 25.9927H109.376C111.121 25.9927 112.796 25.279 114.033 24.0118L130.663 6.9479C131.377 6.21233 132.536 6.21233 133.25 6.9479L149.879 24.0118C151.116 25.279 152.791 25.9927 154.537 25.9927H158.339L133.744 0.764706C132.748 -0.254902 131.144 -0.254902 130.147 0.764706Z" fill="white"></path><path d="M252.704 14.7479H256.499C260.591 14.7479 263.885 11.2667 263.701 7.04262C263.531 3.06615 260.189 0.00732422 256.316 0.00732422H218.399L221.098 2.76027C222.342 4.02749 224.024 4.74122 225.77 4.74122H256.337C257.687 4.74122 258.902 5.75354 259.022 7.1373C259.157 8.69584 257.955 10.0068 256.457 10.0068H219.572C218.922 10.0068 218.392 10.5457 218.392 11.2157V24.7838C218.392 25.4538 218.922 25.9928 219.572 25.9928H221.855C222.505 25.9928 223.035 25.4538 223.035 24.7838V14.7479H246.138L255.206 23.9972C256.45 25.279 258.139 25.9928 259.899 25.9928H263.708L252.697 14.7407L252.704 14.7479Z" fill="white"></path><path d="M292.041 26H289.645C289.257 26 288.946 25.6723 288.946 25.279V6.70755C288.946 6.08851 289.13 5.30195 289.448 4.80671C289.787 4.26778 291.483 1.64593 292.176 0.633605C292.268 0.502513 292.352 0.385986 292.494 0.385986C292.635 0.385986 292.748 0.458815 292.748 0.677303V25.279C292.748 25.6795 292.437 26 292.048 26" fill="white"></path><path d="M311.448 22.3367C311.978 22.3367 312.501 22.5042 312.94 22.8101L315.95 25.5776C316.078 25.7524 315.957 26 315.745 26L300.904 25.9854C300.515 25.9854 300.204 25.6577 300.204 25.2571V23.0796C300.204 22.8246 300.289 22.5843 300.451 22.3877L309.844 10.6476C310.791 9.45322 311.18 8.51372 311.18 7.21008C311.18 4.89412 309.851 3.29916 307.533 3.29916C305.78 3.29916 304.119 4.21681 303.872 6.64202C303.837 7.00616 303.533 7.27563 303.18 7.27563H301.003C300.586 7.27563 300.261 6.91877 300.296 6.49636C300.635 2.5563 303.54 0 307.533 0C311.816 0 314.763 2.79664 314.756 7.2465C314.756 9.52605 313.943 10.8661 312.395 12.8179L305.434 21.572C305.201 21.8706 305.406 22.3148 305.773 22.3221H311.434L311.448 22.3367Z" fill="white"></path></g><defs><clipPath id="clip0_4478_3552"><rect width="316" height="26" fill="white"></rect></clipPath></defs></svg> 