<svg width="307" height="26" viewBox="0 0 307 26" fill="none" xmlns="http://www.w3.org/2000/svg">
<g clip-path="url(#clip0_1152_372)">
<mask id="mask0_1152_372" style="mask-type:luminance" maskUnits="userSpaceOnUse" x="0" y="0" width="307" height="26">
<path d="M307 0H0V26H307V0Z" fill="white"/>
</mask>
<g mask="url(#mask0_1152_372)">
<path d="M292.101 26H289.67C289.274 26 288.956 25.6723 288.956 25.2644V6.42353C288.956 5.7972 289.147 4.99608 289.465 4.49356C289.811 3.94006 291.529 1.28908 292.236 0.254902C292.327 0.116527 292.412 0 292.554 0C292.695 0 292.815 0.0728291 292.815 0.291317V25.2571C292.815 25.665 292.497 25.9927 292.101 25.9927" fill="#181818"/>
<path d="M306.286 26H303.854C303.459 26 303.141 25.6723 303.141 25.2644V6.42353C303.141 5.7972 303.331 4.99608 303.65 4.49356C303.996 3.94006 305.713 1.28908 306.42 0.254902C306.512 0.116527 306.597 0 306.738 0C306.88 0 307 0.0728291 307 0.291317V25.2571C307 25.665 306.682 25.9927 306.286 25.9927" fill="#181818"/>
<path d="M24.5821 0.764706L0 26H3.80958C5.55535 26 7.22336 25.2863 8.46731 24.019L25.098 6.95518C25.8119 6.21961 26.971 6.21961 27.6848 6.95518L44.3155 24.019C45.5524 25.2863 47.2275 26 48.9733 26H52.7829L28.1867 0.764706C27.1901 -0.254902 25.5857 -0.254902 24.5891 0.764706" fill="#181818"/>
<path d="M101.763 0C100.017 0 98.3422 0.713726 97.1054 1.98095L80.4747 19.0448C79.7608 19.7804 78.6017 19.7804 77.8878 19.0448L61.2642 1.98095C60.0273 0.713726 58.3522 0 56.6065 0H52.7969L77.3789 25.228C78.3755 26.2476 79.9799 26.2476 80.9765 25.228L105.573 0H101.763Z" fill="#181818"/>
<path d="M184.429 9.77344H182.153C181.503 9.77344 180.979 10.3124 180.979 10.9824V24.7836C180.979 25.4536 181.503 25.9925 182.153 25.9925H184.429C185.079 25.9925 185.602 25.4536 185.602 24.7836V10.9824C185.602 10.3124 185.079 9.77344 184.429 9.77344Z" fill="#181818"/>
<path d="M205.548 1.98877C204.304 0.721538 202.629 0.0078125 200.883 0.0078125H158.342L161.035 2.76076C162.279 4.02798 163.954 4.74171 165.699 4.74171H208.241L205.548 1.98877Z" fill="#181818"/>
<path d="M130.155 0.764706L105.573 25.9927H109.383C111.129 25.9927 112.804 25.279 114.041 24.0118L130.671 6.9479C131.385 6.21233 132.544 6.21233 133.258 6.9479L149.889 24.0118C151.126 25.279 152.801 25.9927 154.547 25.9927H158.356L133.753 0.764706C132.756 -0.254902 131.152 -0.254902 130.155 0.764706Z" fill="#181818"/>
<path d="M252.719 14.7484H256.514C260.606 14.7484 263.9 11.2672 263.723 7.04311C263.554 3.06664 260.211 0.0078125 256.337 0.0078125H218.418L221.118 2.76076C222.362 4.02798 224.044 4.74171 225.79 4.74171H256.359C257.708 4.74171 258.924 5.75403 259.044 7.13779C259.179 8.69633 257.977 10.0073 256.479 10.0073H219.591C218.941 10.0073 218.411 10.5462 218.411 11.2162V24.7843C218.411 25.4543 218.941 25.9933 219.591 25.9933H221.874C222.525 25.9933 223.055 25.4543 223.055 24.7843V14.7484H246.16L255.228 23.9977C256.472 25.2795 258.161 25.9933 259.921 25.9933H263.73L252.719 14.7412V14.7484Z" fill="#181818"/>
</g>
</g>
<defs>
<clipPath id="clip0_1152_372">
<rect width="307" height="26" fill="white"/>
</clipPath>
</defs>
</svg>
