<?xml version="1.0" encoding="UTF-8"?> <svg xmlns="http://www.w3.org/2000/svg" width="147" height="12" viewBox="0 0 147 12" fill="none"><g clip-path="url(#clip0_4809_1022)"><path d="M139.866 12H138.702C138.513 12 138.36 11.8487 138.36 11.6605V2.96471C138.36 2.67563 138.452 2.30588 138.604 2.07395C138.77 1.81849 139.592 0.594958 139.931 0.117647C139.975 0.0537815 140.015 0 140.083 0C140.151 0 140.208 0.0336134 140.208 0.134454V11.6571C140.208 11.8454 140.056 11.9966 139.866 11.9966" fill="white"></path><path d="M146.658 12H145.494C145.305 12 145.152 11.8487 145.152 11.6605V2.96471C145.152 2.67563 145.244 2.30588 145.396 2.07395C145.562 1.81849 146.384 0.594958 146.723 0.117647C146.767 0.0537815 146.807 0 146.875 0C146.943 0 147 0.0336134 147 0.134454V11.6571C147 11.8454 146.848 11.9966 146.658 11.9966" fill="white"></path><path d="M11.7706 0.352941L0 12H1.82413C2.66005 12 3.45874 11.6706 4.05438 11.0857L12.0176 3.21008C12.3594 2.87059 12.9144 2.87059 13.2563 3.21008L21.2195 11.0857C21.8117 11.6706 22.6138 12 23.4497 12H25.2739L13.4965 0.352941C13.0194 -0.117647 12.2511 -0.117647 11.7739 0.352941" fill="white"></path><path d="M48.7266 0C47.8907 0 47.0886 0.329412 46.4964 0.914286L38.5332 8.78992C38.1913 9.12941 37.6363 9.12941 37.2945 8.78992L29.3347 0.914286C28.7424 0.329412 27.9403 0 27.1044 0H25.2803L37.0508 11.6437C37.528 12.1143 38.2963 12.1143 38.7734 11.6437L50.5508 0H48.7266Z" fill="white"></path><path d="M88.3097 4.51093H87.22C86.9086 4.51093 86.6582 4.75966 86.6582 5.06891V11.4387C86.6582 11.7479 86.9086 11.9966 87.22 11.9966H88.3097C88.6211 11.9966 88.8715 11.7479 88.8715 11.4387V5.06891C88.8715 4.75966 88.6211 4.51093 88.3097 4.51093Z" fill="white"></path><path d="M98.422 0.917643C97.8264 0.332769 97.0243 0.00335693 96.1884 0.00335693H75.8184L77.1078 1.27395C77.7034 1.85882 78.5055 2.18823 79.3414 2.18823H99.7114L98.422 0.917643Z" fill="white"></path><path d="M62.3213 0.352941L50.5508 11.9966H52.3749C53.2108 11.9966 54.0129 11.6672 54.6052 11.0824L62.5684 3.20672C62.9102 2.86723 63.4652 2.86723 63.807 3.20672L71.7703 11.0824C72.3625 11.6672 73.1646 11.9966 74.0005 11.9966H75.8247L64.0439 0.352941C63.5668 -0.117647 62.7985 -0.117647 62.3213 0.352941Z" fill="white"></path><path d="M121.008 6.80672H122.826C124.785 6.80672 126.362 5.2 126.278 3.25042C126.197 1.41512 124.596 0.00335693 122.741 0.00335693H104.584L105.877 1.27395C106.473 1.85882 107.278 2.18823 108.114 2.18823H122.751C123.398 2.18823 123.98 2.65546 124.037 3.29411C124.102 4.01344 123.526 4.61848 122.809 4.61848H105.146C104.835 4.61848 104.581 4.86722 104.581 5.17647V11.4387C104.581 11.7479 104.835 11.9966 105.146 11.9966H106.239C106.551 11.9966 106.805 11.7479 106.805 11.4387V6.80672H117.868L122.21 11.0756C122.805 11.6672 123.614 11.9966 124.457 11.9966H126.281L121.008 6.80336V6.80672Z" fill="white"></path></g><defs><clipPath id="clip0_4809_1022"><rect width="147" height="12" fill="white"></rect></clipPath></defs></svg> 