<?xml version="1.0" encoding="UTF-8"?> <svg xmlns="http://www.w3.org/2000/svg" width="12" height="16" viewBox="0 0 12 16" fill="none"><path d="M2 0H7V4C7 4.5625 7.4375 5 8 5H12V14C12 15.125 11.0938 16 10 16H2C0.875 16 0 15.125 0 14V2C0 0.90625 0.875 0 2 0ZM8 0L12 4H8V0ZM6.75 7.25H6.71875C6.71875 6.84375 6.40625 6.5 5.96875 6.5C5.5625 6.5 5.21875 6.84375 5.21875 7.25V10.4688L4.25 9.5C3.96875 9.1875 3.5 9.1875 3.21875 9.5C2.90625 9.78125 2.90625 10.25 3.21875 10.5312L5.46875 12.7812C5.75 13.0938 6.21875 13.0938 6.5 12.7812L8.75 10.5312C9.0625 10.25 9.0625 9.78125 8.75 9.5C8.46875 9.1875 8 9.1875 7.71875 9.5L6.75 10.4688V7.25Z" fill="black"></path></svg> 