<?xml version="1.0" encoding="UTF-8"?>
<svg id="Layer_1" data-name="Layer 1" xmlns="http://www.w3.org/2000/svg" viewBox="0 0 128 128">
  <defs>
    <style>
      .cls-1 {
        fill: #0069b7;
      }
    </style>
  </defs>
  <path class="cls-1" d="m107.54,67.57c0,23.47-19.1,42.57-42.57,42.57s-42.57-19.1-42.57-42.57c0-20.94,15.45-38.74,35.78-42.02l-5.89-5.05,1.95-2.28,9.7,8.32-8.32,9.7-2.28-1.95,4.91-5.72c-18.7,3.21-32.86,19.67-32.86,39,0,21.82,17.75,39.57,39.57,39.57s39.57-17.75,39.57-39.57c0-20.04-14.99-36.93-34.86-39.29l.35-2.98c21.38,2.54,37.5,20.71,37.5,42.27Zm-64.01,1.45l-5.89,5.01v2.37h12.36v-2.64h-8.13l3.52-2.93c3.03-2.47,4.45-3.93,4.45-6.65,0-3.05-2.22-5.13-5.64-5.13-3.05,0-4.67,1.29-6.3,3.59l2.13,1.66c1.32-1.71,2.39-2.56,3.96-2.56s2.76.98,2.76,2.66c0,1.54-.85,2.64-3.2,4.62Zm17.46,7.38v-3.83h-8.62l-.56-2.15,9.5-11.24h2.57v10.92h2.44v2.47h-2.44v3.83h-2.88Zm0-6.3v-6.77l-5.62,6.77h5.62Zm16.51-13.19l-11.04,22.62h2.56l11.04-22.62h-2.57Zm8.01,19.49l7.72-14.83v-2.27h-12.02v2.64h8.6l-7.67,14.46h3.37Z"/>
</svg>