<?xml version="1.0" encoding="UTF-8"?>
<svg id="Layer_1" data-name="Layer 1" xmlns="http://www.w3.org/2000/svg" viewBox="0 0 128 128">
  <defs>
    <style>
      .cls-1 {
        fill: #0069b1;
      }
    </style>
  </defs>
  <path class="cls-1" d="m107.91,24.77v61.94h-29.82v-3h26.82V27.77H23.09v5.95c-1.12.4-2.13,1.02-3,1.8v-10.75h87.82Zm-32.82,17.47v54.92c0,3.34-2.72,6.06-6.06,6.06h-15.94v-.43c.5-.77.87-1.64,1.06-2.57h14.89c1.69,0,3.06-1.37,3.06-3.06v-3.89h-17.8v-3h17.8v-44.91H23.09v.67c-1.11.23-2.13.7-3,1.36v-5.16c0-3.34,2.72-6.06,6.06-6.06h42.88c3.34,0,6.06,2.72,6.06,6.06Zm-3,0c0-1.69-1.37-3.06-3.06-3.06H26.15c-1.69,0-3.06,1.37-3.06,3.06v.13h49v-.13Zm-20.8,11.15v45.34c0,2.48-2.02,4.5-4.5,4.5h-22.2c-2.48,0-4.5-2.02-4.5-4.5v-45.34c0-2.48,2.02-4.5,4.5-4.5h22.2c2.48,0,4.5,2.02,4.5,4.5Zm-28.2,0v5.63h25.2v-5.63c0-.83-.67-1.5-1.5-1.5h-22.2c-.83,0-1.5.67-1.5,1.5Zm0,8.63v28.25h25.2v-28.25h-25.2Zm25.2,36.7v-5.45h-25.2v5.45c0,.83.67,1.5,1.5,1.5h22.2c.83,0,1.5-.67,1.5-1.5Zm-17.88-.26h10.1v-3h-10.1v3Zm2.76-44.35h-2.76v3h2.76v-3Zm8.04,0h-5.81v3h5.81v-3Z"/>
</svg>