<?xml version="1.0" encoding="UTF-8"?>
<svg id="Layer_1" data-name="Layer 1" xmlns="http://www.w3.org/2000/svg" viewBox="0 0 128 128">
  <defs>
    <style>
      .cls-1 {
        fill: #0069b1;
      }
    </style>
  </defs>
  <path class="cls-1" d="m64.7,44.54c-5.43,0-10.46,1.5-10.46,12.36,0,8.25,4.69,14.96,10.46,14.96s10.46-6.57,10.46-14.96c0-7.42-1.78-12.36-10.46-12.36Zm0,23.8c-3.76,0-6.94-5.24-6.94-11.44,0-6.94,1.49-8.84,6.94-8.84s6.94,1.9,6.94,8.84c0,6.2-3.18,11.44-6.94,11.44Z"/>
  <path class="cls-1" d="m93.29,29.64l-4.2,5.9H13.74v62.82h100.52V29.64h-20.97Zm-7.85,65.2h-42.88v-2.44c0-6.86,5.58-12.44,12.44-12.44h18c6.86,0,12.44,5.58,12.44,12.44v2.44Zm25.3,0h-21.78v-2.44c0-8.8-7.16-15.96-15.96-15.96h-18c-8.8,0-15.96,7.16-15.96,15.96v2.44h-21.78v-55.78h73.65l4.2-5.9h15.63v61.68Z"/>
</svg>