<?xml version="1.0" encoding="UTF-8"?>
<svg id="Layer_1" data-name="Layer 1" xmlns="http://www.w3.org/2000/svg" viewBox="0 0 128 128">
  <defs>
    <style>
      .cls-1 {
        fill: #0069b1;
      }
    </style>
  </defs>
  <path class="cls-1" d="m105.8,59.7h-1.1V25.6h-18.56l-3.7,5.1H15.4v55.8h38.6v9.2c0,3.75,3.05,6.8,6.8,6.8h45c3.75,0,6.8-3.05,6.8-6.8v-29.2c0-3.81-2.99-6.8-6.8-6.8Zm3.8,6.8v.9h-52.6v-.9c0-2.06,1.74-3.8,3.8-3.8h45c2.17,0,3.8,1.63,3.8,3.8Zm-52.6,3.9h52.6v4.9h-52.6v-4.9Zm-38.6,13.1v-49.8h65.56l3.7-5.1h14.04v31.1h-40.9c-3.75,0-6.8,3.05-6.8,6.8v17H18.4Zm87.4,16h-45c-2.06,0-3.8-1.74-3.8-3.8v-17.4h52.6v17.4c0,2.06-1.74,3.8-3.8,3.8Z"/>
  <path class="cls-1" d="m68.8,83.7h-2.6c-2.26,0-4.1,1.84-4.1,4.1v2.6c0,2.26,1.84,4.1,4.1,4.1h2.6c2.22,0,4.1-1.88,4.1-4.1v-2.6c0-2.26-1.84-4.1-4.1-4.1Zm1.1,6.7c0,.58-.52,1.1-1.1,1.1h-2.6c-.69,0-1.1-.56-1.1-1.1v-2.6c0-.71.57-1.1,1.1-1.1h2.6c.69,0,1.1.56,1.1,1.1v2.6Z"/>
  <rect class="cls-1" x="79.4" y="91.4" width="23.8" height="3"/>
  <rect class="cls-1" x="27.8" y="43.8" width="39.6" height="3"/>
  <rect class="cls-1" x="27.8" y="53.1" width="26.1" height="3"/>
</svg>