<?xml version="1.0" encoding="UTF-8"?>
<svg id="Layer_1" data-name="Layer 1" xmlns="http://www.w3.org/2000/svg" viewBox="0 0 128 128">
  <defs>
    <style>
      .cls-1 {
        fill: #0069b1;
      }
    </style>
  </defs>
  <path class="cls-1" d="m93.8,73.9v-12.5h-5.6c-.6-2.3-1.5-4.4-2.7-6.4l4-4-8.8-8.8-4,4c-2-1.2-4.2-2.1-6.4-2.7v-5.6h-12.5v5.6c-2.3.6-4.4,1.5-6.4,2.7l-4-4-8.9,8.8,4,4c-1.2,2-2.1,4.2-2.7,6.4h-5.6v12.5h5.6c.6,2.3,1.5,4.4,2.7,6.4l-4,4,8.8,8.8,4-4c2,1.2,4.2,2.1,6.4,2.7v5.6h12.5v-5.6c2.3-.6,4.4-1.5,6.4-2.7l4,4,8.8-8.8-4-4c1.2-2,2.1-4.2,2.7-6.4h5.7Zm-8.3-1.8c-.6,2.7-1.6,5.3-3.2,7.6l-.7,1,3.6,3.6-4.6,4.6-3.6-3.6-1,.7c-2.3,1.5-4.9,2.6-7.6,3.2l-1.2.2v5h-6.5v-5l-1.2-.2c-2.7-.6-5.3-1.6-7.6-3.2l-1-.7-3.6,3.6-4.6-4.6,3.6-3.6-.7-1c-1.5-2.3-2.6-4.9-3.2-7.6l-.2-1.2h-5v-6.5h5l.2-1.2c.6-2.7,1.6-5.3,3.2-7.6l.7-1-3.6-3.6,4.6-4.6,3.6,3.6,1-.7c2.3-1.5,4.9-2.6,7.6-3.2l1.2-.2v-5h6.5v5l1.2.2c2.7.6,5.3,1.6,7.6,3.2l1,.7,3.6-3.6,4.6,4.6-3.6,3.6.7,1c1.5,2.3,2.6,4.9,3.2,7.6l.2,1.2h5v6.5h-5l-.2,1.2Z"/>
  <path class="cls-1" d="m64,57.9c-5.4,0-9.8,4.4-9.8,9.8s4.4,9.8,9.8,9.8,9.8-4.4,9.8-9.8-4.4-9.8-9.8-9.8Zm0,16.6c-3.7,0-6.8-3-6.8-6.8s3-6.8,6.8-6.8,6.8,3,6.8,6.8-3.1,6.8-6.8,6.8Z"/>
  <path class="cls-1" d="m64,49.6c-10,0-18.1,8.1-18.1,18.1s8.1,18.1,18.1,18.1,18.1-8.1,18.1-18.1-8.1-18.1-18.1-18.1Zm0,33.2c-8.3,0-15.1-6.8-15.1-15.1s6.8-15.1,15.1-15.1,15.1,6.8,15.1,15.1-6.8,15.1-15.1,15.1Z"/>
  <path class="cls-1" d="m56.4,32.3c18.2-3.9,36.3,6.7,42,24.1l-5.4-3.5-1.6,2.5,10,6.4,6.4-10-2.5-1.6-3.8,5.8c-5.9-19.2-25.7-31-45.7-26.8-18.3,3.9-31.3,20.3-31,38.9l3-.1c-.3-17,11.7-32.1,28.6-35.7Z"/>
  <path class="cls-1" d="m71.6,103.1c-9.5,2-19.1.3-27.2-5-7-4.6-12.2-11.2-14.7-19.1l5.4,3.5,1.6-2.5-10-6.4-6.4,10,2.5,1.6,3.8-5.8c2.7,8.8,8.3,16.3,16.2,21.3,6.4,4.2,13.7,6.3,21.2,6.3,2.8,0,5.5-.3,8.3-.9,18.3-3.9,31.3-20.3,31-38.9l-3,.1c.2,17-11.8,32.1-28.7,35.8Z"/>
</svg>