<?xml version="1.0" encoding="UTF-8"?>
<svg id="Layer_1" data-name="Layer 1" xmlns="http://www.w3.org/2000/svg" viewBox="0 0 128 128">
  <defs>
    <style>
      .cls-1 {
        fill: #0069b1;
      }
    </style>
  </defs>
  <path class="cls-1" d="m59.96,35.85c-.04.5-.08.99-.08,1.5s.04,1,.08,1.5h-1.42c-9.69,0-17.58,7.89-17.58,17.58h-3c0-11.35,9.23-20.58,20.58-20.58h1.42Zm27.62,18.77c.54,8.82-2.9,17.29-9.41,23.25-2.44,2.23-3.84,5.45-3.84,8.84v8.68c0,3.32-2.47,6.07-5.66,6.53-.7,4.97-4.96,8.81-10.12,8.81s-9.43-3.84-10.12-8.81c-3.2-.46-5.66-3.21-5.66-6.53v-8.67c0-3.42-1.35-6.6-3.7-8.71-6.11-5.51-9.61-13.37-9.61-21.57s3.2-15.51,9.02-21.06c5.81-5.54,13.43-8.38,21.49-8,.9.04,1.8.14,2.7.27-.55.9-1.04,1.84-1.43,2.84-.47-.05-.94-.09-1.41-.11-7.22-.35-14.07,2.21-19.28,7.18-5.21,4.97-8.09,11.68-8.09,18.89s3.14,14.4,8.62,19.34c2.62,2.37,4.26,5.74,4.61,9.43h25.72c.36-3.67,2.04-7.09,4.74-9.55,5.83-5.32,8.9-12.89,8.44-20.77,1.01-.35,1.98-.78,2.9-1.29.03.34.07.69.09,1.03Zm-21.96,47.37h-14.15c.69,3.27,3.6,5.73,7.08,5.73s6.38-2.46,7.08-5.73Zm5.71-6.89h-25.57v.29c0,1.99,1.62,3.61,3.61,3.61h18.35c1.99,0,3.61-1.62,3.61-3.61v-.29Zm0-6.89h-25.57v3.89h25.57v-3.89Zm22.73-50.86c0,8.59-6.99,15.58-15.58,15.58s-15.58-6.99-15.58-15.58,6.99-15.59,15.58-15.59,15.58,6.99,15.58,15.59Zm-3,0c0-6.94-5.65-12.59-12.58-12.59s-12.58,5.65-12.58,12.59,5.65,12.58,12.58,12.58,12.58-5.65,12.58-12.58Zm-10.67-8.29h-3.84v6.43h-6.47v3.71h6.47v6.43h3.84v-6.43h6.47v-3.71h-6.47v-6.43Z"/>
</svg>