<?xml version="1.0" encoding="utf-8"?>
<!-- Generator: Adobe Illustrator 27.6.1, SVG Export Plug-In . SVG Version: 6.00 Build 0)  -->
<svg version="1.1" id="Layer_1" xmlns="http://www.w3.org/2000/svg" xmlns:xlink="http://www.w3.org/1999/xlink" x="0px" y="0px"
	 viewBox="0 0 128 128" style="enable-background:new 0 0 128 128;" xml:space="preserve">
<style type="text/css">
	.st0{fill:#0069B1;}
</style>
<g>
	<g>
		<g>
			<g>
				<g>
					<path class="st0" d="M76.4,98.9H50.3c-0.8,0-1.4-0.6-1.4-1.4c0-0.8,0.6-1.4,1.4-1.4h26.2c0.8,0,1.4,0.6,1.4,1.4
						C77.9,98.2,77.2,98.9,76.4,98.9z"/>
				</g>
				<g>
					<path class="st0" d="M76.4,104.2H50.3c-0.8,0-1.4-0.6-1.4-1.4c0-0.8,0.6-1.4,1.4-1.4h26.2c0.8,0,1.4,0.6,1.4,1.4
						C77.9,103.5,77.2,104.2,76.4,104.2z"/>
				</g>
				<g>
					<path class="st0" d="M63.4,111.2c-6.2,0-9.4-2.9-9.6-3l-4.5-4.4c-0.3-0.3-0.4-0.6-0.4-1V92.5c0-0.8,0.6-1.4,1.4-1.4
						c0.8,0,1.4,0.6,1.4,1.4v9.7l4.1,4c0.1,0,2.6,2.2,7.6,2.2s7.5-2.2,7.6-2.2l4-3.9v-9.7c0-0.8,0.6-1.4,1.4-1.4
						c0.8,0,1.4,0.6,1.4,1.4v10.3c0,0.4-0.2,0.8-0.4,1l-4.5,4.4C72.8,108.3,69.5,111.2,63.4,111.2z"/>
				</g>
				<g>
					<path class="st0" d="M86.6,71.7c-1,0-1.9-0.1-2.8-0.3c-1.2,2.2-2.9,4.7-5.4,7.6c-2.4,2.9-3,7.6-3.2,9.6c0,0.3-0.1,0.6-0.1,0.7
						c-0.1,0.5-0.1,1.1-0.1,1.7H51.8c0-0.6,0-1.3-0.1-1.7c0-0.1-0.1-0.4-0.1-0.7c-0.3-2-0.8-6.8-3.3-9.7c-9.1-10.1-8.2-17-8.2-17.1
						c0-0.1,0-0.2,0-0.2c0-12.8,10.4-23.2,23.2-23.3c3.9,0,7.4,1,10.6,2.7c0.5-0.8,1.2-1.6,2-2.2c-3.7-2.1-8-3.4-12.6-3.4
						c-14.4,0-26.1,11.7-26.1,26.1c-0.1,1.1-0.6,8.7,8.9,19.3c1.9,2.2,2.4,6.4,2.6,8.1c0.1,0.5,0.1,0.8,0.1,1c0.1,0.4,0.1,1.6,0,2.4
						c0,0.4,0.1,0.8,0.4,1.1c0.3,0.3,0.7,0.5,1.1,0.5h26.2c0.4,0,0.8-0.2,1.1-0.5c0.3-0.3,0.4-0.7,0.4-1.1c-0.1-0.9-0.1-2,0-2.4
						c0-0.2,0.1-0.5,0.1-1c0.2-1.8,0.7-5.9,2.6-8.1c3.1-3.4,5.1-6.5,6.4-9.2C86.8,71.6,86.7,71.7,86.6,71.7z"/>
				</g>
			</g>
			<g>
				<path class="st0" d="M47.1,63.4c-0.8,0-1.4-0.6-1.4-1.4c0-9.7,7.9-17.7,17.7-17.7c0.8,0,1.4,0.6,1.4,1.4c0,0.8-0.6,1.4-1.4,1.4
					c-8.1,0-14.8,6.6-14.8,14.8C48.6,62.8,47.9,63.4,47.1,63.4z"/>
			</g>
		</g>
		<g>
			<path class="st0" d="M64.3,30.7c-0.8,0-1.4-0.6-1.4-1.4v-11c0-0.8,0.6-1.4,1.4-1.4c0.8,0,1.4,0.6,1.4,1.4v11
				C65.8,30.1,65.1,30.7,64.3,30.7z"/>
		</g>
		<g>
			<path class="st0" d="M94,92.8c-0.4,0-0.7-0.1-1-0.4l-7.8-7.8c-0.6-0.6-0.6-1.5,0-2c0.6-0.6,1.5-0.6,2,0l7.8,7.8
				c0.6,0.6,0.6,1.5,0,2C94.8,92.7,94.4,92.8,94,92.8z"/>
		</g>
		<g>
			<path class="st0" d="M33.6,92.4c-0.4,0-0.7-0.1-1-0.4c-0.6-0.6-0.6-1.5,0-2l7.8-7.8c0.6-0.6,1.5-0.6,2,0c0.6,0.6,0.6,1.5,0,2
				L34.6,92C34.3,92.3,34,92.4,33.6,92.4z"/>
		</g>
		<g>
			<path class="st0" d="M32.3,62.1h-11c-0.8,0-1.4-0.6-1.4-1.4c0-0.8,0.6-1.4,1.4-1.4h11c0.8,0,1.4,0.6,1.4,1.4
				C33.8,61.5,33.1,62.1,32.3,62.1z"/>
		</g>
		<g>
			<path class="st0" d="M41.8,39.8c-0.4,0-0.7-0.1-1-0.4L33,31.6c-0.6-0.6-0.6-1.5,0-2c0.6-0.6,1.5-0.6,2,0l7.8,7.8
				c0.6,0.6,0.6,1.5,0,2C42.6,39.7,42.2,39.8,41.8,39.8z"/>
		</g>
	</g>
	<g>
		<g>
			<path class="st0" d="M88,73.4c-11.1,0-20.2-9-20.2-20.2s9-20.2,20.2-20.2c11.1,0,20.2,9,20.2,20.2S99.1,73.4,88,73.4z M88,35.9
				c-9.5,0-17.3,7.7-17.3,17.3c0,9.5,7.7,17.3,17.3,17.3c9.5,0,17.3-7.7,17.3-17.3C105.3,43.7,97.5,35.9,88,35.9z"/>
		</g>
		<g>
			<path class="st0" d="M88,63.4c-0.8,0-1.4-0.6-1.4-1.4V44.4c0-0.8,0.6-1.4,1.4-1.4c0.8,0,1.4,0.6,1.4,1.4V62
				C89.4,62.8,88.8,63.4,88,63.4z"/>
		</g>
		<g>
			<path class="st0" d="M96.8,54.6H79.2c-0.8,0-1.4-0.6-1.4-1.4c0-0.8,0.6-1.4,1.4-1.4h17.6c0.8,0,1.4,0.6,1.4,1.4
				C98.2,54,97.6,54.6,96.8,54.6z"/>
		</g>
	</g>
</g>
</svg>
