<?xml version="1.0" encoding="UTF-8"?>
<svg id="Layer_1" data-name="Layer 1" xmlns="http://www.w3.org/2000/svg" viewBox="0 0 128 128">
  <defs>
    <style>
      .cls-1 {
        fill: #0069b1;
      }
    </style>
  </defs>
  <path class="cls-1" d="m111.97,67.57v21.89h-24.35v-3h21.35v-18.89c0-5.63-4.58-10.21-10.21-10.21h-14.81c-2.98,0-5.77,1.33-7.69,3.53-1.05-.33-2.16-.55-3.29-.66,2.44-3.64,6.57-5.87,10.98-5.87h14.81c7.28,0,13.21,5.93,13.21,13.21Zm-29.28-27.66c0-6.1,1.47-10.16,8.66-10.16s8.66,4.06,8.66,10.16c0,6.9-3.81,12.3-8.66,12.3s-8.66-5.4-8.66-12.3Zm3,0c0,5.04,2.59,9.3,5.66,9.3s5.66-4.26,5.66-9.3c0-5.69-1.16-7.16-5.66-7.16s-5.66,1.47-5.66,7.16Zm-57.7,0c0-6.1,1.47-10.16,8.66-10.16s8.66,4.06,8.66,10.16c0,6.9-3.81,12.3-8.66,12.3s-8.66-5.4-8.66-12.3Zm3,0c0,5.04,2.59,9.3,5.66,9.3s5.66-4.26,5.66-9.3c0-5.69-1.16-7.16-5.66-7.16s-5.66,1.47-5.66,7.16Zm-11.95,27.66c0-5.63,4.58-10.21,10.21-10.21h14.81c3.01,0,5.79,1.32,7.7,3.53,1.05-.33,2.15-.55,3.28-.66-2.44-3.65-6.52-5.87-10.98-5.87h-14.81c-7.28,0-13.21,5.93-13.21,13.21v21.89h24.35v-3h-21.35v-18.89Zm65.58,8.79v21.89h-41.23v-21.89c0-7.28,5.93-13.21,13.21-13.21h14.81c7.28,0,13.21,5.93,13.21,13.21Zm-3,0c0-5.63-4.58-10.21-10.21-10.21h-5.91v2.7h-3v-2.7h-5.91c-5.63,0-10.21,4.58-10.21,10.21v18.89h35.23v-18.89Zm-26.28-27.66c0-6.1,1.47-10.16,8.66-10.16s8.66,4.06,8.66,10.16c0,6.9-3.81,12.31-8.66,12.31s-8.66-5.41-8.66-12.31Zm3,0c0,5.04,2.59,9.31,5.66,9.31s5.66-4.26,5.66-9.31c0-5.69-1.16-7.16-5.66-7.16s-5.66,1.47-5.66,7.16Zm4.16,42.01h3v-19.61h-3v19.61Z"/>
</svg>