<?xml version="1.0" encoding="UTF-8"?>
<svg id="Layer_1" data-name="Layer 1" xmlns="http://www.w3.org/2000/svg" viewBox="0 0 128 128">
  <defs>
    <style>
      .cls-1 {
        fill: #0069b1;
      }
    </style>
  </defs>
  <path class="cls-1" d="m96.12,75.16v-22.41c2.92-.68,5.1-3.3,5.1-6.42,0-3.64-2.96-6.6-6.6-6.6-1.9,0-3.6.81-4.81,2.09l-19.49-11.26c.18-.61.29-1.25.29-1.91,0-3.64-2.96-6.6-6.6-6.6s-6.6,2.96-6.6,6.6c0,.67.1,1.31.29,1.91l-19.49,11.26c-1.21-1.28-2.91-2.09-4.81-2.09-3.64,0-6.6,2.96-6.6,6.6,0,3.12,2.18,5.74,5.1,6.42v22.41c-2.92.68-5.1,3.3-5.1,6.42,0,3.64,2.96,6.6,6.6,6.6,1.86,0,3.55-.78,4.75-2.03l19.55,11.29c-.18.61-.29,1.25-.29,1.91,0,3.64,2.96,6.6,6.6,6.6s6.6-2.96,6.6-6.6c0-.67-.1-1.31-.29-1.92l19.55-11.29c1.2,1.25,2.88,2.03,4.75,2.03,3.64,0,6.6-2.96,6.6-6.6,0-3.12-2.18-5.74-5.1-6.42Zm-1.5-32.43c1.99,0,3.6,1.62,3.6,3.6s-1.62,3.6-3.6,3.6-3.6-1.62-3.6-3.6,1.62-3.6,3.6-3.6Zm-30.62-17.68c1.99,0,3.6,1.62,3.6,3.6s-1.62,3.6-3.6,3.6-3.6-1.62-3.6-3.6,1.62-3.6,3.6-3.6Zm-34.22,21.28c0-1.99,1.62-3.6,3.6-3.6s3.6,1.62,3.6,3.6-1.62,3.6-3.6,3.6-3.6-1.62-3.6-3.6Zm3.6,38.86c-1.99,0-3.6-1.62-3.6-3.6s1.62-3.6,3.6-3.6,3.6,1.62,3.6,3.6-1.62,3.6-3.6,3.6Zm30.62,17.78c-1.99,0-3.6-1.62-3.6-3.6s1.62-3.6,3.6-3.6,3.6,1.62,3.6,3.6-1.62,3.6-3.6,3.6Zm4.81-8.11c-.88-.93-2.02-1.61-3.31-1.91v-10.73h-3v10.73c-1.29.3-2.43.98-3.31,1.91l-19.52-11.27c.2-.63.31-1.3.31-2,0-3.12-2.18-5.74-5.1-6.42v-22.41c1.26-.3,2.39-.95,3.26-1.86l7.94,5.07,1.62-2.53-8.01-5.12c.2-.63.31-1.3.31-1.99s-.1-1.31-.29-1.91l19.49-11.26c1.21,1.28,2.91,2.09,4.81,2.09s3.6-.81,4.81-2.09l19.49,11.26c-.18.61-.29,1.25-.29,1.91s.11,1.36.31,1.99l-8.01,5.12,1.62,2.53,7.94-5.07c.87.91,1.99,1.56,3.26,1.86v22.41c-2.92.68-5.1,3.3-5.1,6.42,0,.7.11,1.37.31,2l-19.52,11.27Zm25.81-9.67c-1.99,0-3.6-1.62-3.6-3.6s1.62-3.6,3.6-3.6,3.6,1.62,3.6,3.6-1.62,3.6-3.6,3.6Z"/>
  <path class="cls-1" d="m51.67,59.24c-2.83,0-5.13,2.3-5.13,5.13s2.3,5.13,5.13,5.13c2.3,0,4.24-1.54,4.88-3.63h17.35v5.29h3v-5.29h1.55v5.29h3v-8.29h-24.9c-.65-2.09-2.58-3.63-4.88-3.63Zm0,7.26c-1.17,0-2.13-.96-2.13-2.13s.96-2.13,2.13-2.13,2.13.96,2.13,2.13-.96,2.13-2.13,2.13Z"/>
</svg>