<?xml version="1.0" encoding="UTF-8"?>
<svg id="Layer_1" data-name="Layer 1" xmlns="http://www.w3.org/2000/svg" viewBox="0 0 128 128">
  <defs>
    <style>
      .cls-1 {
        fill: #0069b1;
      }
    </style>
  </defs>
  <path class="cls-1" d="m100.2,76.8v-25.7c3.3-.7,5.8-3.6,5.8-7.1,0-4-3.3-7.3-7.3-7.3-2.1,0-4.1.9-5.4,2.4l-22.4-12.9c.2-.7.4-1.5.4-2.3,0-4-3.3-7.3-7.3-7.3s-7.3,3.3-7.3,7.3c0,.8.1,1.5.4,2.3l-22.4,12.9c-1.3-1.5-3.3-2.4-5.4-2.4-4,0-7.3,3.3-7.3,7.3,0,3.5,2.5,6.4,5.8,7.1v25.7c-3.3.7-5.8,3.6-5.8,7.1,0,4,3.3,7.3,7.3,7.3,2.1,0,4-.9,5.3-2.4l22.4,13c-.2.7-.4,1.5-.4,2.3,0,4,3.3,7.3,7.3,7.3s7.3-3.3,7.3-7.3c0-.8-.1-1.5-.4-2.3l22.4-13c1.3,1.4,3.2,2.4,5.3,2.4,4,0,7.3-3.3,7.3-7.3.2-3.5-2.3-6.4-5.6-7.1Zm-1.5-37.1c2.4,0,4.3,1.9,4.3,4.3s-1.9,4.3-4.3,4.3-4.3-1.9-4.3-4.3,1.9-4.3,4.3-4.3Zm-34.7-20.1c2.4,0,4.3,1.9,4.3,4.3s-1.9,4.3-4.3,4.3-4.3-1.9-4.3-4.3,1.9-4.3,4.3-4.3Zm-5.4,9.2c1.3,1.5,3.3,2.4,5.4,2.4s4.1-.9,5.4-2.4l22.4,12.9c-.2.7-.4,1.5-.4,2.3s.1,1.5.4,2.3l-22.4,12.8c-1.3-1.5-3.3-2.4-5.4-2.4s-4.1.9-5.4,2.4l-22.4-12.9c.2-.7.4-1.5.4-2.3s-.1-1.5-.4-2.3l22.4-12.8Zm5.4,39.5c-2.4,0-4.3-1.9-4.3-4.3s1.9-4.3,4.3-4.3,4.3,1.9,4.3,4.3-1.9,4.3-4.3,4.3Zm-39-24.3c0-2.4,1.9-4.3,4.3-4.3s4.3,1.9,4.3,4.3-1.9,4.3-4.3,4.3-4.3-2-4.3-4.3Zm4.3,44.2c-2.4,0-4.3-1.9-4.3-4.3s1.9-4.3,4.3-4.3,4.3,1.9,4.3,4.3-1.9,4.3-4.3,4.3Zm6.9-1.9c.3-.7.4-1.5.4-2.4,0-3.5-2.5-6.4-5.8-7.1v-25.7c1.5-.3,2.9-1.1,3.9-2.3l22.4,12.9c-.2.7-.4,1.5-.4,2.3,0,3.5,2.5,6.4,5.8,7.1v25.9c-1.5.3-2.9,1.1-3.9,2.3l-22.4-13Zm27.8,22.1c-2.4,0-4.3-1.9-4.3-4.3s1.9-4.3,4.3-4.3,4.3,1.9,4.3,4.3-1.9,4.3-4.3,4.3Zm5.4-9.2c-1-1.1-2.4-1.9-3.9-2.3v-25.8c3.3-.7,5.8-3.6,5.8-7.1,0-.8-.1-1.5-.4-2.3l22.4-12.9c1,1.1,2.4,1.9,3.9,2.3v25.7c-3.3.7-5.8,3.6-5.8,7.1,0,.8.1,1.6.4,2.4l-22.4,12.9Zm29.3-11c-2.4,0-4.3-1.9-4.3-4.3s1.9-4.3,4.3-4.3,4.3,1.9,4.3,4.3-1.9,4.3-4.3,4.3Z"/>
  <path class="cls-1" d="m56.5,87l3.5,2v-3.5l-3.5-2v-1.9l3.5,2v-3.5l-3.5-2v-1.9l3.5,2v-3.5l-3.5-2v-4.5l-3.6-2.1v-4l-2.5-1.5h-.5v3.8l-1.8-1v-4l-2.7-1.6h-.3v3.9l-1.8-1v-4l-2.4-1.4h-.6v3.7l-3.5-2v5l-3.5-2v3.5l3.5,2v1.9l-3.5-2v3.5l3.5,2v1.9l-3.5-2v3.5l3.5,2v3.5l3.6,2.1v4l3,1.7v-4l1.8,1v4l2.8,1.7h.2v-4l1.8,1v4l3,1.7h0v-4l3.6,2.1v-4.1h-.1Zm-3-1.2l-13.7-8v-15.7l13.7,7.9v15.8Z"/>
</svg>