<?xml version="1.0" encoding="UTF-8"?>
<svg id="Layer_1" data-name="Layer 1" xmlns="http://www.w3.org/2000/svg" viewBox="0 0 128 128">
  <defs>
    <style>
      .cls-1 {
        fill: #0069b1;
      }
    </style>
  </defs>
  <path class="cls-1" d="m81.2,22.1l-1.2,2.8c10.5,4.5,18.5,13.3,21.9,24.2l2.9-.9c-3.6-11.8-12.2-21.2-23.6-26.1Z"/>
  <path class="cls-1" d="m92.8,50.4l2.8-1.2c-2.8-6.8-7.9-12.7-14.2-16.7l-1.6,2.5c5.8,3.7,10.4,9.1,13,15.4Z"/>
  <path class="cls-1" d="m90,76.7v-13.1c0-13.3-8.9-25.4-21.4-29.1-.1-4.5-3.8-8.1-8.3-8.1s-8.2,3.6-8.3,8c-12.8,3.7-21.5,15.3-21.5,28.6v13.7c0,2.2-.9,4.2-2.4,5.8l-4.9,4.8v9.8h26.9c.7,5,5,8.8,10.2,8.8s9.4-3.8,10.2-8.8h26.9v-9.8l-4.9-4.8c-1.6-1.5-2.5-3.6-2.5-5.8Zm-29.8,26.2c-3.5,0-6.4-2.5-7.1-5.8h14.3c-.7,3.3-3.7,5.8-7.2,5.8Zm34.1-8.8H26.2v-5.5l4-3.9c2.1-2.1,3.3-4.9,3.3-7.9v-13.8c0-12.3,8.4-23,20.3-26l1.3-.3-.2-1.3v-.6c0-2.9,2.4-5.3,5.3-5.3s5.3,2.4,5.3,5.3v.7l-.2,1.3,1.3.3c11.8,3,20.4,14.1,20.4,26.5v13.1c0,3,1.2,5.8,3.3,7.9l4,3.9v5.6Z"/>
  <path class="cls-1" d="m37.2,57l2.9.7c1.3-5,4.4-9.3,8.7-12.2l-1.6-2.5c-5,3.3-8.5,8.2-10,14Z"/>
</svg>