<?xml version="1.0" encoding="UTF-8"?>
<svg id="Layer_1" data-name="Layer 1" xmlns="http://www.w3.org/2000/svg" viewBox="0 0 128 128">
  <defs>
    <style>
      .cls-1 {
        fill: #0060a8;
      }
    </style>
  </defs>
  <path class="cls-1" d="m71.6,103.9h-15.5l-1.1-7.5c-2.6-.7-5.2-1.8-7.8-3.2l-6.2,4.6-11-11,4.6-6.2c-1.4-2.6-2.5-5.1-3.2-7.8l-7.5-1.1v-15.5l7.7-1.1c.7-2.6,1.8-5.2,3.2-7.8l-4.6-6.2,11-11,6.2,4.6c2.6-1.4,5.1-2.5,7.8-3.2l1.1-7.5h15.4l1.1,7.5c2.6.7,5.2,1.8,7.8,3.2l6.2-4.6,11,11-4.6,6.2c1.4,2.6,2.5,5.1,3.2,7.8l7.5,1.1v15.6l-7.6,1c-.7,2.6-1.8,5.2-3.2,7.7l4.6,6.2-11,11-6.2-4.6c-2.6,1.4-5.1,2.5-7.8,3.2l-1.1,7.6Zm-12.9-3h10.3l1.1-6.9,1-.2c3-.7,5.9-1.9,8.8-3.6l.9-.5,5.7,4.2,7.4-7.4-4.2-5.7.5-.9c1.7-2.9,2.9-5.8,3.6-8.8l.2-1,7-1v-10.3l-7-1.1-.2-1c-.7-3-1.9-5.8-3.6-8.8l-.5-.9,4.2-5.7-7.4-7.4-5.7,4.2-.9-.5c-2.9-1.7-5.8-2.9-8.8-3.6l-1-.2-1-6.8h-10.2l-1.1,6.9-1,.2c-3,.7-5.8,1.9-8.8,3.6l-.9.5-5.7-4.2-7.4,7.4,4.2,5.7-.3.9c-1.7,2.9-2.9,5.8-3.6,8.8l-.2,1-7.1,1.1v10.3l6.9,1.1.2,1c.7,3,1.9,5.8,3.6,8.8l.5.9-4.2,5.5,7.4,7.4,5.7-4.2.9.5c2.9,1.7,5.8,2.9,8.8,3.6l1,.2.9,6.9Zm14.7-43.1l3-5.3c.3-.2,0-.5-.2-.7l-.2-.2c-.2-.3-.5,0-.7.2l-3.1,5.4c-2.5-1.2-5.4-2-8.3-2s-5.5.6-7.9,1.7l-3-5.2c0-.2-.5-.4-.7-.2l-.2.2c-.2,0-.4.5-.2.7l2.9,5.1c-5.1,2.8-8.7,7.8-9.8,13.8,0,.7.7,1.2,1.6,1.2h34.6c.7,0,1.6-.2,1.8-1.2-.6-5.3-4.4-10.5-9.6-13.5Zm-18.1,8.3c-.9,0-1.6-.7-1.6-1.6s.7-1.6,1.6-1.6,1.6.7,1.6,1.6c.1.9-.6,1.6-1.6,1.6Zm17.6,0c-.9,0-1.6-.7-1.6-1.6s.7-1.6,1.6-1.6,1.6.7,1.6,1.6-.7,1.6-1.6,1.6Z"/>
</svg>