<?xml version="1.0" encoding="UTF-8"?>
<svg id="Layer_1" data-name="Layer 1" xmlns="http://www.w3.org/2000/svg" viewBox="0 0 128 128">
  <defs>
    <style>
      .cls-1 {
        fill: #0069b1;
      }
    </style>
  </defs>
  <path class="cls-1" d="m104.5,68.61s0-.02,0-.03h0c-.02-11.22-4.69-21.97-12.86-29.67,1.42-2.53,2.45-5.39,2.45-8.4,0-6.48-5.27-11.75-11.75-11.75-5.77,0-10.57,4.18-11.56,9.67-2.3-.4-4.65-.61-7-.61-22.45,0-40.71,18.28-40.71,40.75s18.26,40.71,40.71,40.71,40.68-18.23,40.71-40.65h0s0-.02,0-.03Zm-3.04-1.56h-14.68c-.12-6.73-1.02-12.89-2.68-18.34,3.74-2.06,5.97-4.39,7.16-5.94,6.18,6.6,9.82,15.23,10.2,24.28Zm-54.29,22.86c3.63-1.58,8.55-2.83,15.12-2.99v19.33c-1.16-.05-2.31-.15-3.44-.3-1.42-.85-7.69-5.14-11.68-16.04Zm5.25,14.62c-5.24-1.66-9.99-4.43-13.96-8.05.84-1.18,2.65-3.26,5.97-5.19,2.33,6.28,5.39,10.51,8,13.23Zm-18.89-51.57c0-4.83,3.93-8.75,8.75-8.75s8.75,3.93,8.75,8.75c0,6.56-6.34,12.77-8.75,14.9-2.42-2.13-8.75-8.33-8.75-14.9Zm3.64,14.09h-11.06c.24-6.11,1.94-11.85,4.76-16.88-.22.9-.35,1.83-.35,2.79,0,5.61,3.59,10.74,6.64,14.09Zm21.77-35.91c1.1-.14,2.22-.24,3.35-.28v19.31c-3.19-.08-6.17-.43-8.91-1.03-.84-2.44-2.45-4.52-4.55-5.93,3.98-8.18,9.06-11.46,10.11-12.07Zm21.07,16.22c-3.59,1.5-8.39,2.66-14.72,2.82v-19.33c1.79.07,3.58.27,5.33.59.5,7.15,6.58,13.38,9.39,15.91Zm-26.01,4.98c2.59.49,5.37.76,8.29.83v13.88h-14.9c3.05-3.35,6.65-8.48,6.65-14.09,0-.21-.02-.41-.03-.62Zm11.29.85c6.86-.17,12.11-1.46,16.07-3.15,1.49,5.06,2.3,10.76,2.41,17.01h-18.48v-13.86Zm-20.95,16.86h17.95v13.87c-6.86.17-12.11,1.45-16.07,3.14-1.33-4.5-2.26-9.97-2.41-16.56.15-.13.33-.28.53-.45Zm38.46,16.81c0,6.56-6.34,12.77-8.75,14.9-2.42-2.13-8.75-8.33-8.75-14.9,0-4.83,3.93-8.75,8.75-8.75s8.75,3.93,8.75,8.75Zm-17.51,9.32c2.09,3.37,4.78,6.05,6.41,7.52-1.37,1.25-2.46,1.97-2.96,2.27-1.13.15-2.28.25-3.44.3v-10.08Zm19.43-3.84c2.31,1.61,3.68,3.2,4.39,4.16-3.86,3.5-8.45,6.21-13.51,7.89,1.8-1.52,6.89-6.18,9.13-12.05Zm-10.68-17.23c-3.48,0-6.6,1.53-8.75,3.94v-8.99h18.47c-.06,3.23-.3,6.32-.72,9.25-2.16-2.56-5.39-4.2-8.99-4.2Zm8.29-53.34c4.83,0,8.75,3.93,8.75,8.75,0,6.57-6.34,12.77-8.76,14.9-2.42-2.12-8.75-8.32-8.75-14.9,0-4.83,3.93-8.75,8.75-8.75Zm-29.82,10.78c-2.03,2.11-4.33,5.14-6.37,9.33-1.21-.43-2.51-.67-3.87-.67-2.27,0-4.39.66-6.2,1.78,4.42-4.8,10.07-8.45,16.43-10.45Zm-26.41,37.51h14.11c.23.2.42.37.59.51.16,7.13,1.17,13.03,2.64,17.86-3.73,2.07-5.96,4.39-7.15,5.94-6.02-6.41-9.83-14.93-10.19-24.31Zm65.15,24.32c-1.02-1.33-2.82-3.24-5.69-5.07.14-.8.23-1.62.23-2.45,0-1.14-.17-2.23-.47-3.27.88-4.17,1.35-8.72,1.43-13.53h14.7c-.36,9.39-4.17,17.9-10.2,24.32Z"/>
  <path class="cls-1" d="m88.54,31.12c0-3.42-2.78-6.2-6.2-6.2s-6.2,2.78-6.2,6.2,2.78,6.2,6.2,6.2,6.2-2.78,6.2-6.2Zm-9.39,0c0-1.76,1.43-3.2,3.2-3.2s3.2,1.43,3.2,3.2-1.43,3.2-3.2,3.2-3.2-1.43-3.2-3.2Z"/>
  <path class="cls-1" d="m48.48,53.57c0-3.42-2.78-6.2-6.2-6.2s-6.2,2.78-6.2,6.2,2.78,6.2,6.2,6.2,6.2-2.78,6.2-6.2Zm-9.39,0c0-1.76,1.43-3.2,3.2-3.2s3.2,1.43,3.2,3.2-1.43,3.2-3.2,3.2-3.2-1.43-3.2-3.2Z"/>
  <path class="cls-1" d="m74.05,81.27c-3.42,0-6.2,2.78-6.2,6.2s2.78,6.2,6.2,6.2,6.2-2.78,6.2-6.2-2.78-6.2-6.2-6.2Zm0,9.39c-1.76,0-3.2-1.43-3.2-3.2s1.43-3.2,3.2-3.2,3.2,1.43,3.2,3.2-1.43,3.2-3.2,3.2Z"/>
</svg>