<?xml version="1.0" encoding="UTF-8"?>
<svg id="Layer_1" data-name="Layer 1" xmlns="http://www.w3.org/2000/svg" viewBox="0 0 128 128">
  <defs>
    <style>
      .cls-1 {
        fill: #0069b1;
      }
    </style>
  </defs>
  <path class="cls-1" d="m64,54.3c-5.35,0-9.7,4.35-9.7,9.7s4.35,9.7,9.7,9.7,9.7-4.35,9.7-9.7-4.35-9.7-9.7-9.7Zm0,16.4c-3.7,0-6.7-3.01-6.7-6.7s3.01-6.7,6.7-6.7,6.7,3.01,6.7,6.7-3.01,6.7-6.7,6.7Z"/>
  <path class="cls-1" d="m80.72,69.09l3.93-.59v-9.01l-3.93-.58c-.33-1.08-.77-2.13-1.3-3.13l2.37-3.19-6.37-6.37-3.19,2.37c-1-.54-2.05-.97-3.13-1.3l-.58-3.93h-9.01l-.58,3.93c-1.08.33-2.13.76-3.13,1.3l-3.19-2.37-6.37,6.37,2.37,3.19c-.54,1-.97,2.05-1.3,3.13l-3.93.58v9.01l3.93.59c.33,1.08.76,2.13,1.3,3.13l-2.37,3.2,6.37,6.37,3.19-2.37c1,.54,2.05.97,3.13,1.3l.58,3.93h9.01l.58-3.93c1.08-.33,2.13-.76,3.13-1.3l3.19,2.37,6.37-6.37-2.37-3.2c.53-1,.97-2.05,1.3-3.13Zm-2.65-1.69c-.35,1.46-.93,2.86-1.72,4.15l-.53.86,2.01,2.72-2.71,2.71-2.72-2.01-.86.53c-1.29.79-2.68,1.37-4.15,1.72l-.98.24-.5,3.34h-3.83l-.5-3.34-.98-.24c-1.46-.35-2.86-.93-4.15-1.72l-.86-.53-2.72,2.01-2.71-2.71,2.01-2.72-.53-.86c-.79-1.29-1.37-2.68-1.72-4.15l-.24-.98-3.34-.5v-3.83l3.34-.5.24-.98c.35-1.46.93-2.86,1.72-4.15l.53-.86-2.01-2.72,2.71-2.71,2.72,2.01.86-.53c1.29-.79,2.68-1.37,4.15-1.72l.98-.24.5-3.34h3.83l.5,3.34.98.24c1.46.35,2.86.93,4.15,1.72l.86.53,2.72-2.01,2.71,2.71-2.01,2.72.53.86c.79,1.29,1.37,2.68,1.72,4.15l.24.98,3.34.5v3.83l-3.34.5-.24.98Z"/>
  <polygon class="cls-1" points="101.06 98.94 88.2 86.07 96.09 86.07 96.09 83.07 83.07 83.07 83.07 96.09 86.07 96.09 86.07 88.19 98.94 101.06 101.06 98.94"/>
  <polygon class="cls-1" points="31.91 41.93 31.91 44.93 44.93 44.93 44.93 31.91 41.93 31.91 41.93 39.81 29.06 26.94 26.94 29.06 39.8 41.93 31.91 41.93"/>
  <polygon class="cls-1" points="31.9 86.07 39.81 86.07 26.94 98.94 29.06 101.06 41.93 88.2 41.93 96.09 44.93 96.09 44.93 83.07 31.9 83.07 31.9 86.07"/>
  <polygon class="cls-1" points="96.09 41.93 88.19 41.93 101.06 29.06 98.94 26.94 86.07 39.8 86.07 31.91 83.07 31.91 83.07 44.93 96.09 44.93 96.09 41.93"/>
</svg>