<?xml version="1.0" encoding="utf-8"?>
<!-- Generator: Adobe Illustrator 27.6.1, SVG Export Plug-In . SVG Version: 6.00 Build 0)  -->
<svg version="1.1" id="Layer_1" xmlns="http://www.w3.org/2000/svg" xmlns:xlink="http://www.w3.org/1999/xlink" x="0px" y="0px"
	 viewBox="0 0 128 128" style="enable-background:new 0 0 128 128;" xml:space="preserve">
<style type="text/css">
	.st0{fill:#0069B1;}
</style>
<g>
	<g>
		<g>
			<path class="st0" d="M42.8,39.3c-2.8,0-5.1-2.3-5.1-5.1c0-2.8,2.3-5.1,5.1-5.1c2.8,0,5.1,2.3,5.1,5.1
				C47.9,37,45.6,39.3,42.8,39.3z M42.8,31.4c-1.5,0-2.8,1.3-2.8,2.8c0,1.5,1.3,2.8,2.8,2.8c1.5,0,2.8-1.3,2.8-2.8
				C45.6,32.7,44.4,31.4,42.8,31.4z"/>
		</g>
		<g>
			<g>
				<path class="st0" d="M81.2,94.9H64c-0.6,0-1.1-0.5-1.1-1.1V35.3H46.8c-0.6,0-1.1-0.5-1.1-1.1c0-0.6,0.5-1.1,1.1-1.1H64
					c0.6,0,1.1,0.5,1.1,1.1v58.5h16.1c0.6,0,1.1,0.5,1.1,1.1C82.4,94.4,81.9,94.9,81.2,94.9z"/>
			</g>
			<g>
				<path class="st0" d="M85.2,98.9c-2.8,0-5.1-2.3-5.1-5.1c0-2.8,2.3-5.1,5.1-5.1c2.8,0,5.1,2.3,5.1,5.1
					C90.3,96.6,88,98.9,85.2,98.9z M85.2,91c-1.5,0-2.8,1.3-2.8,2.8c0,1.5,1.3,2.8,2.8,2.8c1.5,0,2.8-1.3,2.8-2.8
					C88,92.3,86.7,91,85.2,91z"/>
			</g>
		</g>
	</g>
	<g>
		<g>
			<path class="st0" d="M40.9,96.8c-2.8,0-5.1-2.3-5.1-5.1c0-2.8,2.3-5.1,5.1-5.1c2.8,0,5.1,2.3,5.1,5.1
				C46,94.6,43.7,96.8,40.9,96.8z M40.9,89c-1.5,0-2.8,1.3-2.8,2.8c0,1.5,1.3,2.8,2.8,2.8c1.5,0,2.8-1.3,2.8-2.8
				C43.7,90.2,42.4,89,40.9,89z"/>
		</g>
		<g>
			<path class="st0" d="M59.4,92.9H44.8c-0.6,0-1.1-0.5-1.1-1.1c0-0.6,0.5-1.1,1.1-1.1h13.5V43.4H34.6c-0.6,0-1.1-0.5-1.1-1.1
				s0.5-1.1,1.1-1.1h24.9c0.6,0,1.1,0.5,1.1,1.1v49.5C60.6,92.4,60.1,92.9,59.4,92.9z"/>
		</g>
	</g>
	<g>
		<g>
			<path class="st0" d="M87.1,40.5c-2.8,0-5.1-2.3-5.1-5.1c0-2.8,2.3-5.1,5.1-5.1c2.8,0,5.1,2.3,5.1,5.1
				C92.2,38.3,89.9,40.5,87.1,40.5z M87.1,32.6c-1.5,0-2.8,1.3-2.8,2.8c0,1.5,1.3,2.8,2.8,2.8c1.5,0,2.8-1.3,2.8-2.8
				C89.9,33.9,88.7,32.6,87.1,32.6z"/>
		</g>
		<g>
			<path class="st0" d="M93.4,86.1H68.6c-0.6,0-1.1-0.5-1.1-1.1V35.5c0-0.6,0.5-1.1,1.1-1.1h14.6c0.6,0,1.1,0.5,1.1,1.1
				s-0.5,1.1-1.1,1.1H69.7v47.2h23.8c0.6,0,1.1,0.5,1.1,1.1C94.6,85.6,94.1,86.1,93.4,86.1z"/>
		</g>
	</g>
	<g>
		<path class="st0" d="M54.2,82.4H34.6c-0.6,0-1.1-0.5-1.1-1.1c0-0.6,0.5-1.1,1.1-1.1h18.5V52.9H25c-0.6,0-1.1-0.5-1.1-1.1
			c0-0.6,0.5-1.1,1.1-1.1h29.2c0.6,0,1.1,0.5,1.1,1.1v29.5C55.3,81.9,54.8,82.4,54.2,82.4z"/>
	</g>
	<g>
		<path class="st0" d="M103,76.6H73.8c-0.6,0-1.1-0.5-1.1-1.1V45.9c0-0.6,0.5-1.1,1.1-1.1h19.6c0.6,0,1.1,0.5,1.1,1.1
			c0,0.6-0.5,1.1-1.1,1.1H74.9v27.3H103c0.6,0,1.1,0.5,1.1,1.1C104.2,76.1,103.7,76.6,103,76.6z"/>
	</g>
	<g>
		<path class="st0" d="M30.6,86.4c-2.8,0-5.1-2.3-5.1-5.1c0-2.8,2.3-5.1,5.1-5.1c2.8,0,5.1,2.3,5.1,5.1
			C35.7,84.1,33.4,86.4,30.6,86.4z M30.6,78.5c-1.5,0-2.8,1.3-2.8,2.8c0,1.5,1.3,2.8,2.8,2.8c1.5,0,2.8-1.3,2.8-2.8
			C33.4,79.8,32.2,78.5,30.6,78.5z"/>
	</g>
	<g>
		<path class="st0" d="M97.4,51c-2.8,0-5.1-2.3-5.1-5.1c0-2.8,2.3-5.1,5.1-5.1c2.8,0,5.1,2.3,5.1,5.1C102.5,48.7,100.2,51,97.4,51z
			 M97.4,43.1c-1.5,0-2.8,1.3-2.8,2.8c0,1.5,1.3,2.8,2.8,2.8c1.5,0,2.8-1.3,2.8-2.8C100.2,44.4,98.9,43.1,97.4,43.1z"/>
	</g>
	<g>
		<path class="st0" d="M40,75.7c-2.8,0-5.1-2.3-5.1-5.1c0-2.8,2.3-5.1,5.1-5.1s5.1,2.3,5.1,5.1C45,73.4,42.8,75.7,40,75.7z M40,67.8
			c-1.5,0-2.8,1.3-2.8,2.8c0,1.5,1.3,2.8,2.8,2.8c1.5,0,2.8-1.3,2.8-2.8C42.8,69.1,41.5,67.8,40,67.8z"/>
	</g>
	<g>
		<path class="st0" d="M88,61.7c-2.8,0-5.1-2.3-5.1-5.1c0-2.8,2.3-5.1,5.1-5.1c2.8,0,5.1,2.3,5.1,5.1C93.1,59.4,90.8,61.7,88,61.7z
			 M88,53.8c-1.5,0-2.8,1.3-2.8,2.8c0,1.5,1.3,2.8,2.8,2.8c1.5,0,2.8-1.3,2.8-2.8C90.8,55.1,89.6,53.8,88,53.8z"/>
	</g>
	<g>
		<path class="st0" d="M30.6,47.4c-2.8,0-5.1-2.3-5.1-5.1c0-2.8,2.3-5.1,5.1-5.1c2.8,0,5.1,2.3,5.1,5.1
			C35.7,45.1,33.4,47.4,30.6,47.4z M30.6,39.5c-1.5,0-2.8,1.3-2.8,2.8c0,1.5,1.3,2.8,2.8,2.8c1.5,0,2.8-1.3,2.8-2.8
			C33.4,40.7,32.2,39.5,30.6,39.5z"/>
	</g>
	<g>
		<path class="st0" d="M97.4,90c-2.8,0-5.1-2.3-5.1-5.1c0-2.8,2.3-5.1,5.1-5.1c2.8,0,5.1,2.3,5.1,5.1C102.5,87.7,100.2,90,97.4,90z
			 M97.4,82.1c-1.5,0-2.8,1.3-2.8,2.8c0,1.5,1.3,2.8,2.8,2.8c1.5,0,2.8-1.3,2.8-2.8C100.2,83.4,98.9,82.1,97.4,82.1z"/>
	</g>
	<g>
		<path class="st0" d="M21,56.8c-2.8,0-5.1-2.3-5.1-5.1c0-2.8,2.3-5.1,5.1-5.1c2.8,0,5.1,2.3,5.1,5.1C26.1,54.6,23.8,56.8,21,56.8z
			 M21,49c-1.5,0-2.8,1.3-2.8,2.8c0,1.5,1.3,2.8,2.8,2.8c1.5,0,2.8-1.3,2.8-2.8C23.8,50.2,22.6,49,21,49z"/>
	</g>
	<g>
		<path class="st0" d="M107,80.5c-2.8,0-5.1-2.3-5.1-5.1c0-2.8,2.3-5.1,5.1-5.1c2.8,0,5.1,2.3,5.1,5.1
			C112.1,78.3,109.8,80.5,107,80.5z M107,72.7c-1.5,0-2.8,1.3-2.8,2.8c0,1.5,1.3,2.8,2.8,2.8c1.5,0,2.8-1.3,2.8-2.8
			C109.8,73.9,108.5,72.7,107,72.7z"/>
	</g>
	<g>
		<path class="st0" d="M30.6,66c-2.8,0-5.1-2.3-5.1-5.1c0-2.8,2.3-5.1,5.1-5.1c2.8,0,5.1,2.3,5.1,5.1C35.7,63.7,33.4,66,30.6,66z
			 M30.6,58.1c-1.5,0-2.8,1.3-2.8,2.8c0,1.5,1.3,2.8,2.8,2.8c1.5,0,2.8-1.3,2.8-2.8C33.4,59.4,32.2,58.1,30.6,58.1z"/>
	</g>
	<g>
		<path class="st0" d="M97.4,71.4c-2.8,0-5.1-2.3-5.1-5.1c0-2.8,2.3-5.1,5.1-5.1c2.8,0,5.1,2.3,5.1,5.1
			C102.5,69.1,100.2,71.4,97.4,71.4z M97.4,63.5c-1.5,0-2.8,1.3-2.8,2.8c0,1.5,1.3,2.8,2.8,2.8c1.5,0,2.8-1.3,2.8-2.8
			C100.2,64.7,98.9,63.5,97.4,63.5z"/>
	</g>
	<g>
		<path class="st0" d="M49.6,71.8h-5.7c-0.6,0-1.1-0.5-1.1-1.1c0-0.6,0.5-1.1,1.1-1.1h4.5v-7.4H34.6c-0.6,0-1.1-0.5-1.1-1.1
			s0.5-1.1,1.1-1.1h15c0.6,0,1.1,0.5,1.1,1.1v9.7C50.7,71.2,50.2,71.8,49.6,71.8z"/>
	</g>
	<g>
		<path class="st0" d="M93.4,67.4h-15c-0.6,0-1.1-0.5-1.1-1.1v-9.7c0-0.6,0.5-1.1,1.1-1.1h5.7c0.6,0,1.1,0.5,1.1,1.1
			s-0.5,1.1-1.1,1.1h-4.5v7.4h13.9c0.6,0,1.1,0.5,1.1,1.1C94.6,66.9,94.1,67.4,93.4,67.4z"/>
	</g>
</g>
</svg>
