<?xml version="1.0" encoding="UTF-8"?>
<svg id="Layer_1" data-name="Layer 1" xmlns="http://www.w3.org/2000/svg" viewBox="0 0 128 128">
  <defs>
    <style>
      .cls-1 {
        fill: #0069b1;
      }
    </style>
  </defs>
  <path class="cls-1" d="m77.5,29.2h-2.8v-14.83c0-2.46-2-4.47-4.47-4.47h-23.63c-2.46,0-4.47,2-4.47,4.47v7.85h5.94v6.98h-2.91c-3.84,0-6.97,3.13-6.97,6.97v74.95c0,3.84,3.13,6.97,6.97,6.97h32.34c3.85,0,6.97-3.13,6.97-6.97V36.17c0-3.84-3.13-6.97-6.97-6.97Zm-32.37-14.82c0-.81.66-1.47,1.47-1.47s1.47.66,1.47,1.47v4.85h-2.94v-4.85Zm5.94,7.85v-7.85c0-.52-.11-1.01-.27-1.47h19.43c.81,0,1.47.66,1.47,1.47v14.83h-20.63v-6.98Zm-5.91,9.98h32.34c2.19,0,3.97,1.78,3.97,3.97v7.08h-40.29v-7.08c0-2.19,1.78-3.97,3.97-3.97Zm32.34,82.9h-32.34c-2.19,0-3.97-1.78-3.97-3.97V46.25h40.29v64.87c0,2.19-1.78,3.97-3.97,3.97Z"/>
  <rect class="cls-1" x="57.03" y="37.79" width="8.59" height="3"/>
  <path class="cls-1" d="m44.55,105.21h33.56v-54.12h-33.56v54.12Zm3-51.12h27.56v48.12h-27.56v-48.12Z"/>
  <rect class="cls-1" x="86.82" y="45.19" width="3" height="45.46"/>
  <path class="cls-1" d="m61.33,67.12c-6.08,0-11.03,4.95-11.03,11.02s4.95,11.03,11.03,11.03,11.02-4.95,11.02-11.03-4.95-11.02-11.02-11.02Zm0,19.05c-4.42,0-8.03-3.6-8.03-8.03s3.6-8.02,8.03-8.02,8.02,3.6,8.02,8.02-3.6,8.03-8.02,8.03Z"/>
  <polygon class="cls-1" points="58.8 80.11 56.74 78.05 54.62 80.18 58.8 84.36 68.04 75.12 65.92 73 58.8 80.11"/>
</svg>