<?xml version="1.0" encoding="UTF-8"?>
<svg id="Layer_1" data-name="Layer 1" xmlns="http://www.w3.org/2000/svg" viewBox="0 0 128 128">
  <defs>
    <style>
      .cls-1 {
        fill: #0069b1;
      }
    </style>
  </defs>
  <polygon class="cls-1" points="19.2 26.2 19.2 101.8 22.2 101.8 22.2 29.2 105.8 29.2 105.8 101.8 108.8 101.8 108.8 26.2 19.2 26.2"/>
  <path class="cls-1" d="m33.7,94.1h3v-5.3h4.3v12.5h46v-12.5h4.3v5.3h3v-8.3h-60.6v8.3Zm10.3.2c1.9.6,3.3,2.1,3.7,4h-3.7v-4Zm36.6,4c.6-1.5,1.9-2.6,3.4-3.1v3.1h-3.4Zm3.4-6.2c-3.2.6-5.8,3-6.6,6.2h-26.7c-.5-3.6-3.2-6.5-6.7-7.1v-2.4h11.8c.4,4.2,4,7.4,8.3,7.4s7.8-3.3,8.3-7.4h11.6v3.3Zm-25.2-3.3h10.4c-.4,2.5-2.6,4.4-5.2,4.4s-4.8-1.9-5.2-4.4Z"/>
  <path class="cls-1" d="m33.7,41.6v31.8h53.3v-31.8h-53.3Zm50.3,28.8h-47.3v-25.8h47.3v25.8Z"/>
  <rect class="cls-1" x="91.2" y="41.3" width="3.6" height="3.6"/>
  <rect class="cls-1" x="91.2" y="50.9" width="3.6" height="3.6"/>
  <rect class="cls-1" x="91.2" y="60.5" width="3.6" height="3.6"/>
  <rect class="cls-1" x="91.2" y="70.1" width="3.6" height="3.6"/>
  <rect class="cls-1" x="53.2" y="50" width="16.4" height="3"/>
  <rect class="cls-1" x="53.2" y="57.2" width="23.6" height="3"/>
  <path class="cls-1" d="m43,57.5l-.9,1.3c1,.8,2.1,1.3,3.4,1.4v1.4h1.2v-1.4c1.8-.2,3-1.2,3-2.8,0-1.5-.9-2.4-3.1-3v-2.7c.7.1,1.3.4,1.9.9l.8-1.3c-.8-.6-1.6-1-2.7-1.1v-.9h-1.2v.8c-1.8.1-3,1.2-3,2.7,0,1.6,1,2.4,3.1,2.9v2.8c-.9,0-1.7-.4-2.5-1Zm3.6-1.3c1.1.3,1.4.7,1.4,1.4s-.5,1.2-1.4,1.2v-2.6Zm-2.5-3.3c0-.6.5-1.1,1.4-1.2v2.5c-1.1-.4-1.4-.7-1.4-1.3Z"/>
</svg>