<?xml version="1.0" encoding="UTF-8"?>
<svg id="Layer_1" data-name="Layer 1" xmlns="http://www.w3.org/2000/svg" viewBox="0 0 128 128">
  <defs>
    <style>
      .cls-1 {
        fill: #0069b1;
      }
    </style>
  </defs>
  <path class="cls-1" d="m85.67,78.84l-2.76,2.76-5.61-5.61c5.39-5.52,8.72-13.06,8.72-21.36,0-16.87-13.73-30.6-30.6-30.6s-30.6,13.73-30.6,30.6,13.73,30.6,30.6,30.6c7.49,0,14.35-2.71,19.67-7.19l5.69,5.69-2.76,2.76,18.12,18.12,7.64-7.64-18.12-18.12Zm-57.84-24.22c0-15.22,12.38-27.6,27.6-27.6s27.6,12.38,27.6,27.6-12.38,27.6-27.6,27.6-27.6-12.38-27.6-27.6Zm54.44,31.85l3.39-3.39,13.88,13.88-3.39,3.39-13.87-13.88Z"/>
  <polygon class="cls-1" points="80.27 54.33 67 54.33 59.78 33.47 50.87 64.69 44.34 42.49 38.19 54.33 31.24 54.33 31.24 57.33 40.01 57.33 43.57 50.49 50.92 75.47 60.05 43.44 64.86 57.33 80.27 57.33 80.27 54.33"/>
</svg>