<?xml version="1.0" encoding="UTF-8"?>
<svg id="Layer_1" data-name="Layer 1" xmlns="http://www.w3.org/2000/svg" viewBox="0 0 128 128">
  <defs>
    <style>
      .cls-1 {
        fill: #0069b1;
      }
    </style>
  </defs>
  <path class="cls-1" d="m63.95,38.32c-14.2,0-25.7,11.5-25.7,25.7s11.5,25.7,25.7,25.7,25.7-11.5,25.7-25.7-11.5-25.7-25.7-25.7Zm0,48.4c-12.5,0-22.7-10.2-22.7-22.7s10.2-22.7,22.7-22.7,22.7,10.2,22.7,22.7-10.2,22.7-22.7,22.7Z"/>
  <path class="cls-1" d="m56.35,28.62c18.2-3.9,36.3,6.7,42,24.1l-5.4-3.5-1.6,2.5,10,6.4,6.4-10-2.5-1.6-3.8,5.8c-5.9-19.2-25.7-31-45.7-26.8-18.3,3.9-31.3,20.3-31,38.9l3-.1c-.3-17,11.7-32.1,28.6-35.7Z"/>
  <path class="cls-1" d="m71.55,99.42c-9.5,2-19.1.3-27.2-5-7-4.6-12.2-11.2-14.7-19.1l5.4,3.5,1.6-2.5-10-6.4-6.4,10,2.5,1.6,3.8-5.8c2.7,8.8,8.3,16.3,16.2,21.3,6.4,4.2,13.7,6.3,21.2,6.3,2.8,0,5.5-.3,8.3-.9,18.3-3.9,31.3-20.3,31-38.9l-3,.1c.2,17-11.8,32.2-28.7,35.8Z"/>
  <polygon class="cls-1" points="57.55 72.52 50.75 65.72 48.65 67.82 57.55 76.72 79.25 55.02 77.15 52.92 57.55 72.52"/>
</svg>