<?xml version="1.0" encoding="UTF-8"?>
<svg id="Layer_1" data-name="Layer 1" xmlns="http://www.w3.org/2000/svg" viewBox="0 0 128 128">
  <defs>
    <style>
      .cls-1 {
        fill: #0069b1;
      }
    </style>
  </defs>
  <path class="cls-1" d="m52.34,50.39c-7.73,0-14.02,6.29-14.02,14.02s6.29,14.02,14.02,14.02,14.02-6.29,14.02-14.02-6.29-14.02-14.02-14.02Zm0,25.05c-6.08,0-11.02-4.95-11.02-11.02s4.95-11.02,11.02-11.02,11.02,4.95,11.02,11.02-4.95,11.02-11.02,11.02Z"/>
  <polygon class="cls-1" points="60.33 21.99 58.21 24.12 65.8 31.71 35.26 31.71 35.26 34.71 73.04 34.71 60.33 21.99"/>
  <polygon class="cls-1" points="44.35 106.71 46.48 104.59 38.88 97 69.42 97 69.42 94 31.64 94 44.35 106.71"/>
  <path class="cls-1" d="m95.08,22.35c-10.64,0-19.34,8.24-20.11,18.69H11.24v46.77h82.21v-25.17c.54.04,1.08.08,1.63.08,11.15,0,20.19-9.04,20.19-20.19s-9.04-20.19-20.19-20.19ZM23.65,44.03c-.67,4.88-4.53,8.74-9.41,9.41v-9.41h9.41Zm-9.41,30.51c5.16.71,9.18,4.99,9.49,10.26h-9.49v-10.26Zm66.94,10.26c.97-4.48,4.67-7.94,9.27-8.57v8.57h-9.27Zm9.27-11.6c-6.25.67-11.27,5.46-12.31,11.6H26.73c-.32-6.93-5.67-12.57-12.49-13.3v-15.04c6.54-.7,11.74-5.9,12.44-12.44h48.29c.65,8.88,7.04,16.15,15.48,18.13v11.04Zm4.63-13.49c-8.93,0-16.28-6.84-17.1-15.55h1.25v-3h-1.26c.7-8.84,8.1-15.82,17.12-15.82s16.42,6.98,17.12,15.82h-.86v3h.85c-.83,8.71-8.18,15.55-17.1,15.55Z"/>
  <path class="cls-1" d="m95.08,29.46c-4.75,0-9.77,3.73-11.83,11.7h-1.11v3h.51c-.24,1.63-.38,3.38-.38,5.29h3c0-8.44,3.37-16.99,9.81-16.99s9.81,8.55,9.81,16.99h3c0-1.91-.14-3.66-.38-5.29h.91v-3h-1.51c-2.06-7.98-7.08-11.7-11.83-11.7Z"/>
  <rect class="cls-1" x="87.98" y="41.17" width="2.92" height="3"/>
  <rect class="cls-1" x="99.66" y="41.17" width="2.92" height="3"/>
  <rect class="cls-1" x="93.82" y="41.17" width="2.92" height="3"/>
</svg>