<?xml version="1.0" encoding="utf-8"?>
<!-- Generator: Adobe Illustrator 27.6.1, SVG Export Plug-In . SVG Version: 6.00 Build 0)  -->
<svg version="1.1" id="Layer_1" xmlns="http://www.w3.org/2000/svg" xmlns:xlink="http://www.w3.org/1999/xlink" x="0px" y="0px"
	 viewBox="0 0 128 128" style="enable-background:new 0 0 128 128;" xml:space="preserve">
<style type="text/css">
	.st0{fill:#0069B1;}
</style>
<g>
	<g>
		<path class="st0" d="M110.8,49.3H17.2c-0.7,0-1.3-0.4-1.5-1.1c-0.2-0.6,0-1.3,0.6-1.7l46.8-32c0.5-0.4,1.2-0.4,1.7,0l46.8,32
			c0.6,0.4,0.8,1.1,0.6,1.7C112.1,48.9,111.5,49.3,110.8,49.3z M22.2,46.2h83.7L64,17.7L22.2,46.2z"/>
	</g>
	<g>
		<path class="st0" d="M107.2,56.7H20.8c-0.8,0-1.5-0.7-1.5-1.5v-7.4c0-0.8,0.7-1.5,1.5-1.5c0.8,0,1.5,0.7,1.5,1.5v5.9h83.4v-5.9
			c0-0.8,0.7-1.5,1.5-1.5c0.8,0,1.5,0.7,1.5,1.5v7.4C108.8,56,108.1,56.7,107.2,56.7z"/>
	</g>
	<g>
		<path class="st0" d="M26.7,104.8c-0.8,0-1.5-0.7-1.5-1.5V55.2c0-0.8,0.7-1.5,1.5-1.5c0.8,0,1.5,0.7,1.5,1.5v48.1
			C28.2,104.1,27.5,104.8,26.7,104.8z"/>
	</g>
	<g>
		<path class="st0" d="M101.3,104.8c-0.8,0-1.5-0.7-1.5-1.5V55.2c0-0.8,0.7-1.5,1.5-1.5c0.8,0,1.5,0.7,1.5,1.5v48.1
			C102.9,104.1,102.2,104.8,101.3,104.8z"/>
	</g>
	<g>
		<path class="st0" d="M38.4,104.8c-0.8,0-1.5-0.7-1.5-1.5V55.2c0-0.8,0.7-1.5,1.5-1.5c0.8,0,1.5,0.7,1.5,1.5v48.1
			C40,104.1,39.3,104.8,38.4,104.8z"/>
	</g>
	<g>
		<path class="st0" d="M89.6,104.8c-0.8,0-1.5-0.7-1.5-1.5V55.2c0-0.8,0.7-1.5,1.5-1.5c0.8,0,1.5,0.7,1.5,1.5v48.1
			C91.1,104.1,90.4,104.8,89.6,104.8z"/>
	</g>
	<g>
		<path class="st0" d="M107.2,113.7H20.8c-0.8,0-1.5-0.7-1.5-1.5v-9c0-0.8,0.7-1.5,1.5-1.5h86.4c0.8,0,1.5,0.7,1.5,1.5v9
			C108.8,113.1,108.1,113.7,107.2,113.7z M22.3,110.7h83.4v-5.9H22.3V110.7z"/>
	</g>
	<g>
		<path class="st0" d="M48.4,104.8c-0.8,0-1.5-0.7-1.5-1.5V55.2c0-0.8,0.7-1.5,1.5-1.5c0.8,0,1.5,0.7,1.5,1.5v48.1
			C49.9,104.1,49.2,104.8,48.4,104.8z"/>
	</g>
	<g>
		<path class="st0" d="M79.6,104.8c-0.8,0-1.5-0.7-1.5-1.5V55.2c0-0.8,0.7-1.5,1.5-1.5s1.5,0.7,1.5,1.5v48.1
			C81.1,104.1,80.4,104.8,79.6,104.8z"/>
	</g>
	<g>
		<path class="st0" d="M59.5,104.8c-0.8,0-1.5-0.7-1.5-1.5V55.2c0-0.8,0.7-1.5,1.5-1.5c0.8,0,1.5,0.7,1.5,1.5v48.1
			C61,104.1,60.3,104.8,59.5,104.8z"/>
	</g>
	<g>
		<path class="st0" d="M68.5,104.8c-0.8,0-1.5-0.7-1.5-1.5V55.2c0-0.8,0.7-1.5,1.5-1.5c0.8,0,1.5,0.7,1.5,1.5v48.1
			C70.1,104.1,69.4,104.8,68.5,104.8z"/>
	</g>
</g>
</svg>
