<?xml version="1.0" encoding="UTF-8"?>
<svg id="Layer_1" data-name="Layer 1" xmlns="http://www.w3.org/2000/svg" viewBox="0 0 128 128">
  <defs>
    <style>
      .cls-1 {
        fill: #0069b1;
      }
    </style>
  </defs>
  <path class="cls-1" d="m62.23,50.53c-6.56,0-7.47,4.19-7.47,8.72,0,5.89,3.28,10.5,7.47,10.5s7.47-4.61,7.47-10.5c0-4.53-.91-8.72-7.47-8.72Zm0,16.22c-2.42,0-4.47-3.44-4.47-7.5,0-4.89,1.12-5.72,4.47-5.72s4.47.83,4.47,5.72c0,4.07-2.05,7.5-4.47,7.5Z"/>
  <path class="cls-1" d="m62.23,38.64c-15.63,0-28.34,12.72-28.34,28.34s12.72,28.34,28.34,28.34,28.34-12.72,28.34-28.34-12.72-28.34-28.34-28.34Zm1.5,38.73v-3.14h4.22c4.55,0,8.26,3.71,8.26,8.26v5.62c-3.62,2.4-7.89,3.9-12.48,4.17v-11.55h-3v11.55c-4.98-.29-9.58-2.03-13.38-4.8v-5c0-4.55,3.71-8.26,8.26-8.26h5.12v3.14h3Zm15.48,8.41v-3.3c0-6.21-5.05-11.26-11.26-11.26h-12.35c-6.21,0-11.26,5.05-11.26,11.26v2.44c-4.61-4.59-7.46-10.94-7.46-17.94,0-13.98,11.37-25.34,25.34-25.34s25.34,11.37,25.34,25.34c0,7.45-3.23,14.16-8.36,18.8Z"/>
  <path class="cls-1" d="m62.23,35.2c3.36,0,6.21-2.23,7.14-5.29,17.17,3.3,30.03,18.38,30.58,35.91l-4.09-4.09-2.12,2.12,7.64,7.64,7.64-7.64-2.12-2.12-3.95,3.95c-.61-19-14.63-35.33-33.3-38.77-.41-3.74-3.58-6.65-7.42-6.65-4.12,0-7.47,3.35-7.47,7.47s3.35,7.47,7.47,7.47Zm0-11.94c2.46,0,4.47,2.01,4.47,4.47s-2,4.47-4.47,4.47-4.47-2-4.47-4.47,2-4.47,4.47-4.47Z"/>
  <path class="cls-1" d="m26,75.05c-.21,0-.43.01-.64.03-.58-2.65-.89-5.36-.89-8.1,0-14.73,8.38-27.85,21.53-34.09l-2.38,5.23,2.73,1.24,4.48-9.83-9.83-4.48-1.24,2.73,5.1,2.32c-14.29,6.71-23.39,20.92-23.39,36.87,0,3.02.35,6.02,1.01,8.95-2.35,1.26-3.95,3.74-3.95,6.59,0,4.12,3.35,7.47,7.47,7.47s7.47-3.35,7.47-7.47-3.35-7.47-7.47-7.47Zm0,11.94c-2.46,0-4.47-2-4.47-4.47s2-4.47,4.47-4.47,4.47,2.01,4.47,4.47-2,4.47-4.47,4.47Z"/>
  <path class="cls-1" d="m98.39,75.05c-4.12,0-7.47,3.35-7.47,7.47,0,2.24,1,4.25,2.56,5.62-7.05,10.41-18.65,16.6-31.25,16.6-9.6,0-18.79-3.66-25.75-10.15l5.98-.3-.15-3-10.79.54.54,10.79,3-.15-.27-5.36c7.47,6.8,17.24,10.63,27.44,10.63,13.69,0,26.27-6.76,33.87-18.11.72.23,1.49.36,2.29.36,4.12,0,7.47-3.35,7.47-7.47s-3.35-7.47-7.47-7.47Zm0,11.94c-2.46,0-4.47-2-4.47-4.47s2-4.47,4.47-4.47,4.47,2.01,4.47,4.47-2.01,4.47-4.47,4.47Z"/>
</svg>