<?xml version="1.0" encoding="utf-8"?>
<!-- Generator: Adobe Illustrator 27.6.1, SVG Export Plug-In . SVG Version: 6.00 Build 0)  -->
<svg version="1.1" id="Layer_1" xmlns="http://www.w3.org/2000/svg" xmlns:xlink="http://www.w3.org/1999/xlink" x="0px" y="0px"
	 viewBox="0 0 128 128" style="enable-background:new 0 0 128 128;" xml:space="preserve">
<style type="text/css">
	.st0{fill:#0069B1;}
</style>
<g>
	<g>
		<path class="st0" d="M60.2,85.3c-0.4,0-0.8,0-1.2-0.1c-2.3-0.4-4.2-1.7-5.3-3.7c-2.1,0.8-4.5,0.6-6.5-0.7
			c-1.9-1.2-3.1-3.1-3.4-5.2c-2.2-0.2-4.2-1.3-5.5-3.1c-1.3-1.9-1.7-4.2-1.1-6.4c-2.1-1-3.6-2.8-4.1-5.1c-0.5-2.1,0-4.4,1.3-6.1
			c-1.4-1.7-2.1-3.9-1.7-6.1c0.4-2.3,1.7-4.2,3.7-5.3c-0.8-2.1-0.6-4.5,0.7-6.5c1.2-1.9,3.1-3.1,5.2-3.4c0.2-2.2,1.3-4.2,3.1-5.5
			c1.9-1.3,4.2-1.7,6.4-1.1c1-2.1,2.8-3.6,5.1-4.1c2.1-0.5,4.4,0,6.1,1.3c1.7-1.4,3.9-2.1,6.1-1.7c2.3,0.4,4.2,1.7,5.3,3.7
			c2.1-0.8,4.5-0.6,6.5,0.7c1.9,1.2,3.1,3.1,3.4,5.2c2.2,0.2,4.2,1.3,5.5,3.1c1.3,1.9,1.7,4.2,1.1,6.4c2.1,1,3.6,2.8,4.1,5.1
			c0.5,2.1,0,4.4-1.3,6.1c1.4,1.7,2.1,3.9,1.7,6.1C95,61,93.6,63,91.7,64.1c0.8,2.1,0.6,4.5-0.7,6.5c-1.2,1.9-3.1,3.1-5.2,3.4
			c-0.2,2.2-1.3,4.2-3.1,5.5c-1.9,1.3-4.2,1.7-6.4,1.1c-1,2.1-2.8,3.6-5.1,4.1c-2.1,0.5-4.4,0-6.1-1.3C63.8,84.7,62,85.3,60.2,85.3z
			 M54.4,78.5c0.2,0,0.3,0,0.4,0.1c0.4,0.1,0.6,0.4,0.8,0.8c0.6,1.7,2.1,3,3.9,3.3c1.7,0.3,3.5-0.4,4.6-1.8c0.2-0.3,0.6-0.5,1-0.5
			c0.4,0,0.7,0.1,1,0.4c1.2,1.3,3,1.8,4.7,1.4c1.8-0.4,3.2-1.8,3.6-3.6c0.1-0.4,0.4-0.7,0.7-0.9c0.4-0.2,0.8-0.2,1.1,0
			c1.6,0.8,3.6,0.7,5.1-0.4c1.4-1,2.2-2.8,2-4.5c0-0.4,0.1-0.7,0.3-1c0.3-0.3,0.6-0.4,1-0.4c1.7,0.1,3.4-0.8,4.3-2.3
			c1-1.6,1-3.5,0-5.1c-0.2-0.3-0.2-0.7-0.1-1.1c0.1-0.4,0.4-0.6,0.8-0.8c1.7-0.6,3-2.1,3.3-3.9c0.3-1.7-0.4-3.5-1.8-4.6
			c-0.3-0.2-0.5-0.6-0.5-1c0-0.4,0.1-0.7,0.4-1c1.3-1.2,1.8-3,1.4-4.7l0,0c-0.4-1.8-1.8-3.2-3.6-3.6c-0.4-0.1-0.7-0.4-0.9-0.7
			c-0.2-0.4-0.2-0.8,0-1.1c0.8-1.6,0.7-3.6-0.4-5.1c-1-1.4-2.8-2.2-4.5-2c-0.4,0-0.7-0.1-1-0.3c-0.3-0.3-0.4-0.6-0.4-1
			c0.1-1.7-0.8-3.4-2.3-4.3c-1.6-1-3.5-1-5.1,0c-0.3,0.2-0.7,0.2-1.1,0.1c-0.4-0.1-0.6-0.4-0.8-0.8c-0.6-1.7-2.1-3-3.9-3.3
			c-1.7-0.3-3.5,0.4-4.6,1.8c-0.2,0.3-0.6,0.5-1,0.5c-0.4,0-0.7-0.1-1-0.4c-1.2-1.3-3-1.8-4.7-1.4c-1.8,0.4-3.2,1.8-3.6,3.6
			c-0.1,0.4-0.4,0.7-0.7,0.9c-0.4,0.2-0.8,0.2-1.1,0c-1.6-0.8-3.6-0.7-5.1,0.4c-1.4,1-2.2,2.8-2,4.5c0,0.4-0.1,0.7-0.3,1
			c-0.3,0.3-0.6,0.4-1,0.4c-1.7-0.1-3.4,0.8-4.3,2.3c-1,1.6-1,3.5,0,5.1c0.2,0.3,0.2,0.7,0.1,1.1c-0.1,0.4-0.4,0.6-0.8,0.8
			c-1.7,0.6-3,2.1-3.3,3.9c-0.3,1.7,0.4,3.5,1.8,4.6c0.3,0.2,0.5,0.6,0.5,1c0,0.4-0.1,0.7-0.4,1c-1.3,1.2-1.8,3-1.4,4.7
			c0.4,1.8,1.8,3.2,3.6,3.6c0.4,0.1,0.7,0.4,0.9,0.7c0.2,0.4,0.2,0.8,0,1.1c-0.8,1.6-0.7,3.6,0.4,5.1c1,1.4,2.8,2.2,4.5,2
			c0.4,0,0.7,0.1,1,0.3c0.3,0.3,0.4,0.6,0.4,1c-0.1,1.7,0.8,3.4,2.3,4.3c1.6,1,3.5,1,5.1,0C53.9,78.6,54.2,78.5,54.4,78.5z
			 M63.9,77.4c-10.7,0-20.5-7.4-23-18.3c-1.4-6.1-0.3-12.5,3-17.8c3.3-5.3,8.6-9.1,14.7-10.5c6.1-1.4,12.5-0.3,17.8,3
			c5.3,3.3,9.1,8.6,10.5,14.7c1.4,6.1,0.3,12.5-3,17.8c-3.3,5.3-8.6,9.1-14.7,10.5l-0.3-1.3l0.3,1.3C67.4,77.2,65.6,77.4,63.9,77.4z
			 M63.9,32.8c-1.6,0-3.2,0.2-4.7,0.5c-5.5,1.3-10.1,4.6-13.1,9.3c-3,4.8-3.9,10.4-2.7,15.9c2.2,9.7,10.9,16.3,20.5,16.3
			c1.6,0,3.1-0.2,4.7-0.5c5.5-1.3,10.1-4.6,13.1-9.3c3-4.8,3.9-10.4,2.7-15.9C83.1,43.7,79.8,39,75,36
			C71.6,33.9,67.8,32.8,63.9,32.8z"/>
	</g>
	<g>
		<path class="st0" d="M76.6,105.7C76.6,105.7,76.6,105.7,76.6,105.7c-0.5,0-0.9-0.3-1.2-0.7l-10.8-22c-0.3-0.6,0-1.4,0.6-1.7
			c0.6-0.3,1.4,0,1.7,0.6l9.8,19.9l5.4-8.9c0.3-0.4,0.7-0.7,1.2-0.6l10.3,1.1l-9.8-20c-0.3-0.6,0-1.4,0.6-1.7c0.6-0.3,1.4,0,1.7,0.6
			l10.9,22.1c0.2,0.4,0.2,0.9-0.1,1.3c-0.3,0.4-0.7,0.6-1.2,0.5l-11.8-1.3L77.7,105C77.5,105.4,77.1,105.7,76.6,105.7z"/>
	</g>
	<g>
		<path class="st0" d="M85.4,88.8c-0.5,0-0.9-0.3-1.2-0.7l-4.2-8.6c-0.3-0.6,0-1.4,0.6-1.7c0.6-0.3,1.4,0,1.7,0.6l4.2,8.6
			c0.3,0.6,0,1.4-0.6,1.7C85.8,88.8,85.6,88.8,85.4,88.8z"/>
	</g>
	<g>
		<path class="st0" d="M77.2,92.9c-0.5,0-0.9-0.3-1.2-0.7l-4.3-8.9c-0.3-0.6,0-1.4,0.6-1.7c0.6-0.3,1.4,0,1.7,0.6l4.3,8.9
			c0.3,0.6,0,1.4-0.6,1.7C77.6,92.8,77.4,92.9,77.2,92.9z"/>
	</g>
	<g>
		<path class="st0" d="M51.4,105.7c-0.4,0-0.9-0.2-1.1-0.6l-6.2-10.2l-11.8,1.3c-0.5,0.1-0.9-0.2-1.2-0.5c-0.3-0.4-0.3-0.9-0.1-1.3
			l10.3-20.9c0.3-0.6,1.1-0.9,1.7-0.6c0.6,0.3,0.9,1.1,0.6,1.7l-9.2,18.8l10.3-1.1c0.5-0.1,1,0.2,1.2,0.6l5.4,8.9l9-18.4
			c0.3-0.6,1.1-0.9,1.7-0.6c0.6,0.3,0.9,1.1,0.6,1.7l-10,20.5C52.3,105.4,51.9,105.6,51.4,105.7C51.4,105.7,51.4,105.7,51.4,105.7z"
			/>
	</g>
	<g>
		<path class="st0" d="M50.8,92.9c-0.2,0-0.4,0-0.6-0.1c-0.6-0.3-0.9-1.1-0.6-1.7l4.8-9.7c0.3-0.6,1.1-0.9,1.7-0.6
			c0.6,0.3,0.9,1.1,0.6,1.7l-4.8,9.7C51.7,92.6,51.3,92.9,50.8,92.9z"/>
	</g>
	<g>
		<path class="st0" d="M42.6,88.8c-0.2,0-0.4,0-0.6-0.1c-0.6-0.3-0.9-1.1-0.6-1.7l4.3-8.7c0.3-0.6,1.1-0.9,1.7-0.6
			c0.6,0.3,0.9,1.1,0.6,1.7l-4.3,8.7C43.5,88.6,43,88.8,42.6,88.8z"/>
	</g>
	<g>
		<path class="st0" d="M56.9,67c-0.6,0-1.1-0.2-1.6-0.5c-0.8-0.6-1.3-1.6-1.1-2.7l1.1-6.4c0-0.1,0-0.1,0-0.1l-4.7-4.6
			c-0.8-0.7-1-1.8-0.7-2.8c0.3-1,1.2-1.7,2.2-1.9l6.5-0.9c0.1,0,0.1,0,0.1-0.1l2.9-5.9c0.5-0.9,1.4-1.5,2.5-1.5c1,0,2,0.6,2.5,1.5
			l2.9,5.9c0,0,0.1,0.1,0.1,0.1l6.5,0.9c1,0.2,1.9,0.9,2.2,1.9c0.3,1,0.1,2.1-0.7,2.8l-4.7,4.6c0,0-0.1,0.1,0,0.1l1.1,6.4
			c0.2,1-0.2,2.1-1.1,2.7c-0.8,0.6-2,0.7-2.9,0.2l-5.8-3c0,0-0.1,0-0.2,0l-5.8,3C57.7,66.9,57.3,67,56.9,67z M64,61.1
			c0.4,0,0.9,0.1,1.3,0.3l5.8,3c0,0,0.1,0,0.2,0c0.1-0.1,0.1-0.1,0.1-0.2l-1.1-6.4C70,56.9,70.3,56,71,55.4l4.7-4.6
			c0,0,0.1-0.1,0-0.2c0-0.1-0.1-0.1-0.1-0.1l-6.5-0.9c-0.9-0.1-1.7-0.7-2.1-1.5l-2.9-5.9c0,0,0-0.1-0.2-0.1c-0.1,0-0.1,0.1-0.2,0.1
			L61,48.1c-0.4,0.8-1.2,1.4-2.1,1.5l-6.5,0.9c0,0-0.1,0-0.1,0.1c0,0.1,0,0.2,0,0.2l4.7,4.6c0.6,0.6,0.9,1.5,0.8,2.4l-1.1,6.4
			c0,0,0,0.1,0.1,0.2c0.1,0.1,0.2,0,0.2,0l5.8-3C63.1,61.2,63.6,61.1,64,61.1z"/>
	</g>
</g>
</svg>
