<?xml version="1.0" encoding="UTF-8"?>
<svg id="Layer_1" data-name="Layer 1" xmlns="http://www.w3.org/2000/svg" viewBox="0 0 128 128">
  <defs>
    <style>
      .cls-1 {
        fill: #0069b1;
      }
    </style>
  </defs>
  <path class="cls-1" d="m92.9,63.6c0-7.8-3.1-15.1-8.6-20.5l-2.1,2.1c5,4.9,7.7,11.4,7.7,18.3h3v.1Z"/>
  <path class="cls-1" d="m41.1,46.8l2.4,1.8c4.8-6.6,12.6-10.6,20.7-10.6,4,0,7.8.9,11.4,2.7l1.3-2.7c-4-2-8.3-3-12.7-3-9-.1-17.7,4.4-23.1,11.8Z"/>
  <path class="cls-1" d="m38.2,53.2c-2,4-3.1,8.4-3.1,12.9,0,3.4.6,6.7,1.8,9.9l2.8-1c-1-2.8-1.6-5.8-1.6-8.9,0-4.1.9-8,2.8-11.6l-2.7-1.3Z"/>
  <path class="cls-1" d="m83.8,85.7c1.3-7.4,1.4-14.5,1.2-19.1-.2-4.2-1.1-8.1-2.9-11.5-3.8-7.3-10.1-11.3-17.8-11.3-6.1,0-11.7,2.6-15.5,7.2l-.1.2,2.3,1.9.1-.2c3.2-3.9,8-6.1,13.2-6.1,8.4,0,12.8,5.2,15.1,9.6,1.6,3.1,2.4,6.6,2.6,10.3.2,4.5.1,11.4-1.2,18.5l3,.5Z"/>
  <path class="cls-1" d="m47.9,60.7l-3-.4c-.2,1.7-.2,3.4.1,5.2.6,3.8,1.1,11-1.6,16.5l2.7,1.3c3-6.2,2.4-14.1,1.8-18.3-.1-1.4-.2-2.9,0-4.3Z"/>
  <path class="cls-1" d="m70.1,89.7l2.9.9c1.5-4.6,2.4-9.7,2.7-15l-3-.2c-.3,5.1-1.1,9.9-2.6,14.3Z"/>
  <path class="cls-1" d="m72.3,63.8c.1.9.3,2.4.4,4.3l3-.2c-.1-2-.3-3.6-.4-4.5s-.3-1.6-.5-2.3c-1.9-6.4-7-7.7-9.8-7.9-1.6-.1-3.3.1-4.7.7-8.8,3.5-6.3,15.6-6.2,16.1,2.2,10-3.2,17.2-3.2,17.3l1.2.9,1.2.9c.3-.3,6.3-8.4,3.8-19.8,0-.1-2.1-10.1,4.4-12.7,1-.4,2.2-.6,3.4-.5,2.5.2,5.9,1.3,7.2,5.8,0,.6.1,1.2.2,1.9Z"/>
  <path class="cls-1" d="m59.5,90.8l2.6,1.5c1.7-3.1,3-6.6,3.7-10.5l-2.9-.6c-.7,3.6-1.8,6.8-3.4,9.6Z"/>
  <path class="cls-1" d="m62.7,63s1,4.4,1,10.3h3c.1-6.2-1-10.8-1-11l-3,.7Z"/>
  <polygon class="cls-1" points="29.1 82.5 26.1 82.5 26.1 101.9 45.5 101.9 45.5 98.9 29.1 98.9 29.1 82.5"/>
  <polygon class="cls-1" points="29.1 29.1 45.5 29.1 45.5 26.1 26.1 26.1 26.1 45.5 29.1 45.5 29.1 29.1"/>
  <polygon class="cls-1" points="98.9 98.9 82.5 98.9 82.5 101.9 101.9 101.9 101.9 82.5 98.9 82.5 98.9 98.9"/>
  <polygon class="cls-1" points="82.5 26.1 82.5 29.1 98.9 29.1 98.9 45.5 101.9 45.5 101.9 26.1 82.5 26.1"/>
</svg>