<?xml version="1.0" encoding="UTF-8"?>
<svg id="Layer_1" data-name="Layer 1" xmlns="http://www.w3.org/2000/svg" viewBox="0 0 128 128">
  <defs>
    <style>
      .cls-1 {
        fill: #0069b1;
      }
    </style>
  </defs>
  <path class="cls-1" d="m64,24.5c-21.8,0-39.5,17.7-39.5,39.5s17.7,39.5,39.5,39.5,39.5-17.7,39.5-39.5-17.7-39.5-39.5-39.5Zm0,3c9.5,0,18.2,3.7,24.7,9.7l-51.5,51.5c-6-6.5-9.7-15.2-9.7-24.7,0-20.1,16.4-36.5,36.5-36.5Zm0,73c-9.5,0-18.2-3.7-24.7-9.7l51.6-51.6c6,6.5,9.7,15.2,9.7,24.7-.1,20.2-16.5,36.6-36.6,36.6Z"/>
</svg>