<?xml version="1.0" encoding="UTF-8"?>
<svg id="Layer_1" data-name="Layer 1" xmlns="http://www.w3.org/2000/svg" viewBox="0 0 128 128">
  <defs>
    <style>
      .cls-1 {
        fill: #0069b1;
      }
    </style>
  </defs>
  <path class="cls-1" d="m111.97,67.57v21.89h-24.35v-3h21.35v-18.89c0-5.63-4.58-10.21-10.21-10.21h-14.81c-2.98,0-5.77,1.33-7.69,3.53-1.05-.33-2.16-.55-3.29-.66,2.44-3.64,6.57-5.87,10.98-5.87h14.81c7.28,0,13.21,5.93,13.21,13.21Zm-29.28-27.66c0-6.1,1.47-10.16,8.66-10.16s8.66,4.06,8.66,10.16c0,6.9-3.81,12.3-8.66,12.3s-8.66-5.4-8.66-12.3Zm3,0c0,5.04,2.59,9.3,5.66,9.3s5.66-4.26,5.66-9.3c0-5.69-1.16-7.16-5.66-7.16s-5.66,1.47-5.66,7.16Zm-57.7,0c0-6.1,1.47-10.16,8.66-10.16s8.66,4.06,8.66,10.16c0,6.9-3.81,12.3-8.66,12.3s-8.66-5.4-8.66-12.3Zm3,0c0,5.04,2.59,9.3,5.66,9.3s5.66-4.26,5.66-9.3c0-5.69-1.16-7.16-5.66-7.16s-5.66,1.47-5.66,7.16Zm-11.95,27.66c0-5.63,4.58-10.21,10.21-10.21h14.81c3.01,0,5.79,1.32,7.7,3.53,1.05-.33,2.15-.55,3.28-.66-2.44-3.65-6.52-5.87-10.98-5.87h-14.81c-7.28,0-13.21,5.93-13.21,13.21v21.89h24.35v-3h-21.35v-18.89Zm65.58,8.79v21.89h-41.23v-21.89c0-7.28,5.93-13.21,13.21-13.21h14.81c7.28,0,13.21,5.93,13.21,13.21Zm-3,0c0-5.63-4.58-10.21-10.21-10.21h-5.91v2.7h-3v-2.7h-5.91c-5.63,0-10.21,4.58-10.21,10.21v18.89h35.23v-18.89Zm-19.12,14.34h3v-19.61h-3v19.61Z"/>
  <path class="cls-1" d="m72.12,29.98c-2.35-2.24-5.44-3.39-8.69-3.24-5.91.28-10.81,5.12-11.17,11.02-.22,3.57,1.17,6.99,3.81,9.4.71.65,1.12,1.6,1.12,2.59v3.23c0,1.41.86,2.62,2.08,3.13.1,2.53,2.17,4.57,4.73,4.57s4.63-2.04,4.73-4.57c1.22-.52,2.08-1.73,2.08-3.13v-3.23c0-1.01.39-1.93,1.06-2.54,2.47-2.23,3.89-5.41,3.89-8.72s-1.29-6.27-3.65-8.51Zm-4.3,21.37v1.64c0,.22-.18.4-.4.4h-6.83c-.22,0-.4-.18-.4-.4v-1.64h7.63Zm-3.81,6.34c-.81,0-1.49-.55-1.68-1.3h3.37c-.2.75-.87,1.3-1.68,1.3Zm5.87-12.7c-.97.87-1.62,2.05-1.9,3.36h-7.93c-.29-1.3-.96-2.49-1.94-3.4-1.96-1.79-3-4.35-2.84-7,.27-4.39,3.92-8,8.32-8.21.14,0,.29-.01.43-.01,2.27,0,4.4.85,6.04,2.42,1.75,1.67,2.72,3.92,2.72,6.34s-1.06,4.84-2.9,6.5Z"/>
</svg>