<?xml version="1.0" encoding="UTF-8"?>
<svg id="Layer_1" data-name="Layer 1" xmlns="http://www.w3.org/2000/svg" viewBox="0 0 128 128">
  <defs>
    <style>
      .cls-1 {
        fill: #0069b1;
      }
    </style>
  </defs>
  <path class="cls-1" d="m27.85,61.46h72.3c.43,0,.84-.18,1.12-.51.28-.32.42-.75.37-1.18-2.31-18.99-18.49-33.31-37.64-33.31s-35.33,14.32-37.64,33.31c-.05.43.08.85.37,1.18.29.32.69.51,1.12.51Zm36.15-32c17.07,0,31.57,12.35,34.42,29H29.58c2.84-16.65,17.35-29,34.42-29Z"/>
  <path class="cls-1" d="m97.29,64.91h-11.01l-6.39,5.36-6.39-5.36H30.71c-3.88,0-7.04,3.16-7.04,7.04s3.16,7.04,7.04,7.04h66.58c3.88,0,7.04-3.16,7.04-7.04s-3.16-7.04-7.04-7.04Zm0,11.08H30.71c-2.23,0-4.04-1.81-4.04-4.04s1.81-4.04,4.04-4.04h6.87v1.27c0,.83.67,1.5,1.5,1.5s1.5-.67,1.5-1.5v-1.27h2.74v5.16c0,.83.67,1.5,1.5,1.5s1.5-.67,1.5-1.5v-5.16h26.08l7.48,6.28,7.48-6.28h9.92c2.23,0,4.04,1.81,4.04,4.04s-1.81,4.04-4.04,4.04Z"/>
  <path class="cls-1" d="m95.3,82.87c0,5.33-4.33,9.66-9.66,9.66h-44.4c-5.33,0-9.66-4.33-9.66-9.66v-.92h-3v.92c0,6.98,5.68,12.66,12.66,12.66h44.4c6.98,0,12.66-5.68,12.66-12.66v-.92h-3v.92Z"/>
  <path class="cls-1" d="m50.5,40.75c-1.14,0-2.06.92-2.06,2.06s.92,2.06,2.06,2.06,2.06-.92,2.06-2.06-.92-2.06-2.06-2.06Z"/>
  <circle class="cls-1" cx="64" cy="36.61" r="2.06"/>
  <path class="cls-1" d="m59.88,50.1c-1.14,0-2.06.92-2.06,2.06s.92,2.06,2.06,2.06,2.06-.92,2.06-2.06-.92-2.06-2.06-2.06Z"/>
  <path class="cls-1" d="m42.77,49.32c-1.14,0-2.06.92-2.06,2.06s.92,2.06,2.06,2.06,2.06-.92,2.06-2.06-.92-2.06-2.06-2.06Z"/>
  <path class="cls-1" d="m78,42.3c0-1.14-.92-2.06-2.06-2.06s-2.06.92-2.06,2.06.92,2.06,2.06,2.06,2.06-.92,2.06-2.06Z"/>
  <path class="cls-1" d="m79.43,50.1c-1.14,0-2.06.92-2.06,2.06s.92,2.06,2.06,2.06,2.06-.92,2.06-2.06-.92-2.06-2.06-2.06Z"/>
</svg>