<?xml version="1.0" encoding="UTF-8"?>
<svg id="Layer_1" data-name="Layer 1" xmlns="http://www.w3.org/2000/svg" viewBox="0 0 128 128">
  <defs>
    <style>
      .cls-1 {
        fill: #0069b1;
      }
    </style>
  </defs>
  <path class="cls-1" d="m71.98,23.22c-18.09,0-32.8,14.71-32.8,32.8,0,8.61,3.34,16.46,8.79,22.32l-24.31,23.88,2.1,2.14,24.34-23.91c5.81,5.21,13.47,8.38,21.87,8.38,18.08,0,32.8-14.71,32.8-32.8s-14.71-32.8-32.8-32.8Zm0,62.6c-16.43,0-29.8-13.37-29.8-29.8s13.37-29.8,29.8-29.8,29.8,13.37,29.8,29.8-13.37,29.8-29.8,29.8Z"/>
  <path class="cls-1" d="m71.98,28.57c-15.14,0-27.45,12.31-27.45,27.45s12.31,27.45,27.45,27.45,27.45-12.32,27.45-27.45-12.32-27.45-27.45-27.45Zm0,3c13.48,0,24.45,10.97,24.45,24.45,0,5.13-1.59,9.9-4.3,13.83-2.43-4.39-7.07-7.2-12.24-7.2h-15.82c-5.17,0-9.81,2.81-12.24,7.2-2.71-3.94-4.3-8.7-4.3-13.83,0-13.48,10.97-24.45,24.45-24.45Zm0,48.9c-7.16,0-13.61-3.09-18.09-8.01,1.69-4.11,5.68-6.81,10.18-6.81h15.82c4.5,0,8.49,2.7,10.18,6.81-4.48,4.92-10.93,8.01-18.09,8.01Z"/>
  <path class="cls-1" d="m72.56,59.91c5.13,0,9.15-5.73,9.15-13.04,0-6.45-1.56-10.75-9.15-10.75s-9.15,4.3-9.15,10.75c0,7.31,4.02,13.04,9.15,13.04Zm0-20.78c4.83,0,6.15,1.67,6.15,7.75,0,5.44-2.82,10.04-6.15,10.04s-6.15-4.6-6.15-10.04c0-6.08,1.32-7.75,6.15-7.75Z"/>
</svg>