<?xml version="1.0" encoding="UTF-8"?>
<svg id="Layer_1" data-name="Layer 1" xmlns="http://www.w3.org/2000/svg" viewBox="0 0 128 128">
  <defs>
    <style>
      .cls-1 {
        fill: #0069b1;
      }

      .cls-2 {
        fill: #0069b0;
      }
    </style>
  </defs>
  <g>
    <path class="cls-1" d="m64,51.19c.51,0,1.01.03,1.5.08v-8.3h-3v8.3c.49-.05.99-.08,1.5-.08Z"/>
    <path class="cls-1" d="m64,81.99c-.51,0-1.01-.03-1.5-.08v8.76h3v-8.76c-.49.05-.99.08-1.5.08Z"/>
    <path class="cls-1" d="m50.38,73.77h-2.75v-13.88h2.53c.52-1.07,1.15-2.08,1.9-3h-4.43v-13.91h-3v13.91h-14.74v3h14.74v13.88h-14.74v3h14.74v13.91h3v-13.91h4.84c-.81-.91-1.51-1.91-2.09-3Z"/>
    <path class="cls-1" d="m83.52,42.97h-3v13.91h-4.58c.75.92,1.38,1.93,1.9,3h2.68v13.88h-2.9c-.57,1.09-1.28,2.09-2.09,3h4.99v13.91h3v-13.91h15.56v-3h-15.56v-13.88h15.56v-3h-15.56v-13.91Z"/>
    <path class="cls-1" d="m88.26,32.46v-3.69h-3v3.69h-41.87v-3.69h-3v3.69h-18.01v68.26h83.25V32.46h-17.37Zm14.37,65.26H25.37v-62.26h15.01v3.36h3v-3.36h41.87v3.36h3v-3.36h14.37v62.26Z"/>
  </g>
  <path class="cls-1" d="m64,78.99c-6.84,0-12.4-5.56-12.4-12.4s5.56-12.4,12.4-12.4,12.4,5.56,12.4,12.4-5.56,12.4-12.4,12.4Zm0-21.8c-5.18,0-9.4,4.22-9.4,9.4s4.22,9.4,9.4,9.4,9.4-4.22,9.4-9.4-4.22-9.4-9.4-9.4Z"/>
  <path class="cls-2" d="m65.01,72.61v1.81h-1.59v-1.83c-1.59-.18-3.07-.82-4.32-1.81l1.17-1.66c1.04.84,2.03,1.39,3.22,1.57v-3.58c-2.67-.69-3.91-1.7-3.91-3.77s1.55-3.33,3.84-3.51v-1.06h1.59v1.1c1.33.17,2.43.64,3.44,1.39l-1.02,1.72c-.81-.6-1.63-.99-2.49-1.17v3.47c2.78.7,3.97,1.81,3.97,3.79s-1.57,3.35-3.89,3.55m-1.52-10.93c-1.15.09-1.76.73-1.76,1.54s.35,1.26,1.76,1.68v-3.22Zm1.44,5.78v3.31c1.15-.09,1.81-.69,1.81-1.57,0-.82-.38-1.32-1.81-1.74"/>
</svg>