<?xml version="1.0" encoding="UTF-8"?>
<svg id="Layer_1" data-name="Layer 1" xmlns="http://www.w3.org/2000/svg" viewBox="0 0 128 128">
  <defs>
    <style>
      .cls-1 {
        fill: #0069b1;
      }
    </style>
  </defs>
  <path class="cls-1" d="m100.6,57c0-5.5-1.6-9.4-4.5-11.5-2.5-18.1-12.4-26.2-32.1-26.2s-29.6,8.1-32.1,26.2c-2.9,2.1-4.5,6.1-4.5,11.5s1.7,9.6,4.7,11.7c3,17.5,12.8,30.7,25.4,34.1.3,3.3,3.1,5.9,6.5,5.9,3.6,0,6.5-2.9,6.5-6.5,0-1.6-.6-3-1.5-4.2,10.1-2.7,18.3-13.5,21.5-27.7,6.4-.1,10.1-4.9,10.1-13.3Zm-36.6-34.7c17.4,0,26.1,6.6,28.8,21.8-.6-.1-1.3-.2-2-.3-2.3-12.5-9.2-19.5-26.8-19.5s-24.5,7-26.8,19.5c-.7,0-1.4.1-2,.3,2.7-15.3,11.4-21.8,28.8-21.8ZM30.4,57c0-6.4,2.1-9.8,6.3-10.2-.4,3.3-.6,6.9-.6,10.8,0,3.3.3,6.6.8,9.7-4.3-.4-6.5-3.8-6.5-10.3Zm5,13.1c.7.1,1.4.2,2.1.2,3.1,14.2,11.3,25,21.5,27.7-.5.5-.8,1.1-1.1,1.8-10.8-3.1-19.4-14.4-22.5-29.7Zm32.1,32.1c0,1.9-1.6,3.5-3.5,3.5s-3.5-1.6-3.5-3.5,1.6-3.5,3.5-3.5,3.5,1.6,3.5,3.5Zm-3.5-6.5c-13.7,0-24.8-17.1-24.8-38.2,0-22.9,6-30.3,24.8-30.3s24.8,7.4,24.8,30.3c0,21.1-11.1,38.2-24.8,38.2Zm27-28.4c.5-3.1.8-6.4.8-9.7,0-3.9-.2-7.5-.6-10.8,4.2.4,6.3,3.9,6.3,10.2.1,6.5-2.1,9.9-6.5,10.3Z"/>
</svg>