<?xml version="1.0" encoding="UTF-8"?>
<svg id="Layer_1" data-name="Layer 1" xmlns="http://www.w3.org/2000/svg" viewBox="0 0 128 128">
  <defs>
    <style>
      .cls-1 {
        fill: #0069b1;
      }
    </style>
  </defs>
  <rect class="cls-1" x="43.5" y="86.5" width="39.6" height="3"/>
  <rect class="cls-1" x="43.5" y="77.9" width="39.6" height="3"/>
  <path class="cls-1" d="m107.2,56.9c-1.3,1.1-2.8,2-4.4,2.8h2.8c1.4,0,2.5,1.1,2.5,2.5s-1.1,2.5-2.5,2.5h-1.6l-2.2-4.4c-.9.4-1.9.7-2.9.9l4.5,8.9H23.7l5.3-10.4h55.5c-1.7-.8-3.2-1.8-4.6-3H30.6l6.8-13.1c1.3-1.7,3.3-2.6,5.4-2.6h29.6v-.4c0-.9.1-1.7.2-2.6h-29.8c-3.1,0-6,1.5-7.9,3.9l-7.7,14.8h-5.7c-3,0-5.5,2.4-5.5,5.5s2.4,5.5,5.5,5.5h.1l-1.6,3.1h0l-.2.3v29.1c0,3,2.5,5.5,5.5,5.5h6.9c3,0,5.5-2.5,5.5-5.5v-2.9h51.8v2.9c0,3,2.5,5.5,5.5,5.5h6.9c3,0,5.5-2.5,5.5-5.5v-29l-1.8-3.6h.1c3,0,5.5-2.4,5.5-5.5-.1-2.4-1.7-4.5-4-5.2Zm-85.7,7.7c-1.4,0-2.5-1.1-2.5-2.5s1.1-2.5,2.5-2.5h4.2l-2.5,4.9h-1.7v.1Zm1.3,16.3h1.7v5.7h-1.7v-5.7Zm11.9,19.4c0,1.4-1.1,2.5-2.5,2.5h-6.9c-1.4,0-2.5-1.1-2.5-2.5v-2.9h11.9v2.9Zm69.6,0c0,1.4-1.1,2.5-2.5,2.5h-6.9c-1.4,0-2.5-1.1-2.5-2.5v-2.9h11.9v2.9Zm0-13.8h-1.7v-5.7h1.7v5.7Zm0-8.6h-13.7c-2.5,0-4.5,2-4.5,4.5v4.6c0,1.4,1.1,2.5,2.5,2.5h15.7v4.9H22.8v-4.9h15.7c1.4,0,2.5-1.1,2.5-2.5v-4.7c0-2.5-2-4.5-4.5-4.5h-13.7v-4.8h81.5v4.9Zm-4.7,3v5.7h-10.5v-4.2c0-.8.7-1.5,1.5-1.5h9Zm-72.1,5.6v-5.7h9c.8,0,1.5.7,1.5,1.5v4.2h-10.5Z"/>
  <path class="cls-1" d="m93.7,58.8c10.1,0,18.3-8.2,18.3-18.3s-8.2-18.3-18.3-18.3-18.3,8.2-18.3,18.3c.1,10.1,8.2,18.3,18.3,18.3Zm0-33.6c8.4,0,15.3,6.8,15.3,15.3s-6.8,15.3-15.3,15.3-15.3-6.8-15.3-15.3,6.9-15.3,15.3-15.3Z"/>
  <path class="cls-1" d="m88.7,43.9l-1.6,2.2c1.7,1.3,3.7,2.2,5.8,2.4v2.5h2.1v-2.4c3.1-.3,5.2-2.1,5.2-4.8s-1.6-4.2-5.3-5.1v-4.7c1.2.2,2.3.8,3.4,1.6l1.4-2.3c-1.4-1-2.8-1.6-4.6-1.9v-1.4h-2.1v1.4c-3.1.2-5.2,2.1-5.2,4.7,0,2.8,1.7,4.1,5.3,5.1v4.8c-1.7-.2-3-1-4.4-2.1Zm6.3-2.2c1.9.6,2.4,1.2,2.4,2.3,0,1.2-.9,2-2.4,2.1v-4.4Zm-4.3-5.8c0-1.1.8-1.9,2.4-2.1v4.3c-2-.5-2.4-1.1-2.4-2.2Z"/>
</svg>