<?xml version="1.0" encoding="utf-8"?>
<!-- Generator: Adobe Illustrator 27.6.1, SVG Export Plug-In . SVG Version: 6.00 Build 0)  -->
<svg version="1.1" id="Layer_1" xmlns="http://www.w3.org/2000/svg" xmlns:xlink="http://www.w3.org/1999/xlink" x="0px" y="0px"
	 viewBox="0 0 128 128" style="enable-background:new 0 0 128 128;" xml:space="preserve">
<style type="text/css">
	.st0{fill:#0069B1;}
</style>
<g>
	<g>
		<g>
			<g>
				<path class="st0" d="M110.8,93.1H56.7c-0.6,0-1.2-0.5-1.2-1.2c0-0.6,0.5-1.2,1.2-1.2h54.1c1,0,1.7-0.8,1.7-1.7V55.6
					c0-1-0.8-1.7-1.7-1.7H60.7c-0.6,0-1.2-0.5-1.2-1.2c0-0.6,0.5-1.2,1.2-1.2h50.1c2.2,0,4.1,1.8,4.1,4.1V89
					C114.9,91.2,113.1,93.1,110.8,93.1z"/>
			</g>
			<g>
				<path class="st0" d="M113.6,60.2H64.3c-0.7,0-1.3-0.5-1.3-1.2c0-0.6,0.6-1.2,1.3-1.2h49.3c0.7,0,1.3,0.5,1.3,1.2
					C114.9,59.7,114.3,60.2,113.6,60.2z"/>
			</g>
			<g>
				<path class="st0" d="M113.6,68.5H64.3c-0.7,0-1.3-0.5-1.3-1.2c0-0.6,0.6-1.2,1.3-1.2h49.3c0.7,0,1.3,0.5,1.3,1.2
					C114.9,67.9,114.3,68.5,113.6,68.5z"/>
			</g>
			<g>
				<g>
					<path class="st0" d="M75.8,76.2H63.6c-0.9,0-1.7-0.5-1.7-1.2c0-0.6,0.7-1.2,1.7-1.2h12.2c0.9,0,1.7,0.5,1.7,1.2
						C77.5,75.7,76.7,76.2,75.8,76.2z"/>
				</g>
				<g>
					<path class="st0" d="M75.8,82.8H58.7c-0.9,0-1.7-0.5-1.7-1.2s0.7-1.2,1.7-1.2h17.2c0.9,0,1.7,0.5,1.7,1.2S76.7,82.8,75.8,82.8z
						"/>
				</g>
			</g>
			<g>
				<path class="st0" d="M100.5,84.3c-3.3,0-5.9-2.7-5.9-5.9c0-3.3,2.7-5.9,5.9-5.9s5.9,2.7,5.9,5.9
					C106.4,81.6,103.8,84.3,100.5,84.3z M100.5,74.7c-2,0-3.6,1.6-3.6,3.6c0,2,1.6,3.6,3.6,3.6c2,0,3.6-1.6,3.6-3.6
					C104.1,76.3,102.5,74.7,100.5,74.7z"/>
			</g>
		</g>
	</g>
	<g>
		<g>
			<g>
				<g>
					<path class="st0" d="M51.1,87.4H33.6c-0.5,0-1-0.4-1-1c0-0.5,0.4-1,1-1h17.6c0.5,0,1,0.4,1,1C52.1,87,51.7,87.4,51.1,87.4z"/>
				</g>
				<g>
					<path class="st0" d="M51.1,91H33.6c-0.5,0-1-0.4-1-1c0-0.5,0.4-1,1-1h17.6c0.5,0,1,0.4,1,1C52.1,90.6,51.7,91,51.1,91z"/>
				</g>
				<g>
					<path class="st0" d="M42.4,95.7c-4.2,0-6.3-1.9-6.4-2l-3-3c-0.2-0.2-0.3-0.4-0.3-0.7v-6.9c0-0.5,0.4-1,1-1c0.5,0,1,0.4,1,1v6.5
						l2.7,2.7c0,0,1.7,1.5,5.1,1.5s5.1-1.4,5.1-1.5l2.7-2.6v-6.5c0-0.5,0.4-1,1-1c0.5,0,1,0.4,1,1V90c0,0.3-0.1,0.5-0.3,0.7l-3,3
						C48.7,93.8,46.5,95.7,42.4,95.7z"/>
				</g>
				<g>
					<path class="st0" d="M51.1,84.1H33.6c-0.3,0-0.5-0.1-0.7-0.3c-0.2-0.2-0.3-0.5-0.2-0.7c0.1-0.6,0.1-1.4,0-1.6
						c0-0.1-0.1-0.4-0.1-0.7c-0.1-1.2-0.5-4-1.7-5.5c-6.4-7.1-6.1-12.2-6-13c0-9.7,7.9-17.5,17.6-17.5c9.7,0,17.5,7.9,17.6,17.5
						c0.1,0.8,0.4,5.9-6,13c-1.2,1.5-1.6,4.3-1.7,5.4c0,0.3-0.1,0.5-0.1,0.7c-0.1,0.3,0,1,0,1.6c0,0.3-0.1,0.5-0.2,0.7
						C51.7,84,51.4,84.1,51.1,84.1z M34.6,82.1h15.5c0-0.4,0-0.9,0.1-1.2c0-0.1,0-0.3,0.1-0.5c0.2-1.4,0.6-4.6,2.2-6.5
						c6.1-6.8,5.5-11.4,5.5-11.5c0,0,0-0.1,0-0.1c0-8.6-7-15.6-15.6-15.6c-8.6,0-15.6,7-15.6,15.6c0,0.1,0,0.1,0,0.2
						c0,0-0.6,4.7,5.5,11.5c1.6,1.9,2,5.1,2.2,6.5c0,0.2,0,0.4,0.1,0.5C34.6,81.3,34.6,81.7,34.6,82.1z"/>
				</g>
			</g>
			<g>
				<path class="st0" d="M31.5,63.6c-0.5,0-1-0.4-1-1c0-6.5,5.3-11.9,11.9-11.9c0.5,0,1,0.4,1,1c0,0.5-0.4,1-1,1
					c-5.5,0-9.9,4.5-9.9,9.9C32.4,63.2,32,63.6,31.5,63.6z"/>
			</g>
		</g>
		<g>
			<path class="st0" d="M43,41.6c-0.5,0-1-0.4-1-1v-7.4c0-0.5,0.4-1,1-1c0.5,0,1,0.4,1,1v7.4C44,41.2,43.5,41.6,43,41.6z"/>
		</g>
		<g>
			<path class="st0" d="M58,48c-0.2,0-0.5-0.1-0.7-0.3c-0.4-0.4-0.4-1,0-1.4l5.2-5.2c0.4-0.4,1-0.4,1.4,0c0.4,0.4,0.4,1,0,1.4
				l-5.2,5.2C58.5,47.9,58.2,48,58,48z"/>
		</g>
		<g>
			<path class="st0" d="M22.4,83.1c-0.2,0-0.5-0.1-0.7-0.3c-0.4-0.4-0.4-1,0-1.4l5.2-5.2c0.4-0.4,1-0.4,1.4,0c0.4,0.4,0.4,1,0,1.4
				L23,82.8C22.9,83,22.6,83.1,22.4,83.1z"/>
		</g>
		<g>
			<path class="st0" d="M21.5,62.7h-7.4c-0.5,0-1-0.4-1-1c0-0.5,0.4-1,1-1h7.4c0.5,0,1,0.4,1,1C22.5,62.3,22,62.7,21.5,62.7z"/>
		</g>
		<g>
			<path class="st0" d="M27.9,47.7c-0.2,0-0.5-0.1-0.7-0.3l-5.2-5.2c-0.4-0.4-0.4-1,0-1.4c0.4-0.4,1-0.4,1.4,0l5.2,5.2
				c0.4,0.4,0.4,1,0,1.4C28.4,47.6,28.1,47.7,27.9,47.7z"/>
		</g>
	</g>
</g>
</svg>
