<?xml version="1.0" encoding="utf-8"?>
<!-- Generator: Adobe Illustrator 27.6.1, SVG Export Plug-In . SVG Version: 6.00 Build 0)  -->
<svg version="1.1" id="Layer_1" xmlns="http://www.w3.org/2000/svg" xmlns:xlink="http://www.w3.org/1999/xlink" x="0px" y="0px"
	 viewBox="0 0 128 128" style="enable-background:new 0 0 128 128;" xml:space="preserve">
<style type="text/css">
	.st0{fill:#0069B1;}
</style>
<g>
	<g>
		<g>
			<path class="st0" d="M80.9,87.7c0.5-0.8,1.1-1.6,1.7-2.4H17.5c-1,0-1.8-0.8-1.8-1.8V36c0-1,0.8-1.8,1.8-1.8h74.4
				c1,0,1.8,0.8,1.8,1.8v22.3c0.7-0.2,1.5-0.3,2.4-0.3V36c0-2.3-1.9-4.2-4.2-4.2H17.5c-2.3,0-4.2,1.9-4.2,4.2v47.6
				c0,2.3,1.9,4.2,4.2,4.2L80.9,87.7C80.9,87.7,80.9,87.7,80.9,87.7z"/>
		</g>
		<g>
			<path class="st0" d="M94.8,42.8H14.5c-0.7,0-1.2-0.5-1.2-1.2s0.5-1.2,1.2-1.2h80.3c0.7,0,1.2,0.5,1.2,1.2S95.5,42.8,94.8,42.8z"
				/>
		</g>
		<g>
			<path class="st0" d="M94.8,54.1H14.5c-0.7,0-1.2-0.5-1.2-1.2c0-0.7,0.5-1.2,1.2-1.2h80.3c0.7,0,1.2,0.5,1.2,1.2
				C96,53.6,95.5,54.1,94.8,54.1z"/>
		</g>
		<g>
			<g>
				<path class="st0" d="M43.7,64.7H22.4c-0.7,0-1.2-0.5-1.2-1.2c0-0.7,0.5-1.2,1.2-1.2h21.3c0.7,0,1.2,0.5,1.2,1.2
					C44.9,64.2,44.3,64.7,43.7,64.7z"/>
			</g>
			<g>
				<path class="st0" d="M43.7,73.6H22.4c-0.7,0-1.2-0.5-1.2-1.2c0-0.7,0.5-1.2,1.2-1.2h21.3c0.7,0,1.2,0.5,1.2,1.2
					C44.9,73.1,44.3,73.6,43.7,73.6z"/>
			</g>
		</g>
	</g>
	<g>
		<g>
			<path class="st0" d="M97.5,96.2h-4.8c-0.6,0-1.1-0.5-1.2-1.1l-0.3-3.4c-1.5-0.3-2.8-0.9-4.1-1.6l-2.5,2.1
				c-0.5,0.4-1.2,0.4-1.6-0.1l-3.4-3.4c-0.4-0.4-0.5-1.1-0.1-1.6l2-2.4c-0.8-1.3-1.5-2.8-1.8-4.3l-3.1-0.3c-0.6-0.1-1.1-0.6-1.1-1.2
				v-4.8c0-0.6,0.5-1.1,1.1-1.2l3.1-0.3c0.4-1.5,1-3,1.8-4.3l-2-2.4c-0.4-0.5-0.4-1.2,0.1-1.6l3.4-3.4c0.4-0.4,1.1-0.5,1.6-0.1
				L87,63c1.3-0.7,2.7-1.3,4.1-1.6l0.3-3.4c0.1-0.6,0.6-1.1,1.2-1.1h4.8c0.6,0,1.1,0.5,1.2,1.1l0.3,3.7c1.3,0.4,2.6,0.9,3.7,1.7
				l2.9-2.5c0.5-0.4,1.2-0.4,1.6,0.1l3.4,3.4c0.4,0.4,0.5,1.1,0.1,1.6l-2.6,3.1c0.6,1.1,1.1,2.3,1.4,3.6l4,0.4
				c0.6,0.1,1.1,0.6,1.1,1.2V79c0,0.6-0.5,1.1-1.1,1.2l-4,0.4c-0.3,1.2-0.8,2.4-1.4,3.6l2.6,3.1c0.4,0.5,0.4,1.2-0.1,1.6l-3.4,3.4
				c-0.4,0.4-1.1,0.5-1.6,0.1l-2.9-2.5c-1.2,0.7-2.4,1.3-3.7,1.7l-0.3,3.7C98.6,95.7,98.1,96.2,97.5,96.2z M93.8,93.8h2.6l0.3-3.4
				c0-0.5,0.4-0.9,0.9-1.1c1.6-0.4,3.1-1.1,4.5-2c0.4-0.3,1-0.3,1.4,0.1l2.8,2.3l1.9-1.9l-2.4-2.9c-0.3-0.4-0.4-1-0.1-1.4
				c0.9-1.4,1.5-2.8,1.8-4.4c0.1-0.5,0.5-0.9,1.1-0.9l3.8-0.3v-2.6l-3.8-0.3c-0.5,0-1-0.4-1.1-0.9c-0.3-1.6-0.9-3-1.8-4.4
				c-0.3-0.4-0.2-1,0.1-1.4l2.4-2.9l-1.9-1.9l-2.8,2.3c-0.4,0.3-1,0.4-1.4,0.1c-1.4-1-2.9-1.6-4.5-2c-0.5-0.1-0.9-0.5-0.9-1.1
				l-0.3-3.4h-2.6l-0.3,3.2c0,0.5-0.5,1-1,1.1c-1.8,0.3-3.4,0.9-4.9,1.9c-0.4,0.3-1,0.2-1.4-0.1l-2.4-2l-1.9,1.9l1.9,2.3
				c0.3,0.4,0.4,1,0.1,1.4c-1.1,1.5-1.8,3.2-2.2,5c-0.1,0.5-0.5,0.9-1.1,1l-2.9,0.2v2.6l2.9,0.2c0.5,0,1,0.4,1.1,1
				c0.4,1.8,1.1,3.5,2.2,5c0.3,0.4,0.3,1-0.1,1.4l-1.9,2.3l1.9,1.9l2.4-2c0.4-0.3,1-0.4,1.4-0.1c1.5,1,3.2,1.6,4.9,1.9
				c0.5,0.1,0.9,0.5,1,1.1L93.8,93.8z M113.5,79L113.5,79L113.5,79z"/>
		</g>
		<g>
			<path class="st0" d="M95.1,86.5c-5.5,0-9.9-4.5-9.9-9.9c0-5.5,4.5-9.9,9.9-9.9c5.5,0,9.9,4.5,9.9,9.9
				C105,82,100.5,86.5,95.1,86.5z M95.1,69c-4.2,0-7.6,3.4-7.6,7.6c0,4.2,3.4,7.6,7.6,7.6c4.2,0,7.6-3.4,7.6-7.6
				C102.6,72.4,99.2,69,95.1,69z"/>
		</g>
	</g>
</g>
</svg>
