<?xml version="1.0" encoding="utf-8"?>
<!-- Generator: Adobe Illustrator 27.6.1, SVG Export Plug-In . SVG Version: 6.00 Build 0)  -->
<svg version="1.1" id="Layer_1" xmlns="http://www.w3.org/2000/svg" xmlns:xlink="http://www.w3.org/1999/xlink" x="0px" y="0px"
	 viewBox="0 0 128 128" style="enable-background:new 0 0 128 128;" xml:space="preserve">
<style type="text/css">
	.st0{fill:#0069B1;}
</style>
<g>
	<g>
		<g>
			<path class="st0" d="M69.6,81.6H20.6c-2.7,0-4.9-2.2-4.9-4.9V33.2c0-2.7,2.2-4.9,4.9-4.9h68.7c2.7,0,4.9,2.2,4.9,4.9v25.3
				c0,0.8-0.6,1.4-1.4,1.4c-0.8,0-1.4-0.6-1.4-1.4V33.2c0-1.2-0.9-2.1-2.1-2.1H20.6c-1.2,0-2.1,0.9-2.1,2.1v43.5
				c0,1.2,0.9,2.1,2.1,2.1h49.1c0.8,0,1.4,0.6,1.4,1.4C71,81,70.4,81.6,69.6,81.6z"/>
		</g>
		<g>
			<path class="st0" d="M92.8,39.2H17.1c-0.8,0-1.4-0.6-1.4-1.4c0-0.8,0.6-1.4,1.4-1.4h75.7c0.8,0,1.4,0.6,1.4,1.4
				C94.2,38.6,93.6,39.2,92.8,39.2z"/>
		</g>
		<g>
			<path class="st0" d="M92.8,49.9H17.1c-0.8,0-1.4-0.6-1.4-1.4c0-0.8,0.6-1.4,1.4-1.4h75.7c0.8,0,1.4,0.6,1.4,1.4
				C94.2,49.3,93.6,49.9,92.8,49.9z"/>
		</g>
		<g>
			<g>
				<path class="st0" d="M44.6,59.9H24.5c-0.8,0-1.4-0.6-1.4-1.4c0-0.8,0.6-1.4,1.4-1.4h20.1c0.8,0,1.4,0.6,1.4,1.4
					C46,59.3,45.4,59.9,44.6,59.9z"/>
			</g>
			<g>
				<path class="st0" d="M44.6,68.3H24.5c-0.8,0-1.4-0.6-1.4-1.4c0-0.8,0.6-1.4,1.4-1.4h20.1c0.8,0,1.4,0.6,1.4,1.4
					C46,67.7,45.4,68.3,44.6,68.3z"/>
			</g>
		</g>
		<g>
			<path class="st0" d="M73.9,69.9c-0.1,0-0.3,0-0.4-0.1c-3.1-1-5.2-3.9-5.2-7.2c0-4.2,3.4-7.5,7.5-7.5c3.4,0,6.5,2.3,7.3,5.7
				c0.2,0.7-0.3,1.5-1,1.7c-0.7,0.2-1.5-0.3-1.7-1c-0.5-2.1-2.4-3.6-4.6-3.6c-2.6,0-4.8,2.1-4.8,4.8c0,2.1,1.3,3.9,3.3,4.5
				c0.7,0.2,1.1,1,0.9,1.8C75,69.6,74.5,69.9,73.9,69.9z"/>
		</g>
	</g>
	<g>
		<g>
			<path class="st0" d="M92.8,99.7c-10.7,0-19.5-8.7-19.5-19.5s8.7-19.5,19.5-19.5c10.7,0,19.5,8.7,19.5,19.5S103.6,99.7,92.8,99.7z
				 M92.8,63.5c-9.2,0-16.7,7.5-16.7,16.7c0,9.2,7.5,16.7,16.7,16.7s16.7-7.5,16.7-16.7C109.5,71,102,63.5,92.8,63.5z"/>
		</g>
		<g>
			<path class="st0" d="M90.5,87.2c-0.4,0-0.7-0.1-1-0.4l-6.6-6.6c-0.5-0.5-0.5-1.4,0-2c0.5-0.5,1.4-0.5,2,0l5.6,5.6l10.2-10.2
				c0.5-0.5,1.4-0.5,2,0s0.5,1.4,0,2L91.5,86.8C91.2,87,90.9,87.2,90.5,87.2z"/>
		</g>
	</g>
</g>
</svg>
