<?xml version="1.0" encoding="UTF-8"?>
<svg id="Layer_1" data-name="Layer 1" xmlns="http://www.w3.org/2000/svg" viewBox="0 0 128 128">
  <defs>
    <style>
      .cls-1 {
        fill: #0069b1;
      }
    </style>
  </defs>
  <path class="cls-1" d="m93.61,86.2l3.07-2.56v1.91c0,3.58-2.92,6.5-6.5,6.5H19.93c-3.58,0-6.5-2.92-6.5-6.5v-43.1c0-3.58,2.92-6.5,6.5-6.5h70.24c3.58,0,6.5,2.92,6.5,6.5v2.07l-3.05-2.55c-.23-1.7-1.68-3.03-3.45-3.03H19.93c-1.93,0-3.5,1.57-3.5,3.5v43.1c0,1.93,1.57,3.5,3.5,3.5h70.24c1.71,0,3.13-1.23,3.43-2.85Zm-38.79-8.81c0-3.42,2.78-6.2,6.2-6.2,1.91,0,3.62.87,4.75,2.23.81-.97,1.91-1.68,3.16-2.01v3.22c-.96.55-1.61,1.58-1.61,2.76,0,1.77,1.44,3.2,3.2,3.2s3.2-1.44,3.2-3.2c0-.82-.32-1.56-.82-2.12h4.75c-.51.57-.82,1.31-.82,2.12,0,1.77,1.44,3.2,3.2,3.2s3.2-1.44,3.2-3.2c0-.82-.32-1.56-.82-2.12h3.44c.24.66.38,1.38.38,2.12,0,3.42-2.78,6.2-6.2,6.2-1.91,0-3.61-.87-4.75-2.23-1.14,1.36-2.85,2.23-4.75,2.23s-3.62-.87-4.75-2.23c-1.14,1.36-2.85,2.23-4.75,2.23-3.42,0-6.2-2.78-6.2-6.2Zm3,0c0,1.77,1.44,3.2,3.2,3.2s3.2-1.44,3.2-3.2-1.44-3.2-3.2-3.2-3.2,1.44-3.2,3.2Zm-19.33-32.85v12.21h-15.42v-12.21h15.42Zm-3,3h-9.42v6.21h9.42v-6.21Zm-12.42,31.29h23.09v-3h-23.09v3Zm45.87-16.39H23.07v3h45.87v-3Zm24.76,19.77v-9.95h-21.76v-16.2h21.76v-10.12l21.71,18.13-21.71,18.13Zm3-12.95v6.53l14.03-11.72-14.03-11.72v6.7h-21.76v10.2h21.76Z"/>
</svg>