<?xml version="1.0" encoding="utf-8"?>
<!-- Generator: Adobe Illustrator 27.6.1, SVG Export Plug-In . SVG Version: 6.00 Build 0)  -->
<svg version="1.1" id="Layer_1" xmlns="http://www.w3.org/2000/svg" xmlns:xlink="http://www.w3.org/1999/xlink" x="0px" y="0px"
	 viewBox="0 0 128 128" style="enable-background:new 0 0 128 128;" xml:space="preserve">
<style type="text/css">
	.st0{fill:#0E6AB4;}
</style>
<g>
	<g>
		<g>
			<g>
				<path class="st0" d="M66.9,86.1H22.5c-3.7,0-6.8-3-6.8-6.8V30.8c0-3.7,3-6.8,6.8-6.8h75.8c3.7,0,6.8,3,6.8,6.8v24.3
					c0,0.9-0.7,1.6-1.6,1.6c-0.9,0-1.6-0.7-1.6-1.6V30.8c0-2-1.6-3.6-3.6-3.6H22.5c-2,0-3.6,1.6-3.6,3.6v48.5c0,2,1.6,3.6,3.6,3.6
					h44.5c0.9,0,1.6,0.7,1.6,1.6C68.5,85.4,67.8,86.1,66.9,86.1z"/>
			</g>
			<g>
				<path class="st0" d="M103.4,52.3H17.3c-0.9,0-1.6-0.7-1.6-1.6v-12c0-0.9,0.7-1.6,1.6-1.6h86.2c0.9,0,1.6,0.7,1.6,1.6v12
					C105,51.6,104.3,52.3,103.4,52.3z M18.9,49.2h83v-8.8h-83V49.2z"/>
			</g>
		</g>
		<g>
			<path class="st0" d="M52.2,63.1H24.5c-0.9,0-1.6-0.7-1.6-1.6c0-0.9,0.7-1.6,1.6-1.6h27.7c0.9,0,1.6,0.7,1.6,1.6
				C53.8,62.4,53.1,63.1,52.2,63.1z"/>
		</g>
	</g>
	<g>
		<path class="st0" d="M91.5,103.9c-0.2,0-0.3,0-0.5-0.1C80.7,100.6,72,93.3,71.6,93c-0.3-0.2-0.5-0.6-0.5-0.9
			c-0.1-0.3-1.3-7.8,1.1-16.3c2.2-7.6,0-14.4,0-14.5c-0.2-0.5-0.1-1,0.2-1.4c0.3-0.4,0.8-0.6,1.3-0.6c12.3,0,16.2-1.7,16.2-1.7
			c0.1-0.8,0.8-1.3,1.6-1.3c0.6,0,1.2,0.4,1.4,0.9c0.4,0.3,3.1,2.1,16.4,2.1c0.5,0,1,0.2,1.3,0.6c0.3,0.4,0.4,0.9,0.2,1.4
			c0,0.1-2.1,6.8,0,14.5c2.4,8.5,1.2,15.9,1.1,16.3c-0.1,0.4-0.3,0.7-0.5,0.9c-0.4,0.3-9.1,7.6-19.4,10.9
			C91.8,103.9,91.7,103.9,91.5,103.9z M74.1,90.9c1.9,1.5,9.1,7,17.4,9.7c8.3-2.7,15.5-8.3,17.4-9.7c0.2-1.8,0.7-7.8-1.1-14.3
			c-1.7-6-1.1-11.4-0.5-14.2c-8-0.1-13.3-0.9-15.8-2.4c-2.5,1.5-7.8,2.3-15.8,2.4c0.6,2.8,1.2,8.2-0.5,14.2
			C73.4,83.2,73.9,89.1,74.1,90.9z M93.1,57.6C93.1,57.6,93.1,57.6,93.1,57.6C93.1,57.6,93.1,57.6,93.1,57.6z M93.1,57.5
			C93.1,57.6,93.1,57.6,93.1,57.5C93.1,57.6,93.1,57.6,93.1,57.5z M93.1,57.5C93.1,57.5,93.1,57.5,93.1,57.5
			C93.1,57.5,93.1,57.5,93.1,57.5z M93.1,57.5C93.1,57.5,93.1,57.5,93.1,57.5L93.1,57.5z"/>
	</g>
</g>
</svg>
