<?xml version="1.0" encoding="UTF-8"?>
<svg id="Layer_1" data-name="Layer 1" xmlns="http://www.w3.org/2000/svg" viewBox="0 0 128 128">
  <defs>
    <style>
      .cls-1 {
        fill: #0069b1;
      }
    </style>
  </defs>
  <path class="cls-1" d="m114.05,46.35c0-10.1-8.2-18.4-18.4-18.4-9.3,0-17,7-18.2,16H20.45c-3.6,0-6.5,2.9-6.5,6.5v43.1c0,3.6,2.9,6.5,6.5,6.5h70.2c3.6,0,6.5-2.9,6.5-6.5v-28.9c9.4-.7,16.9-8.6,16.9-18.3Zm-23.4,50.7H20.35c-1.9,0-3.5-1.6-3.5-3.5v-43c0-1.9,1.6-3.5,3.5-3.5h56.9c.3,9.3,7.6,16.9,16.8,17.7v28.9c.1,1.9-1.5,3.4-3.4,3.4Zm5-35.3c-8.5,0-15.4-6.9-15.4-15.4s6.9-15.4,15.4-15.4,15.4,6.9,15.4,15.4-6.9,15.4-15.4,15.4Z"/>
  <polygon class="cls-1" points="104.55 38.05 91.15 51.55 86.65 47.05 84.55 49.15 91.15 55.75 106.75 40.15 104.55 38.05"/>
  <path class="cls-1" d="m38.95,52.55h-15.4v12.2h15.4v-12.2Zm-3,9.2h-9.4v-6.2h9.4v6.2Z"/>
  <rect class="cls-1" x="25.05" y="70.45" width="48.9" height="3"/>
  <rect class="cls-1" x="25.05" y="83.85" width="20.1" height="3"/>
  <path class="cls-1" d="m80.45,79.25c-1.9,0-3.6.9-4.8,2.2-1.1-1.4-2.8-2.2-4.8-2.2s-3.6.9-4.8,2.2c-1.1-1.4-2.8-2.2-4.8-2.2-3.4,0-6.2,2.8-6.2,6.2s2.8,6.2,6.2,6.2c1.9,0,3.6-.9,4.8-2.2,1.1,1.4,2.8,2.2,4.8,2.2s3.6-.9,4.8-2.2c1.1,1.4,2.8,2.2,4.8,2.2,3.4,0,6.2-2.8,6.2-6.2s-2.7-6.2-6.2-6.2Zm-19,9.4c-1.8,0-3.2-1.4-3.2-3.2s1.4-3.2,3.2-3.2,3.2,1.4,3.2,3.2-1.4,3.2-3.2,3.2Zm9.5,0c-1.8,0-3.2-1.4-3.2-3.2s1.4-3.2,3.2-3.2,3.2,1.4,3.2,3.2-1.4,3.2-3.2,3.2Zm9.5,0c-1.8,0-3.2-1.4-3.2-3.2s1.4-3.2,3.2-3.2,3.2,1.4,3.2,3.2-1.4,3.2-3.2,3.2Z"/>
</svg>