<?xml version="1.0" encoding="utf-8"?>
<!-- Generator: Adobe Illustrator 27.6.1, SVG Export Plug-In . SVG Version: 6.00 Build 0)  -->
<svg version="1.1" id="Layer_1" xmlns="http://www.w3.org/2000/svg" xmlns:xlink="http://www.w3.org/1999/xlink" x="0px" y="0px"
	 viewBox="0 0 128 128" style="enable-background:new 0 0 128 128;" xml:space="preserve">
<style type="text/css">
	.st0{fill:#0069B1;}
</style>
<g>
	<g>
		<g>
			<path class="st0" d="M105.9,99.3H45.6c-0.8,0-1.5-0.7-1.5-1.5s0.7-1.5,1.5-1.5h60.2c1.2,0,2.2-1,2.2-2.2v-42c0-1.2-1-2.2-2.2-2.2
				h-63c-0.8,0-1.5-0.7-1.5-1.5c0-0.8,0.7-1.5,1.5-1.5h63c2.8,0,5.1,2.3,5.1,5.1v42C111,97,108.7,99.3,105.9,99.3z"/>
		</g>
		<g>
			<path class="st0" d="M109.5,57.9H52.7c-0.8,0-1.5-0.7-1.5-1.5c0-0.8,0.7-1.5,1.5-1.5h56.8c0.8,0,1.5,0.7,1.5,1.5
				C111,57.2,110.3,57.9,109.5,57.9z"/>
		</g>
		<g>
			<path class="st0" d="M109.5,68.3H52.7c-0.8,0-1.5-0.7-1.5-1.5c0-0.8,0.7-1.5,1.5-1.5h56.8c0.8,0,1.5,0.7,1.5,1.5
				C111,67.7,110.3,68.3,109.5,68.3z"/>
		</g>
		<g>
			<g>
				<path class="st0" d="M62.5,78.1H51.7c-0.8,0-1.5-0.7-1.5-1.5c0-0.8,0.7-1.5,1.5-1.5h10.8c0.8,0,1.5,0.7,1.5,1.5
					C63.9,77.4,63.3,78.1,62.5,78.1z"/>
			</g>
			<g>
				<path class="st0" d="M62.5,86.3H47.3c-0.8,0-1.5-0.7-1.5-1.5c0-0.8,0.7-1.5,1.5-1.5h15.2c0.8,0,1.5,0.7,1.5,1.5
					C63.9,85.6,63.3,86.3,62.5,86.3z"/>
			</g>
		</g>
		<g>
			<path class="st0" d="M92.9,88.2c-4.1,0-7.5-3.3-7.5-7.5s3.3-7.5,7.5-7.5s7.5,3.3,7.5,7.5S97,88.2,92.9,88.2z M92.9,76.2
				c-2.5,0-4.5,2-4.5,4.5c0,2.5,2,4.5,4.5,4.5c2.5,0,4.5-2,4.5-4.5C97.4,78.2,95.4,76.2,92.9,76.2z"/>
		</g>
	</g>
	<g>
		<g>
			<path class="st0" d="M33.2,48.4c-4.5,0-8.2-4.4-8.2-9.8c0-5.4,3.7-9.8,8.2-9.8s8.2,4.4,8.2,9.8C41.4,44,37.7,48.4,33.2,48.4z
				 M33.2,31.7c-2.9,0-5.2,3.1-5.2,6.9c0,3.8,2.4,6.9,5.2,6.9s5.2-3.1,5.2-6.9C38.5,34.8,36.1,31.7,33.2,31.7z"/>
		</g>
		<g>
			<path class="st0" d="M41.3,78.4c-0.6,0-1.1-0.4-1.4-0.9c-0.3-0.8,0.1-1.6,0.8-1.9c3.5-1.4,5.7-4.7,5.7-8.4v-4.9
				c0-5-4.1-9.1-9.1-9.1H29c-5,0-9.1,4.1-9.1,9.1v4.9c0,3.7,2.3,7.1,5.7,8.4c0.8,0.3,1.1,1.1,0.8,1.9c-0.3,0.8-1.1,1.1-1.9,0.8
				C20,76.4,17,72.1,17,67.1v-4.9c0-6.6,5.4-12,12-12h8.4c6.6,0,12,5.4,12,12v4.9c0,5-3,9.3-7.6,11.2C41.7,78.3,41.5,78.4,41.3,78.4
				z"/>
		</g>
		<g>
			<path class="st0" d="M33.2,97.6c-0.8,0-1.5-0.7-1.5-1.5V76.9c0-0.8,0.7-1.5,1.5-1.5c0.8,0,1.5,0.7,1.5,1.5v19.3
				C34.7,97,34,97.6,33.2,97.6z"/>
		</g>
		<g>
			<path class="st0" d="M36.9,99.3c-1.2,0-2.4-0.3-3.6-1.2c-3.4,2.4-7.1,0.6-8.8-0.8c-0.3-0.3-0.5-0.7-0.5-1.1V60.6
				c0-0.8,0.7-1.5,1.5-1.5c0.8,0,1.5,0.7,1.5,1.5v34.9c1,0.7,3.3,1.7,5.3-0.3c0.6-0.6,1.5-0.6,2.1,0c2,2,4.3,0.9,5.3,0.3V60.6
				c0-0.8,0.7-1.5,1.5-1.5c0.8,0,1.5,0.7,1.5,1.5v35.6c0,0.4-0.2,0.8-0.5,1.1C41,98.2,39,99.3,36.9,99.3z"/>
		</g>
	</g>
</g>
</svg>
