<?xml version="1.0" encoding="UTF-8"?>
<svg id="Layer_1" data-name="Layer 1" xmlns="http://www.w3.org/2000/svg" viewBox="0 0 128 128">
  <defs>
    <style>
      .cls-1 {
        fill: #0069b1;
      }
    </style>
  </defs>
  <path class="cls-1" d="m104.32,52.47h-41.95c.12-.93.19-1.87.19-2.84,0-12.31-10.01-22.32-22.32-22.32s-22.32,10.01-22.32,22.32,9.21,21.49,20.82,22.26v23.04c0,3.17,2.58,5.76,5.76,5.76h59.83c3.17,0,5.76-2.58,5.76-5.76v-36.71c0-3.18-2.58-5.76-5.76-5.76Zm-83.4-2.84c0-.8.07-1.59.16-2.37l7.83,7.83c-.28.58-.45,1.23-.45,1.92,0,2.47,2.01,4.49,4.49,4.49s4.49-2.01,4.49-4.49-2.01-4.49-4.49-4.49c-.69,0-1.33.17-1.92.45l-9.2-9.2c1.94-6.06,6.79-10.82,12.89-12.65l10.82,11c-.28.59-.45,1.23-.45,1.93,0,2.47,2.01,4.49,4.49,4.49s4.49-2.01,4.49-4.49-2.01-4.49-4.49-4.49c-.68,0-1.33.17-1.91.44l-9.43-9.59c.66-.07,1.32-.1,1.99-.1,10.65,0,19.32,8.67,19.32,19.32,0,2.71-.57,5.29-1.58,7.64l-6.75-6.75h-7.84l-6.3-6.3c.23-.54.36-1.14.36-1.77,0-2.47-2.01-4.49-4.49-4.49s-4.49,2.01-4.49,4.49,2.01,4.49,4.49,4.49c.75,0,1.45-.2,2.07-.53l7.11,7.11h7.84l6.51,6.51c-1.43,2.23-3.29,4.15-5.48,5.63l-2.96-2.96c.28-.58.45-1.23.45-1.92,0-2.47-2.01-4.49-4.49-4.49s-4.49,2.01-4.49,4.49,2.01,4.49,4.49,4.49c.69,0,1.33-.17,1.92-.45l2.36,2.36c-2.45,1.13-5.17,1.78-8.04,1.78-10.65,0-19.32-8.67-19.32-19.32Zm12.03,5.89c.82,0,1.49.67,1.49,1.49s-.67,1.49-1.49,1.49-1.49-.67-1.49-1.49.67-1.49,1.49-1.49Zm16.63-12.96c.82,0,1.49.67,1.49,1.49s-.67,1.49-1.49,1.49-1.49-.67-1.49-1.49.67-1.49,1.49-1.49Zm-16.63,1.37c-.82,0-1.49-.67-1.49-1.49s.67-1.49,1.49-1.49,1.49.67,1.49,1.49-.67,1.49-1.49,1.49Zm11.05,18.33c-.82,0-1.49-.67-1.49-1.49s.67-1.49,1.49-1.49,1.49.67,1.49,1.49-.67,1.49-1.49,1.49Zm63.07,32.67c0,1.52-1.24,2.76-2.76,2.76h-59.83c-1.52,0-2.76-1.24-2.76-2.76v-23.04c9.62-.64,17.59-7.41,20.04-16.43h42.54c1.52,0,2.76,1.24,2.76,2.76v36.71Z"/>
  <rect class="cls-1" x="49.63" y="75.03" width="41.66" height="3"/>
  <rect class="cls-1" x="49.63" y="86.43" width="17.11" height="3"/>
  <path class="cls-1" d="m96.87,82.48c-1.6,0-3.04.69-4.05,1.79-1.01-1.1-2.45-1.79-4.05-1.79s-3.04.69-4.05,1.79c-1.01-1.1-2.45-1.79-4.05-1.79-3.04,0-5.5,2.47-5.5,5.5s2.47,5.5,5.5,5.5c1.6,0,3.04-.69,4.05-1.79,1.01,1.1,2.45,1.79,4.05,1.79s3.04-.69,4.05-1.79c1.01,1.1,2.45,1.79,4.05,1.79,3.04,0,5.5-2.47,5.5-5.5s-2.47-5.5-5.5-5.5Zm-16.19,8.01c-1.38,0-2.5-1.12-2.5-2.5s1.12-2.5,2.5-2.5,2.5,1.12,2.5,2.5-1.12,2.5-2.5,2.5Zm8.1,0c-1.38,0-2.5-1.12-2.5-2.5s1.12-2.5,2.5-2.5,2.5,1.12,2.5,2.5-1.12,2.5-2.5,2.5Zm8.1,0c-1.38,0-2.5-1.12-2.5-2.5s1.12-2.5,2.5-2.5,2.5,1.12,2.5,2.5-1.12,2.5-2.5,2.5Z"/>
</svg>