<?xml version="1.0" encoding="UTF-8"?>
<svg id="Layer_1" data-name="Layer 1" xmlns="http://www.w3.org/2000/svg" viewBox="0 0 128 128">
  <defs>
    <style>
      .cls-1 {
        fill: #0069b1;
      }
    </style>
  </defs>
  <path class="cls-1" d="m39.33,51.81h-15.42v12.21h15.42v-12.21Zm-3,9.21h-9.42v-6.21h9.42v6.21Z"/>
  <rect class="cls-1" x="23.91" y="69.71" width="57.84" height="3"/>
  <rect class="cls-1" x="23.91" y="83.1" width="23.09" height="3"/>
  <path class="cls-1" d="m80.88,78.46c-1.91,0-3.61.87-4.75,2.23-1.14-1.36-2.85-2.23-4.75-2.23s-3.62.87-4.75,2.23c-1.14-1.36-2.85-2.23-4.75-2.23-3.42,0-6.2,2.78-6.2,6.2s2.78,6.2,6.2,6.2c1.91,0,3.62-.87,4.75-2.23,1.14,1.36,2.85,2.23,4.75,2.23s3.61-.87,4.75-2.23c1.14,1.36,2.85,2.23,4.75,2.23,3.42,0,6.2-2.78,6.2-6.2s-2.78-6.2-6.2-6.2Zm-19.02,9.4c-1.77,0-3.2-1.44-3.2-3.2s1.44-3.2,3.2-3.2,3.2,1.44,3.2,3.2-1.44,3.2-3.2,3.2Zm9.51,0c-1.77,0-3.2-1.44-3.2-3.2s1.44-3.2,3.2-3.2,3.2,1.44,3.2,3.2-1.44,3.2-3.2,3.2Zm9.51,0c-1.77,0-3.2-1.44-3.2-3.2s1.44-3.2,3.2-3.2,3.2,1.44,3.2,3.2-1.44,3.2-3.2,3.2Z"/>
  <path class="cls-1" d="m108.24,33.57c-3.54-3.37-8.18-5.1-13.08-4.87-8.19.39-15.08,6.6-16.55,14.52H20.78c-3.58,0-6.5,2.92-6.5,6.5v43.1c0,3.58,2.92,6.5,6.5,6.5h70.24c3.58,0,6.5-2.92,6.5-6.5v-14.1c2.5-.58,4.47-2.58,4.99-5.1,1.95-.49,3.4-2.25,3.4-4.35v-5.09c0-1.83.72-3.53,1.97-4.66,3.72-3.35,5.85-8.14,5.85-13.13s-1.95-9.44-5.49-12.81Zm-17.22,62.74H20.78c-1.93,0-3.5-1.57-3.5-3.5v-43.1c0-1.93,1.57-3.5,3.5-3.5h57.56c-.04,5.03,2,9.8,5.73,13.22,1.31,1.19,2.05,2.92,2.05,4.73v5.1c0,2.1,1.45,3.85,3.4,4.35.52,2.52,2.49,4.52,4.99,5.1v14.1c0,1.93-1.57,3.5-3.5,3.5Zm-1.89-30.65h13.78v1.05h-13.78v-1.05Zm12.28,5.1h-10.78c-.67,0-1.23-.44-1.42-1.05h13.63c-.19.61-.75,1.05-1.42,1.05Zm-5.39,5.13c-1.46,0-2.72-.88-3.3-2.13h6.59c-.57,1.25-1.83,2.13-3.3,2.13Zm9.85-18.61c-1.52,1.37-2.51,3.28-2.83,5.38h-14.04c-.33-2.09-1.34-4.02-2.9-5.45-3.29-3.01-5.03-7.29-4.76-11.75.45-7.37,6.58-13.42,13.96-13.77.24-.01.48-.02.72-.02,3.8,0,7.38,1.43,10.14,4.06,2.94,2.8,4.56,6.58,4.56,10.64s-1.77,8.12-4.86,10.9Z"/>
  <path class="cls-1" d="m96.02,33.68v3c5.35,0,9.71,4.35,9.71,9.71h3c0-7.01-5.7-12.71-12.71-12.71Z"/>
</svg>