<?xml version="1.0" encoding="UTF-8"?>
<svg id="Layer_1" data-name="Layer 1" xmlns="http://www.w3.org/2000/svg" viewBox="0 0 128 128">
  <defs>
    <style>
      .cls-1 {
        fill: #0069b1;
      }
    </style>
  </defs>
  <path class="cls-1" d="m107.15,32.91h-3v-2.85c0-4.48-3.65-8.13-8.13-8.13s-8.13,3.65-8.13,8.13v2.85h-3v-2.85c0-6.14,4.99-11.13,11.13-11.13s11.13,4.99,11.13,11.13v2.85Z"/>
  <path class="cls-1" d="m17.28,71.91v-26.68c0-1.93,1.57-3.5,3.5-3.5h55.32v-3H20.78c-3.58,0-6.5,2.92-6.5,6.5v43.1c0,3.58,2.92,6.5,6.5,6.5h70.24c3.58,0,6.5-2.92,6.5-6.5v-16.44l-80.24.02Zm77.24,16.42c0,1.93-1.57,3.5-3.5,3.5H20.78c-1.93,0-3.5-1.57-3.5-3.5v-3.72h77.24v3.72Zm0-6.72H17.28v-6.69h77.24v6.69Z"/>
  <path class="cls-1" d="m112.94,68.89h-33.84v-33.84h33.84v33.84Zm-30.84-3h27.84v-27.84h-27.84v27.84Z"/>
  <g>
    <path class="cls-1" d="m96.02,53.52c-2.37,0-4.3-1.93-4.3-4.3s1.93-4.3,4.3-4.3,4.3,1.93,4.3,4.3-1.93,4.3-4.3,4.3Zm0-5.6c-.72,0-1.3.58-1.3,1.3s.58,1.3,1.3,1.3,1.3-.58,1.3-1.3-.58-1.3-1.3-1.3Z"/>
    <rect class="cls-1" x="94.52" y="52.02" width="3" height="5.51"/>
  </g>
</svg>