<?xml version="1.0" encoding="UTF-8"?>
<svg id="Layer_1" data-name="Layer 1" xmlns="http://www.w3.org/2000/svg" viewBox="0 0 128 128">
  <defs>
    <style>
      .cls-1 {
        fill: #0069b1;
      }
    </style>
  </defs>
  <path class="cls-1" d="m102.14,75.07H25.86v-26.1c0-2.43,1.98-4.42,4.42-4.42h67.46c2.43,0,4.42,1.98,4.42,4.42v26.1Zm-73.29-3h70.29v-23.1c0-.78-.63-1.42-1.42-1.42H30.27c-.78,0-1.42.63-1.42,1.42v23.1Zm66.93-3.54h-39.14v-17.44h39.14v17.44Zm-36.14-3h33.14v-11.44h-33.14v11.44Zm5.59-30.77h-3v11.29h3v-11.29Zm16.17,1.5h-35.33v-14.29h35.33v14.29Zm-32.33-3h29.33v-8.29h-29.33v8.29Zm62.53,52.65l-9.74-13.23-2.42,1.78,9.16,12.43v16.15H19.41v-16.15l9.16-12.43-2.42-1.78-9.74,13.23v20.13h95.19v-20.13Zm-1.5-1.01H17.91v3h92.19v-3Zm-45.27,10.54c0-1.32-1.07-2.39-2.39-2.39s-2.39,1.07-2.39,2.39,1.07,2.39,2.39,2.39,2.39-1.07,2.39-2.39Zm-21.62-29.85v1.74h-1.83v-1.77c-1.51-.19-2.99-.79-4.15-1.67l1.37-2c.95.72,1.83,1.21,2.86,1.42v-2.79c-2.53-.69-3.78-1.67-3.78-3.74,0-1.95,1.48-3.23,3.69-3.46v-1.02h1.83v1.05c1.25.18,2.32.63,3.27,1.3l-1.18,2.05c-.7-.47-1.44-.84-2.18-1.04v2.65c2.67.72,3.81,1.83,3.81,3.79s-1.49,3.23-3.72,3.48Zm-1.74-10.08c-.84.12-1.21.54-1.21,1.11s.25.91,1.21,1.26v-2.37Zm1.65,5.43v2.46c.83-.12,1.25-.51,1.25-1.14,0-.6-.3-.97-1.25-1.32Z"/>
</svg>