<?xml version="1.0" encoding="UTF-8"?>
<svg id="Layer_1" data-name="Layer 1" xmlns="http://www.w3.org/2000/svg" viewBox="0 0 128 128">
  <defs>
    <style>
      .cls-1 {
        fill: #0069b1;
      }
    </style>
  </defs>
  <g>
    <path class="cls-1" d="m111.23,63.32h-60.29v-3h57.29v-23.1c0-.78-.63-1.42-1.42-1.42H39.35c-.78,0-1.42.64-1.42,1.42v8.69h-3v-8.69c0-2.44,1.98-4.42,4.42-4.42h67.46c2.43,0,4.42,1.98,4.42,4.42v26.1Z"/>
    <path class="cls-1" d="m104.87,56.78h-39.14v-17.44h39.14v17.44Zm-36.14-3h33.14v-11.44h-33.14v11.44Z"/>
    <rect class="cls-1" x="71.32" y="23.01" width="3" height="11.29"/>
    <path class="cls-1" d="m90.48,24.51h-35.33v-14.29h35.33v14.29Zm-32.33-3h29.33v-8.29h-29.33v8.29Z"/>
    <polygon class="cls-1" points="120.68 94.29 50.94 94.29 50.94 91.29 117.68 91.29 117.68 75.14 108.52 62.71 110.93 60.93 120.68 74.16 120.68 94.29"/>
    <rect class="cls-1" x="50.94" y="73.15" width="68.24" height="3"/>
    <circle class="cls-1" cx="71.52" cy="83.69" r="2.39"/>
    <path class="cls-1" d="m52.28,53.84v1.74h-1.83v-1.77c-1.51-.19-2.99-.79-4.15-1.67l1.37-2c.95.72,1.83,1.21,2.86,1.42v-2.79c-2.53-.69-3.78-1.67-3.78-3.74,0-1.95,1.48-3.23,3.69-3.46v-1.02h1.83v1.05c1.25.18,2.32.63,3.27,1.3l-1.18,2.05c-.7-.47-1.44-.84-2.18-1.04v2.65c2.67.72,3.81,1.83,3.81,3.79s-1.49,3.23-3.72,3.48Zm-1.74-10.08c-.84.12-1.21.54-1.21,1.11s.25.91,1.21,1.26v-2.37Zm1.65,5.43v2.46c.83-.12,1.25-.51,1.25-1.14,0-.6-.3-.97-1.25-1.32Z"/>
  </g>
  <path class="cls-1" d="m37.3,117.5H12.6c-3.13,0-5.68-2.55-5.68-5.68v-57.24c0-3.13,2.55-5.68,5.68-5.68h24.7c3.13,0,5.68,2.55,5.68,5.68v57.24c0,3.13-2.55,5.68-5.68,5.68ZM12.6,51.9c-1.48,0-2.68,1.2-2.68,2.68v57.24c0,1.48,1.2,2.68,2.68,2.68h24.7c1.48,0,2.68-1.2,2.68-2.68v-57.24c0-1.48-1.2-2.68-2.68-2.68H12.6Z"/>
  <rect class="cls-1" x="8.42" y="59.63" width="33.06" height="3"/>
  <path class="cls-1" d="m38.11,107.66H11.78v-42.04h26.33v42.04Zm-23.33-3h20.33v-36.04H14.78v36.04Z"/>
  <rect class="cls-1" x="21.67" y="55.46" width="6.56" height="3"/>
  <rect class="cls-1" x="45.06" y="59.63" width="3" height="38.05"/>
</svg>