<?xml version="1.0" encoding="UTF-8"?>
<svg id="Layer_1" data-name="Layer 1" xmlns="http://www.w3.org/2000/svg" viewBox="0 0 128 128">
  <defs>
    <style>
      .cls-1 {
        fill: #0069b1;
      }
    </style>
  </defs>
  <path class="cls-1" d="m30.49,57.43c-7.58,0-13.74,6.16-13.74,13.74s6.16,13.74,13.74,13.74,13.74-6.16,13.74-13.74-6.16-13.74-13.74-13.74Zm0,24.48c-5.92,0-10.74-4.82-10.74-10.74s4.82-10.74,10.74-10.74,10.74,4.82,10.74,10.74-4.82,10.74-10.74,10.74Z"/>
  <path class="cls-1" d="m102.44,91.97l3.84-3.83-16.37-16.41-2.12,2.12,14.25,14.29-1.71,1.71-44.67-44.78c-.11-.11-.23-.2-.37-.27l-16.14-8.38c-.58-.3-1.29-.19-1.75.27-.46.46-.57,1.17-.27,1.75l8.34,16.16c.07.14.16.26.27.37l47.31,47.42c1.29,1.29,2.98,1.93,4.67,1.93s3.37-.64,4.66-1.92l.59-.59c2.57-2.57,2.58-6.75,0-9.32l-.52-.52Zm-47.55-43.41l18.96,19-5.67,5.66-18.96-19,5.67-5.66Zm21.08,21.13l22.23,22.28-5.67,5.66-22.23-22.28,5.67-5.66Zm-34.02-28.43l10.53,5.47-5.09,5.08-5.44-10.55Zm58.89,58.44l-.59.59c-1.4,1.4-3.68,1.4-5.08,0l-.52-.52,5.67-5.66.52.53c1.4,1.4,1.4,3.68,0,5.08Z"/>
  <rect class="cls-1" x="49.32" y="28.71" width="29.39" height="3"/>
  <polygon class="cls-1" points="49.32 67.09 49.32 70.09 56.58 70.09 53.58 67.09 49.32 67.09"/>
  <path class="cls-1" d="m30.49,48.15c2.64,0,5.1-.76,7.2-2.06l-1.38-2.67c-1.68,1.09-3.67,1.73-5.82,1.73-5.92,0-10.74-4.82-10.74-10.74s4.82-10.74,10.74-10.74,10.56,4.66,10.72,10.44l2.95,1.53c.04-.41.06-.82.06-1.24,0-7.58-6.16-13.74-13.74-13.74s-13.74,6.16-13.74,13.74,6.16,13.74,13.74,13.74Z"/>
  <polygon class="cls-1" points="49.32 75.49 49.32 78.49 64.95 78.49 61.96 75.49 49.32 75.49"/>
  <polygon class="cls-1" points="96.58 40.11 96.58 37.11 49.32 37.11 49.32 38.33 52.76 40.11 96.58 40.11"/>
  <polygon class="cls-1" points="27.27 37.65 24.35 34.73 22.23 36.86 27.27 41.9 38.75 30.41 36.63 28.29 27.27 37.65"/>
</svg>