<?xml version="1.0" encoding="UTF-8"?>
<svg id="Layer_1" data-name="Layer 1" xmlns="http://www.w3.org/2000/svg" viewBox="0 0 128 128">
  <defs>
    <style>
      .cls-1 {
        fill: #0069b1;
      }
    </style>
  </defs>
  <g>
    <path class="cls-1" d="m82.65,108.28h-37c-3.58,0-6.5-2.92-6.5-6.5V26.22c0-3.58,2.92-6.5,6.5-6.5h37c3.58,0,6.5,2.92,6.5,6.5v75.55c0,3.58-2.92,6.5-6.5,6.5ZM45.65,22.72c-1.93,0-3.5,1.57-3.5,3.5v75.55c0,1.93,1.57,3.5,3.5,3.5h37c1.93,0,3.5-1.57,3.5-3.5V26.22c0-1.93-1.57-3.5-3.5-3.5h-37Z"/>
    <rect class="cls-1" x="40.35" y="36.61" width="46.86" height="3"/>
    <rect class="cls-1" x="40.35" y="88.7" width="46.86" height="3"/>
    <rect class="cls-1" x="55.36" y="97.35" width="16.84" height="3"/>
    <rect class="cls-1" x="55.36" y="28.43" width="4.6" height="3"/>
    <rect class="cls-1" x="63.66" y="28.43" width="9.69" height="3"/>
  </g>
  <path class="cls-1" d="m68.94,63.4c-.27,1.09-.82,2.09-1.63,2.91-1.17,1.17-2.73,1.82-4.39,1.82s-3.22-.65-4.39-1.82l-5.95-5.95c-2.42-2.42-2.42-6.36,0-8.78,1.21-1.21,2.8-1.82,4.39-1.82s3.18.61,4.39,1.82l1,1c.98-.25,2-.39,3.04-.39.29,0,.57.02.86.04l-2.77-2.77c-3.59-3.59-9.43-3.59-13.02,0-3.59,3.59-3.59,9.43,0,13.02l5.95,5.95c1.74,1.74,4.05,2.7,6.51,2.7s4.77-.96,6.51-2.7c.79-.79,1.41-1.7,1.86-2.68l-2.35-2.34Z"/>
  <path class="cls-1" d="m77.85,63.83l-5.95-5.95c-1.74-1.74-4.05-2.7-6.51-2.7s-4.77.96-6.51,2.7c-.79.79-1.41,1.7-1.86,2.68l2.35,2.34c.27-1.09.82-2.09,1.63-2.9,1.17-1.17,2.73-1.82,4.39-1.82s3.22.65,4.39,1.82l5.95,5.95c2.42,2.42,2.42,6.36,0,8.78-2.42,2.42-6.36,2.42-8.78,0l-1-1c-.98.25-2,.39-3.04.39-.29,0-.57-.02-.86-.04l2.77,2.77c1.79,1.8,4.15,2.69,6.51,2.69s4.72-.9,6.51-2.69c3.59-3.59,3.59-9.43,0-13.02Z"/>
</svg>