<?xml version="1.0" encoding="UTF-8"?>
<svg id="Layer_1" data-name="Layer 1" xmlns="http://www.w3.org/2000/svg" viewBox="0 0 128 128">
  <defs>
    <style>
      .cls-1 {
        fill: #0069b1;
      }
    </style>
  </defs>
  <path class="cls-1" d="m93.41,20.26h-58.83c-3.58,0-6.5,2.92-6.5,6.5v74.48c0,3.58,2.92,6.5,6.5,6.5h58.83c3.58,0,6.5-2.92,6.5-6.5V26.76c0-3.58-2.92-6.5-6.5-6.5Zm-58.83,3h58.83c1.93,0,3.5,1.57,3.5,3.5v2.34H31.09v-2.34c0-1.93,1.57-3.5,3.5-3.5Zm62.33,8.84v59.01H31.09v-59.01h65.83Zm-3.5,72.64h-58.83c-1.93,0-3.5-1.57-3.5-3.5v-7.13h65.83v7.13c0,1.93-1.57,3.5-3.5,3.5Z"/>
  <path class="cls-1" d="m64,96.89c-1.32,0-2.39,1.07-2.39,2.39s1.07,2.39,2.39,2.39,2.39-1.07,2.39-2.39-1.07-2.39-2.39-2.39Z"/>
  <path class="cls-1" d="m46.68,76.91h34.63c2.25,0,4.07-1.82,4.07-4.07v-22.47c0-2.25-1.82-4.07-4.07-4.07h-34.64c-2.25,0-4.07,1.82-4.07,4.07v22.46c0,2.25,1.82,4.07,4.07,4.07Zm34.63-3h-34.63c-.59,0-1.07-.48-1.07-1.07v-12.98h36.78v12.98c0,.59-.48,1.07-1.07,1.07Zm1.07-17.06h-36.78v-3.11h36.78v3.11Zm-35.71-7.55h34.64c.59,0,1.07.48,1.07,1.07v.37h-36.78v-.37c0-.59.48-1.07,1.07-1.07Z"/>
  <path class="cls-1" d="m52.8,63.19h-2.04c-1.95,0-3.54,1.59-3.54,3.54v2.04c0,1.95,1.59,3.54,3.54,3.54h2.04c1.95,0,3.54-1.59,3.54-3.54v-2.04c0-1.95-1.59-3.54-3.54-3.54Zm.54,5.57c0,.3-.24.54-.54.54h-2.04c-.3,0-.54-.24-.54-.54v-2.04c0-.3.24-.54.54-.54h2.04c.3,0,.54.24.54.54v2.04Z"/>
  <rect class="cls-1" x="60.94" y="69.26" width="18.33" height="3"/>
</svg>