<?xml version="1.0" encoding="utf-8"?>
<!-- Generator: Adobe Illustrator 27.6.1, SVG Export Plug-In . SVG Version: 6.00 Build 0)  -->
<svg version="1.1" id="Layer_1" xmlns="http://www.w3.org/2000/svg" xmlns:xlink="http://www.w3.org/1999/xlink" x="0px" y="0px"
	 viewBox="0 0 128 128" style="enable-background:new 0 0 128 128;" xml:space="preserve">
<style type="text/css">
	.st0{fill:#0069B1;}
</style>
<g>
	<g>
		<g>
			<path class="st0" d="M86.6,71.8H41.4c-0.8,0-1.4-0.6-1.4-1.4V54.2c0-0.8,0.6-1.4,1.4-1.4h45.1c0.8,0,1.4,0.6,1.4,1.4v16.2
				C88,71.1,87.3,71.8,86.6,71.8z M42.9,68.9h42.3V55.6H42.9V68.9z"/>
		</g>
		<g>
			<path class="st0" d="M86.6,87.9H41.4c-0.8,0-1.4-0.6-1.4-1.4V70.3c0-0.8,0.6-1.4,1.4-1.4h45.1c0.8,0,1.4,0.6,1.4,1.4v16.2
				C88,87.3,87.3,87.9,86.6,87.9z M42.9,85.1h42.3V71.8H42.9V85.1z"/>
		</g>
		<g>
			<path class="st0" d="M86.6,104.1H41.4c-0.8,0-1.4-0.6-1.4-1.4V86.5c0-0.8,0.6-1.4,1.4-1.4h45.1c0.8,0,1.4,0.6,1.4,1.4v16.2
				C88,103.5,87.3,104.1,86.6,104.1z M42.9,101.3h42.3V87.9H42.9V101.3z"/>
		</g>
		<g>
			<path class="st0" d="M50,66.9c-2.6,0-4.7-2.1-4.7-4.7c0-2.6,2.1-4.7,4.7-4.7c2.6,0,4.7,2.1,4.7,4.7C54.7,64.8,52.6,66.9,50,66.9z
				 M50,60.4c-1,0-1.9,0.8-1.9,1.9c0,1,0.8,1.9,1.9,1.9c1,0,1.9-0.8,1.9-1.9C51.9,61.2,51,60.4,50,60.4z"/>
		</g>
		<g>
			<path class="st0" d="M50,83.1c-2.6,0-4.7-2.1-4.7-4.7c0-2.6,2.1-4.7,4.7-4.7c2.6,0,4.7,2.1,4.7,4.7C54.7,81,52.6,83.1,50,83.1z
				 M50,76.6c-1,0-1.9,0.8-1.9,1.9c0,1,0.8,1.9,1.9,1.9c1,0,1.9-0.8,1.9-1.9C51.9,77.4,51,76.6,50,76.6z"/>
		</g>
		<g>
			<path class="st0" d="M50,99.3c-2.6,0-4.7-2.1-4.7-4.7c0-2.6,2.1-4.7,4.7-4.7c2.6,0,4.7,2.1,4.7,4.7C54.7,97.2,52.6,99.3,50,99.3z
				 M50,92.7c-1,0-1.9,0.8-1.9,1.9c0,1,0.8,1.9,1.9,1.9c1,0,1.9-0.8,1.9-1.9C51.9,93.6,51,92.7,50,92.7z"/>
		</g>
		<g>
			<path class="st0" d="M80.5,63.7H70.1c-0.8,0-1.4-0.6-1.4-1.4c0-0.8,0.6-1.4,1.4-1.4h10.3c0.8,0,1.4,0.6,1.4,1.4
				C81.9,63,81.2,63.7,80.5,63.7z"/>
		</g>
		<g>
			<path class="st0" d="M80.5,79.8H70.1c-0.8,0-1.4-0.6-1.4-1.4c0-0.8,0.6-1.4,1.4-1.4h10.3c0.8,0,1.4,0.6,1.4,1.4
				C81.9,79.2,81.2,79.8,80.5,79.8z"/>
		</g>
		<g>
			<path class="st0" d="M80.5,96H70.1c-0.8,0-1.4-0.6-1.4-1.4c0-0.8,0.6-1.4,1.4-1.4h10.3c0.8,0,1.4,0.6,1.4,1.4
				C81.9,95.4,81.2,96,80.5,96z"/>
		</g>
	</g>
	<g>
		<path class="st0" d="M95.3,79.8h-0.9c-0.8,0-1.4-0.6-1.4-1.4c0-0.8,0.6-1.4,1.4-1.4h0.9c8.5,0,15.3-6.9,15.3-15.3
			c0-8.5-6.9-15.3-15.3-15.3c-0.9,0-1.8,0.1-2.7,0.3c-0.4,0.1-0.8,0-1.1-0.3c-0.3-0.2-0.5-0.6-0.5-1c-0.6-10.4-9.3-18.6-19.7-18.6
			c-8.3,0-15.8,5.3-18.6,13.2c-0.1,0.4-0.4,0.7-0.8,0.8c-0.4,0.1-0.8,0.1-1.2-0.1c-2.3-1.2-4.7-1.8-7.3-1.8
			c-8.3,0-15.3,6.5-15.9,14.7c-0.1,0.6-0.5,1.2-1.1,1.3c-5.3,1-9.1,5.6-9.1,11c0,6.2,5,11.2,11.2,11.2H33c0.8,0,1.4,0.6,1.4,1.4
			c0,0.8-0.6,1.4-1.4,1.4h-4.5c-7.7,0-14-6.3-14-14c0-6.4,4.3-11.9,10.4-13.5c1.2-9.2,9.2-16.2,18.6-16.2c2.5,0,4.9,0.5,7.1,1.4
			c3.5-8.2,11.7-13.6,20.7-13.6c11.4,0,20.9,8.5,22.3,19.7c0.6-0.1,1.1-0.1,1.7-0.1c10,0,18.1,8.1,18.1,18.1S105.4,79.8,95.3,79.8z"
			/>
	</g>
</g>
</svg>
