<?xml version="1.0" encoding="UTF-8"?>
<svg id="Layer_1" data-name="Layer 1" xmlns="http://www.w3.org/2000/svg" viewBox="0 0 128 128">
  <defs>
    <style>
      .cls-1 {
        fill: #0069b1;
      }
    </style>
  </defs>
  <path class="cls-1" d="m108.26,36.54H19.74c-5.77,0-10.46,4.69-10.46,10.46,0,1.57.36,3.05.97,4.38,0,0,0,.01.01.02,1.67,3.57,5.28,6.06,9.47,6.06h88.52c5.77,0,10.46-4.69,10.46-10.46s-4.69-10.46-10.46-10.46Zm-27.08,17.91l14.91-14.91h4.56l-14.91,14.91h-4.56Zm-8.8,0l14.91-14.91h4.56l-14.91,14.91h-4.56Zm-8.8,0l14.91-14.91h4.56l-14.91,14.91h-4.56Zm-8.8,0l14.91-14.91h4.56l-14.91,14.91h-4.56Zm-9.41,0l14.91-14.91h5.17l-14.91,14.91h-5.17Zm-8.8,0l14.91-14.91h4.56l-14.91,14.91h-4.56Zm-8.8,0l14.91-14.91h4.56l-14.91,14.91h-4.56Zm-8.01-14.91h1.07l-8.45,8.45c-.04-.33-.07-.66-.07-1,0-4.11,3.34-7.46,7.46-7.46Zm-6.23,11.54l11.54-11.54h4.56l-13.79,13.79c-.92-.57-1.72-1.34-2.31-2.25Zm5.47,3.33l14.87-14.88h4.56l-14.91,14.91h-3.76c-.26,0-.51-.01-.76-.04Zm89.28.04h-18.28l14.91-14.91h3.36c4.11,0,7.46,3.35,7.46,7.46s-3.34,7.46-7.46,7.46Z"/>
  <path class="cls-1" d="m37.55,74.57c-1.06.99-2.04,1.61-3.56,1.61-2.37,0-4.09-1.98-4.09-4.42s1.72-4.39,4.09-4.39c1.42,0,2.48.62,3.47,1.54l1.4-1.61c-1.19-1.13-2.57-1.93-4.85-1.93-3.75,0-6.39,2.88-6.39,6.43s2.69,6.39,6.3,6.39c2.32,0,3.73-.85,5.03-2.2l-1.4-1.42Z"/>
  <path class="cls-1" d="m52.94,71.76c0-3.51-2.66-6.39-6.46-6.39s-6.5,2.92-6.5,6.43,2.65,6.39,6.46,6.39,6.5-2.92,6.5-6.43Zm-10.67,0c0-2.43,1.72-4.39,4.18-4.39s4.21,2,4.21,4.43-1.72,4.39-4.18,4.39-4.21-2-4.21-4.42Z"/>
  <polygon class="cls-1" points="67.4 77.97 67.4 65.58 65.08 65.58 61.31 71.44 57.54 65.58 55.23 65.58 55.23 77.97 57.37 77.97 57.37 69.12 61.24 74.93 61.31 74.93 65.23 69.08 65.23 77.97 67.4 77.97"/>
  <rect class="cls-1" x="70.37" y="65.58" width="2.18" height="12.39"/>
  <polygon class="cls-1" points="86.3 77.97 86.3 65.58 84.16 65.58 84.16 74.15 77.52 65.58 75.5 65.58 75.5 77.97 77.64 77.97 77.64 69.16 84.47 77.97 86.3 77.97"/>
  <path class="cls-1" d="m94.9,72.94h3.17v2.32c-.76.57-1.82.94-2.99.94-2.53,0-4.21-1.88-4.21-4.44,0-2.41,1.73-4.39,4.02-4.39,1.57,0,2.51.51,3.47,1.33l1.38-1.65c-1.28-1.08-2.6-1.68-4.76-1.68-3.73,0-6.39,2.94-6.39,6.43s2.55,6.39,6.42,6.39c2.2,0,3.95-.89,5.17-1.93v-5.21h-5.27v1.89Z"/>
  <path class="cls-1" d="m43.19,87.68c-2.37-.57-2.94-.99-2.94-1.96,0-.83.74-1.49,2.02-1.49,1.13,0,2.25.44,3.36,1.28l1.17-1.65c-1.26-1.01-2.69-1.56-4.5-1.56-2.46,0-4.23,1.45-4.23,3.61,0,2.3,1.49,3.08,4.12,3.72,2.3.53,2.8,1.01,2.8,1.91,0,.96-.85,1.58-2.19,1.58-1.54,0-2.73-.58-3.91-1.61l-1.31,1.56c1.49,1.33,3.27,1.98,5.17,1.98,2.6,0,4.42-1.38,4.42-3.72,0-2.07-1.36-3.01-3.98-3.65Z"/>
  <path class="cls-1" d="m55.34,82.27c-3.81,0-6.5,2.92-6.5,6.43s2.65,6.39,6.46,6.39,6.5-2.92,6.5-6.43-2.66-6.39-6.46-6.39Zm0,10.81c-2.46,0-4.21-2-4.21-4.42s1.72-4.39,4.18-4.39,4.21,2,4.21,4.43-1.72,4.39-4.18,4.39Z"/>
  <path class="cls-1" d="m70.04,82.27c-3.8,0-6.5,2.92-6.5,6.43s2.65,6.39,6.46,6.39,6.5-2.92,6.5-6.43-2.66-6.39-6.46-6.39Zm0,10.81c-2.46,0-4.21-2-4.21-4.42s1.72-4.39,4.18-4.39,4.21,2,4.21,4.43-1.72,4.39-4.18,4.39Z"/>
  <polygon class="cls-1" points="87.44 91.04 80.8 82.48 78.78 82.48 78.78 94.87 80.93 94.87 80.93 86.05 87.76 94.87 89.58 94.87 89.58 82.48 87.44 82.48 87.44 91.04"/>
</svg>