<?xml version="1.0" encoding="UTF-8"?>
<svg id="Layer_1" data-name="Layer 1" xmlns="http://www.w3.org/2000/svg" viewBox="0 0 128 128">
  <defs>
    <style>
      .cls-1 {
        fill: #0069b1;
      }
    </style>
  </defs>
  <rect class="cls-1" x="32.92" y="27.48" width="24.28" height="3"/>
  <rect class="cls-1" x="32.92" y="35.28" width="28.62" height="3"/>
  <polygon class="cls-1" points="97.17 31.28 82.34 31.28 82.34 17.11 85.34 17.11 85.34 28.28 97.17 28.28 97.17 31.28"/>
  <polygon class="cls-1" points="109.62 69.76 103.11 58.79 88.23 67.62 86.7 65.04 104.16 54.68 112.2 68.23 109.62 69.76"/>
  <g>
    <polygon class="cls-1" points="32.92 89.51 51.65 89.51 54.32 86.51 32.92 86.51 32.92 89.51"/>
    <polygon class="cls-1" points="32.92 80.01 64.81 80.01 69.86 77.01 32.92 77.01 32.92 80.01"/>
    <polygon class="cls-1" points="32.92 70.51 80.82 70.51 85.87 67.51 32.92 67.51 32.92 70.51"/>
    <rect class="cls-1" x="32.92" y="48.51" width="54.16" height="3"/>
    <polygon class="cls-1" points="96.25 82.93 96.25 107.36 23.75 107.36 23.75 17.69 83.23 17.69 96.25 30.41 96.25 55.89 97.31 55.25 99.25 54.1 99.25 29.15 84.46 14.69 20.75 14.69 20.75 110.36 99.25 110.36 99.25 81.15 96.25 82.93"/>
    <rect class="cls-1" x="32.92" y="58.01" width="54.16" height="3"/>
  </g>
  <rect class="cls-1" x="81.26" y="75.37" width="3" height="9.55" transform="translate(-29.31 53.46) rotate(-30.69)"/>
  <rect class="cls-1" x="59" y="88.58" width="3" height="9.55" transform="translate(-39.17 43.95) rotate(-30.69)"/>
  <path class="cls-1" d="m47.26,102.72c-.52,0-1.02-.27-1.29-.73-.33-.56-.26-1.28.17-1.76l10.49-11.78c.1-.11.22-.21.35-.29l49.96-29.65c1.36-.81,2.95-1.04,4.48-.65,1.53.39,2.82,1.35,3.63,2.71l.37.62c1.66,2.81.74,6.44-2.07,8.11l-49.96,29.65c-.13.08-.28.14-.43.17l-15.37,3.57c-.11.03-.23.04-.34.04Zm11.46-12.11l-7.2,8.08,10.54-2.45,49.76-29.53c1.38-.82,1.84-2.61,1.02-4l-.37-.62c-.4-.67-1.03-1.15-1.79-1.34-.75-.19-1.54-.08-2.21.32l-49.76,29.53Z"/>
</svg>