<?xml version="1.0" encoding="UTF-8"?>
<svg id="Layer_1" data-name="Layer 1" xmlns="http://www.w3.org/2000/svg" viewBox="0 0 128 128">
  <defs>
    <style>
      .cls-1 {
        fill: #0069b1;
      }
    </style>
  </defs>
  <path class="cls-1" d="m28.44,45.81h12.09v-12.09h-12.09v12.09Zm3-9.09h6.09v6.09h-6.09v-6.09Z"/>
  <rect class="cls-1" x="49.05" y="33.72" width="49.02" height="3"/>
  <rect class="cls-1" x="49.05" y="42.81" width="37.13" height="3"/>
  <path class="cls-1" d="m28.44,70.04h12.09v-12.09h-12.09v12.09Zm3-9.09h6.09v6.09h-6.09v-6.09Z"/>
  <rect class="cls-1" x="49.05" y="57.96" width="49.02" height="3"/>
  <rect class="cls-1" x="49.05" y="67.04" width="37.13" height="3"/>
  <path class="cls-1" d="m28.44,94.28h12.09v-12.09h-12.09v12.09Zm3-9.09h6.09v6.09h-6.09v-6.09Z"/>
  <rect class="cls-1" x="49.05" y="82.19" width="49.02" height="3"/>
  <rect class="cls-1" x="49.05" y="91.28" width="37.13" height="3"/>
</svg>