<?xml version="1.0" encoding="utf-8"?>
<!-- Generator: Adobe Illustrator 27.6.1, SVG Export Plug-In . SVG Version: 6.00 Build 0)  -->
<svg version="1.1" id="Layer_1" xmlns="http://www.w3.org/2000/svg" xmlns:xlink="http://www.w3.org/1999/xlink" x="0px" y="0px"
	 viewBox="0 0 128 128" style="enable-background:new 0 0 128 128;" xml:space="preserve">
<style type="text/css">
	.st0{fill:#026AB0;}
</style>
<g>
	<g>
		<path class="st0" d="M244.7,102.4h-84.3V68.1c0-0.8,0.7-1.5,1.5-1.5c0.8,0,1.5,0.7,1.5,1.5v31.3h78.4V68.1c0-0.8,0.7-1.5,1.5-1.5
			c0.8,0,1.5,0.7,1.5,1.5V102.4z"/>
	</g>
	<g>
		<path class="st0" d="M197.1,102.4h-24.9V66.9c0-0.8,0.7-1.5,1.5-1.5s1.5,0.7,1.5,1.5v32.5h19V68c0-0.8,0.7-1.5,1.5-1.5
			c0.8,0,1.5,0.7,1.5,1.5V102.4z"/>
	</g>
	<g>
		<path class="st0" d="M186.8,65.4h-1.5c-0.8,0-1.5-0.7-1.5-1.5c0-0.8,0.7-1.5,1.5-1.5h1.5c0.8,0,1.5,0.7,1.5,1.5
			C188.2,64.7,187.6,65.4,186.8,65.4z"/>
	</g>
	<g>
		<path class="st0" d="M211.7,80.9c-0.4,0-0.8-0.2-1.1-0.5c-0.6-0.6-0.5-1.5,0.1-2.1l12.3-11.5c0.6-0.6,1.5-0.5,2.1,0.1
			c0.6,0.6,0.5,1.5-0.1,2.1l-12.3,11.5C212.5,80.7,212.1,80.9,211.7,80.9z"/>
	</g>
	<g>
		<path class="st0" d="M212.1,93.9c-0.4,0-0.7-0.1-1-0.4c-0.6-0.6-0.6-1.5,0-2.1l16-16c0.6-0.6,1.5-0.6,2.1,0c0.6,0.6,0.6,1.5,0,2.1
			l-16,16C212.9,93.8,212.5,93.9,212.1,93.9z"/>
	</g>
	<g>
		<path class="st0" d="M186.8,65.4h-1.5c-0.8,0-1.5-0.7-1.5-1.5c0-0.8,0.7-1.5,1.5-1.5h1.5c0.8,0,1.5,0.7,1.5,1.5
			C188.2,64.7,187.6,65.4,186.8,65.4z"/>
	</g>
	<g>
		<path class="st0" d="M179,88c-0.8,0-1.5-0.7-1.5-1.5v-7.5c0-0.8,0.7-1.5,1.5-1.5c0.8,0,1.5,0.7,1.5,1.5v7.5
			C180.4,87.4,179.8,88,179,88z"/>
	</g>
	<g>
		<path class="st0" d="M250.3,62.1c-0.6,0-1.1-0.3-1.3-0.9l-12.9-29.3h-67l-13.7,29.3c-0.3,0.7-1.2,1-1.9,0.7
			c-0.7-0.3-1-1.2-0.7-1.9l14.5-31H238L251.6,60c0.3,0.7,0,1.6-0.8,1.9C250.7,62,250.5,62.1,250.3,62.1z"/>
	</g>
	<g>
		<path class="st0" d="M170.1,62.1c-0.1,0-0.2,0-0.3,0c-0.8-0.2-1.3-0.9-1.1-1.7l6.1-30.2c0.2-0.8,0.9-1.3,1.7-1.1
			c0.8,0.2,1.3,0.9,1.1,1.7l-6.1,30.2C171.4,61.6,170.8,62.1,170.1,62.1z"/>
	</g>
	<g>
		<path class="st0" d="M234.2,62.1c-0.7,0-1.3-0.5-1.4-1.2l-6.3-30.2c-0.2-0.8,0.3-1.6,1.1-1.7c0.8-0.2,1.6,0.3,1.7,1.1l6.3,30.2
			c0.2,0.8-0.3,1.6-1.1,1.7C234.4,62.1,234.3,62.1,234.2,62.1z"/>
	</g>
	<g>
		<path class="st0" d="M218,62.1c-0.7,0-1.4-0.6-1.5-1.3l-3.1-30.2c-0.1-0.8,0.5-1.5,1.3-1.6c0.8-0.1,1.5,0.5,1.6,1.3l3.1,30.2
			c0.1,0.8-0.5,1.5-1.3,1.6C218.1,62.1,218.1,62.1,218,62.1z"/>
	</g>
	<g>
		<path class="st0" d="M202.1,62.1C202.1,62.1,202.1,62.1,202.1,62.1c-0.8,0-1.5-0.7-1.5-1.5l0-30.2c0-0.8,0.7-1.5,1.5-1.5
			c0,0,0,0,0,0c0.8,0,1.5,0.7,1.5,1.5l0,30.2C203.5,61.4,202.9,62.1,202.1,62.1z"/>
	</g>
	<g>
		<path class="st0" d="M186.1,62.1c0,0-0.1,0-0.1,0c-0.8-0.1-1.4-0.8-1.3-1.6l3.1-30.2c0.1-0.8,0.8-1.4,1.6-1.3
			c0.8,0.1,1.4,0.8,1.3,1.6l-3.1,30.2C187.5,61.5,186.9,62.1,186.1,62.1z"/>
	</g>
	<g>
		<path class="st0" d="M210,69.6c-5.3,0-9.4-3.9-9.4-9c0-0.8,0.7-1.5,1.5-1.5c0.8,0,1.5,0.7,1.5,1.5c0,3.4,2.8,6.1,6.4,6.1
			c3.6,0,6.6-2.7,6.6-6.1c0-0.8,0.7-1.5,1.5-1.5c0.8,0,1.5,0.7,1.5,1.5C219.5,65.6,215.2,69.6,210,69.6z"/>
	</g>
	<g>
		<path class="st0" d="M194,69.6c-5.3,0-9.4-3.9-9.4-9c0-0.8,0.7-1.5,1.5-1.5c0.8,0,1.5,0.7,1.5,1.5c0,3.4,2.8,6.1,6.4,6.1
			c3.6,0,6.6-2.7,6.6-6.1c0-0.8,0.7-1.5,1.5-1.5c0.8,0,1.5,0.7,1.5,1.5C203.5,65.6,199.3,69.6,194,69.6z"/>
	</g>
	<g>
		<path class="st0" d="M178.1,69.6c-5.3,0-9.4-3.9-9.4-9c0-0.8,0.7-1.5,1.5-1.5c0.8,0,1.5,0.7,1.5,1.5c0,3.4,2.8,6.1,6.4,6.1
			c3.6,0,6.6-2.7,6.6-6.1c0-0.8,0.7-1.5,1.5-1.5c0.8,0,1.5,0.7,1.5,1.5C187.6,65.6,183.3,69.6,178.1,69.6z"/>
	</g>
	<g>
		<path class="st0" d="M162.1,69.6c-5.2,0-9.5-4-9.5-9c0-0.8,0.7-1.5,1.5-1.5c0.8,0,1.5,0.7,1.5,1.5c0,3.3,3,6.1,6.6,6.1
			c3.6,0,6.6-2.7,6.6-6.1c0-0.8,0.7-1.5,1.5-1.5c0.8,0,1.5,0.7,1.5,1.5C171.6,65.6,167.3,69.6,162.1,69.6z"/>
	</g>
	<g>
		<path class="st0" d="M226.1,69.6c-0.8,0-1.6-0.1-2.4-0.3c-4.2-1-7.2-4.6-7.2-8.7c0-0.8,0.7-1.5,1.5-1.5c0.8,0,1.5,0.7,1.5,1.5
			c0,2.8,2,5.2,4.9,5.9c0.5,0.1,1.1,0.2,1.7,0.2c3.6,0,6.6-2.7,6.6-6.1c0-0.8,0.7-1.5,1.5-1.5c0.8,0,1.5,0.7,1.5,1.5
			C235.6,65.6,231.3,69.6,226.1,69.6z"/>
	</g>
	<g>
		<path class="st0" d="M242.2,69.6c-5.2,0-9.5-4-9.5-9c0-0.8,0.7-1.5,1.5-1.5c0.8,0,1.5,0.7,1.5,1.5c0,3.3,3,6.1,6.6,6.1
			c3.6,0,6.6-2.7,6.6-6.1c0-0.8,0.7-1.5,1.5-1.5c0.8,0,1.5,0.7,1.5,1.5C251.7,65.6,247.5,69.6,242.2,69.6z"/>
	</g>
</g>
<g>
	<g>
		<g>
			<path class="st0" d="M88.9,101.2H19.4c-2.9,0-5.3-2.4-5.3-5.3V53.3c0-2.9,2.4-5.3,5.3-5.3h69.5c2.9,0,5.3,2.4,5.3,5.3V96
				C94.1,98.9,91.8,101.2,88.9,101.2z M19.4,50.8c-1.4,0-2.5,1.1-2.5,2.5V96c0,1.4,1.1,2.5,2.5,2.5h69.5c1.4,0,2.5-1.1,2.5-2.5V53.3
				c0-1.4-1.1-2.5-2.5-2.5H19.4z"/>
		</g>
		<g>
			<path class="st0" d="M92.7,92.2H15.5c-0.8,0-1.4-0.6-1.4-1.4v-8.7c0-0.8,0.6-1.4,1.4-1.4h77.2c0.8,0,1.4,0.6,1.4,1.4v8.7
				C94.1,91.6,93.5,92.2,92.7,92.2z M16.9,89.4h74.4v-5.9H16.9V89.4z"/>
		</g>
		<g>
			<path class="st0" d="M35.9,73.4h-8.4c-3.3,0-6-2.7-6-6c0-3.3,2.7-6,6-6h8.4c3.3,0,6,2.7,6,6C41.9,70.7,39.2,73.4,35.9,73.4z
				 M27.5,64.2c-1.8,0-3.2,1.4-3.2,3.2c0,1.8,1.4,3.2,3.2,3.2h8.4c1.8,0,3.2-1.4,3.2-3.2c0-1.8-1.4-3.2-3.2-3.2H27.5z"/>
		</g>
		<g>
			<path class="st0" d="M84,59.9H50.6c-0.8,0-1.4-0.6-1.4-1.4s0.6-1.4,1.4-1.4H84c0.8,0,1.4,0.6,1.4,1.4S84.7,59.9,84,59.9z"/>
		</g>
		<g>
			<path class="st0" d="M78.3,66.3h-22c-0.8,0-1.4-0.6-1.4-1.4c0-0.8,0.6-1.4,1.4-1.4h22c0.8,0,1.4,0.6,1.4,1.4
				C79.7,65.7,79,66.3,78.3,66.3z"/>
		</g>
	</g>
	<g>
		<g>
			<path class="st0" d="M89,43.8c-0.3-0.2-0.5-0.5-0.5-0.8c-0.2-0.7,0.3-1.4,1-1.5c2.3-0.5,4.8,0,6.7,1.3c1.9,1.3,3.1,3.3,3.6,5.5
				c0.1,0.7-0.3,1.4-1,1.5c-0.7,0.1-1.4-0.3-1.5-1c-0.3-1.6-1.2-2.9-2.5-3.8c-1.4-1-3-1.3-4.7-0.9C89.6,44.1,89.3,44,89,43.8z"/>
		</g>
		<g>
			<path class="st0" d="M87.7,36.8c-0.3-0.2-0.5-0.5-0.5-0.8c-0.1-0.7,0.3-1.4,1-1.5c4.2-0.8,8.5,0,12,2.5c3.4,2.4,5.7,6,6.5,10.1
				c0.1,0.7-0.3,1.4-1,1.5c-0.7,0.1-1.4-0.3-1.5-1c-0.6-3.4-2.5-6.4-5.4-8.4c-2.9-2-6.5-2.8-10-2.1C88.3,37.1,88,37,87.7,36.8z"/>
		</g>
		<g>
			<path class="st0" d="M111.8,47.2c-0.3-0.2-0.5-0.5-0.5-0.9c-0.9-5.5-3.9-10.2-8.5-13.4c-4.6-3.2-10.1-4.3-15.5-3.2
				c-0.7,0.1-1.4-0.3-1.5-1c-0.1-0.7,0.3-1.4,1-1.5c6.1-1.2,12.3,0.1,17.5,3.7c5.1,3.6,8.5,8.9,9.6,15.1c0.1,0.7-0.4,1.4-1.1,1.5
				C112.5,47.5,112.1,47.4,111.8,47.2z"/>
		</g>
	</g>
</g>
</svg>
