<?xml version="1.0" encoding="UTF-8"?>
<svg id="Layer_1" data-name="Layer 1" xmlns="http://www.w3.org/2000/svg" viewBox="0 0 128 128">
  <defs>
    <style>
      .cls-1 {
        fill: #0069b1;
      }
    </style>
  </defs>
  <path class="cls-1" d="m73.15,16.9c-1.92-1.92-5.04-1.92-6.96,0l-22.53,22.53-11.95,4.16c-1.83.64-3.51,1.69-4.88,3.06l-10.26,10.26c-.13.13-.24.29-.31.46-2.15,4.93-2.83,13.31-2.89,14.15l-2.64,17.9-1.74-1.74-2.12,2.12,22.3,22.3,2.12-2.12-2.41-2.41,3.7-9.55c5.13-2.46,8.73-5.65,11-9.75.02-.04.04-.07.05-.11l2.16-4.75,5.23,5.23c.96.96,2.22,1.44,3.48,1.44s2.52-.48,3.48-1.44l39.97-39.98c1.92-1.92,1.92-5.04,0-6.96l-24.82-24.82Zm22.7,29.65l-39.97,39.98c-.73.72-1.99.72-2.71,0l-6.02-6.02,1.19-2.61c.49-1.08,1.17-2.05,2.01-2.9l4.54-4.54c2.43-2.43,2.6-6.28.5-8.91l22.41-22.41-2.12-2.12-22.66,22.66c-2.49-1.17-5.55-.74-7.6,1.31l-12.51,12.51,2.12,2.12,12.51-12.51c1.44-1.44,3.78-1.44,5.22,0h0c1.44,1.45,1.44,3.79,0,5.23l-4.54,4.54c-1.09,1.1-1.97,2.37-2.62,3.77l-4.66,10.22c-2.03,3.64-5.36,6.48-10.16,8.68-.35.16-.63.46-.77.82l-3.44,8.88-13.18-13.18,2.97-20.16s0-.07.01-.11c0-.08.62-8.3,2.54-12.97l10.06-10.05c1.05-1.05,2.34-1.86,3.74-2.35l6.08-2.12-12.57,12.57c-1.92,1.92-1.92,5.04,0,6.96l6.31,6.31,2.12-2.12-6.31-6.31c-.75-.75-.75-1.97,0-2.71l39.98-39.98c.75-.75,1.97-.75,2.71,0l24.82,24.82c.75.75.75,1.97,0,2.71Z"/>
  <polygon class="cls-1" points="32.91 59.77 37.97 64.82 40.09 62.7 37.16 59.77 41.97 54.95 44.96 57.94 47.08 55.82 41.97 50.71 32.91 59.77"/>
  <rect class="cls-1" x="48.69" y="70.13" width="18.87" height="3" transform="translate(-33.63 62.08) rotate(-45)"/>
  <path class="cls-1" d="m79.83,42.61c-1.04,1.04-1.54,2.42-1.51,3.79-1.37-.03-2.75.47-3.79,1.51-1.04,1.04-1.54,2.42-1.51,3.79-.04,0-.07-.01-.11-.01-1.39,0-2.7.54-3.69,1.53-2.03,2.03-2.03,5.34,0,7.37.98.99,2.29,1.53,3.69,1.53s2.7-.54,3.69-1.53c1.04-1.04,1.54-2.42,1.51-3.8.04,0,.07.01.11.01,1.33,0,2.67-.51,3.69-1.52,1.04-1.04,1.54-2.42,1.51-3.79.04,0,.07.01.11.01,1.33,0,2.67-.51,3.69-1.52,2.03-2.03,2.03-5.34,0-7.37-2.03-2.03-5.34-2.03-7.37,0Zm-5.37,15.87c-.83.83-2.29.84-3.13,0s-.86-2.27,0-3.13c.42-.42.97-.65,1.56-.65s1.15.23,1.57.65c.86.86.86,2.27,0,3.13Zm5.31-5.31c-.86.86-2.27.86-3.13,0s-.86-2.27,0-3.13c.43-.43,1-.65,1.57-.65s1.13.22,1.57.65c.86.86.86,2.27,0,3.13Zm5.31-5.31c-.86.86-2.27.86-3.13,0s-.86-2.27,0-3.13c.43-.43,1-.65,1.57-.65s1.13.22,1.57.65c.86.86.86,2.27,0,3.13Z"/>
  <path class="cls-1" d="m113.89,26.54l-2.16,2.09c4.41,4.55,6.83,10.54,6.83,16.86s-2.43,12.31-6.83,16.86l2.16,2.09c4.95-5.12,7.68-11.84,7.68-18.94s-2.73-13.83-7.68-18.94Z"/>
  <path class="cls-1" d="m108.98,31.29l-2.16,2.09c3.16,3.27,4.91,7.57,4.91,12.11s-1.74,8.84-4.91,12.11l2.16,2.09c3.71-3.83,5.75-8.87,5.75-14.19s-2.04-10.36-5.75-14.19Z"/>
  <path class="cls-1" d="m104.07,36.04l-2.16,2.09c1.92,1.98,2.98,4.6,2.98,7.36s-1.06,5.37-2.98,7.36l2.16,2.09c2.46-2.55,3.82-5.9,3.82-9.44s-1.36-6.9-3.82-9.44Z"/>
</svg>