<?xml version="1.0" encoding="utf-8"?>
<!-- Generator: Adobe Illustrator 27.6.1, SVG Export Plug-In . SVG Version: 6.00 Build 0)  -->
<svg version="1.1" id="Layer_1" xmlns="http://www.w3.org/2000/svg" xmlns:xlink="http://www.w3.org/1999/xlink" x="0px" y="0px"
	 viewBox="0 0 128 128" style="enable-background:new 0 0 128 128;" xml:space="preserve">
<style type="text/css">
	.st0{fill:#026AB0;}
</style>
<g>
	<g>
		<path class="st0" d="M110.4,94.8h-38c-0.9,0-1.7-0.8-1.7-1.7s0.8-1.7,1.7-1.7h38c0.9,0,1.7,0.8,1.7,1.7S111.3,94.8,110.4,94.8z"/>
	</g>
	<g>
		<path class="st0" d="M64,94.8H17.6c-0.9,0-1.7-0.8-1.7-1.7s0.8-1.7,1.7-1.7H64c0.9,0,1.7,0.8,1.7,1.7S64.9,94.8,64,94.8z"/>
	</g>
	<g>
		<path class="st0" d="M110.4,65.7H32.2c-0.9,0-1.7-0.8-1.7-1.7s0.8-1.7,1.7-1.7h78.2c0.9,0,1.7,0.8,1.7,1.7S111.3,65.7,110.4,65.7z
			"/>
	</g>
	<g>
		<path class="st0" d="M24.4,65.7h-6.8c-0.9,0-1.7-0.8-1.7-1.7s0.8-1.7,1.7-1.7h6.8c0.9,0,1.7,0.8,1.7,1.7S25.3,65.7,24.4,65.7z"/>
	</g>
	<g>
		<path class="st0" d="M110.4,36.5H61.3c-0.9,0-1.7-0.7-1.7-1.7c0-0.9,0.7-1.7,1.7-1.7h49.1c0.9,0,1.7,0.8,1.7,1.7
			C112.1,35.8,111.3,36.5,110.4,36.5z"/>
	</g>
	<g>
		<path class="st0" d="M53.2,36.5H17.6c-0.9,0-1.7-0.7-1.7-1.7c0-0.9,0.8-1.7,1.7-1.7h35.6c0.9,0,1.7,0.8,1.7,1.7
			C54.9,35.8,54.1,36.5,53.2,36.5z"/>
	</g>
	<g>
		<path class="st0" d="M72.4,102.9c-0.9,0-1.7-0.8-1.7-1.7V85c0-0.9,0.8-1.7,1.7-1.7c0.9,0,1.7,0.8,1.7,1.7v16.2
			C74.1,102.1,73.4,102.9,72.4,102.9z"/>
	</g>
	<g>
		<path class="st0" d="M24.4,73.8c-0.9,0-1.7-0.8-1.7-1.7V55.9c0-0.9,0.7-1.7,1.7-1.7S26,55,26,55.9v16.2C26,73,25.3,73.8,24.4,73.8
			z"/>
	</g>
	<g>
		<path class="st0" d="M61.3,44.6c-0.9,0-1.7-0.8-1.7-1.7V26.8c0-0.9,0.7-1.7,1.7-1.7c0.9,0,1.7,0.7,1.7,1.7V43
			C63,43.9,62.2,44.6,61.3,44.6z"/>
	</g>
</g>
</svg>
