<?xml version="1.0" encoding="UTF-8"?>
<svg id="Layer_1" data-name="Layer 1" xmlns="http://www.w3.org/2000/svg" viewBox="0 0 128 128">
  <defs>
    <style>
      .cls-1 {
        fill: #0069b1;
      }
    </style>
  </defs>
  <path class="cls-1" d="m36.12,67.97c0,15.37,12.51,27.88,27.88,27.88s27.88-12.51,27.88-27.88-12.51-27.88-27.88-27.88-27.88,12.51-27.88,27.88Zm27.88-24.88c13.72,0,24.88,11.16,24.88,24.88s-11.16,24.88-24.88,24.88-24.88-11.16-24.88-24.88,11.16-24.88,24.88-24.88Zm42.56,24.8c0,23.47-19.1,42.57-42.57,42.57s-42.57-19.1-42.57-42.57c0-20.94,15.45-38.74,35.78-42.02l-5.89-5.05,1.95-2.28,9.7,8.32-8.32,9.7-2.28-1.95,4.91-5.72c-18.7,3.21-32.86,19.67-32.86,39,0,21.82,17.75,39.57,39.57,39.57s39.57-17.75,39.57-39.57c0-20.04-14.99-36.93-34.86-39.29l.35-2.98c21.38,2.54,37.5,20.71,37.5,42.27Zm-48.94,12.52l-8.93-8.93,2.12-2.12,6.81,6.81,19.57-19.57,2.12,2.12-21.69,21.69Z"/>
</svg>