<?xml version="1.0" encoding="UTF-8"?>
<svg id="Layer_1" data-name="Layer 1" xmlns="http://www.w3.org/2000/svg" viewBox="0 0 128 128">
  <defs>
    <style>
      .cls-1 {
        fill: #0069b1;
      }
    </style>
  </defs>
  <path class="cls-1" d="m80.74,34.02c-6,0-11.79,1.77-16.75,5.11-4.78-3.23-10.54-5.11-16.73-5.11-16.53,0-29.98,13.45-29.98,29.98s13.45,29.98,29.98,29.98c6.19,0,11.94-1.89,16.72-5.11,4.96,3.35,10.75,5.11,16.75,5.11,16.53,0,29.98-13.45,29.98-29.98s-13.45-29.98-29.98-29.98Zm0,56.96c-5.05,0-9.93-1.41-14.19-4.05,5.48-4.62,9.3-11.16,10.38-18.58h-3.04c-2.09,12.82-13.23,22.63-26.63,22.63-14.88,0-26.98-12.1-26.98-26.98s12.1-26.98,26.98-26.98,26.16,11.3,26.94,25.48h-2.01c-.78-13.08-11.66-23.48-24.93-23.48s-24.98,11.21-24.98,24.98,11.21,24.98,24.98,24.98c12.29,0,22.53-8.92,24.59-20.63h-3.05c-2.02,10.04-10.92,17.63-21.55,17.63-12.12,0-21.98-9.86-21.98-21.98s9.86-21.98,21.98-21.98,21.15,9.06,21.92,20.48h-13.09v3h35.98l-6.1,6.21,2.14,2.1,9.37-9.54-9.37-9.54-2.14,2.1,5.56,5.66h-14.34c-.43-8.59-4.48-16.23-10.66-21.43,4.26-2.64,9.14-4.05,14.19-4.05,14.88,0,26.98,12.1,26.98,26.98s-12.1,26.98-26.98,26.98Z"/>
  <path class="cls-1" d="m46.91,62.23v-4.68c1.16.25,2.27.76,3.35,1.58l1.38-2.32c-1.36-1.01-2.83-1.65-4.63-1.87v-1.48h-2.14v1.43c-3.08.25-5.17,2.07-5.17,4.73s1.68,4.14,5.27,5.08v4.83c-1.6-.25-2.93-.99-4.34-2.12l-1.58,2.24c1.68,1.33,3.67,2.19,5.81,2.44v2.46h2.14v-2.44c3.13-.27,5.25-2.07,5.25-4.78s-1.6-4.16-5.35-5.1Zm-1.95-.52c-1.9-.57-2.36-1.23-2.36-2.27s.81-1.95,2.36-2.07v4.34Zm1.95,7.91v-4.46c1.92.57,2.44,1.23,2.44,2.34,0,1.18-.89,2-2.44,2.12Z"/>
</svg>