<?xml version="1.0" encoding="utf-8"?>
<!-- Generator: Adobe Illustrator 27.6.1, SVG Export Plug-In . SVG Version: 6.00 Build 0)  -->
<svg version="1.1" id="Layer_1" xmlns="http://www.w3.org/2000/svg" xmlns:xlink="http://www.w3.org/1999/xlink" x="0px" y="0px"
	 viewBox="0 0 128 128" style="enable-background:new 0 0 128 128;" xml:space="preserve">
<style type="text/css">
	.st0{fill:#0069B1;}
</style>
<g>
	<g>
		<g>
			<path class="st0" d="M31.3,61.7C31.2,61.7,31.2,61.7,31.3,61.7c-0.8-0.1-1.3-0.7-1.3-1.4c0.1-1,0.2-2.1,0.4-3.1
				c2.5-15.7,14.7-28,30.5-30.4c0.7-0.1,1.3,0.4,1.4,1.1c0.1,0.7-0.4,1.3-1.1,1.4c-14.6,2.3-26,13.6-28.3,28.3
				c-0.2,1-0.3,1.9-0.3,2.9C32.5,61.2,31.9,61.7,31.3,61.7z"/>
		</g>
		<g>
			<path class="st0" d="M71.9,99c-0.6,0-1.2-0.4-1.3-1.1c-0.1-0.7,0.4-1.3,1.1-1.4c14.6-2.3,26-13.6,28.3-28.3
				c0.1-0.7,0.8-1.2,1.5-1.1c0.7,0.1,1.2,0.8,1.1,1.5C100,84.3,87.8,96.6,72.1,99C72,99,71.9,99,71.9,99z"/>
		</g>
		<g>
			<path class="st0" d="M55.4,37c-0.3,0-0.5-0.1-0.7-0.2c-0.6-0.4-0.7-1.2-0.3-1.8l4.8-6.6l-6.6-4.8c-0.6-0.4-0.7-1.2-0.3-1.8
				c0.4-0.6,1.2-0.7,1.8-0.3l7.6,5.6c0.6,0.4,0.7,1.2,0.3,1.8l-5.6,7.6C56.2,36.8,55.8,37,55.4,37z"/>
		</g>
		<g>
			<path class="st0" d="M79.5,104.6c-0.3,0-0.5-0.1-0.7-0.2l-7.6-5.6c-0.6-0.4-0.7-1.2-0.3-1.8l5.6-7.6c0.4-0.6,1.2-0.7,1.8-0.3
				c0.6,0.4,0.7,1.2,0.3,1.8l-4.8,6.6l6.6,4.8c0.6,0.4,0.7,1.2,0.3,1.8C80.2,104.4,79.9,104.6,79.5,104.6z"/>
		</g>
	</g>
	<g>
		<g>
			<path class="st0" d="M41.7,98.5c-6.3,0-11.4-5.1-11.4-11.4c0-6.3,5.1-11.4,11.4-11.4c2.8,0,5.6,1.1,7.7,3
				c0.5,0.5,0.6,1.3,0.1,1.8c-0.5,0.5-1.3,0.6-1.8,0.1c-1.6-1.5-3.8-2.3-6-2.3c-4.9,0-8.9,4-8.9,8.9c0,4.9,4,8.9,8.9,8.9
				c2.2,0,4.3-0.8,6-2.3c0.5-0.5,1.3-0.4,1.8,0.1c0.5,0.5,0.4,1.3-0.1,1.8C47.3,97.5,44.6,98.5,41.7,98.5z"/>
		</g>
		<g>
			<g>
				<path class="st0" d="M41.3,85.3H28.1c-0.7,0-1.3-0.6-1.3-1.3c0-0.7,0.6-1.3,1.3-1.3h13.2c0.7,0,1.3,0.6,1.3,1.3
					C42.6,84.8,42,85.3,41.3,85.3z"/>
			</g>
			<g>
				<path class="st0" d="M41.3,91.5H28.1c-0.7,0-1.3-0.6-1.3-1.3c0-0.7,0.6-1.3,1.3-1.3h13.2c0.7,0,1.3,0.6,1.3,1.3
					C42.6,90.9,42,91.5,41.3,91.5z"/>
			</g>
		</g>
	</g>
	<g>
		<path class="st0" d="M87.1,62.8c-12.1,0-22-9.9-22-22s9.9-22,22-22c12.1,0,22,9.9,22,22S99.3,62.8,87.1,62.8z M87.1,21.4
			c-10.7,0-19.4,8.7-19.4,19.4c0,10.7,8.7,19.4,19.4,19.4c10.7,0,19.4-8.7,19.4-19.4C106.6,30.1,97.9,21.4,87.1,21.4z"/>
	</g>
	<g>
		<path class="st0" d="M40.9,109.1c-12.1,0-22-9.9-22-22s9.9-22,22-22s22,9.9,22,22S53,109.1,40.9,109.1z M40.9,67.7
			c-10.7,0-19.4,8.7-19.4,19.4s8.7,19.4,19.4,19.4c10.7,0,19.4-8.7,19.4-19.4S51.6,67.7,40.9,67.7z"/>
	</g>
	<g>
		<g>
			<path class="st0" d="M88.8,50.1h-3.4c-2.9,0-5.3-2.4-5.3-5.3c0-0.7,0.6-1.3,1.3-1.3c0.7,0,1.3,0.6,1.3,1.3c0,1.5,1.2,2.7,2.7,2.7
				h3.4c1.5,0,2.7-1.2,2.7-2.7c0-1.5-1.2-2.7-2.7-2.7h-3.4c-2.9,0-5.3-2.4-5.3-5.3c0-2.9,2.4-5.3,5.3-5.3h3.4c2.9,0,5.3,2.4,5.3,5.3
				c0,0.7-0.6,1.3-1.3,1.3c-0.7,0-1.3-0.6-1.3-1.3c0-1.5-1.2-2.7-2.7-2.7h-3.4c-1.5,0-2.7,1.2-2.7,2.7c0,1.5,1.2,2.7,2.7,2.7h3.4
				c2.9,0,5.3,2.4,5.3,5.3C94.1,47.8,91.7,50.1,88.8,50.1z"/>
		</g>
		<g>
			<path class="st0" d="M87.1,34.1c-0.7,0-1.3-0.6-1.3-1.3v-3.7c0-0.7,0.6-1.3,1.3-1.3c0.7,0,1.3,0.6,1.3,1.3v3.7
				C88.4,33.6,87.8,34.1,87.1,34.1z"/>
		</g>
		<g>
			<path class="st0" d="M87.1,53.8c-0.7,0-1.3-0.6-1.3-1.3v-3.7c0-0.7,0.6-1.3,1.3-1.3c0.7,0,1.3,0.6,1.3,1.3v3.7
				C88.4,53.3,87.8,53.8,87.1,53.8z"/>
		</g>
	</g>
</g>
</svg>
