<?xml version="1.0" encoding="UTF-8"?>
<svg id="Layer_1" data-name="Layer 1" xmlns="http://www.w3.org/2000/svg" viewBox="0 0 128 128">
  <defs>
    <style>
      .cls-1 {
        fill: #0069b1;
      }
    </style>
  </defs>
  <path class="cls-1" d="m28.18,79.73c-8.67,0-15.73-7.06-15.73-15.73s7.06-15.73,15.73-15.73,15.73,7.06,15.73,15.73-7.06,15.73-15.73,15.73Zm0-28.46c-7.02,0-12.73,5.71-12.73,12.73s5.71,12.73,12.73,12.73,12.73-5.71,12.73-12.73-5.71-12.73-12.73-12.73Z"/>
  <path class="cls-1" d="m64.07,79.73c-8.67,0-15.73-7.06-15.73-15.73s7.06-15.73,15.73-15.73,15.73,7.06,15.73,15.73-7.06,15.73-15.73,15.73Zm0-28.46c-7.02,0-12.73,5.71-12.73,12.73s5.71,12.73,12.73,12.73,12.73-5.71,12.73-12.73-5.71-12.73-12.73-12.73Z"/>
  <path class="cls-1" d="m99.82,79.73c-8.68,0-15.73-7.06-15.73-15.73s7.06-15.73,15.73-15.73,15.73,7.06,15.73,15.73-7.06,15.73-15.73,15.73Zm0-28.46c-7.02,0-12.73,5.71-12.73,12.73s5.71,12.73,12.73,12.73,12.73-5.71,12.73-12.73-5.71-12.73-12.73-12.73Z"/>
  <path class="cls-1" d="m99.82,73.7c-3.45,0-6.67-1.86-8.4-4.85l2.6-1.5c1.2,2.07,3.42,3.35,5.81,3.35s4.66-1.31,5.85-3.43l2.62,1.47c-1.72,3.06-4.96,4.96-8.46,4.96Z"/>
  <path class="cls-1" d="m22.79,72.27l-2.42-1.77c1.82-2.5,4.75-3.99,7.84-3.99s5.85,1.39,7.71,3.81l-2.38,1.82c-1.28-1.67-3.22-2.63-5.33-2.63s-4.16,1.03-5.42,2.76Z"/>
  <rect class="cls-1" x="57.38" y="68.61" width="13.38" height="3"/>
</svg>