<?xml version="1.0" encoding="UTF-8"?>
<svg id="Layer_1" data-name="Layer 1" xmlns="http://www.w3.org/2000/svg" viewBox="0 0 220.64 94.58">
  <defs>
    <style>
      .cls-1 {
        fill: none;
      }

      .cls-1, .cls-2 {
        stroke: #0069b1;
        stroke-miterlimit: 10;
        stroke-width: 3px;
      }

      .cls-3 {
        fill: #0069b1;
      }

      .cls-2 {
        fill: #fff;
      }
    </style>
  </defs>
  <g>
    <rect class="cls-3" x="182.68" y="43.51" width="3" height="34.39"/>
    <path class="cls-3" d="m184.9,29.14c6.24,0,11.12-7.03,11.12-16.01,0-7.88-1.89-13.13-11.12-13.13s-11.12,5.25-11.12,13.13c0,8.98,4.88,16.01,11.12,16.01Zm0-26.14c6.3,0,8.12,2.27,8.12,10.13,0,7.05-3.72,13.01-8.12,13.01s-8.12-5.96-8.12-13.01c0-7.85,1.82-10.13,8.12-10.13Z"/>
    <path class="cls-3" d="m219.3,77.9c0-.35.29-.97.54-1.51.48-1.03,1.08-2.32.65-3.64-.44-1.37-1.71-2.07-2.73-2.63-.48-.26-1.08-.59-1.26-.84-.19-.26-.32-.91-.43-1.48-.22-1.13-.49-2.54-1.64-3.38-.94-.68-2.06-.69-3.07-.59v-13.24c0-9.5-7.73-17.23-17.23-17.23h-19.9c-9.5,0-17.23,7.73-17.23,17.23v34.16h33.01c.48.38,1.01.68,1.49.94.48.26,1.08.59,1.26.84.19.26.32.91.43,1.48.22,1.13.49,2.55,1.64,3.38,1.14.83,2.56.66,3.7.52.58-.07,1.25-.15,1.56-.05.28.09.77.55,1.16.92.85.8,1.92,1.8,3.38,1.8s2.52-1,3.38-1.8c.39-.37.88-.83,1.16-.92.32-.1.98-.02,1.56.05,1.14.14,2.56.31,3.7-.52,1.15-.84,1.42-2.25,1.64-3.38.11-.57.24-1.22.42-1.48.18-.25.78-.58,1.26-.84,1.02-.56,2.29-1.26,2.73-2.63.43-1.32-.17-2.61-.65-3.64-.25-.54-.54-1.16-.54-1.51Zm-59.3,3.84v-6.19h7.47v6.19h-7.47Zm31.5-11.62c-1.02.56-2.29,1.26-2.73,2.63-.43,1.33.17,2.61.65,3.64.25.54.54,1.16.54,1.51s-.29.97-.54,1.51c-.32.68-.68,1.48-.77,2.33h-18.18v-30.74h-3v21.55h-7.47v-21.97c0-7.85,6.38-14.23,14.23-14.23h8.45v4.14h3v-4.14h8.45c7.85,0,14.23,6.38,14.23,14.23v12.78c-.12-.11-.24-.22-.36-.33-.85-.8-1.92-1.8-3.38-1.8s-2.52,1-3.38,1.8c-.11.11-.24.22-.36.33v-12.36h-3v12.83c-1.01-.1-2.13-.09-3.07.59-1.15.84-1.42,2.25-1.64,3.38-.11.57-.24,1.22-.43,1.48-.18.25-.78.58-1.26.84Zm24.81,12.93c-.78.43-1.66.91-2.24,1.71-.58.8-.77,1.79-.94,2.67-.09.48-.27,1.39-.46,1.53-.19.13-1.09.03-1.58-.03-.89-.11-1.91-.23-2.85.08-.92.3-1.64.98-2.29,1.58-.39.37-1.05.99-1.32.99s-.93-.62-1.32-.99c-.64-.6-1.37-1.28-2.29-1.58-.45-.15-.91-.19-1.37-.19-.51,0-1.01.06-1.49.12-.48.06-1.38.17-1.57.03-.19-.14-.37-1.04-.46-1.53-.17-.88-.36-1.88-.95-2.68-.58-.79-1.46-1.28-2.24-1.71-.44-.24-1.25-.69-1.32-.92-.05-.23.32-1.03.51-1.45.38-.83.82-1.76.82-2.78s-.43-1.95-.82-2.77c-.2-.43-.57-1.22-.52-1.45.08-.24.89-.69,1.33-.93.78-.43,1.66-.92,2.24-1.71.58-.8.78-1.8.95-2.68.09-.48.27-1.39.46-1.53.19-.13,1.09-.03,1.58.03.89.11,1.9.23,2.85-.08.92-.3,1.64-.98,2.29-1.58.39-.37,1.05-.99,1.32-.99s.93.62,1.32.99c.64.6,1.37,1.28,2.29,1.58.95.31,1.96.18,2.85.08.48-.06,1.38-.17,1.58-.03.19.14.37,1.04.46,1.53.17.88.36,1.88.95,2.68.58.79,1.46,1.28,2.24,1.71.44.24,1.25.69,1.32.92.05.23-.32,1.03-.51,1.45-.38.83-.82,1.76-.82,2.77s.43,1.95.82,2.78c.2.43.57,1.22.52,1.45-.08.24-.89.69-1.33.93Z"/>
    <polygon class="cls-3" points="204.63 68.64 202.46 75.32 195.44 75.32 201.12 79.44 198.95 86.12 204.63 81.99 210.31 86.12 208.14 79.44 213.82 75.32 206.8 75.32 204.63 68.64"/>
  </g>
  <g>
    <g>
      <path class="cls-2" d="m11.97,83.24H1.5v-32.66c0-8.69,7.04-15.73,15.73-15.73h19.9c8.69,0,15.73,7.04,15.73,15.73v14.94"/>
      <polyline class="cls-1" points="33.46 83.24 11.97 83.24 11.97 51"/>
      <line class="cls-1" x1="42.4" y1="51" x2="42.4" y2="65.52"/>
      <line class="cls-2" x1="1.5" y1="74.05" x2="11.97" y2="74.05"/>
      <line class="cls-2" x1="27.18" y1="35.13" x2="27.18" y2="40.5"/>
      <line class="cls-2" x1="27.18" y1="43.51" x2="27.18" y2="77.9"/>
    </g>
    <path class="cls-1" d="m27.9,27.64c5.31,0,9.62-6.5,9.62-14.51s-1.91-11.63-9.62-11.63c-7.71,0-9.62,3.61-9.62,11.63s4.31,14.51,9.62,14.51Z"/>
    <path class="cls-1" d="m60.8,77.9c0-1.53,1.71-3.31,1.26-4.69s-2.91-1.86-3.78-3.05-.54-3.66-1.74-4.53-3.42.21-4.85-.26-2.54-2.64-4.07-2.64-2.69,2.19-4.07,2.64-3.66-.61-4.85.26-.86,3.33-1.74,4.53-3.31,1.62-3.78,3.05,1.26,3.16,1.26,4.69-1.71,3.31-1.26,4.69,2.91,1.86,3.78,3.05.54,3.66,1.74,4.53,3.42-.21,4.85.26,2.54,2.64,4.07,2.64,2.69-2.19,4.07-2.64,3.66.61,4.85-.26.86-3.33,1.74-4.53,3.31-1.62,3.78-3.05-1.26-3.16-1.26-4.69Z"/>
    <polygon class="cls-3" points="47.63 68.64 49.8 75.32 56.82 75.32 51.14 79.44 53.31 86.12 47.63 81.99 41.95 86.12 44.12 79.44 38.44 75.32 45.46 75.32 47.63 68.64"/>
  </g>
</svg>