<?xml version="1.0" encoding="UTF-8"?>
<svg id="Layer_1" data-name="Layer 1" xmlns="http://www.w3.org/2000/svg" viewBox="0 0 128 128">
  <defs>
    <style>
      .cls-1 {
        fill: #0069b1;
      }
    </style>
  </defs>
  <rect class="cls-1" x="53.67" y="57.31" width="3" height="16.73"/>
  <path class="cls-1" d="m55.57,48.05c3.92,0,7-4.3,7-9.8,0-4.23-.85-8.15-7-8.15s-7,3.92-7,8.15c0,5.49,3.08,9.8,7,9.8Zm0-14.94c3,0,4,.74,4,5.15,0,3.68-1.83,6.8-4,6.8s-4-3.11-4-6.8c0-4.4,1-5.15,4-5.15Z"/>
  <path class="cls-1" d="m60.85,49.18h-11.38c-5.79,0-10.49,4.71-10.49,10.49v14.49l.58.45c4.51,3.48,9.91,5.32,15.6,5.32s11.08-1.84,15.6-5.32l.58-.45v-14.49c0-5.79-4.71-10.49-10.49-10.49Zm7.49,23.49c-3.86,2.79-8.4,4.26-13.18,4.26s-9.32-1.47-13.18-4.26v-13c0-4.13,3.36-7.49,7.49-7.49h4.19v2.73h3v-2.73h4.19c4.13,0,7.49,3.36,7.49,7.49v13Z"/>
  <path class="cls-1" d="m86.34,79.36l-2.84,2.84-5.85-5.85c5.57-5.68,9.01-13.46,9.01-22.02,0-17.36-14.13-31.49-31.49-31.49s-31.49,14.13-31.49,31.49,14.13,31.49,31.49,31.49c7.72,0,14.8-2.8,20.28-7.43l5.93,5.93-2.84,2.84,18.61,18.61,7.81-7.81-18.61-18.61Zm-59.66-25.03c0-15.71,12.78-28.49,28.49-28.49s28.49,12.78,28.49,28.49-12.78,28.49-28.49,28.49-28.49-12.78-28.49-28.49Zm56.1,32.83l3.56-3.56,14.37,14.37-3.56,3.56-14.37-14.37Z"/>
</svg>