<?xml version="1.0" encoding="utf-8"?>
<!-- Generator: Adobe Illustrator 27.6.1, SVG Export Plug-In . SVG Version: 6.00 Build 0)  -->
<svg version="1.1" id="Layer_1" xmlns="http://www.w3.org/2000/svg" xmlns:xlink="http://www.w3.org/1999/xlink" x="0px" y="0px"
	 viewBox="0 0 128 128" style="enable-background:new 0 0 128 128;" xml:space="preserve">
<style type="text/css">
	.st0{fill:#0069B1;}
</style>
<g>
	<g>
		<g>
			<path class="st0" d="M63.9,69.8c-0.7,0.2-1.4,0.1-2.1-0.2c2.2,3.5,3.5,7.6,3.5,12.1c0,12.7-10.3,23-23,23c-12.7,0-23-10.3-23-23
				c0-12.6,10.1-22.8,22.7-23c-0.4-0.5-0.7-1.1-0.8-1.7c-13.1,0.6-23.6,11.4-23.6,24.7c0,13.6,11.1,24.7,24.7,24.7
				c13.6,0,24.7-11.1,24.7-24.7C66.9,77.4,65.8,73.4,63.9,69.8z"/>
		</g>
		<g>
			<g>
				<g>
					<path class="st0" d="M32.5,84c-1.9,0-3.4-1.5-3.4-3.4c0-1.9,1.5-3.4,3.4-3.4c1.9,0,3.4,1.5,3.4,3.4C35.9,82.5,34.4,84,32.5,84z
						 M32.5,78.9c-1,0-1.7,0.8-1.7,1.7c0,1,0.8,1.7,1.7,1.7c1,0,1.7-0.8,1.7-1.7C34.2,79.6,33.5,78.9,32.5,78.9z"/>
				</g>
				<g>
					<path class="st0" d="M51.9,84c-1.9,0-3.4-1.5-3.4-3.4c0-1.9,1.5-3.4,3.4-3.4c1.9,0,3.4,1.5,3.4,3.4C55.3,82.5,53.7,84,51.9,84z
						 M51.9,78.9c-1,0-1.7,0.8-1.7,1.7c0,1,0.8,1.7,1.7,1.7s1.7-0.8,1.7-1.7C53.6,79.6,52.8,78.9,51.9,78.9z"/>
				</g>
			</g>
			<g>
				<g>
					<path class="st0" d="M57.2,76.4c-0.3,0-0.6-0.2-0.8-0.5c-1.4-3.1-5-3-5.1-3c-0.4,0-0.9-0.3-0.9-0.8c0-0.5,0.3-0.9,0.8-0.9
						c0.2,0,4.9-0.2,6.8,4c0.2,0.4,0,0.9-0.4,1.1C57.4,76.3,57.3,76.4,57.2,76.4z"/>
				</g>
				<g>
					<path class="st0" d="M27.2,76.4c-0.1,0-0.2,0-0.3-0.1c-0.4-0.2-0.6-0.7-0.4-1.1c1.9-4.1,6.6-4,6.8-4c0.5,0,0.8,0.4,0.8,0.9
						c0,0.5-0.4,0.9-0.9,0.8c-0.2,0-3.7-0.1-5.1,3C27.8,76.2,27.5,76.4,27.2,76.4z"/>
				</g>
			</g>
			<g>
				<path class="st0" d="M51.2,94.6c-0.2,0-0.4-0.1-0.6-0.2c-7.8-7.8-16-0.3-16.3,0c-0.3,0.3-0.9,0.3-1.2,0c-0.3-0.3-0.3-0.9,0-1.2
					c0.1-0.1,9.7-9,18.7,0c0.3,0.3,0.3,0.9,0,1.2C51.7,94.6,51.4,94.6,51.2,94.6z"/>
			</g>
		</g>
	</g>
	<g>
		<g>
			<path class="st0" d="M62.3,71c-13.6,0-24.7-11.1-24.7-24.7s11.1-24.7,24.7-24.7C75.9,21.5,87,32.6,87,46.3S75.9,71,62.3,71z
				 M62.3,23.2c-12.7,0-23,10.3-23,23s10.3,23,23,23c12.7,0,23-10.3,23-23S75,23.2,62.3,23.2z"/>
		</g>
		<g>
			<g>
				<g>
					<path class="st0" d="M52.6,48.6c-1.9,0-3.4-1.5-3.4-3.4c0-1.9,1.5-3.4,3.4-3.4c1.9,0,3.4,1.5,3.4,3.4
						C56,47,54.5,48.6,52.6,48.6z M52.6,43.4c-1,0-1.7,0.8-1.7,1.7c0,1,0.8,1.7,1.7,1.7c1,0,1.7-0.8,1.7-1.7
						C54.3,44.2,53.5,43.4,52.6,43.4z"/>
				</g>
				<g>
					<path class="st0" d="M71.9,48.6c-1.9,0-3.4-1.5-3.4-3.4c0-1.9,1.5-3.4,3.4-3.4c1.9,0,3.4,1.5,3.4,3.4
						C75.4,47,73.8,48.6,71.9,48.6z M71.9,43.4c-1,0-1.7,0.8-1.7,1.7c0,1,0.8,1.7,1.7,1.7c1,0,1.7-0.8,1.7-1.7
						C73.7,44.2,72.9,43.4,71.9,43.4z"/>
				</g>
			</g>
			<g>
				<g>
					<path class="st0" d="M77.3,40.9c-0.3,0-0.6-0.2-0.8-0.5c-1.4-3.1-5-3-5.1-3c-0.4,0-0.9-0.3-0.9-0.8c0-0.5,0.3-0.9,0.8-0.9
						c0.2,0,4.9-0.2,6.8,4c0.2,0.4,0,0.9-0.4,1.1C77.5,40.9,77.4,40.9,77.3,40.9z"/>
				</g>
				<g>
					<path class="st0" d="M47.3,40.9c-0.1,0-0.2,0-0.3-0.1c-0.4-0.2-0.6-0.7-0.4-1.1c1.9-4.1,6.6-4,6.8-4c0.5,0,0.8,0.4,0.8,0.9
						c0,0.5-0.4,0.9-0.9,0.8c-0.2,0-3.7-0.1-5.1,3C47.9,40.7,47.6,40.9,47.3,40.9z"/>
				</g>
			</g>
			<g>
				<path class="st0" d="M53.8,53.7c0.2,0,0.4,0.1,0.6,0.2c7.8,7.8,16,0.3,16.3,0c0.3-0.3,0.9-0.3,1.2,0c0.3,0.3,0.3,0.9,0,1.2
					c-0.1,0.1-9.7,9-18.7,0c-0.3-0.3-0.3-0.9,0-1.2C53.3,53.8,53.6,53.7,53.8,53.7z"/>
			</g>
		</g>
	</g>
	<g>
		<g>
			<path class="st0" d="M85.8,57c-0.7,0-1.4,0-2.1,0.1c0,0.7-0.2,1.3-0.7,1.8c0.9-0.1,1.9-0.2,2.9-0.2c12.7,0,23,10.3,23,23
				c0,12.7-10.3,23-23,23c-9.4,0-17.4-5.6-21-13.7c-0.4,0.4-0.9,0.7-1.5,0.9c3.9,8.5,12.5,14.5,22.5,14.5
				c13.6,0,24.7-11.1,24.7-24.7S99.5,57,85.8,57z"/>
		</g>
		<g>
			<g>
				<path class="st0" d="M77.1,80.1c-1.8,0-3.2-1.4-3.2-3.2c0-1.8,1.4-3.2,3.2-3.2s3.2,1.4,3.2,3.2C80.3,78.7,78.8,80.1,77.1,80.1z
					 M77.1,75.4c-0.8,0-1.5,0.7-1.5,1.5c0,0.8,0.7,1.5,1.5,1.5c0.8,0,1.5-0.7,1.5-1.5C78.6,76.1,77.9,75.4,77.1,75.4z"/>
			</g>
			<g>
				<path class="st0" d="M94.6,80.1c-1.8,0-3.2-1.4-3.2-3.2c0-1.8,1.4-3.2,3.2-3.2c1.8,0,3.2,1.4,3.2,3.2
					C97.7,78.7,96.3,80.1,94.6,80.1z M94.6,75.4c-0.8,0-1.5,0.7-1.5,1.5c0,0.8,0.7,1.5,1.5,1.5c0.8,0,1.5-0.7,1.5-1.5
					C96,76.1,95.4,75.4,94.6,75.4z"/>
			</g>
		</g>
		<g>
			<path class="st0" d="M96.9,92H74.7c-0.5,0-0.9-0.4-0.9-0.9c0-0.5,0.4-0.9,0.9-0.9h22.2c0.5,0,0.9,0.4,0.9,0.9
				C97.7,91.6,97.4,92,96.9,92z"/>
		</g>
	</g>
</g>
</svg>
