<?xml version="1.0" encoding="UTF-8"?>
<svg id="Layer_1" data-name="Layer 1" xmlns="http://www.w3.org/2000/svg" viewBox="0 0 128 128">
  <defs>
    <style>
      .cls-1 {
        fill: #0069b1;
      }
    </style>
  </defs>
  <path class="cls-1" d="m59.53,47.86c7.25,0,13.15-8.55,13.15-19.07,0-9.62-2.2-15.58-13.15-15.58s-13.15,5.96-13.15,15.58c0,10.51,5.9,19.07,13.15,19.07Zm0-31.64c7.87,0,10.15,2.82,10.15,12.58,0,8.86-4.55,16.07-10.15,16.07s-10.15-7.21-10.15-16.07c0-9.75,2.28-12.58,10.15-12.58Z"/>
  <path class="cls-1" d="m98.62,77.82v-9.13l-3.24-3.18h-14.02l-3.19,3.19v9.12h-7.47v37.31h35.4v-37.31h-7.47Zm-16.01-9.32h11.55l1.47,1.44v7.87h-14.45v-7.88l1.44-1.43Zm20.49,43.63h-29.4v-31.31h4.47v3.06h3v-3.06h14.45v3.06h3v-3.06h4.47v31.31Z"/>
  <path class="cls-1" d="m29.08,74.15c0-9.67,7.87-17.54,17.54-17.54h24.09c5.12,0,9.85,2.21,13.12,5.9h3.8c-3.78-5.51-10.06-8.9-16.92-8.9h-24.09c-11.33,0-20.54,9.22-20.54,20.54v32.06h41.66v-3H29.08v-29.06Z"/>
</svg>