<?xml version="1.0" encoding="UTF-8"?>
<svg id="Layer_1" data-name="Layer 1" xmlns="http://www.w3.org/2000/svg" viewBox="0 0 128 128">
  <defs>
    <style>
      .cls-1 {
        fill: #0069b1;
      }
    </style>
  </defs>
  <path class="cls-1" d="m105.95,75.33l-1.36-1.68c-2.48-3.06-6.69-3.99-10.24-2.25l-2.62,1.29-14.46,4.29s0-.01,0-.02c0-4.09-3.33-7.42-7.42-7.42h-12.03c-3.41-2.7-7.66-4.19-12.03-4.19-4.97,0-9.69,1.88-13.31,5.29l-5.8,5.52c-.5.48-1.05.9-1.69,1.3l-2.88,1.97,1.7,2.47,2.82-1.93c.76-.47,1.47-1.02,2.13-1.64l5.79-5.52c3.05-2.88,7.05-4.47,11.25-4.47,3.85,0,7.59,1.36,10.53,3.83l.42.35h13.11c2.44,0,4.42,1.99,4.42,4.42s-1.84,4.29-4.19,4.42l-12.52.67.16,3,12.52-.67c2.72-.15,5.04-1.75,6.21-4.02l16.25-4.82,2.97-1.44c2.27-1.12,4.98-.52,6.58,1.45l1.11,1.37-23.09,14.24c-3.24,2-6.96,3.1-10.76,3.2l-24.83.63c-.75.02-1.47.26-2.09.69l-5.8,3.58,1.58,2.55,5.84-3.61.09-.06c.13-.1.29-.15.46-.15l24.83-.63c4.33-.11,8.57-1.37,12.25-3.64l23.43-14.45c.65-.4,1.09-1.06,1.22-1.81.13-.75-.08-1.52-.56-2.11Z"/>
  <path class="cls-1" d="m72.27,63.63c10.38,0,18.83-8.45,18.83-18.83s-8.45-18.83-18.83-18.83-18.83,8.44-18.83,18.83,8.45,18.83,18.83,18.83Zm0-34.65c8.73,0,15.83,7.1,15.83,15.83s-7.1,15.83-15.83,15.83-15.83-7.1-15.83-15.83,7.1-15.83,15.83-15.83Z"/>
  <path class="cls-1" d="m67.82,47.81l-1.39,1.98c1.48,1.18,3.25,1.94,5.14,2.16v2.18h1.9v-2.16c2.77-.24,4.64-1.83,4.64-4.23s-1.42-3.68-4.73-4.51v-4.14c1.02.22,2,.68,2.96,1.39l1.22-2.05c-1.2-.89-2.51-1.46-4.1-1.66v-1.31h-1.9v1.26c-2.72.22-4.58,1.83-4.58,4.18s1.48,3.66,4.66,4.49v4.27c-1.42-.22-2.59-.87-3.84-1.87Zm5.56-1.98c1.7.5,2.16,1.09,2.16,2.07,0,1.05-.78,1.76-2.16,1.87v-3.94Zm-3.81-5.06c0-.96.72-1.72,2.09-1.83v3.84c-1.68-.5-2.09-1.09-2.09-2.01Z"/>
</svg>