<?xml version="1.0" encoding="UTF-8"?>
<svg id="Layer_1" data-name="Layer 1" xmlns="http://www.w3.org/2000/svg" viewBox="0 0 128 128">
  <defs>
    <style>
      .cls-1 {
        fill: #0069b1;
      }
    </style>
  </defs>
  <path class="cls-1" d="m53.66,44.25c6.38,0,11.57-7.49,11.57-16.7,0-11.35-4.63-13.68-11.57-13.68s-11.58,2.33-11.58,13.68c0,9.21,5.19,16.7,11.58,16.7Zm0-27.37c6.65,0,8.57,2.39,8.57,10.68,0,7.42-3.93,13.7-8.57,13.7s-8.58-6.27-8.58-13.7c0-8.28,1.92-10.68,8.58-10.68Z"/>
  <path class="cls-1" d="m103.49,90.43c0-12.63-9.93-22.98-22.39-23.65v-.06c0-9.88-8.04-17.91-17.91-17.91h-20.76c-9.88,0-17.91,8.04-17.91,17.91v25.21h31.65c.78,12.36,11.08,22.19,23.64,22.19,3.17,0,6.19-.63,8.95-1.76l.02.05,2.7-1.31-.03-.06c7.18-4.07,12.04-11.79,12.04-20.61Zm-6.92-12.07l-15.27,9.39v-17.93c6.28.45,11.78,3.72,15.27,8.54Zm-18.27-8.54v19.11h-19.11c.74-10.21,8.9-18.37,19.11-19.11Zm-50.79-3.1c0-8.22,6.69-14.91,14.91-14.91h20.76c8.22,0,14.91,6.69,14.91,14.91v.09c-11.77.84-21.19,10.32-21.93,22.12h-28.65v-22.21Zm52.29,44.4c-10.9,0-19.84-8.48-20.61-19.19h19.67l8.58,17.71c-2.37.94-4.94,1.48-7.64,1.48Zm10.33-2.79l-8.39-17.33,16.41-10.09c1.49,2.85,2.34,6.09,2.34,9.52,0,7.64-4.18,14.31-10.36,17.9Z"/>
</svg>