<?xml version="1.0" encoding="UTF-8"?>
<svg id="Layer_1" data-name="Layer 1" xmlns="http://www.w3.org/2000/svg" viewBox="0 0 128 128">
  <defs>
    <style>
      .cls-1 {
        fill: #0069b1;
      }
    </style>
  </defs>
  <path class="cls-1" d="m98.04,36.81h-10.48c-5.4,0-9.79,4.39-9.79,9.78v15.87h30.05v-15.87c0-5.4-4.39-9.78-9.79-9.78Zm6.79,22.66h-24.05v-12.87c0-3.74,3.04-6.78,6.79-6.78h10.48c3.74,0,6.79,3.04,6.79,6.78v12.87Zm-11.64-23.46c3.68,0,6.57-4.02,6.57-9.14,0-3.96-.8-7.63-6.57-7.63s-6.57,3.67-6.57,7.63c0,5.13,2.88,9.14,6.57,9.14Zm0-13.77c2.72,0,3.57.64,3.57,4.63,0,3.27-1.67,6.14-3.57,6.14s-3.57-2.87-3.57-6.14c0-3.99.85-4.63,3.57-4.63Zm-52.74,60.87h-10.48c-5.39,0-9.78,4.39-9.78,9.79v15.87h30.05v-15.87c0-5.4-4.39-9.79-9.78-9.79Zm6.78,22.66h-24.05v-12.87c0-3.74,3.04-6.79,6.78-6.79h10.48c3.74,0,6.78,3.04,6.78,6.79v12.87Zm-11.64-23.46c3.68,0,6.57-4.02,6.57-9.14,0-3.96-.8-7.63-6.57-7.63s-6.57,3.67-6.57,7.63c0,5.13,2.88,9.14,6.57,9.14Zm0-13.77c2.72,0,3.57.64,3.57,4.63,0,3.27-1.67,6.14-3.57,6.14s-3.57-2.87-3.57-6.14c0-3.99.85-4.63,3.57-4.63Zm20.9-21.4l8.82-8.82h-28.19v22.65h-3v-25.65h31.19l-8.82-8.82,2.12-2.12,12.44,12.44-12.44,12.44-2.12-2.12Zm34.61,23.89h3v25.65h-31.19l8.82,8.82-2.12,2.12-12.44-12.44,12.44-12.44,2.12,2.12-8.82,8.82h28.19v-22.65Z"/>
</svg>