<?xml version="1.0" encoding="UTF-8"?>
<svg id="Layer_1" data-name="Layer 1" xmlns="http://www.w3.org/2000/svg" viewBox="0 0 128 128">
  <defs>
    <style>
      .cls-1 {
        fill: #0069b1;
      }
    </style>
  </defs>
  <rect class="cls-1" x="57.5" y="59.93" width="3" height="37.07"/>
  <path class="cls-1" d="m59.77,44.32c6.54,0,11.87-7.69,11.87-17.14,0-8.66-1.99-14.03-11.87-14.03s-11.87,5.37-11.87,14.03c0,9.45,5.32,17.14,11.87,17.14Zm0-28.17c6.88,0,8.87,2.47,8.87,11.03,0,7.67-4.06,14.14-8.87,14.14s-8.87-6.48-8.87-14.14c0-8.56,1.99-11.03,8.87-11.03Z"/>
  <path class="cls-1" d="m96.74,97c0-.4.31-1.08.59-1.68.54-1.15,1.14-2.46.69-3.84-.46-1.43-1.81-2.17-2.89-2.77-.55-.31-1.18-.65-1.4-.94-.22-.3-.36-1.01-.48-1.64-.23-1.2-.52-2.7-1.73-3.57-1.02-.74-2.23-.72-3.36-.6v-14.4c0-10.18-8.28-18.46-18.46-18.46h-21.45c-10.18,0-18.46,8.28-18.46,18.46v36.7h35.5c.52.42,1.1.74,1.63,1.03.55.31,1.18.65,1.39.94.22.3.36,1.01.48,1.64.23,1.2.52,2.7,1.72,3.57,1.19.87,2.63.69,3.91.54.64-.08,1.37-.17,1.74-.05.33.11.84.59,1.29,1.01.91.85,2.03,1.91,3.56,1.91s2.65-1.06,3.56-1.91c.45-.43.97-.91,1.3-1.01.37-.12,1.09-.03,1.74.05,1.27.16,2.72.33,3.91-.54,1.2-.87,1.49-2.37,1.73-3.57.12-.63.26-1.34.48-1.64.21-.29.84-.64,1.39-.94,1.08-.6,2.42-1.34,2.89-2.77.45-1.38-.16-2.69-.69-3.84-.28-.6-.59-1.27-.59-1.68Zm-63.92,4.25v-6.9h8.28v6.9h-8.28Zm8.28-33.25v23.35h-8.28v-23.8c0-8.52,6.93-15.46,15.46-15.46h9.23v4.58h3v-4.58h9.23c8.52,0,15.46,6.93,15.46,15.46v14.03c-.19-.17-.39-.35-.58-.53-.91-.85-2.03-1.91-3.56-1.91s-2.65,1.06-3.56,1.91c-.19.18-.39.36-.58.53v-13.58h-3v13.96c-1.13-.12-2.33-.14-3.36.6-1.2.87-1.49,2.37-1.72,3.57-.12.63-.26,1.34-.48,1.64-.21.29-.84.64-1.39.94-1.08.59-2.42,1.34-2.89,2.77-.45,1.38.16,2.69.69,3.84.28.6.59,1.27.59,1.68s-.31,1.08-.59,1.68c-.37.79-.76,1.66-.83,2.57h-19.82v-33.25h-3Zm53.51,31.94c.24.52.65,1.39.56,1.65-.1.3-.93.76-1.48,1.06-.83.46-1.77.97-2.37,1.81-.61.84-.82,1.9-1,2.84-.12.61-.3,1.54-.55,1.72-.24.17-1.2.05-1.78-.01-.95-.12-2.03-.25-3.03.08-.96.31-1.74,1.04-2.42,1.68-.49.46-1.17,1.09-1.51,1.09s-1.01-.63-1.5-1.09c-.68-.64-1.46-1.37-2.42-1.68-.47-.15-.96-.2-1.44-.2-.54,0-1.08.07-1.59.13-.58.07-1.54.19-1.78.01-.25-.18-.43-1.1-.54-1.72-.18-.94-.39-2-1-2.84-.61-.83-1.54-1.35-2.37-1.8-.55-.3-1.39-.76-1.48-1.07-.08-.26.32-1.13.56-1.65.41-.88.87-1.87.87-2.94s-.46-2.06-.87-2.94c-.24-.52-.65-1.39-.56-1.65.1-.3.93-.76,1.48-1.07.83-.46,1.77-.97,2.37-1.8.61-.84.82-1.9,1-2.84.12-.61.3-1.54.54-1.72.24-.17,1.2-.06,1.78.02.95.11,2.03.25,3.03-.08.96-.31,1.74-1.04,2.42-1.68.49-.46,1.17-1.09,1.51-1.09s1.01.63,1.51,1.09c.68.64,1.46,1.37,2.42,1.68,1,.32,2.08.19,3.02.08.58-.07,1.54-.19,1.78-.02.25.18.43,1.11.55,1.72.18.93.39,2,1,2.84.61.83,1.54,1.35,2.37,1.81.55.3,1.38.76,1.48,1.07.08.26-.32,1.13-.56,1.65-.41.88-.87,1.87-.87,2.94s.46,2.06.87,2.94Z"/>
  <polygon class="cls-1" points="77.15 101.17 73.41 97.43 71.29 99.55 77.15 105.41 90.79 91.77 88.67 89.65 77.15 101.17"/>
</svg>