<?xml version="1.0" encoding="UTF-8"?>
<svg id="Layer_1" data-name="Layer 1" xmlns="http://www.w3.org/2000/svg" viewBox="0 0 128 128">
  <defs>
    <style>
      .cls-1 {
        fill: #0069b1;
      }
    </style>
  </defs>
  <path class="cls-1" d="m64.74,44.63c-8.71,0-10.5,4.92-10.5,12.32,0,8.38,4.61,14.94,10.5,14.94s10.5-6.56,10.5-14.94c0-7.39-1.79-12.32-10.5-12.32Zm0,23.74c-3.78,0-6.98-5.23-6.98-11.42,0-6.91,1.5-8.8,6.98-8.8s6.98,1.89,6.98,8.8c0,6.19-3.2,11.42-6.98,11.42Z"/>
  <path class="cls-1" d="m93.28,29.67l-4.15,5.85H13.72v62.8l25.29.02,3.52-.02h71.76V29.67h-21.01Zm-50.76,65.13v-2.39c0-6.88,5.6-12.47,12.47-12.47h18.01c6.88,0,12.47,5.6,12.47,12.47v2.39h-42.96Zm68.25,0h-21.77v-2.39c0-8.82-7.17-15.99-15.99-15.99h-18.01c-8.82,0-15.99,7.17-15.99,15.99v2.39h-21.77v-55.76h73.72l4.15-5.85h15.67v61.61Z"/>
</svg>