<?xml version="1.0" encoding="UTF-8"?>
<svg id="Layer_1" data-name="Layer 1" xmlns="http://www.w3.org/2000/svg" viewBox="0 0 128 128">
  <defs>
    <style>
      .cls-1 {
        fill: #0069b1;
      }
    </style>
  </defs>
  <path class="cls-1" d="m108.8,82.83V28.42H19.2v54.41h43.3v13.74h-16.92v3h36.84v-3h-16.92v-13.74h43.3Zm-46.3-3H22.2V31.42h83.59v48.41h-43.3Z"/>
  <path class="cls-1" d="m41.21,35.74c-7.68,0-13.9,6.22-13.9,13.9s6.22,13.9,13.9,13.9,13.9-6.22,13.9-13.9-6.22-13.9-13.9-13.9Zm-10.9,13.9c0-5.5,4.1-10.05,9.4-10.79v10.45l-4.42,9.47c-2.99-1.95-4.98-5.31-4.98-9.14Zm21.8,0c0,6.01-4.89,10.9-10.9,10.9-1.12,0-2.19-.17-3.21-.48l4.27-9.14,9.78-2.45c.04.38.06.77.06,1.17Zm-9.4-1.92v-8.86c3.91.54,7.17,3.16,8.6,6.71l-8.6,2.15Z"/>
  <polygon class="cls-1" points="70.33 41.47 74.33 45.47 81.95 37.86 91.9 47.81 98.74 40.97 96.62 38.85 91.9 43.57 81.95 33.62 74.33 41.23 70.33 37.23 64.97 42.6 67.09 44.72 70.33 41.47"/>
  <rect class="cls-1" x="67.09" y="63.54" width="3" height="6.56"/>
  <rect class="cls-1" x="72.22" y="58.54" width="3" height="11.56"/>
  <rect class="cls-1" x="77.35" y="65.54" width="3" height="4.56"/>
  <rect class="cls-1" x="82.48" y="61.54" width="3" height="8.56"/>
  <rect class="cls-1" x="87.61" y="64.54" width="3" height="5.56"/>
  <rect class="cls-1" x="92.74" y="63.54" width="3" height="6.56"/>
  <rect class="cls-1" x="71.6" y="72.88" width="20.52" height="3"/>
  <rect class="cls-1" x="71.6" y="50.62" width="20.52" height="3"/>
  <rect class="cls-1" x="33.95" y="67.32" width="14.51" height="3"/>
  <rect class="cls-1" x="30.95" y="72.88" width="20.52" height="3"/>
</svg>