<?xml version="1.0" encoding="UTF-8"?>
<svg id="Layer_1" data-name="Layer 1" xmlns="http://www.w3.org/2000/svg" viewBox="0 0 128 128">
  <defs>
    <style>
      .cls-1 {
        fill: #0069b1;
      }
    </style>
  </defs>
  <path class="cls-1" d="m114.45,42.75c0-10.18-8.25-18.43-18.43-18.43-3.37,0-6.52.92-9.24,2.5H27.78v3h55.12c-.89.9-1.67,1.89-2.36,2.96H21.78v3h57.19c-.39.95-.7,1.94-.92,2.96H20.78c-3.58,0-6.5,2.92-6.5,6.5v43.1c0,3.58,2.92,6.5,6.5,6.5h70.24c3.58,0,6.5-2.92,6.5-6.5v-27.22c9.48-.77,16.93-8.68,16.93-18.36Zm-19.93,45.58c0,1.93-1.57,3.5-3.5,3.5H20.78c-1.93,0-3.5-1.57-3.5-3.5v-3.72h77.24v3.72Zm0-6.72H17.28v-6.69h77.24v6.69Zm-77.24-9.69v-26.68c0-1.93,1.57-3.5,3.5-3.5h56.86c-.02.34-.05.68-.05,1.02,0,9.67,7.46,17.59,16.93,18.36v10.81H17.28Zm78.74-13.73c-8.51,0-15.43-6.92-15.43-15.43s6.92-15.43,15.43-15.43,15.43,6.92,15.43,15.43-6.92,15.43-15.43,15.43Z"/>
  <polygon class="cls-1" points="103.43 33.21 96.02 40.63 88.6 33.21 86.48 35.33 93.9 42.75 86.48 50.17 88.6 52.29 96.02 44.87 103.43 52.29 105.56 50.17 98.14 42.75 105.56 35.33 103.43 33.21"/>
</svg>