<?xml version="1.0" encoding="UTF-8"?>
<svg id="Layer_1" data-name="Layer 1" xmlns="http://www.w3.org/2000/svg" viewBox="0 0 128 128">
  <defs>
    <style>
      .cls-1 {
        fill: #0069b1;
      }
    </style>
  </defs>
  <path class="cls-1" d="m76.01,26.53v27.81h27.81v-27.81h-27.81Zm24.81,24.81h-21.81v-21.81h21.81v21.81Z"/>
  <path class="cls-1" d="m76.01,98.79h27.81v-27.81h-27.81v27.81Zm3-24.81h21.81v21.81h-21.81v-21.81Z"/>
  <path class="cls-1" d="m54.7,26.53h-27.81v27.81h27.81v-27.81Zm-3,24.81h-21.81v-21.81h21.81v21.81Z"/>
  <path class="cls-1" d="m40.77,68.29c-9.15,0-16.59,7.44-16.59,16.59s7.44,16.59,16.59,16.59,16.59-7.44,16.59-16.59-7.44-16.59-16.59-16.59Zm0,30.18c-7.49,0-13.59-6.1-13.59-13.59s6.1-13.59,13.59-13.59,13.59,6.1,13.59,13.59-6.1,13.59-13.59,13.59Z"/>
</svg>