<?xml version="1.0" encoding="UTF-8"?>
<svg id="Layer_1" data-name="Layer 1" xmlns="http://www.w3.org/2000/svg" viewBox="0 0 128 128">
  <defs>
    <style>
      .cls-1 {
        fill: none;
        stroke: #0069b1;
        stroke-miterlimit: 10;
        stroke-width: 3px;
      }
    </style>
  </defs>
  <path class="cls-1" d="m79.77,88v13.78c0,2.76-2.24,5-5,5h-37c-2.76,0-5-2.24-5-5V26.22c0-2.76,2.24-5,5-5h37c2.76,0,5,2.24,5,5v14.58"/>
  <line class="cls-1" x1="32.47" y1="38.11" x2="79.33" y2="38.11"/>
  <line class="cls-1" x1="32.47" y1="90.2" x2="79.33" y2="90.2"/>
  <line class="cls-1" x1="47.48" y1="98.85" x2="64.32" y2="98.85"/>
  <line class="cls-1" x1="47.48" y1="29.93" x2="52.07" y2="29.93"/>
  <line class="cls-1" x1="55.78" y1="29.93" x2="65.47" y2="29.93"/>
  <path class="cls-1" d="m95.53,56.99c0-9.21-7.69-16.63-16.99-16.19-8.16.39-14.89,7.03-15.39,15.18-.31,5.14,1.78,9.78,5.24,12.95,1.64,1.49,2.54,3.63,2.54,5.84v5.1c0,1.66,1.34,3,3,3h10.78c1.66,0,3-1.34,3-3v-5.09c0-2.18.84-4.31,2.46-5.77,3.29-2.96,5.35-7.24,5.35-12.01Z"/>
  <path class="cls-1" d="m79.33,45.78c6.18,0,11.21,5.03,11.21,11.21"/>
  <path class="cls-1" d="m74.2,82.87c0,2.83,2.3,5.13,5.13,5.13s5.13-2.3,5.13-5.13"/>
  <line class="cls-1" x1="70.94" y1="74.77" x2="87.72" y2="74.77"/>
  <line class="cls-1" x1="70.94" y1="78.82" x2="87.72" y2="78.82"/>
</svg>