<?xml version="1.0" encoding="UTF-8"?>
<svg id="Layer_1" data-name="Layer 1" xmlns="http://www.w3.org/2000/svg" viewBox="0 0 128 128">
  <defs>
    <style>
      .cls-1 {
        fill: #0069b1;
      }
    </style>
  </defs>
  <path class="cls-1" d="m79.88,37.03l-.09-3c.32,0,.65-.02.95-.01.73,0,1.48.03,2.2.08l-.22,2.99c-.67-.05-1.34-.08-2.03-.07-.27,0-.54,0-.82.01Zm.3,53.94l-.06,3c.21,0,.41,0,.62,0,.84,0,1.7-.04,2.54-.11l-.25-2.99c-.94.08-1.91.11-2.84.09Zm-8.35,1.66c1,.31,2.03.57,3.06.78l.58-2.94c-.93-.18-1.85-.42-2.75-.7l-.89,2.87Zm19.31-56.76c-.99-.36-2-.68-3.01-.94l-.74,2.91c.91.23,1.83.52,2.71.84l1.04-2.81Zm16.46,25.61l2.99-.28c-.1-1.05-.25-2.1-.45-3.12l-2.94.59c.18.92.32,1.87.41,2.81Zm1.05-8.44c-.38-.98-.82-1.94-1.31-2.87l-2.66,1.39c.44.84.83,1.71,1.18,2.58l2.79-1.1Zm-10.13-13.18c-.85-.63-1.73-1.21-2.63-1.74l-1.52,2.59c.81.48,1.61,1,2.37,1.57l1.78-2.41Zm-23.34-2.28l-.62-2.94c-1.03.22-2.06.49-3.05.81l.92,2.85c.89-.29,1.82-.53,2.74-.73Zm29.33,8.15c-.64-.83-1.33-1.64-2.05-2.4l-2.17,2.07c.65.68,1.27,1.41,1.85,2.16l2.38-1.83Zm-4.02,36.63l2.2,2.04c.71-.77,1.4-1.58,2.02-2.42l-2.4-1.8c-.57.75-1.18,1.49-1.82,2.18Zm4.33-6.2l2.68,1.36c.48-.94.91-1.91,1.28-2.89l-2.8-1.06c-.33.88-.72,1.75-1.15,2.6Zm2.81-9.96c-.08.95-.2,1.89-.38,2.81l2.95.56c.19-1.03.33-2.08.42-3.13l-2.99-.24Zm-19.95,23.86l.77,2.9c1.01-.27,2.02-.6,3-.97l-1.07-2.8c-.88.34-1.79.63-2.7.87Zm6.95-2.94l1.55,2.57c.9-.54,1.78-1.14,2.61-1.77l-1.81-2.39c-.75.57-1.54,1.1-2.35,1.59Zm-49.77-12.59v-2.46c-2.14-.25-4.14-1.11-5.81-2.44l1.58-2.24c1.4,1.13,2.74,1.87,4.34,2.12v-4.83c-3.6-.94-5.27-2.29-5.27-5.08s2.09-4.48,5.17-4.73v-1.43h2.14v1.48c1.8.22,3.28.86,4.63,1.87l-1.38,2.32c-1.08-.81-2.19-1.33-3.35-1.58v4.68c3.75.94,5.35,2.44,5.35,5.1s-2.12,4.51-5.25,4.78v2.44h-2.14Zm2.05-4.93c1.55-.12,2.44-.94,2.44-2.12,0-1.11-.52-1.77-2.44-2.34v4.46Zm-1.95-7.91v-4.34c-1.55.12-2.36.99-2.36,2.07s.47,1.7,2.36,2.27Zm43.16,12.11l9.37-9.54-9.37-9.54-2.14,2.1,5.56,5.66h-14.34c-.43-8.59-4.49-16.24-10.67-21.44.51-.32,1.02-.62,1.55-.9l-1.41-2.65c-.92.49-1.82,1.03-2.69,1.62-4.78-3.23-10.54-5.11-16.73-5.11-16.53,0-29.98,13.45-29.98,29.98s13.45,29.98,29.98,29.98c6.49,0,12.51-2.08,17.42-5.6l-.44.66c.88.58,1.79,1.12,2.72,1.6l1.38-2.66c-.62-.32-1.22-.67-1.81-1.04,5.49-4.62,9.3-11.16,10.39-18.58h-3.04c-2.09,12.82-13.23,22.63-26.63,22.63-14.88,0-26.98-12.1-26.98-26.98s12.1-26.98,26.98-26.98,26.16,11.3,26.94,25.48h-2.01c-.78-13.08-11.66-23.48-24.93-23.48s-24.98,11.21-24.98,24.98,11.21,24.98,24.98,24.98c12.29,0,22.53-8.92,24.59-20.63h-3.05c-2.02,10.04-10.92,17.63-21.55,17.63-12.12,0-21.98-9.86-21.98-21.98s9.86-21.98,21.98-21.98,21.15,9.06,21.92,20.48h-13.09v3h35.98l-6.1,6.21,2.14,2.1Z"/>
</svg>