<?xml version="1.0" encoding="UTF-8"?>
<svg id="Layer_1" data-name="Layer 1" xmlns="http://www.w3.org/2000/svg" viewBox="0 0 128 128">
  <defs>
    <style>
      .cls-1 {
        fill: #0069b1;
      }
    </style>
  </defs>
  <path class="cls-1" d="m87.21,18.59H26.72v90.83h74.56V32.33l-14.07-13.75Zm.89,5.06l8,7.82h-8v-7.82ZM29.72,106.41V21.59h55.38v12.88h13.18v71.95H29.72Z"/>
  <polygon class="cls-1" points="74.99 62.49 72.87 60.37 65.5 67.73 65.5 47.52 62.5 47.52 62.5 67.73 55.13 60.37 53.01 62.49 64 73.48 74.99 62.49"/>
  <polygon class="cls-1" points="77.55 78.98 50.45 78.98 50.45 70.66 47.45 70.66 47.45 81.98 80.55 81.98 80.55 70.66 77.55 70.66 77.55 78.98"/>
</svg>