<?xml version="1.0" encoding="UTF-8"?>
<svg id="Layer_1" data-name="Layer 1" xmlns="http://www.w3.org/2000/svg" viewBox="0 0 128 128">
  <defs>
    <style>
      .cls-1 {
        fill: #0069b1;
      }
    </style>
  </defs>
  <path class="cls-1" d="m71.07,45.22c0-5.93-4.83-10.76-10.76-10.76s-10.76,4.83-10.76,10.76h-3c0-7.59,6.17-13.76,13.76-13.76s13.76,6.17,13.76,13.76h-3Zm-25.39-16.21l-5.43-5.43-2.12,2.12,5.47,5.47c.64-.77,1.34-1.49,2.08-2.16Zm31.34,2.16l5.46-5.46-2.12-2.12-5.43,5.43c.74.67,1.44,1.39,2.08,2.16Zm-15.21-7.74v-7.53h-3v7.53c.5-.03,1-.06,1.5-.06s1,.02,1.5.06Zm-23.32,20.83h-8.04v3h8.12c-.06-.68-.11-1.36-.11-2.04,0-.32.01-.64.02-.96Zm51.68,3v-3h-8.04c.01.32.02.64.02.96,0,.69-.04,1.37-.11,2.04h8.12Zm8.88,24.85v16.27c0,13.91-11.31,25.22-25.22,25.22s-25.22-11.31-25.22-25.22v-6.18c0-3.26,2.32-5.98,5.39-6.62v-24.7c0-3.72,3.03-6.75,6.75-6.75s6.76,3.03,6.76,6.75v13.32c1.07-.72,2.37-1.14,3.75-1.14,2.12,0,4.02.98,5.26,2.51,1.24-1.53,3.13-2.51,5.25-2.51,2.71,0,5.05,1.6,6.13,3.91,1.18-1.01,2.71-1.62,4.38-1.62h0c3.72,0,6.75,3.03,6.75,6.75Zm-3,0c0-2.07-1.68-3.75-3.75-3.75h0c-2.07,0-3.75,1.68-3.75,3.75h-3v-2.29c0-2.07-1.68-3.75-3.75-3.75s-3.76,1.68-3.76,3.75h-3c0-2.07-1.68-3.75-3.75-3.75s-3.76,1.68-3.76,3.75h-3v-18.93c0-2.07-1.68-3.75-3.75-3.75s-3.76,1.68-3.76,3.75v37.78h-3v-9.95c-1.4.55-2.39,1.9-2.39,3.48v6.18c0,12.25,9.97,22.22,22.22,22.22s22.22-9.97,22.22-22.22v-16.27Zm-21.03-.38h3v-1.91h-3v1.91Zm-10.51,0h3v-1.91h-3v1.91Zm-13.51-13.72c-4-2.93-6.53-7.66-6.53-12.8,0-8.74,7.11-15.84,15.84-15.84s15.84,7.11,15.84,15.84c0,4.76-2.14,9.16-5.64,12.11v3.73c5.3-3.41,8.64-9.35,8.64-15.85,0-10.39-8.45-18.84-18.84-18.84s-18.84,8.45-18.84,18.84c0,6.84,3.76,13.07,9.53,16.37v-3.58Z"/>
</svg>