<?xml version="1.0" encoding="UTF-8"?>
<svg id="Layer_1" data-name="Layer 1" xmlns="http://www.w3.org/2000/svg" viewBox="0 0 128 128">
  <defs>
    <style>
      .cls-1 {
        fill: #276ab0;
      }
    </style>
  </defs>
  <path class="cls-1" d="m102.82,71.85v-5.31h3.77s-.09-1.59-.09-1.59c-1.3-22.48-19.96-40.08-42.5-40.08s-41.2,17.61-42.5,40.08l-.09,1.59h3.77s0,5.3,0,5.3l7.35,1.09c.72,2.62,1.76,5.13,3.11,7.49l-4.43,5.97,10.68,10.68,5.97-4.43c2.36,1.35,4.88,2.39,7.49,3.11l1.09,7.35h15.1l1.09-7.35c2.62-.72,5.13-1.76,7.49-3.11l5.97,4.43,10.68-10.68-4.43-5.97c1.35-2.36,2.39-4.88,3.11-7.49l7.35-1.09Zm-38.82-43.98c20.41,0,37.41,15.54,39.38,35.67h-33.82c-.03-.09-.06-.17-.1-.26l13.83-11.42-1.91-2.31-13.76,11.36c-1-.77-2.25-1.24-3.62-1.24-2.54,0-4.71,1.61-5.56,3.87H24.62c1.97-20.13,18.97-35.67,39.38-35.67Zm-5.85,38.67c.45,2.83,2.9,5,5.85,5s5.4-2.17,5.85-5h4.94c-.73,5.31-5.29,9.41-10.79,9.41s-10.06-4.1-10.79-9.41h4.94Zm8.79-.94c0,1.62-1.32,2.93-2.93,2.93s-2.93-1.32-2.93-2.93,1.32-2.93,2.93-2.93,2.93,1.32,2.93,2.93Zm25.87,5.65c-.72,3-1.91,5.85-3.52,8.49l-.53.86,4.08,5.51-7.02,7.02-5.51-4.08-.86.53c-2.64,1.62-5.49,2.8-8.49,3.52l-.98.24-1.01,6.78h-9.92l-1.01-6.78-.98-.24c-3-.72-5.85-1.91-8.49-3.52l-.86-.53-5.51,4.08-7.02-7.02,4.08-5.51-.53-.86c-1.62-2.64-2.8-5.5-3.52-8.49l-.24-.98-6.78-1.01v-2.72h21.99c.75,6.97,6.66,12.41,13.82,12.41s13.07-5.44,13.83-12.41h21.99s0,2.72,0,2.72l-6.78,1.01-.24.98Z"/>
  <rect class="cls-1" x="62.5" y="31.18" width="3" height="7.54"/>
  <rect class="cls-1" x="74.04" y="36.5" width="7.54" height="3" transform="translate(10.37 92.3) rotate(-64.87)"/>
  <rect class="cls-1" x="84.61" y="44.25" width="7.47" height="3" transform="translate(-8.91 66.72) rotate(-39.55)"/>
  <rect class="cls-1" x="90.69" y="54.36" width="7.54" height="3" transform="translate(-13.65 37.01) rotate(-20.71)"/>
  <rect class="cls-1" x="48.69" y="34.23" width="3" height="7.54" transform="translate(-11.38 24.89) rotate(-25.11)"/>
  <rect class="cls-1" x="38.1" y="42.09" width="3" height="7.54" transform="translate(-20.99 45.2) rotate(-48.56)"/>
  <rect class="cls-1" x="32.03" y="52.09" width="3" height="7.54" transform="translate(-30.57 67.47) rotate(-69.29)"/>
</svg>