<?xml version="1.0" encoding="UTF-8"?>
<svg id="Layer_1" data-name="Layer 1" xmlns="http://www.w3.org/2000/svg" viewBox="0 0 128 128">
  <defs>
    <style>
      .cls-1 {
        fill: #0069b1;
      }
    </style>
  </defs>
  <path class="cls-1" d="m110.25,51.5c0-10.97-8.92-19.89-19.89-19.89-7.4,0-13.86,4.07-17.28,10.08H25.45c-4.24,0-7.69,3.76-7.69,8.38v37.95c0,4.62,3.45,8.38,7.69,8.38h58.85c4.24,0,7.7-3.76,7.7-8.38v-16.71c10.2-.84,18.25-9.39,18.25-19.81Zm-36.79,10.45c3.29,5.29,8.97,8.92,15.53,9.37v7.48h-15.53v-16.85Zm-1.75-3.58c-.71.12-1.25.73-1.25,1.47v20.6l-2.01,6.56c-.09.3-.09.62.01.92l1.83,5.48h-30.39l1.43-5.85c.08-.31.05-.65-.08-.94l-2.88-6.77v-21.28l2.87-6.53c.13-.29.16-.62.09-.94l-1.46-6.4h31.82c-.78,2.13-1.23,4.42-1.23,6.81s.45,4.72,1.25,6.87Zm-50.96,20.43v-18.58h14.61v18.58h-14.61Zm4.69-34.11h11.34l1.5,6.59-2.62,5.95h-14.92v-7.15c0-2.97,2.11-5.38,4.69-5.38Zm-4.69,43.33v-6.22h15.19l2.35,5.52-1.48,6.08h-11.36c-2.59,0-4.69-2.42-4.69-5.38Zm63.55,5.38h-10.85l-2-5.97,1.73-5.63h15.81v6.22c0,2.97-2.11,5.38-4.7,5.38Zm6.06-25.01c-9.32,0-16.89-7.58-16.89-16.89s7.58-16.89,16.89-16.89,16.89,7.58,16.89,16.89-7.58,16.89-16.89,16.89Z"/>
  <polygon class="cls-1" points="87.24 56.45 81.47 49.63 79.18 51.56 87.16 60.99 101.53 45.25 99.32 43.23 87.24 56.45"/>
</svg>