<?xml version="1.0" encoding="UTF-8"?>
<svg id="Layer_1" data-name="Layer 1" xmlns="http://www.w3.org/2000/svg" viewBox="0 0 128 128">
  <defs>
    <style>
      .cls-1 {
        fill: #0069b1;
      }
    </style>
  </defs>
  <path class="cls-1" d="m59.62,93.05c-1.32,0-2.39,1.07-2.39,2.39s1.07,2.39,2.39,2.39,2.39-1.07,2.39-2.39-1.07-2.39-2.39-2.39Z"/>
  <path class="cls-1" d="m40.29,58.32v-2.65c.74.19,1.48.56,2.18,1.04l1.18-2.05c-.95-.67-2.02-1.12-3.27-1.3v-1.05h-1.83v1.02c-2.21.23-3.69,1.51-3.69,3.46,0,2.07,1.25,3.06,3.78,3.74v2.79c-1.04-.21-1.92-.7-2.86-1.42l-1.37,2c1.16.88,2.63,1.47,4.15,1.67v1.77h1.83v-1.74c2.23-.25,3.72-1.53,3.72-3.48s-1.14-3.07-3.81-3.79Zm-1.65-.44c-.97-.35-1.21-.72-1.21-1.26s.37-.98,1.21-1.11v2.37Zm1.65,5.51v-2.46c.95.35,1.25.72,1.25,1.32,0,.63-.42,1.02-1.25,1.14Z"/>
  <path class="cls-1" d="m114.41,46.54c0-9.15-7.44-16.59-16.59-16.59-8.47,0-15.47,6.39-16.45,14.6h-18.96v-8.29h16.17v-14.29h-35.33v14.29h16.17v8.29h-31.96c-2.43,0-4.42,1.98-4.42,4.42v24.11l-9.45,12.83v20.13h95.19v-20.13l-9.45-12.83v-10.03c8.44-.76,15.09-7.87,15.09-16.51ZM46.25,24.96h29.33v8.29h-29.33v-8.29Zm50.08,8.08v3.71h3v-3.71c6.29.7,11.3,5.7,12,12h-3.72v3h3.72c-.7,6.29-5.7,11.3-12,12v-4.53h-3v4.53c-6.29-.7-11.3-5.7-12-12h3.72v-3h-3.72c.7-6.29,5.7-11.3,12-12Zm-6.36,28.1v4.39h-33.14v-11.44h26.25c1.54,2.99,3.94,5.46,6.89,7.05Zm-63.93-12.17c0-.78.63-1.42,1.42-1.42h53.84c.07,1.22.27,2.4.6,3.54h-28.06v17.44h39.14v-6.14c1.08.33,2.2.55,3.36.65v9.02H26.04v-23.1Zm71.03,26.1l7.24,9.83H18.06l7.24-9.83h71.77Zm-80.48,27.97v-15.14h89.19v15.14H16.59Z"/>
  <polygon class="cls-1" points="102.98 45.04 99.33 45.04 99.33 37.83 96.33 37.83 96.33 48.04 102.98 48.04 102.98 45.04"/>
</svg>