<?xml version="1.0" encoding="UTF-8"?>
<svg id="Layer_1" data-name="Layer 1" xmlns="http://www.w3.org/2000/svg" viewBox="0 0 128 128">
  <defs>
    <style>
      .cls-1 {
        fill: #0069b1;
      }
    </style>
  </defs>
  <path class="cls-1" d="m76.38,29.46v-4h5.14v-3h-13.28v3h5.14v4c-11.06.44-20.91,5.67-27.5,13.69h4.01c5.97-6.27,14.26-10.3,23.49-10.69v5.42h3v-5.42c17.85.77,32.23,15.15,33,33h-5.42v3h5.42c-.77,17.85-15.15,32.23-33,33v-5.42h-3v5.42c-9.06-.39-17.22-4.28-23.17-10.36h-4.05c6.89,8.18,17.2,13.4,28.72,13.4,20.7,0,37.54-16.84,37.54-37.53s-16.03-36.71-36.04-37.5Z"/>
  <path class="cls-1" d="m44.62,51.05h-22.81v3h21.41c.42-1.03.89-2.03,1.4-3Z"/>
  <path class="cls-1" d="m21.81,79.86v3h22.81c-.51-.97-.98-1.97-1.4-3h-21.41Z"/>
  <polygon class="cls-1" points="73.38 40.45 73.38 68.45 92.91 68.45 92.91 65.45 76.38 65.45 76.38 40.45 73.38 40.45"/>
  <rect class="cls-1" x="10.29" y="65.45" width="35.52" height="3"/>
</svg>