<?xml version="1.0" encoding="utf-8"?>
<!-- Generator: Adobe Illustrator 27.6.1, SVG Export Plug-In . SVG Version: 6.00 Build 0)  -->
<svg version="1.1" id="Layer_1" xmlns="http://www.w3.org/2000/svg" xmlns:xlink="http://www.w3.org/1999/xlink" x="0px" y="0px"
	 viewBox="0 0 128 128" style="enable-background:new 0 0 128 128;" xml:space="preserve">
<style type="text/css">
	.st0{fill:#0069B1;}
</style>
<g>
	<g>
		<path class="st0" d="M104.3,43.7H23.7c-0.6,0-1.1-0.4-1.3-1c-0.2-0.6,0.1-1.2,0.6-1.5l40.3-22.5c0.4-0.2,0.9-0.2,1.3,0l40.3,22.5
			c0.5,0.3,0.8,0.9,0.6,1.5C105.4,43.3,104.9,43.7,104.3,43.7z M28.8,41.1h70.5L64,21.4L28.8,41.1z"/>
	</g>
	<g>
		<path class="st0" d="M104.3,49.3H23.7c-0.7,0-1.3-0.6-1.3-1.3v-5.5c0-0.7,0.6-1.3,1.3-1.3c0.7,0,1.3,0.6,1.3,1.3v4.2H103v-4.2
			c0-0.7,0.6-1.3,1.3-1.3s1.3,0.6,1.3,1.3v5.5C105.6,48.7,105,49.3,104.3,49.3z"/>
	</g>
	<g>
		<path class="st0" d="M39.3,55.5h-9.4c-4.2,0-7.6-3.4-7.6-7.6c0-0.7,0.6-1.3,1.3-1.3c0.7,0,1.3,0.6,1.3,1.3c0,2.7,2.2,4.9,4.9,4.9
			h9.4c2.7,0,4.9-2.2,4.9-4.9c0-0.7,0.6-1.3,1.3-1.3c0.7,0,1.3,0.6,1.3,1.3C46.9,52.1,43.5,55.5,39.3,55.5z"/>
	</g>
	<g>
		<path class="st0" d="M98.1,55.5h-9.4c-4.2,0-7.6-3.4-7.6-7.6c0-0.7,0.6-1.3,1.3-1.3c0.7,0,1.3,0.6,1.3,1.3c0,2.7,2.2,4.9,4.9,4.9
			h9.4c2.7,0,4.9-2.2,4.9-4.9c0-0.7,0.6-1.3,1.3-1.3s1.3,0.6,1.3,1.3C105.6,52.1,102.2,55.5,98.1,55.5z"/>
	</g>
	<g>
		<path class="st0" d="M45.5,103.6c-0.7,0-1.3-0.6-1.3-1.3c0-2.7-2.2-4.9-4.9-4.9h-9.4c-2.7,0-4.9,2.2-4.9,4.9
			c0,0.7-0.6,1.3-1.3,1.3c-0.7,0-1.3-0.6-1.3-1.3c0-4.2,3.4-7.6,7.6-7.6h9.4c4.2,0,7.6,3.4,7.6,7.6C46.9,103,46.3,103.6,45.5,103.6z
			"/>
	</g>
	<g>
		<path class="st0" d="M104.3,103.6c-0.7,0-1.3-0.6-1.3-1.3c0-2.7-2.2-4.9-4.9-4.9h-9.4c-2.7,0-4.9,2.2-4.9,4.9
			c0,0.7-0.6,1.3-1.3,1.3c-0.7,0-1.3-0.6-1.3-1.3c0-4.2,3.4-7.6,7.6-7.6h9.4c4.2,0,7.6,3.4,7.6,7.6C105.6,103,105,103.6,104.3,103.6
			z"/>
	</g>
	<g>
		<path class="st0" d="M68.7,55.5h-9.4c-4.2,0-7.6-3.4-7.6-7.6c0-0.7,0.6-1.3,1.3-1.3c0.7,0,1.3,0.6,1.3,1.3c0,2.7,2.2,4.9,4.9,4.9
			h9.4c2.7,0,4.9-2.2,4.9-4.9c0-0.7,0.6-1.3,1.3-1.3c0.7,0,1.3,0.6,1.3,1.3C76.2,52.1,72.8,55.5,68.7,55.5z"/>
	</g>
	<g>
		<path class="st0" d="M29.9,97.3c-0.7,0-1.3-0.6-1.3-1.3V54.2c0-0.7,0.6-1.3,1.3-1.3c0.7,0,1.3,0.6,1.3,1.3V96
			C31.3,96.7,30.7,97.3,29.9,97.3z"/>
	</g>
	<g>
		<path class="st0" d="M98.1,97.3c-0.7,0-1.3-0.6-1.3-1.3V54.2c0-0.7,0.6-1.3,1.3-1.3s1.3,0.6,1.3,1.3V96
			C99.4,96.7,98.8,97.3,98.1,97.3z"/>
	</g>
	<g>
		<path class="st0" d="M39.3,97.3c-0.7,0-1.3-0.6-1.3-1.3V54.2c0-0.7,0.6-1.3,1.3-1.3c0.7,0,1.3,0.6,1.3,1.3V96
			C40.6,96.7,40,97.3,39.3,97.3z"/>
	</g>
	<g>
		<path class="st0" d="M88.7,97.3c-0.7,0-1.3-0.6-1.3-1.3V54.2c0-0.7,0.6-1.3,1.3-1.3c0.7,0,1.3,0.6,1.3,1.3V96
			C90,96.7,89.4,97.3,88.7,97.3z"/>
	</g>
	<g>
		<path class="st0" d="M74.9,103.6c-0.7,0-1.3-0.6-1.3-1.3c0-2.7-2.2-4.9-4.9-4.9h-9.4c-2.7,0-4.9,2.2-4.9,4.9
			c0,0.7-0.6,1.3-1.3,1.3c-0.7,0-1.3-0.6-1.3-1.3c0-4.2,3.4-7.6,7.6-7.6h9.4c4.2,0,7.6,3.4,7.6,7.6C76.2,103,75.6,103.6,74.9,103.6z
			"/>
	</g>
	<g>
		<path class="st0" d="M59.3,97.3c-0.7,0-1.3-0.6-1.3-1.3V54.2c0-0.7,0.6-1.3,1.3-1.3c0.7,0,1.3,0.6,1.3,1.3V96
			C60.6,96.7,60.1,97.3,59.3,97.3z"/>
	</g>
	<g>
		<path class="st0" d="M68.7,97.3c-0.7,0-1.3-0.6-1.3-1.3V54.2c0-0.7,0.6-1.3,1.3-1.3c0.7,0,1.3,0.6,1.3,1.3V96
			C70,96.7,69.4,97.3,68.7,97.3z"/>
	</g>
	<g>
		<path class="st0" d="M104.3,109.4H23.7c-0.7,0-1.3-0.6-1.3-1.3v-5.9c0-0.7,0.6-1.3,1.3-1.3h80.6c0.7,0,1.3,0.6,1.3,1.3v5.9
			C105.6,108.9,105,109.4,104.3,109.4z M25,106.8H103v-3.3H25V106.8z"/>
	</g>
</g>
</svg>
