<?xml version="1.0" encoding="UTF-8"?>
<svg id="Layer_1" data-name="Layer 1" xmlns="http://www.w3.org/2000/svg" viewBox="0 0 128 128">
  <defs>
    <style>
      .cls-1 {
        fill: #0069b1;
      }
    </style>
  </defs>
  <path class="cls-1" d="m65.27,99.52c-17.92,0-32.5-14.58-32.5-32.5s14.58-32.5,32.5-32.5,32.5,14.58,32.5,32.5-14.58,32.5-32.5,32.5Zm0-61.99c-16.26,0-29.5,13.23-29.5,29.5s13.23,29.5,29.5,29.5,29.5-13.23,29.5-29.5-13.23-29.5-29.5-29.5Z"/>
  <path class="cls-1" d="m65.27,90.99c-13.21,0-23.96-10.75-23.96-23.96s10.75-23.96,23.96-23.96,23.96,10.75,23.96,23.96-10.75,23.96-23.96,23.96Zm0-44.92c-11.56,0-20.96,9.4-20.96,20.96s9.4,20.96,20.96,20.96,20.96-9.4,20.96-20.96-9.4-20.96-20.96-20.96Z"/>
  <g>
    <g>
      <path class="cls-1" d="m114.67,70.09h-5.32c-2.09,0-4.03-.83-5.47-2.35-1.44-1.51-2.17-3.49-2.07-5.58l1.45-28.66c.17-3.48,3.04-6.2,6.53-6.2h4.87v42.79Zm-4.87-39.79c-1.88,0-3.44,1.47-3.53,3.36l-1.45,28.66c-.06,1.26.38,2.45,1.24,3.36.87.91,2.04,1.41,3.29,1.41h2.32V30.3h-1.87Z"/>
      <path class="cls-1" d="m110.63,100.7c-2.23,0-4.04-1.81-4.04-4.04v-29.56h8.08v29.56c0,2.23-1.81,4.04-4.04,4.04Zm-1.04-30.61v26.56c0,.58.47,1.04,1.04,1.04s1.04-.47,1.04-1.04v-26.56h-2.08Z"/>
    </g>
    <g>
      <rect class="cls-1" x="23.18" y="31.25" width="3" height="15.7"/>
      <rect class="cls-1" x="18.1" y="31.25" width="3" height="15.7"/>
      <path class="cls-1" d="m22.14,100.7c-2.23,0-4.04-1.81-4.04-4.04v-40.83c-.36-.74-.83-1.4-1.44-1.99-2.11-2.07-3.32-4.94-3.32-7.86v-14.72h3v14.72c0,2.13.88,4.21,2.42,5.72.95.93,1.7,2.01,2.22,3.21l.12.29v41.47c0,.58.47,1.04,1.04,1.04s1.04-.47,1.04-1.04v-41.47l.12-.29c.52-1.2,1.27-2.28,2.22-3.21,1.54-1.51,2.42-3.59,2.42-5.72v-14.72h3v14.72c0,2.93-1.21,5.79-3.32,7.86-.61.6-1.08,1.25-1.44,1.99v40.83c0,2.23-1.81,4.04-4.04,4.04Z"/>
    </g>
  </g>
</svg>