<?xml version="1.0" encoding="UTF-8"?>
<svg id="Layer_1" data-name="Layer 1" xmlns="http://www.w3.org/2000/svg" viewBox="0 0 128 128">
  <defs>
    <style>
      .cls-1 {
        fill: #0069b1;
      }
    </style>
  </defs>
  <path class="cls-1" d="m71.98,23.22c-18.08,0-32.8,14.71-32.8,32.8,0,8.61,3.34,16.46,8.79,22.32l-24.31,23.88,2.1,2.14,24.34-23.91c5.81,5.21,13.47,8.38,21.87,8.38,18.08,0,32.8-14.71,32.8-32.8s-14.71-32.8-32.8-32.8Zm0,62.6c-16.43,0-29.8-13.37-29.8-29.8s13.37-29.8,29.8-29.8,29.8,13.37,29.8,29.8-13.37,29.8-29.8,29.8Z"/>
  <path class="cls-1" d="m71.98,28.57c-15.14,0-27.45,12.31-27.45,27.45s12.32,27.45,27.45,27.45,27.45-12.32,27.45-27.45-12.32-27.45-27.45-27.45Zm0,51.9c-13.48,0-24.45-10.97-24.45-24.45s10.97-24.45,24.45-24.45,24.45,10.97,24.45,24.45-10.97,24.45-24.45,24.45Z"/>
  <path class="cls-1" d="m67.47,45.49c0-2.67,2.18-4.85,4.85-4.85s4.85,2.18,4.85,4.85v1.88h3v-1.88c0-4.33-3.52-7.85-7.85-7.85s-7.85,3.52-7.85,7.85v1.88h3v-1.88Z"/>
  <path class="cls-1" d="m72.32,55.75c-1.56,0-2.84,1.27-2.84,2.84,0,1.01.54,1.9,1.34,2.4v3.43h3v-3.43c.8-.5,1.34-1.39,1.34-2.4,0-1.56-1.27-2.84-2.84-2.84Zm0,2.67c.09,0,.16.07.16.16,0,.18-.33.18-.33,0,0-.09.07-.16.16-.16Z"/>
  <path class="cls-1" d="m60.65,71.62h23.34v-23.34h-23.34v23.34Zm3-20.34h17.34v17.34h-17.34v-17.34Z"/>
</svg>