<?xml version="1.0" encoding="UTF-8"?>
<svg id="Layer_1" data-name="Layer 1" xmlns="http://www.w3.org/2000/svg" viewBox="0 0 128 128">
  <defs>
    <style>
      .cls-1 {
        fill: #0069b1;
      }
    </style>
  </defs>
  <path class="cls-1" d="m73.32,32.92h-31.83v19.4h31.83v-19.4Zm-3,16.4h-25.83v-13.4h25.83v13.4Z"/>
  <path class="cls-1" d="m94.78,25.58l-1.99,2.25c1.93,1.71,3.03,4.16,3.03,6.73v3.61h-5.3v18.56h5.3v13.46c0,2.09-1.7,3.8-3.8,3.8s-3.8-1.7-3.8-3.8v-5.26c0-3.58-2.92-6.5-6.5-6.5h-1.44V25.2h-45.75v66.44h-5.36v11.16h56.46v-11.16h-5.36v-30.22h1.44c1.93,0,3.5,1.57,3.5,3.5v5.26c0,3.75,3.05,6.8,6.8,6.8s6.8-3.05,6.8-6.8v-35.62c0-3.43-1.47-6.7-4.04-8.98Zm-17.5,2.62v30.22h-39.75v-30.22h39.75Zm5.36,66.44v5.16h-50.46v-5.16h50.46Zm-5.36-3h-39.75v-30.22h39.75v30.22Zm18.54-37.92h-2.3v-12.56h2.3v12.56Z"/>
</svg>