<?xml version="1.0" encoding="UTF-8"?>
<svg id="Layer_1" data-name="Layer 1" xmlns="http://www.w3.org/2000/svg" viewBox="0 0 128 128">
  <defs>
    <style>
      .cls-1 {
        fill: #0069b1;
      }
    </style>
  </defs>
  <path class="cls-1" d="m104.71,64.05s0-.02,0-.03h0c-.03-22.48-18.28-40.75-40.71-40.75s-40.71,18.28-40.71,40.75,18.26,40.71,40.71,40.71,40.68-18.23,40.71-40.65h0s0-.02,0-.03Zm-3.04-1.56h-14.69c-.13-7.35-1.15-13.41-2.66-18.36,3.72-2.06,5.95-4.38,7.14-5.93,6.01,6.41,9.82,14.91,10.2,24.28Zm-32.73,38.9c-1.13.15-2.28.25-3.44.3v-19.33c6.57.17,11.49,1.41,15.12,3-3.99,10.89-10.25,15.18-11.68,16.04Zm14.43-14.65c3.31,1.93,5.12,4.01,5.96,5.18-3.97,3.61-8.72,6.38-13.95,8.04,2.61-2.72,5.67-6.95,7.99-13.23Zm-35.98-1.36c3.64-1.59,8.55-2.85,15.11-3.02v19.33c-1.16-.05-2.31-.15-3.44-.3-1.42-.86-7.68-5.14-11.67-16.02Zm5.24,14.59c-5.24-1.66-9.98-4.43-13.96-8.04.84-1.16,2.67-3.24,5.97-5.16,2.33,6.26,5.38,10.48,7.99,13.2Zm6.53-73.39c1.1-.14,2.22-.24,3.35-.28v19.33c-6.57-.17-11.48-1.41-15.11-2.99,4.08-11.11,10.53-15.34,11.76-16.06Zm-14.51,14.67c-3.32-1.93-5.14-4.01-5.98-5.19,3.99-3.63,8.76-6.41,14.02-8.07-2.62,2.72-5.7,6.95-8.05,13.26Zm35.99,1.37c-3.63,1.58-8.55,2.83-15.13,3v-19.33c1.13.04,2.25.14,3.35.29,1.24.72,7.7,4.9,11.78,16.04Zm-5.31-14.63c5.25,1.66,10.02,4.45,14,8.07-.84,1.18-2.66,3.26-5.96,5.18-2.34-6.3-5.42-10.53-8.04-13.25Zm-9.82,20.62c6.87-.17,12.11-1.46,16.07-3.15,1.36,4.59,2.29,10.21,2.41,17.01h-18.48v-13.86Zm-3,0v13.86h-18.49c.12-6.79,1.06-12.4,2.43-17,3.96,1.69,9.2,2.97,16.06,3.14Zm0,16.86v13.87c-6.86.17-12.11,1.45-16.07,3.14-1.36-4.6-2.3-10.22-2.42-17.02h18.49Zm3,13.87v-13.87h18.48c-.12,6.8-1.05,12.42-2.42,17.02-3.95-1.69-9.2-2.98-16.06-3.15Zm-28.98-41.17c1.19,1.55,3.42,3.87,7.15,5.94-1.5,4.95-2.53,11-2.66,18.35h-14.69c.37-9.38,4.18-17.88,10.2-24.29Zm-10.2,27.29h14.69c.12,7.36,1.14,13.42,2.64,18.37-3.73,2.07-5.96,4.39-7.15,5.94-6.02-6.42-9.83-14.93-10.19-24.31Zm65.16,24.31c-1.19-1.55-3.41-3.87-7.14-5.94,1.5-4.95,2.52-11.01,2.64-18.37h14.69c-.36,9.39-4.17,17.9-10.19,24.31Z"/>
</svg>