<?xml version="1.0" encoding="UTF-8"?>
<svg id="Layer_1" data-name="Layer 1" xmlns="http://www.w3.org/2000/svg" viewBox="0 0 128 128">
  <defs>
    <style>
      .cls-1 {
        fill: #0069b1;
      }
    </style>
  </defs>
  <path class="cls-1" d="m104.71,64.02c0-3.41-.44-6.73-1.23-9.9-.84.65-1.73,1.26-2.67,1.78.47,2.14.77,4.34.86,6.6h-14.69c-.03-1.47-.1-2.88-.19-4.25-1.05-.18-2.07-.44-3.06-.78.13,1.6.22,3.27.25,5.02h-18.48v-13.86c2.42-.06,4.63-.26,6.66-.57-.53-.91-1.01-1.85-1.4-2.83-1.63.21-3.37.36-5.26.4v-19.33c1.13.04,2.25.14,3.35.29.38.22,1.25.77,2.39,1.74.65-1.39,1.45-2.69,2.37-3.9-3.09-.75-6.31-1.16-9.62-1.16-22.45,0-40.71,18.28-40.71,40.75s18.26,40.71,40.71,40.71,40.68-18.23,40.71-40.65h0s0-.02,0-.03,0-.02,0-.03h0ZM52.69,28c-2.62,2.72-5.7,6.95-8.05,13.26-3.32-1.93-5.14-4.01-5.98-5.19,3.99-3.63,8.76-6.41,14.02-8.07Zm-16.17,10.2c1.19,1.55,3.42,3.87,7.15,5.94-1.5,4.95-2.53,11-2.66,18.35h-14.69c.37-9.38,4.18-17.88,10.2-24.29Zm0,51.61c-6.02-6.42-9.83-14.93-10.19-24.31h14.69c.12,7.36,1.14,13.42,2.64,18.37-3.73,2.07-5.96,4.39-7.15,5.94Zm2.15,2.13c.84-1.18,2.65-3.26,5.97-5.19,2.33,6.28,5.38,10.51,8,13.23-5.24-1.66-9.99-4.43-13.96-8.04Zm23.84,9.76c-1.16-.05-2.31-.15-3.44-.3-1.42-.86-7.69-5.14-11.68-16.04,3.63-1.58,8.55-2.83,15.12-2.99v19.33Zm0-22.33c-6.86.17-12.11,1.45-16.07,3.14-1.36-4.6-2.3-10.22-2.42-17.02h18.49v13.87Zm0-16.87h-18.49c.12-6.79,1.06-12.4,2.43-17,3.96,1.69,9.2,2.97,16.06,3.14v13.86Zm0-16.86c-6.57-.17-11.48-1.41-15.11-2.99,4.08-11.11,10.53-15.34,11.76-16.06,1.1-.14,2.22-.24,3.35-.28v19.33Zm3,19.86h18.48c-.12,6.8-1.05,12.42-2.42,17.02-3.96-1.69-9.2-2.98-16.06-3.15v-13.87Zm3.44,35.9c-1.13.15-2.28.25-3.44.3v-19.33c6.57.17,11.49,1.41,15.12,3-3.99,10.89-10.25,15.18-11.68,16.04Zm6.44-1.42c2.61-2.72,5.67-6.95,7.99-13.23,3.31,1.93,5.12,4.01,5.96,5.18-3.97,3.61-8.72,6.38-13.96,8.04Zm16.1-10.17c-1.19-1.55-3.41-3.87-7.14-5.94,1.5-4.95,2.52-11.01,2.64-18.37h14.69c-.36,9.39-4.17,17.9-10.19,24.31Zm-1-34.22c10.09,0,18.26-8.18,18.26-18.26s-8.18-18.26-18.26-18.26-18.26,8.18-18.26,18.26,8.18,18.26,18.26,18.26Zm0-33.53c8.42,0,15.26,6.85,15.26,15.26s-6.85,15.26-15.26,15.26-15.26-6.85-15.26-15.26,6.85-15.26,15.26-15.26Zm-5.03,18.66l-1.58,2.24c1.68,1.33,3.67,2.19,5.81,2.44v2.46h2.14v-2.44c3.13-.27,5.25-2.07,5.25-4.78s-1.6-4.16-5.35-5.1v-4.68c1.16.25,2.27.76,3.35,1.58l1.38-2.32c-1.36-1.01-2.83-1.65-4.63-1.87v-1.48h-2.14v1.43c-3.08.25-5.17,2.07-5.17,4.73s1.68,4.14,5.27,5.08v4.83c-1.6-.25-2.93-.99-4.34-2.12Zm6.28-2.24c1.92.57,2.44,1.23,2.44,2.34,0,1.18-.89,2-2.44,2.12v-4.46Zm-4.31-5.72c0-1.08.81-1.95,2.36-2.07v4.34c-1.9-.57-2.36-1.23-2.36-2.27Z"/>
</svg>