<?xml version="1.0" encoding="UTF-8"?>
<svg id="Layer_1" data-name="Layer 1" xmlns="http://www.w3.org/2000/svg" viewBox="0 0 128 128">
  <defs>
    <style>
      .cls-1 {
        fill: #0069b1;
      }
    </style>
  </defs>
  <path class="cls-1" d="m103.22,56.19h-6.9c-3.46-14.31-16.09-24.7-30.82-25.37v-2.23h11.62v-10.12h-14.62v12.34c-14.7.67-27.35,11.06-30.81,25.37h-6.9v3h78.43v-3Zm-29.09-30.59h-8.62v-4.12h8.62v4.12Zm-11.62,8.23v3.1h3v-3.1c13.09.65,24.34,9.75,27.72,22.36h-58.43c3.38-12.6,14.64-21.71,27.72-22.36Z"/>
  <rect class="cls-1" x="19.5" y="106.52" width="89" height="3"/>
  <path class="cls-1" d="m99.97,102.35h3.25v-3h-3.25v-37.08H29.01v37.08h-4.23v3h75.19Zm-60.54-3v-22.95c0-1.72,1.4-3.13,3.13-3.13s3.13,1.4,3.13,3.13v22.95h-6.25Zm21.44,0v-22.95c0-1.72,1.4-3.13,3.13-3.13s3.13,1.4,3.13,3.13v22.95h-6.25Zm21.44,0v-22.95c0-1.72,1.4-3.13,3.13-3.13s3.13,1.4,3.13,3.13v22.95h-6.25Zm-50.3-34.08h64.96v34.08h-5.41v-22.95c0-3.38-2.75-6.13-6.13-6.13s-6.13,2.75-6.13,6.13v22.95h-9.19v-22.95c0-3.38-2.75-6.13-6.13-6.13s-6.13,2.75-6.13,6.13v22.95h-9.19v-22.95c0-3.38-2.75-6.13-6.13-6.13s-6.13,2.75-6.13,6.13v22.95h-4.42v-34.08Z"/>
</svg>