<?xml version="1.0" encoding="UTF-8"?>
<svg id="Layer_1" data-name="Layer 1" xmlns="http://www.w3.org/2000/svg" viewBox="0 0 128 128">
  <defs>
    <style>
      .cls-1 {
        fill: #0069b1;
      }
    </style>
  </defs>
  <path class="cls-1" d="m64,22.91c-22.66,0-41.09,18.43-41.09,41.09s18.43,41.09,41.09,41.09,41.09-18.43,41.09-41.09-18.43-41.09-41.09-41.09Zm-1.5,3.04v35.69l-32.32-15.13c6.13-11.81,18.26-20.01,32.32-20.56Zm-33.61,23.27l32.49,15.21-25.85,24.84c-5.98-6.73-9.62-15.58-9.62-25.27,0-5.24,1.06-10.23,2.99-14.78Zm8.72,42.21l26.32-25.28,24.56,27c-6.63,5.58-15.17,8.94-24.49,8.94-10.24,0-19.54-4.07-26.39-10.66Zm53.09-.3l-25.21-27.71V25.95c20.31.79,36.59,17.55,36.59,38.05,0,10.61-4.36,20.21-11.39,27.13Z"/>
</svg>