<?xml version="1.0" encoding="utf-8"?>
<!-- Generator: Adobe Illustrator 27.6.1, SVG Export Plug-In . SVG Version: 6.00 Build 0)  -->
<svg version="1.1" id="Layer_1" xmlns="http://www.w3.org/2000/svg" xmlns:xlink="http://www.w3.org/1999/xlink" x="0px" y="0px"
	 viewBox="0 0 128 128" style="enable-background:new 0 0 128 128;" xml:space="preserve">
<style type="text/css">
	.st0{fill:#0069B1;}
</style>
<g>
	<g>
		<path class="st0" d="M84.6,110.8H73.2c-0.7,0-1.3-0.6-1.3-1.3V43.9c0-0.7,0.6-1.3,1.3-1.3h11.4c0.7,0,1.3,0.6,1.3,1.3v65.7
			C85.9,110.2,85.3,110.8,84.6,110.8z M74.5,108.2h8.9V45.1h-8.9V108.2z"/>
	</g>
	<g>
		<path class="st0" d="M67.3,110.8H55.9c-0.7,0-1.3-0.6-1.3-1.3V60.3c0-0.7,0.6-1.3,1.3-1.3h11.4c0.7,0,1.3,0.6,1.3,1.3v49.2
			C68.6,110.2,68,110.8,67.3,110.8z M57.2,108.2h8.9V61.5h-8.9V108.2z"/>
	</g>
	<g>
		<path class="st0" d="M50,110.8H38.7c-0.7,0-1.3-0.6-1.3-1.3V76.7c0-0.7,0.6-1.3,1.3-1.3H50c0.7,0,1.3,0.6,1.3,1.3v32.8
			C51.3,110.2,50.7,110.8,50,110.8z M39.9,108.2h8.9V77.9h-8.9V108.2z"/>
	</g>
	<g>
		<path class="st0" d="M32.8,110.8H21.4c-0.7,0-1.3-0.6-1.3-1.3V93.1c0-0.7,0.6-1.3,1.3-1.3h11.4c0.7,0,1.3,0.6,1.3,1.3v16.4
			C34,110.2,33.5,110.8,32.8,110.8z M22.7,108.2h8.9V94.4h-8.9V108.2z"/>
	</g>
	<g>
		<path class="st0" d="M101.9,110.8H90.5c-0.7,0-1.3-0.6-1.3-1.3V37.8h-3.5c-0.5,0-0.9-0.2-1.1-0.6c-0.2-0.4-0.2-0.9,0-1.3
			l10.4-18.1c0.5-0.8,1.7-0.8,2.2,0l10.4,18.1c0.2,0.4,0.2,0.9,0,1.3c-0.2,0.4-0.6,0.6-1.1,0.6h-3.5v71.7
			C103.1,110.2,102.6,110.8,101.9,110.8z M91.7,108.2h8.9V36.5c0-0.7,0.6-1.3,1.3-1.3h2.6L96.2,21l-8.2,14.3h2.6
			c0.7,0,1.3,0.6,1.3,1.3V108.2z"/>
	</g>
</g>
</svg>
