<?xml version="1.0" encoding="UTF-8"?>
<svg id="Layer_1" data-name="Layer 1" xmlns="http://www.w3.org/2000/svg" viewBox="0 0 128 128">
  <defs>
    <style>
      .cls-1 {
        fill: #0069b1;
      }
    </style>
  </defs>
  <path class="cls-1" d="m108.11,55.22l-44.11-34.61-15.3,12.01v-6.09h-14.69v17.61l-14.12,11.08,1.85,2.36,5.68-4.45v53.85h73.16v-53.85l5.68,4.45,1.85-2.36ZM37.01,29.53h8.69v5.44l-8.69,6.82v-12.26Zm60.57,74.45H30.42v-53.2l33.58-26.35,33.58,26.35v53.2Z"/>
  <polygon class="cls-1" points="51 48.09 52.85 50.45 64 41.7 75.14 50.45 77 48.09 64 37.89 51 48.09"/>
  <path class="cls-1" d="m69.21,57.15v-4.47h-10.42v4.47c-1.62.44-3.18,1.09-4.65,1.93l-3.17-3.17-7.37,7.37,3.17,3.17c-.84,1.47-1.49,3.02-1.93,4.65h-4.47v10.42h4.47c.44,1.62,1.09,3.18,1.93,4.65l-3.17,3.17,7.37,7.37,3.17-3.17c1.47.84,3.02,1.49,4.65,1.93v4.47h10.42v-4.47c1.63-.44,3.18-1.09,4.65-1.93l3.17,3.17,7.37-7.37-3.17-3.17c.84-1.47,1.49-3.02,1.93-4.65h4.47v-10.42h-4.47c-.44-1.62-1.09-3.18-1.93-4.65l3.17-3.17-7.37-7.37-3.17,3.17c-1.47-.84-3.02-1.49-4.65-1.93Zm7.81,3l3.12,3.12-2.75,2.75.67,1.02c1.18,1.79,2,3.76,2.43,5.85l.25,1.2h3.88v4.42h-3.88l-.25,1.2c-.43,2.08-1.24,4.05-2.43,5.85l-.67,1.02,2.75,2.75-3.12,3.13-2.75-2.75-1.02.67c-1.79,1.18-3.76,2-5.85,2.43l-1.2.25v3.88h-4.42v-3.88l-1.2-.25c-2.09-.43-4.05-1.25-5.85-2.43l-1.02-.67-2.75,2.75-3.12-3.13,2.75-2.75-.67-1.02c-1.18-1.79-2-3.76-2.43-5.85l-.25-1.2h-3.88v-4.42h3.88l.25-1.2c.43-2.08,1.24-4.05,2.43-5.85l.67-1.02-2.75-2.75,3.12-3.12,2.75,2.75,1.02-.67c1.79-1.18,3.76-2,5.85-2.43l1.2-.25v-3.88h4.42v3.88l1.2.25c2.09.43,4.05,1.25,5.85,2.43l1.02.67,2.75-2.75Z"/>
  <path class="cls-1" d="m64,68.32c-4.4,0-7.98,3.58-7.98,7.98s3.58,7.98,7.98,7.98,7.98-3.58,7.98-7.98-3.58-7.98-7.98-7.98Zm0,12.96c-2.75,0-4.98-2.23-4.98-4.98s2.23-4.98,4.98-4.98,4.98,2.23,4.98,4.98-2.23,4.98-4.98,4.98Z"/>
</svg>