<?xml version="1.0" encoding="UTF-8"?>
<svg id="Layer_1" data-name="Layer 1" xmlns="http://www.w3.org/2000/svg" viewBox="0 0 128 128">
  <defs>
    <style>
      .cls-1 {
        fill: #0069b1;
      }
    </style>
  </defs>
  <path class="cls-1" d="m108.1,55.22l-44.1-34.61-15.3,12.01v-6.09h-14.69v17.62l-14.12,11.08,1.85,2.36,5.68-4.45v53.85h73.16v-53.85l5.68,4.45,1.85-2.36ZM37.01,29.53h8.69v5.45l-8.69,6.82v-12.26Zm34.03,74.27v-33.93h17.5v33.93h-17.5Zm26.54.18h-6.04v-37.11h-23.5v37.11H30.42v-53.2l33.58-26.35,33.58,26.35v53.2Z"/>
  <path class="cls-1" d="m36.32,86.85h24.97v-19.98h-24.97v19.98Zm3-16.98h18.97v13.98h-18.97v-13.98Z"/>
  <rect class="cls-1" x="36.32" y="89.83" width="24.97" height="3"/>
  <path class="cls-1" d="m54.08,46.88c0,5.47,4.45,9.92,9.92,9.92s9.92-4.45,9.92-9.92-4.45-9.92-9.92-9.92-9.92,4.45-9.92,9.92Zm16.84,0c0,3.82-3.11,6.92-6.92,6.92s-6.92-3.11-6.92-6.92,3.11-6.92,6.92-6.92,6.92,3.11,6.92,6.92Z"/>
  <circle class="cls-1" cx="75.12" cy="87.32" r="1.96"/>
</svg>