<?xml version="1.0" encoding="UTF-8"?>
<svg id="Layer_1" data-name="Layer 1" xmlns="http://www.w3.org/2000/svg" viewBox="0 0 128 128">
  <defs>
    <style>
      .cls-1 {
        fill: #0069b1;
      }
    </style>
  </defs>
  <path class="cls-1" d="m69.47,59.43c.1,2.53,2.17,4.57,4.73,4.57s4.63-2.03,4.73-4.57c1.22-.52,2.08-1.73,2.08-3.13v-3.23c0-1.01.39-1.93,1.06-2.54,2.47-2.23,3.89-5.41,3.89-8.72s-1.29-6.27-3.65-8.51c-2.35-2.24-5.42-3.38-8.69-3.24-5.91.28-10.81,5.12-11.17,11.02-.22,3.57,1.17,6.99,3.81,9.4.71.65,1.12,1.6,1.12,2.59v3.23c0,1.41.86,2.62,2.08,3.13Zm8.54-4.77v1.64c0,.22-.18.4-.4.4h-6.83c-.22,0-.4-.18-.4-.4v-1.64h7.63Zm-3.81,6.34c-.81,0-1.49-.55-1.68-1.3h3.37c-.2.75-.87,1.3-1.68,1.3Zm-8.75-19.74c.27-4.39,3.92-8,8.32-8.21.14,0,.29-.01.43-.01,2.27,0,4.4.85,6.05,2.42,1.75,1.67,2.72,3.92,2.72,6.34s-1.06,4.84-2.9,6.5c-.97.87-1.62,2.05-1.9,3.35h-7.93c-.29-1.3-.96-2.49-1.94-3.4-1.96-1.79-3-4.35-2.84-7Zm-35.79,39.39l1.89,2.93-2.91,1.88-1.89-2.93,2.91-1.88Zm25.04-20.55c-2.52-3.76-4-8.29-4-13.15,0-13.05,10.62-23.67,23.67-23.67s23.67,10.62,23.67,23.67c0,10.16-6.43,18.84-15.44,22.19-.41-.86-.95-1.65-1.59-2.35,8.3-2.78,14.3-10.62,14.3-19.84,0-11.55-9.39-20.94-20.94-20.94s-20.94,9.39-20.94,20.94c0,5.35,2.04,10.23,5.35,13.93-1.33-.4-2.69-.67-4.09-.78Zm51.25,13.66c-.12.71-.54,1.33-1.15,1.71l-20.35,12.55c-3.23,1.99-6.95,3.1-10.74,3.2l-21.57.54c-.1,0-.2.04-.28.1l-4.53,3.3,2.48,3.84-8.71,5.64-1.63-2.52,6.19-4.01-15.09-23.3-6.23,4.03-1.63-2.52,8.74-5.66,2.32,3.59,1.12-.69c.5-.31.96-.67,1.39-1.07l5.04-4.8c3.18-3,7.33-4.65,11.7-4.65,3.82,0,7.53,1.29,10.52,3.64h10.38c3.67,0,6.65,2.98,6.65,6.65s-2.76,6.45-6.29,6.64l-10.87.58-.16-3,10.87-.58c1.94-.1,3.45-1.7,3.45-3.64s-1.64-3.65-3.65-3.65h-11.46l-.42-.35c-2.52-2.12-5.72-3.28-9.02-3.28-3.6,0-7.02,1.36-9.63,3.83l-5.03,4.79c-.58.55-1.21,1.04-1.88,1.45l-1.07.66,10.28,15.88,4.4-3.2c.58-.42,1.26-.65,1.97-.67l21.58-.55c3.27-.08,6.46-1.03,9.25-2.75l19.87-12.26-.83-1.02c-1.33-1.64-3.58-2.13-5.48-1.2l-2.61,1.26-10.49,3.11c.14-.66.23-1.35.23-2.06,0-.38-.03-.75-.07-1.12l9.36-2.78,2.26-1.11c3.16-1.55,6.91-.73,9.13,2l1.18,1.46c.45.56.64,1.29.52,1.99Z"/>
</svg>