<?xml version="1.0" encoding="UTF-8"?>
<svg id="Layer_1" data-name="Layer 1" xmlns="http://www.w3.org/2000/svg" viewBox="0 0 128 128">
  <defs>
    <style>
      .cls-1 {
        fill: #0069b1;
      }
    </style>
  </defs>
  <path class="cls-1" d="m99.28,100.03c-.7-6.61-5.96-11.87-12.57-12.57v-1.91h2.13v-3h-7.26v3h2.13v1.91c-6.61.7-11.87,5.96-12.57,12.57h-10.44v-30.44h-3v30.44h-24.64v-22.21c0-8.22,6.69-14.91,14.91-14.91h9.73v3.87h3v-3.87h8.03c8.22,0,14.91,6.69,14.91,14.91v1.53h3v-1.53c0-9.88-8.04-17.91-17.91-17.91h-20.76c-9.88,0-17.91,8.04-17.91,17.91v22.21h-6.12v3h80.15v-3h-4.8Zm-14.07-9.65c5.64,0,10.3,4.21,11.04,9.65h-22.08c.74-5.44,5.4-9.65,11.04-9.65Z"/>
  <path class="cls-1" d="m59.19,55.34c6.38,0,11.57-7.49,11.57-16.7,0-11.35-4.63-13.68-11.57-13.68s-11.58,2.33-11.58,13.68c0,9.36,5.08,16.7,11.58,16.7Zm0-27.37c6.65,0,8.57,2.39,8.57,10.68,0,7.42-3.93,13.7-8.57,13.7s-8.58-6.27-8.58-13.7c0-8.28,1.92-10.68,8.58-10.68Z"/>
</svg>