<?xml version="1.0" encoding="UTF-8"?>
<svg id="Layer_1" data-name="Layer 1" xmlns="http://www.w3.org/2000/svg" viewBox="0 0 128 128">
  <defs>
    <style>
      .cls-1 {
        fill: #0069b1;
      }
    </style>
  </defs>
  <path class="cls-1" d="m99.64,28.52H28.37l-7.08,9.49v5.72c0,3.49,1.85,6.55,4.62,8.27v29.99c0,4.22,3.43,7.65,7.66,7.65h23.77v6.83h-8.21v3h29.76v-3h-8.21v-6.83h23.77c4.22,0,7.66-3.43,7.66-7.65v-29.99c2.77-1.72,4.62-4.77,4.62-8.27v-5.72l-7.08-9.49Zm-31.97,67.95h-7.34v-6.83h7.34v6.83Zm31.42-39.38v24.9c0,2.57-2.09,4.65-4.66,4.65h-60.87c-2.57,0-4.66-2.09-4.66-4.65v-28.76c.68.15,1.38.24,2.11.24,3.51,0,6.54-1.68,8.26-4.25,1.67,2.59,4.63,4.25,8.16,4.25s6.52-1.7,8.23-4.29c1.71,2.6,4.72,4.29,8.23,4.29s6.52-1.7,8.23-4.29c1.71,2.6,4.72,4.29,8.23,4.29s6.59-1.71,8.31-4.31c1.72,2.61,4.77,4.31,8.32,4.31.72,0,1.43-.09,2.1-.24v3.87Zm-2.1-6.63c-3.89,0-6.82-2.71-6.82-6.31h-3c0,3.6-2.93,6.31-6.81,6.31s-6.73-2.71-6.73-6.31h-3c0,3.6-2.89,6.31-6.73,6.31s-6.73-2.71-6.73-6.31h-3c0,3.6-2.89,6.31-6.73,6.31s-6.63-2.71-6.63-6.31h-3c0,3.6-2.92,6.31-6.8,6.31s-6.73-3.02-6.73-6.73v-4.73l5.58-7.49h68.26l3.96,5.31H31.98s0,3,0,3h71.73v3.9c0,3.71-3.02,6.73-6.73,6.73Z"/>
  <path class="cls-1" d="m69.9,63.19c0-3.25-2.65-5.9-5.9-5.9s-5.9,2.65-5.9,5.9v1.47h-2.65v17.09h17.09v-17.09h-2.65v-1.47Zm-8.8,0c0-1.6,1.3-2.9,2.9-2.9s2.9,1.3,2.9,2.9v1.47h-5.8v-1.47Zm8.45,15.57h-11.09v-11.09h11.09v11.09Z"/>
  <path class="cls-1" d="m62.5,74.2v2.53h3v-2.54c.56-.44.92-1.12.92-1.89,0-1.34-1.09-2.43-2.42-2.43s-2.43,1.09-2.43,2.43c0,.77.37,1.45.93,1.89Z"/>
</svg>