<?xml version="1.0" encoding="UTF-8"?>
<svg id="Layer_1" data-name="Layer 1" xmlns="http://www.w3.org/2000/svg" viewBox="0 0 128 128">
  <defs>
    <style>
      .cls-1 {
        fill: #0069b1;
      }
    </style>
  </defs>
  <path class="cls-1" d="m64,17.54c-10.55,0-19.62,7.16-22.05,17.42-.39,1.63,0,3.33,1.04,4.65,1.05,1.33,2.63,2.1,4.33,2.1,2.54,0,4.74-1.75,5.35-4.26,1.32-5.43,6.35-9.16,11.93-8.9,6.21.31,11.08,5.59,11.08,12.04v1.9c0,2.62-1.78,4.86-4.33,5.46l-20.6,4.8c-5.53,1.29-9.4,6.16-9.4,11.84v45.88h45.32V40.2c0-12.5-10.17-22.66-22.66-22.66Zm19.66,89.92h-39.32v-42.88c0-4.28,2.91-7.95,7.08-8.92l20.59-4.8c3.92-.91,6.65-4.36,6.65-8.38v-1.9c0-8.04-6.12-14.65-13.93-15.03-7.03-.34-13.33,4.36-14.99,11.18-.28,1.16-1.28,1.97-2.44,1.97-.77,0-1.49-.35-1.97-.96-.47-.6-.64-1.36-.47-2.1,2.11-8.9,9.98-15.11,19.13-15.11,10.84,0,19.66,8.82,19.66,19.66v67.26Zm-11.11-20.12h-17.1v-3h17.1v3Zm-22.11,3.59h27.11v3h-27.11v-3Zm13.55-12.34c3.75,0,6.81-3.05,6.81-6.81s-3.05-6.81-6.81-6.81-6.81,3.05-6.81,6.81,3.05,6.81,6.81,6.81Zm0-10.62c2.1,0,3.81,1.71,3.81,3.81s-1.71,3.81-3.81,3.81-3.81-1.71-3.81-3.81,1.71-3.81,3.81-3.81Z"/>
</svg>