<?xml version="1.0" encoding="UTF-8"?>
<svg id="Layer_1" data-name="Layer 1" xmlns="http://www.w3.org/2000/svg" viewBox="0 0 128 128">
  <defs>
    <style>
      .cls-1 {
        fill: #0069b1;
      }
    </style>
  </defs>
  <path class="cls-1" d="m102.82,78.91v-5.31h3.77s-.09-1.59-.09-1.59c-1.2-20.77-17.41-37.65-37.97-39.83v3.01c18.43,2.1,33.04,16.94,34.85,35.41h-33.82c-.67-1.79-2.18-3.18-4.06-3.67V22.9l8.06,7.92,2.1-2.14-11.66-11.46-11.66,11.46,2.1,2.14,8.06-7.92v9.07c-21.86.76-39.73,18.07-41,40.05l-.09,1.59h3.77s0,5.3,0,5.3l7.35,1.09c.72,2.62,1.76,5.13,3.11,7.49l-4.43,5.97,10.68,10.68,5.97-4.43c2.36,1.35,4.88,2.39,7.49,3.11l1.09,7.35h15.1l1.09-7.35c2.62-.72,5.13-1.76,7.49-3.11l5.97,4.43,10.68-10.68-4.43-5.97c1.35-2.36,2.39-4.88,3.11-7.49l7.35-1.09Zm-32.96-5.31h4.94c-.73,5.31-5.29,9.41-10.79,9.41s-10.06-4.1-10.79-9.41h4.94c.45,2.83,2.9,5,5.85,5s5.4-2.17,5.85-5Zm-2.92-.93c0,1.62-1.32,2.93-2.93,2.93s-2.93-1.32-2.93-2.93,1.32-2.93,2.93-2.93,2.93,1.32,2.93,2.93Zm-4.43-37.7v31.96c-1.87.49-3.39,1.87-4.06,3.67H24.62c1.92-19.63,18.14-34.89,37.88-35.63Zm30.3,43.34c-.72,2.99-1.91,5.85-3.52,8.49l-.53.86,4.08,5.51-7.02,7.02-5.51-4.08-.86.53c-2.64,1.62-5.49,2.8-8.49,3.52l-.98.24-1.01,6.78h-9.92l-1.01-6.78-.98-.24c-3-.72-5.85-1.91-8.49-3.52l-.86-.53-5.51,4.08-7.02-7.02,4.08-5.51-.53-.86c-1.62-2.64-2.8-5.5-3.52-8.49l-.24-.98-6.78-1.01v-2.72h21.99c.75,6.97,6.66,12.41,13.82,12.41s13.07-5.44,13.83-12.41h21.99s0,2.72,0,2.72l-6.78,1.01-.24.98Z"/>
  <rect class="cls-1" x="74.04" y="43.55" width="7.54" height="3" transform="translate(3.98 96.36) rotate(-64.87)"/>
  <rect class="cls-1" x="84.61" y="51.3" width="7.47" height="3" transform="translate(-13.4 68.33) rotate(-39.55)"/>
  <rect class="cls-1" x="90.69" y="61.41" width="7.54" height="3" transform="translate(-16.14 37.45) rotate(-20.7)"/>
  <rect class="cls-1" x="48.69" y="41.28" width="3" height="7.54" transform="translate(-14.37 25.56) rotate(-25.11)"/>
  <rect class="cls-1" x="38.1" y="49.15" width="3" height="7.54" transform="translate(-26.28 47.59) rotate(-48.56)"/>
  <rect class="cls-1" x="32.03" y="59.14" width="3" height="7.54" transform="translate(-37.17 72.04) rotate(-69.29)"/>
</svg>