<?xml version="1.0" encoding="UTF-8"?>
<svg id="Layer_1" data-name="Layer 1" xmlns="http://www.w3.org/2000/svg" viewBox="0 0 128 128">
  <defs>
    <style>
      .cls-1 {
        fill: #0069b1;
      }
    </style>
  </defs>
  <path class="cls-1" d="m65.02,47.87v-3.78c.94.2,1.83.62,2.71,1.27l1.12-1.87c-1.1-.82-2.29-1.33-3.74-1.51v-1.19h-1.73v1.15c-2.49.2-4.18,1.67-4.18,3.82s1.35,3.35,4.26,4.1v3.9c-1.29-.2-2.37-.8-3.51-1.71l-1.28,1.81c1.35,1.08,2.97,1.77,4.7,1.97v1.99h1.73v-1.97c2.53-.22,4.24-1.67,4.24-3.86s-1.29-3.37-4.32-4.12Zm-1.57-.42c-1.53-.46-1.91-1-1.91-1.83,0-.88.66-1.57,1.91-1.67v3.51Zm1.57,6.39v-3.6c1.55.46,1.97,1,1.97,1.89,0,.96-.72,1.61-1.97,1.71Z"/>
  <rect class="cls-1" x="81.33" y="99.71" width="23.65" height="3"/>
  <rect class="cls-1" x="81.33" y="92.26" width="23.65" height="3"/>
  <rect class="cls-1" x="81.33" y="84.81" width="23.65" height="3"/>
  <rect class="cls-1" x="81.33" y="77.36" width="23.65" height="3"/>
  <rect class="cls-1" x="81.33" y="69.91" width="23.65" height="3"/>
  <rect class="cls-1" x="81.33" y="62.46" width="23.65" height="3"/>
  <rect class="cls-1" x="81.33" y="55.01" width="23.65" height="3"/>
  <rect class="cls-1" x="51.46" y="99.71" width="23.65" height="3"/>
  <rect class="cls-1" x="51.46" y="92.26" width="23.65" height="3"/>
  <rect class="cls-1" x="23.03" y="99.71" width="23.65" height="3"/>
  <rect class="cls-1" x="23.03" y="92.26" width="23.65" height="3"/>
  <rect class="cls-1" x="51.46" y="84.81" width="23.65" height="3"/>
  <rect class="cls-1" x="51.46" y="77.36" width="23.65" height="3"/>
  <path class="cls-1" d="m97.29,31.38l-1.06,6.94,2.97.45,1.78-11.69-11.69-1.78-.45,2.97,6.28.96-18.41,12.64c-2.56-4.37-7.29-7.32-12.71-7.32-8.13,0-14.74,6.61-14.74,14.74,0,3.48,1.22,6.68,3.24,9.2l-25.24,17.34,1.7,2.47,25.68-17.63c2.55,2.1,5.81,3.37,9.37,3.37,8.13,0,14.74-6.61,14.74-14.74,0-1.63-.28-3.19-.77-4.66l19.32-13.26Zm-33.29,29.66c-6.48,0-11.74-5.27-11.74-11.74s5.27-11.74,11.74-11.74,11.74,5.27,11.74,11.74-5.27,11.74-11.74,11.74Z"/>
</svg>