<?xml version="1.0" encoding="UTF-8"?>
<svg id="Layer_1" data-name="Layer 1" xmlns="http://www.w3.org/2000/svg" viewBox="0 0 128 128">
  <defs>
    <style>
      .cls-1 {
        fill: #0069b1;
      }
    </style>
  </defs>
  <path class="cls-1" d="m28.95,78.38l25.82-17.73c2.56,2.12,5.85,3.39,9.42,3.39,8.17,0,14.82-6.65,14.82-14.81,0-1.64-.28-3.21-.77-4.69l19.44-13.35-1.06,7,2.97.45,1.78-11.74-11.74-1.79-.45,2.97,6.34.96-18.54,12.73c-2.57-4.39-7.33-7.36-12.78-7.36-8.17,0-14.82,6.65-14.82,14.81,0,3.5,1.23,6.71,3.26,9.25l-25.39,17.43,1.7,2.47Zm35.24-40.97c6.51,0,11.82,5.3,11.82,11.81s-5.3,11.81-11.82,11.81-11.82-5.3-11.82-11.81,5.3-11.81,11.82-11.81Z"/>
  <polygon class="cls-1" points="71.04 46.05 68.92 43.93 61.52 51.33 59.47 49.29 57.35 51.41 61.52 55.57 71.04 46.05"/>
  <polygon class="cls-1" points="24.5 90.3 44.49 90.3 44.49 96.29 47.49 96.29 47.49 87.3 21.5 87.3 21.5 96.29 24.5 96.29 24.5 90.3"/>
  <polygon class="cls-1" points="77.19 96.29 77.19 77.44 51.2 77.44 51.2 96.29 54.2 96.29 54.2 80.44 74.19 80.44 74.19 96.29 77.19 96.29"/>
  <polygon class="cls-1" points="80.51 61.03 80.51 96.29 83.51 96.29 83.51 64.03 103.5 64.03 103.5 96.29 106.5 96.29 106.5 61.03 80.51 61.03"/>
  <rect class="cls-1" x="21.5" y="99.91" width="85" height="3"/>
</svg>