<?xml version="1.0" encoding="UTF-8"?>
<svg id="Layer_1" data-name="Layer 1" xmlns="http://www.w3.org/2000/svg" viewBox="0 0 128 128">
  <defs>
    <style>
      .cls-1 {
        fill: #0069b1;
      }
    </style>
  </defs>
  <path class="cls-1" d="m84.09,30.32c-5.81-5.55-13.44-8.38-21.5-8.01-14.61.69-26.76,12.67-27.64,27.27-.54,8.82,2.9,17.3,9.42,23.27,2.44,2.23,3.84,5.46,3.84,8.84v8.69c0,3.32,2.47,6.07,5.67,6.54.7,4.97,4.97,8.82,10.13,8.82s9.43-3.84,10.13-8.82c3.2-.46,5.67-3.21,5.67-6.54v-8.68c0-3.42,1.35-6.6,3.7-8.72,6.11-5.51,9.62-13.38,9.62-21.59s-3.2-15.52-9.02-21.07Zm-32.89,52.87h25.59v3.9h-25.59v-3.9Zm11.5-27.58c0-.72.58-1.3,1.3-1.3s1.3.58,1.3,1.3-.58,1.3-1.3,1.3-1.3-.58-1.3-1.3Zm1.3,47.12c-3.48,0-6.39-2.47-7.08-5.74h14.16c-.69,3.27-3.6,5.74-7.08,5.74Zm9.18-8.74h-18.37c-1.99,0-3.61-1.62-3.61-3.61v-.29h25.59v.29c0,1.99-1.62,3.61-3.61,3.61Zm8.3-23.24c-2.63,2.37-4.26,5.75-4.61,9.44h-5.37v-7.69l5.49-5.49v-3.36c1.63-.61,2.8-2.17,2.8-4.01,0-2.37-1.93-4.3-4.3-4.3s-4.3,1.93-4.3,4.3c0,1.84,1.17,3.4,2.8,4.01v2.12l-5.49,5.49v8.93h-3v-20.57c1.63-.61,2.8-2.17,2.8-4.02,0-2.37-1.93-4.3-4.3-4.3s-4.3,1.93-4.3,4.3c0,1.84,1.17,3.4,2.8,4.02v20.57h-3v-11.99l-4.94-4.94c.27-.56.44-1.19.44-1.85,0-2.37-1.93-4.3-4.3-4.3s-4.3,1.93-4.3,4.3,1.93,4.3,4.3,4.3c.61,0,1.18-.13,1.71-.36l4.1,4.1v10.74h-5.37c-.36-3.67-2.04-7.09-4.74-9.56-5.85-5.35-8.93-12.95-8.45-20.87.8-13.09,11.69-23.83,24.79-24.45.43-.02.86-.03,1.28-.03,6.75,0,13.1,2.54,18.01,7.21,5.22,4.98,8.09,11.69,8.09,18.9s-3.14,14.41-8.63,19.36Zm-7.29-11.12c0-.72.58-1.3,1.3-1.3s1.3.58,1.3,1.3-.58,1.3-1.3,1.3-1.3-.58-1.3-1.3Zm-22.21,1.77c0,.72-.58,1.3-1.3,1.3s-1.3-.58-1.3-1.3.58-1.3,1.3-1.3,1.3.58,1.3,1.3Z"/>
  <path class="cls-1" d="m64,30.79v3c9.7,0,17.59,7.89,17.59,17.59h3c0-11.35-9.24-20.59-20.59-20.59Z"/>
</svg>