<?xml version="1.0" encoding="UTF-8"?>
<svg id="Layer_1" data-name="Layer 1" xmlns="http://www.w3.org/2000/svg" viewBox="0 0 128 128">
  <defs>
    <style>
      .cls-1 {
        fill: #0069b1;
      }
    </style>
  </defs>
  <path class="cls-1" d="m91.12,63.04l-10.54-21.82v-21.51c0-2.71-2.21-4.92-4.92-4.92h-35.1c-2.71,0-4.92,2.21-4.92,4.92v56.53c0,2.71,2.21,4.92,4.92,4.92h12.4l-1.83,4.89s-.03.07-.04.11c-1.29,4.5-1,9.31.89,14.67l-4.14,9.37h-3.41v3h31.54v-3h-2.47l10.79-14.52c.55-.64,6-7.04,7.96-12.05.07-.17.1-.36.1-.55v-14.6c0-1.87-.43-3.75-1.25-5.44Zm-50.56,15.12c-1.06,0-1.92-.86-1.92-1.92V19.71c0-1.06.86-1.92,1.92-1.92h35.1c1.06,0,1.92.86,1.92,1.92v56.53c0,1.06-.86,1.92-1.92,1.92h-6.55v-5.76c2.51-.2,4.5-2.29,4.5-4.85,0-1.51-.7-2.85-1.78-3.74,1.08-.9,1.78-2.23,1.78-3.74s-.7-2.85-1.79-3.74c1.08-.9,1.79-2.23,1.79-3.74,0-2.69-2.19-4.88-4.88-4.88s-4.88,2.19-4.88,4.88c0,1.51.7,2.85,1.79,3.74-.84.69-1.45,1.64-1.68,2.74-.49-.11-1-.18-1.53-.18-1.12,0-2.18.28-3.11.77V22.7h-2.36v39.04c-.77,1.09-1.22,2.41-1.22,3.85v6.42c0,1.19-.21,2.35-.63,3.47l-1.01,2.69h-13.52Zm28.15-23.05c-1.39,0-2.52-1.13-2.52-2.52s1.13-2.52,2.52-2.52,2.52,1.13,2.52,2.52-1.13,2.52-2.52,2.52Zm0,2.44c1.39,0,2.52,1.13,2.52,2.52s-1.13,2.52-2.52,2.52c-.11,0-.23-.01-.34-.03-.51-1-1.26-1.87-2.18-2.5,0-1.39,1.13-2.52,2.52-2.52Zm.36,7.52c1.22.18,2.16,1.22,2.16,2.48s-.93,2.29-2.13,2.48v-4.46c0-.17-.01-.34-.03-.51Zm20.29,17.71c-1.94,4.66-7.32,10.91-7.37,10.97-.02.03-.05.06-.07.09l-12.16,16.36h-18.64l3.84-8.71c.16-.36.17-.76.03-1.13-1.83-4.95-2.18-9.31-1.04-13.32l3.94-10.52c.54-1.45.82-2.97.82-4.52v-6.42c0-2.04,1.66-3.69,3.69-3.69s3.69,1.66,3.69,3.69v17.7h3v-2.12h6.55c2.71,0,4.92-2.21,4.92-4.92v-28.13l7.84,16.23c.62,1.28.95,2.71.95,4.13v14.31Z"/>
  <path class="cls-1" d="m42.84,34.84h9.62v-12.14h-9.62v12.14Zm2.36-9.78h4.89v7.42h-4.89v-7.42Z"/>
  <rect class="cls-1" x="67.48" y="22.7" width="2.36" height="18.19"/>
</svg>