<?xml version="1.0" encoding="UTF-8"?>
<svg id="Layer_1" data-name="Layer 1" xmlns="http://www.w3.org/2000/svg" viewBox="0 0 128 128">
  <defs>
    <style>
      .cls-1 {
        fill: #0069b7;
      }
    </style>
  </defs>
  <path class="cls-1" d="m78.28,22.92c-11.67,0-22.11,5.35-29,13.73h4.01c6.29-6.61,15.17-10.73,24.99-10.73,19.04,0,34.54,15.49,34.54,34.54s-15.49,34.54-34.54,34.54c-9.66,0-18.4-3.99-24.67-10.4h-4.05c6.89,8.19,17.2,13.4,28.72,13.4,20.7,0,37.54-16.84,37.54-37.54s-16.84-37.54-37.54-37.54Z"/>
  <path class="cls-1" d="m48.02,44.56h-22.81v3h21.41c.42-1.03.89-2.03,1.4-3Z"/>
  <path class="cls-1" d="m25.2,73.36v3h22.81c-.51-.97-.98-1.97-1.4-3h-21.41Z"/>
  <rect class="cls-1" x="13.68" y="58.96" width="35.52" height="3"/>
  <path class="cls-1" d="m68.07,67.37l-3.2,4.56c3.4,2.7,7.46,4.46,11.81,4.96v5.01h4.36v-4.96c6.36-.55,10.66-4.21,10.66-9.71s-3.26-8.46-10.86-10.36v-9.51c2.35.5,4.61,1.55,6.81,3.2l2.8-4.71c-2.75-2.05-5.76-3.35-9.41-3.8v-3h-4.36v2.9c-6.26.5-10.51,4.2-10.51,9.61s3.4,8.41,10.71,10.31v9.81c-3.25-.5-5.96-2-8.81-4.31Zm12.77-4.56c3.91,1.15,4.96,2.5,4.96,4.76,0,2.4-1.8,4.05-4.96,4.31v-9.06Zm-8.76-11.62c0-2.2,1.65-3.95,4.81-4.2v8.81c-3.85-1.15-4.81-2.5-4.81-4.61Z"/>
</svg>