<?xml version="1.0" encoding="UTF-8"?>
<svg id="Layer_1" data-name="Layer 1" xmlns="http://www.w3.org/2000/svg" viewBox="0 0 128 128">
  <defs>
    <style>
      .cls-1 {
        fill: #0069b1;
      }
    </style>
  </defs>
  <path class="cls-1" d="m102.28,71.54c-.75,3.05-1.96,5.96-3.6,8.66l5.01,5.01-10.67,10.67-5.01-5.01c-2.71,1.64-5.61,2.84-8.66,3.6v7.08h-15.08v-7.08c-3.05-.75-5.96-1.96-8.66-3.6l-5.01,5.01-7.29-7.29,2.12-2.12,5.17,5.17,4.6-4.6,1.02.67c3.02,1.99,6.34,3.37,9.85,4.09l1.2.25v6.5h9.08v-6.5l1.2-.25c3.51-.72,6.83-2.1,9.85-4.09l1.02-.67,4.6,4.6,6.42-6.42-4.6-4.6.67-1.02c1.99-3.02,3.37-6.34,4.09-9.85l.25-1.2h6.5v-9.08h-6.5l-.25-1.2c-.72-3.51-2.1-6.83-4.09-9.85l-.67-1.02,4.6-4.6-6.42-6.42-4.6,4.6-1.02-.67c-3.02-1.99-6.34-3.37-9.85-4.09l-1.2-.25v-6.5h-9.08v6.5l-1.2.25c-3.52.72-6.83,2.1-9.85,4.09l-1.02.67-4.6-4.6-5.17,5.17-2.12-2.12,7.29-7.29,5.01,5.01c2.71-1.64,5.61-2.84,8.66-3.6v-7.08h15.08v7.08c3.05.75,5.96,1.96,8.66,3.6l5.01-5.01,10.67,10.67-5.01,5.01c1.64,2.71,2.84,5.61,3.6,8.66h7.08v15.08h-7.08Zm-30.47.46c-3.22,0-5.99-1.91-7.26-4.66l-2.22,2.22c1.92,3.25,5.44,5.44,9.48,5.44,6.07,0,11.01-4.94,11.01-11.01s-4.94-11.01-11.01-11.01c-4.04,0-7.57,2.19-9.48,5.44l2.22,2.22c1.27-2.75,4.04-4.66,7.26-4.66,4.42,0,8.01,3.59,8.01,8.01s-3.59,8.01-8.01,8.01Zm-15.13,3.21l-2.14,2.14c4.12,5.34,10.43,8.48,17.27,8.48,12.04,0,21.83-9.8,21.83-21.84s-9.79-21.84-21.83-21.84c-6.79,0-13.15,3.15-17.27,8.48l2.15,2.15c3.55-4.79,9.14-7.62,15.13-7.62,10.39,0,18.83,8.45,18.83,18.84s-8.45,18.84-18.83,18.84c-6.03,0-11.58-2.83-15.13-7.62Zm-15.63,11.39v-14.56h-20.92v-16.09h20.92v-14.56l22.6,22.6-22.6,22.6Zm0-17.56h3v10.31l15.36-15.36-15.36-15.36v10.31h-20.92v10.09h17.92Z"/>
</svg>