<?xml version="1.0" encoding="UTF-8"?>
<svg id="Layer_1" data-name="Layer 1" xmlns="http://www.w3.org/2000/svg" viewBox="0 0 128 128">
  <defs>
    <style>
      .cls-1 {
        fill: #0069b1;
      }
    </style>
  </defs>
  <path class="cls-1" d="m84.09,30.32c-5.81-5.55-13.43-8.38-21.5-8.01-14.61.69-26.76,12.67-27.64,27.27-.54,8.82,2.9,17.3,9.42,23.27,2.44,2.23,3.84,5.46,3.84,8.84v8.69c0,3.32,2.47,6.07,5.67,6.54.7,4.97,4.97,8.82,10.13,8.82s9.43-3.84,10.13-8.82c3.2-.46,5.67-3.21,5.67-6.54v-8.68c0-3.42,1.35-6.6,3.7-8.72,6.11-5.51,9.62-13.38,9.62-21.59s-3.2-15.52-9.02-21.07Zm-32.89,52.87h25.59v3.9h-25.59v-3.9Zm12.8,19.54c-3.48,0-6.39-2.47-7.08-5.74h14.16c-.69,3.27-3.6,5.74-7.08,5.74Zm9.18-8.74h-18.37c-1.99,0-3.61-1.62-3.61-3.61v-.29h25.59v.29c0,1.99-1.62,3.61-3.61,3.61Zm8.3-23.24c-2.63,2.37-4.26,5.75-4.61,9.44h-25.74c-.36-3.67-2.04-7.09-4.74-9.56-5.85-5.35-8.93-12.95-8.45-20.87.8-13.09,11.69-23.83,24.79-24.45.43-.02.86-.03,1.28-.03,6.75,0,13.1,2.54,18.01,7.21,5.22,4.98,8.09,11.69,8.09,18.9s-3.14,14.41-8.63,19.36Z"/>
  <path class="cls-1" d="m85.88,51.11c-4.27-8.21-12.66-13.31-21.88-13.31s-17.61,5.1-21.88,13.31l-.36.69.36.69c4.27,8.21,12.66,13.31,21.88,13.31s17.61-5.1,21.88-13.31l.36-.69-.36-.69Zm-30.25.69c0-4.61,3.75-8.37,8.37-8.37s8.37,3.75,8.37,8.37-3.75,8.37-8.37,8.37-8.37-3.75-8.37-8.37Zm-10.48,0c3.18-5.62,8.61-9.45,14.82-10.62-4.28,1.63-7.34,5.77-7.34,10.62s3.06,8.99,7.34,10.62c-6.21-1.17-11.64-5-14.82-10.62Zm22.87,10.62c4.28-1.63,7.34-5.77,7.34-10.62s-3.06-8.99-7.34-10.62c6.21,1.17,11.64,5,14.82,10.62-3.18,5.62-8.61,9.45-14.82,10.62Z"/>
</svg>