<?xml version="1.0" encoding="UTF-8"?>
<svg id="Layer_1" data-name="Layer 1" xmlns="http://www.w3.org/2000/svg" viewBox="0 0 128 128">
  <defs>
    <style>
      .cls-1 {
        fill: #0069b1;
      }
    </style>
  </defs>
  <path class="cls-1" d="m71.98,23.22c-18.09,0-32.8,14.71-32.8,32.8,0,8.61,3.34,16.46,8.79,22.32l-24.31,23.88,2.1,2.14,24.34-23.91c5.81,5.21,13.47,8.38,21.87,8.38,18.08,0,32.8-14.71,32.8-32.8s-14.71-32.8-32.8-32.8Zm0,62.6c-16.43,0-29.8-13.37-29.8-29.8s13.37-29.8,29.8-29.8,29.8,13.37,29.8,29.8-13.37,29.8-29.8,29.8Z"/>
  <path class="cls-1" d="m71.98,28.57c-15.14,0-27.45,12.31-27.45,27.45s12.31,27.45,27.45,27.45,27.45-12.32,27.45-27.45-12.32-27.45-27.45-27.45Zm0,51.9c-13.48,0-24.45-10.97-24.45-24.45s10.97-24.45,24.45-24.45,24.45,10.97,24.45,24.45-10.97,24.45-24.45,24.45Z"/>
  <path class="cls-1" d="m91.18,56.27c-3.75-7.2-11.1-11.68-19.2-11.68s-15.46,4.47-19.2,11.68l-.36.69.36.69c3.75,7.2,11.1,11.68,19.2,11.68s15.46-4.47,19.2-11.68l.36-.69-.36-.69Zm-19.2,7.77c-3.9,0-7.08-3.18-7.08-7.08s3.18-7.08,7.08-7.08,7.08,3.18,7.08,7.08-3.18,7.08-7.08,7.08Zm-16.16-7.08c2.44-4.26,6.4-7.31,10.98-8.63-2.93,1.77-4.9,4.97-4.9,8.63s1.97,6.87,4.9,8.63c-4.58-1.32-8.54-4.37-10.98-8.63Zm21.34,8.63c2.93-1.76,4.9-4.97,4.9-8.63s-1.97-6.87-4.9-8.63c4.58,1.32,8.54,4.37,10.98,8.63-2.45,4.26-6.4,7.31-10.98,8.63Z"/>
</svg>