<?xml version="1.0" encoding="UTF-8"?>
<svg id="Layer_1" data-name="Layer 1" xmlns="http://www.w3.org/2000/svg" viewBox="0 0 128 128">
  <defs>
    <style>
      .cls-1 {
        fill: #0069b1;
      }
    </style>
  </defs>
  <path class="cls-1" d="m101.82,95.49v-8.43h-5.86v-27.64h4.36v-3H27.68v3h4.36v27.64h-5.86v8.43h-10.57v7.21h3v-4.21h90.78v4.21h3v-7.21h-10.57Zm-8.86-36.07v27.64h-6.75v-27.64h6.75Zm-9.75,0v27.64h-12.84v-27.64h12.84Zm-15.84,0v27.64h-6.75v-27.64h6.75Zm-9.75,0v27.64h-12.84v-27.64h12.84Zm-22.59,0h6.75v27.64h-6.75v-27.64Zm-5.86,30.64h69.65v5.43H29.18v-5.43Z"/>
  <path class="cls-1" d="m55.53,43.03c0,4.67,3.8,8.47,8.47,8.47s8.47-3.8,8.47-8.47-3.8-8.47-8.47-8.47-8.47,3.8-8.47,8.47Zm13.93,0c0,3.01-2.45,5.47-5.47,5.47s-5.47-2.45-5.47-5.47,2.45-5.47,5.47-5.47,5.47,2.45,5.47,5.47Z"/>
  <polygon class="cls-1" points="64 27.12 105.8 55.95 107.5 53.48 64 23.48 20.5 53.48 22.2 55.95 64 27.12"/>
</svg>