<?xml version="1.0" encoding="UTF-8"?>
<svg id="Layer_1" data-name="Layer 1" xmlns="http://www.w3.org/2000/svg" viewBox="0 0 128 128">
  <defs>
    <style>
      .cls-1 {
        fill: #0069b1;
      }
    </style>
  </defs>
  <path class="cls-1" d="m90.14,12.96h-52.27c-3.28,0-5.94,2.67-5.94,5.94v92.07h3v-9.69h58.16v9.69h3V18.9c0-3.28-2.67-5.94-5.94-5.94Zm-55.22,85.32V18.9c0-1.62,1.32-2.94,2.94-2.94h52.27c1.62,0,2.94,1.32,2.94,2.94v79.37h-58.16Z"/>
  <rect class="cls-1" x="38.14" y="80.94" width="51.72" height="3"/>
  <path class="cls-1" d="m38.14,65.41h51.72V19.18h-51.72v46.23Zm3-43.23h45.72v40.23h-45.72V22.18Z"/>
  <rect class="cls-1" x="78.46" y="28.32" width="4.84" height="3"/>
  <rect class="cls-1" x="78.46" y="34.55" width="4.84" height="3"/>
  <rect class="cls-1" x="78.46" y="40.79" width="4.84" height="3"/>
  <rect class="cls-1" x="73.76" y="72.72" width="16.1" height="3"/>
  <path class="cls-1" d="m45.25,75.72h8.99v-3h-4.41c-.59-1.43-2-2.44-3.64-2.44s-3.05,1.01-3.64,2.44h-4.41v3h7.11Z"/>
</svg>