<?xml version="1.0" encoding="UTF-8"?>
<svg id="Layer_1" data-name="Layer 1" xmlns="http://www.w3.org/2000/svg" viewBox="0 0 128 128">
  <defs>
    <style>
      .cls-1 {
        fill: #0069b1;
      }
    </style>
  </defs>
  <path class="cls-1" d="m97.06,56.61l-.56-15.67h-8.34l-.68,18.97-7.82,2.7v-9.76l-10.94,3.77-.56-15.67h-8.34l-.67,18.97-7.82,2.7v-9.76l-31.33,10.8v39.93h88v-50.73l-10.94,3.77Zm-6-12.67h2.55l.49,13.69-3.57,1.23.53-14.92Zm-28.33,0h2.55l.49,13.69-3.57,1.23.53-14.92Zm42.28,56.62H23v-34.79l25.33-8.73v9.76l28.33-9.76v9.76l28.33-9.76v43.52Z"/>
  <rect class="cls-1" x="38.5" y="77" width="3" height="3"/>
  <rect class="cls-1" x="78.5" y="77" width="3" height="3"/>
  <rect class="cls-1" x="30.5" y="77" width="3" height="3"/>
  <rect class="cls-1" x="94.5" y="77" width="3" height="3"/>
  <rect class="cls-1" x="86.5" y="77" width="3" height="3"/>
  <rect class="cls-1" x="46.5" y="77" width="3" height="3"/>
  <rect class="cls-1" x="54.5" y="77" width="3" height="3"/>
  <rect class="cls-1" x="70.5" y="77" width="3" height="3"/>
  <rect class="cls-1" x="62.5" y="77" width="3" height="3"/>
  <rect class="cls-1" x="62.5" y="84.03" width="3" height="3"/>
  <rect class="cls-1" x="86.5" y="84.03" width="3" height="3"/>
  <rect class="cls-1" x="70.5" y="84.03" width="3" height="3"/>
  <rect class="cls-1" x="78.5" y="84.03" width="3" height="3"/>
  <rect class="cls-1" x="94.5" y="84.03" width="3" height="3"/>
  <rect class="cls-1" x="54.5" y="84.03" width="3" height="3"/>
  <rect class="cls-1" x="46.5" y="84.03" width="3" height="3"/>
  <rect class="cls-1" x="38.5" y="84.03" width="3" height="3"/>
  <rect class="cls-1" x="30.5" y="84.03" width="3" height="3"/>
  <rect class="cls-1" x="70.5" y="91.05" width="3" height="3"/>
  <rect class="cls-1" x="78.5" y="91.05" width="3" height="3"/>
  <rect class="cls-1" x="46.5" y="91.05" width="3" height="3"/>
  <rect class="cls-1" x="54.5" y="91.05" width="3" height="3"/>
  <rect class="cls-1" x="30.5" y="91.05" width="3" height="3"/>
  <rect class="cls-1" x="38.5" y="91.05" width="3" height="3"/>
  <rect class="cls-1" x="94.5" y="91.05" width="3" height="3"/>
  <rect class="cls-1" x="86.5" y="91.05" width="3" height="3"/>
  <rect class="cls-1" x="62.5" y="91.05" width="3" height="3"/>
  <path class="cls-1" d="m63.74,34.79c0,.77-.3,1.49-.84,2.04l2.12,2.12c1.11-1.11,1.72-2.59,1.72-4.16s-.61-3.05-1.72-4.16c-.54-.54-.84-1.27-.84-2.04s.3-1.49.84-2.04l-2.12-2.12c-1.11,1.11-1.72,2.59-1.72,4.16s.61,3.05,1.72,4.16c.54.54.84,1.27.84,2.04Z"/>
  <path class="cls-1" d="m90.79,34.79c0,.77-.3,1.49-.84,2.04l2.12,2.12c1.11-1.11,1.72-2.59,1.72-4.16s-.61-3.05-1.72-4.16c-.54-.54-.84-1.27-.84-2.04s.3-1.49.84-2.04l-2.12-2.12c-1.11,1.11-1.72,2.59-1.72,4.16s.61,3.05,1.72,4.16c.54.54.84,1.27.84,2.04Z"/>
</svg>