<?xml version="1.0" encoding="UTF-8"?>
<svg id="Layer_1" data-name="Layer 1" xmlns="http://www.w3.org/2000/svg" viewBox="0 0 128 128">
  <defs>
    <style>
      .cls-1 {
        fill: #0069b1;
      }
    </style>
  </defs>
  <path class="cls-1" d="m64,61.88c3.02,0,5.47-2.45,5.47-5.47s-2.45-5.47-5.47-5.47-5.47,2.45-5.47,5.47,2.45,5.47,5.47,5.47Zm0-7.94c1.36,0,2.47,1.11,2.47,2.47s-1.11,2.47-2.47,2.47-2.47-1.11-2.47-2.47,1.11-2.47,2.47-2.47Z"/>
  <path class="cls-1" d="m99.15,34.09c-1.58,0-2.86,1.28-2.86,2.86s1.28,2.86,2.86,2.86,2.86-1.28,2.86-2.86-1.28-2.86-2.86-2.86Z"/>
  <path class="cls-1" d="m90.64,34.09c-1.58,0-2.86,1.28-2.86,2.86s1.28,2.86,2.86,2.86,2.86-1.28,2.86-2.86-1.28-2.86-2.86-2.86Z"/>
  <path class="cls-1" d="m82.3,34.09c-1.58,0-2.86,1.28-2.86,2.86s1.28,2.86,2.86,2.86,2.86-1.28,2.86-2.86-1.28-2.86-2.86-2.86Z"/>
  <rect class="cls-1" x="26.34" y="35.45" width="29.69" height="3"/>
  <path class="cls-1" d="m19.2,28.84v67.62h38.27v8.61h3v-8.61h2.03v14.7h3v-14.7h2.07v8.61h3v-8.61h38.23V28.84H19.2Zm49.76,16.21c2.23,4.59,3.41,9.65,3.41,14.88,0,3.44-.52,6.81-1.5,10.02l-.12.37c-.98,3.06-2.39,5.97-4.19,8.65l-.24.35c-.26.38-.54.76-.82,1.13v-12.28h-3v12.28c-.28-.37-.55-.75-.82-1.13l-.24-.35c-1.8-2.68-3.21-5.59-4.19-8.65l-.12-.37c-.98-3.21-1.5-6.58-1.5-10.02,0-5.22,1.18-10.29,3.41-14.88h9.92Zm-8.27-3c.97-1.58,2.07-3.09,3.31-4.51,1.23,1.42,2.33,2.93,3.31,4.51h-6.62Zm13.47,3h14.32v4.04c0,3.95-3.21,7.16-7.16,7.16s-7.16-3.21-7.16-7.16v-4.04Zm-1.79,29.5v8.82l-2.73-3.62c1.05-1.66,1.96-3.4,2.73-5.2Zm-16.73,0c.77,1.8,1.68,3.54,2.73,5.2l-2.73,3.62v-8.82Zm-1.79-25.46c0,3.95-3.21,7.16-7.16,7.16s-7.16-3.21-7.16-7.16v-4.04h14.32v4.04Zm-31.64-4.04h14.32v4.04c0,3.95-3.21,7.16-7.16,7.16s-7.16-3.21-7.16-7.16v-4.04Zm48.37,48.41v-6.11h-3v6.11h-7.1v-6.11h-3v6.11H22.2v-37.17c1.84,1.83,4.37,2.96,7.16,2.96,3.66,0,6.87-1.96,8.66-4.87,1.79,2.92,4.99,4.87,8.66,4.87,2.27,0,4.37-.76,6.06-2.02-.06.9-.11,1.8-.11,2.7,0,3.53.5,6.99,1.45,10.31l-1.45,1.16v20.93l7.54-9.99c.73.96,1.5,1.89,2.33,2.78v4.23h3v-4.23c.83-.89,1.6-1.82,2.33-2.78l7.54,9.99v-20.93l-1.45-1.16c.96-3.31,1.45-6.78,1.45-10.31,0-.91-.04-1.81-.11-2.7,1.69,1.27,3.79,2.02,6.06,2.02,3.66,0,6.87-1.96,8.66-4.87,1.79,2.92,4.99,4.87,8.66,4.87,2.79,0,5.32-1.13,7.16-2.96v37.17h-35.23Zm35.23-44.37c0,3.95-3.21,7.16-7.16,7.16s-7.16-3.21-7.16-7.16v-4.04h14.32v4.04Zm0-7.04h-35.02c-1.54-2.79-3.44-5.41-5.69-7.77l-1.08-1.14-1.08,1.14c-2.25,2.36-4.15,4.98-5.69,7.77H22.2v-10.21h83.59v10.21Z"/>
</svg>