<?xml version="1.0" encoding="UTF-8"?>
<svg id="Layer_1" data-name="Layer 1" xmlns="http://www.w3.org/2000/svg" viewBox="0 0 128 128">
  <defs>
    <style>
      .cls-1 {
        fill: #0069b7;
      }
    </style>
  </defs>
  <path class="cls-1" d="m48.34,66.05c.39-.31.62-.77.63-1.27.09-8.2,6.83-14.87,15.03-14.87s14.94,6.67,15.03,14.87c0,.5.23.96.63,1.27.29.23.65.35,1.01.35.12,0,.25-.01.37-.04l17.72-4.16-.15-1.33c-2.04-17.54-16.92-30.77-34.6-30.77s-32.56,13.23-34.61,30.77l-.15,1.33,17.72,4.16c.49.11.99,0,1.38-.31Zm-15.79-6.16c.62-3.94,1.97-7.62,3.87-10.91l2.59,1.78,1.7-2.47-2.66-1.83c2.41-3.38,5.46-6.25,8.96-8.46l1.64,3.02,2.63-1.43-1.67-3.07c3.91-1.98,8.27-3.17,12.87-3.39v3.57h3v-3.57c4.25.2,8.29,1.23,11.97,2.95l-1.91,3.51,2.63,1.43,1.93-3.55c3.68,2.16,6.89,5.04,9.44,8.47l-3.42,2.35,1.7,2.47,3.4-2.33c2.08,3.43,3.54,7.3,4.2,11.46l-13.51,3.17c-.94-9.05-8.66-16.16-17.93-16.16-4.21,0-8.09,1.48-11.18,3.93l-6.37-6.67-2.17,2.07,6.35,6.65c-2.5,2.76-4.16,6.29-4.57,10.18l-13.51-3.17Z"/>
  <path class="cls-1" d="m21.92,21.92v84.15h84.15V21.92H21.92Zm81.15,81.15H24.92V24.92h78.15v78.15Z"/>
</svg>