<?xml version="1.0" encoding="UTF-8"?>
<svg id="Layer_1" data-name="Layer 1" xmlns="http://www.w3.org/2000/svg" viewBox="0 0 128 128">
  <defs>
    <style>
      .cls-1 {
        fill: #0069b1;
      }
    </style>
  </defs>
  <path class="cls-1" d="m64,103.52c-21.79,0-39.52-17.73-39.52-39.52s17.73-39.52,39.52-39.52,39.52,17.73,39.52,39.52-17.73,39.52-39.52,39.52Zm0-76.03c-20.14,0-36.52,16.38-36.52,36.52s16.38,36.52,36.52,36.52,36.52-16.38,36.52-36.52-16.38-36.52-36.52-36.52Z"/>
  <path class="cls-1" d="m72.12,55.88c-1.3-1.3-2.84-2.19-4.47-2.71l-2.52,2.52c1.78.19,3.51.96,4.87,2.32,3.15,3.15,3.15,8.28,0,11.43l-14.69,14.69c-1.53,1.53-3.55,2.37-5.71,2.37s-4.19-.84-5.71-2.37-2.37-3.56-2.37-5.71.84-4.19,2.37-5.71l5.98-5.98c-.24-1.38-.27-2.77-.1-4.14l-7.99,8c-2.09,2.09-3.25,4.87-3.25,7.83s1.15,5.74,3.25,7.83,4.88,3.25,7.83,3.25,5.74-1.15,7.83-3.25l14.69-14.69c4.32-4.32,4.32-11.35,0-15.67Z"/>
  <path class="cls-1" d="m86.24,41.76c-2.09-2.09-4.88-3.25-7.83-3.25s-5.74,1.15-7.83,3.25l-14.69,14.69c-2.09,2.09-3.25,4.88-3.25,7.83s1.15,5.74,3.25,7.83c1.3,1.3,2.84,2.19,4.47,2.71l2.52-2.52c-1.78-.19-3.51-.96-4.87-2.32-3.15-3.15-3.15-8.28,0-11.43l14.69-14.69c1.53-1.53,3.55-2.37,5.71-2.37s4.19.84,5.71,2.37c1.53,1.53,2.37,3.56,2.37,5.71s-.84,4.19-2.37,5.71l-5.98,5.98c.24,1.37.27,2.77.1,4.14l8-8c2.09-2.09,3.25-4.87,3.25-7.83s-1.15-5.74-3.25-7.83Z"/>
</svg>