<?xml version="1.0" encoding="utf-8"?>
<!-- Generator: Adobe Illustrator 27.6.1, SVG Export Plug-In . SVG Version: 6.00 Build 0)  -->
<svg version="1.1" id="Layer_1" xmlns="http://www.w3.org/2000/svg" xmlns:xlink="http://www.w3.org/1999/xlink" x="0px" y="0px"
	 viewBox="0 0 128 128" style="enable-background:new 0 0 128 128;" xml:space="preserve">
<style type="text/css">
	.st0{fill:#0069B1;}
</style>
<g>
	<g>
		<g>
			<g>
				<path class="st0" d="M63.2,25.5c-0.7,0-1.3-0.6-1.3-1.3c0-2.1-1.7-3.8-3.8-3.8c-2.1,0-3.8,1.7-3.8,3.8c0,0.7-0.6,1.3-1.3,1.3
					c-0.7,0-1.3-0.6-1.3-1.3c0-3.5,2.9-6.4,6.4-6.4s6.4,2.9,6.4,6.4C64.5,24.9,63.9,25.5,63.2,25.5z"/>
			</g>
			<g>
				<path class="st0" d="M71.6,38.5h-27c-0.7,0-1.3-0.6-1.3-1.3V28c0-0.7,0.6-1.3,1.3-1.3h27c0.7,0,1.3,0.6,1.3,1.3v9.2
					C72.8,37.9,72.3,38.5,71.6,38.5z M45.8,35.9h24.4v-6.7H45.8V35.9z"/>
			</g>
			<g>
				<path class="st0" d="M63.9,100.7H32c-0.7,0-1.3-0.6-1.3-1.3V31c0-0.7,0.6-1.3,1.3-1.3h6.9c0.7,0,1.3,0.6,1.3,1.3
					c0,0.7-0.6,1.3-1.3,1.3h-5.6v65.9h30.6c0.7,0,1.3,0.6,1.3,1.3C65.2,100.2,64.6,100.7,63.9,100.7z"/>
			</g>
			<g>
				<path class="st0" d="M83.8,77.9c-0.7,0-1.3-0.6-1.3-1.3V32.3h-6.1c-0.7,0-1.3-0.6-1.3-1.3c0-0.7,0.6-1.3,1.3-1.3h7.4
					c0.7,0,1.3,0.6,1.3,1.3v45.6C85.1,77.3,84.5,77.9,83.8,77.9z"/>
			</g>
		</g>
		<g>
			<g>
				<path class="st0" d="M44.7,57.6c-0.3,0-0.7-0.1-0.9-0.4l-4.3-4.3c-0.5-0.5-0.5-1.3,0-1.8c0.5-0.5,1.3-0.5,1.8,0l3.4,3.4l6.4-6.4
					c0.5-0.5,1.3-0.5,1.8,0c0.5,0.5,0.5,1.3,0,1.8l-7.3,7.3C45.3,57.5,45,57.6,44.7,57.6z"/>
			</g>
			<g>
				<path class="st0" d="M44.7,72.7c-0.3,0-0.7-0.1-0.9-0.4L39.5,68c-0.5-0.5-0.5-1.3,0-1.8c0.5-0.5,1.3-0.5,1.8,0l3.4,3.4l6.4-6.4
					c0.5-0.5,1.3-0.5,1.8,0c0.5,0.5,0.5,1.3,0,1.8l-7.3,7.3C45.3,72.5,45,72.7,44.7,72.7z"/>
			</g>
			<g>
				<path class="st0" d="M44.7,87.7c-0.3,0-0.7-0.1-0.9-0.4L39.5,83c-0.5-0.5-0.5-1.3,0-1.8c0.5-0.5,1.3-0.5,1.8,0l3.4,3.4l6.4-6.4
					c0.5-0.5,1.3-0.5,1.8,0c0.5,0.5,0.5,1.3,0,1.8l-7.3,7.3C45.3,87.6,45,87.7,44.7,87.7z"/>
			</g>
			<g>
				<path class="st0" d="M75,54H58.8c-0.7,0-1.3-0.6-1.3-1.3c0-0.7,0.6-1.3,1.3-1.3H75c0.7,0,1.3,0.6,1.3,1.3
					C76.3,53.4,75.7,54,75,54z"/>
			</g>
			<g>
				<path class="st0" d="M75,69H58.8c-0.7,0-1.3-0.6-1.3-1.3c0-0.7,0.6-1.3,1.3-1.3H75c0.7,0,1.3,0.6,1.3,1.3
					C76.3,68.4,75.7,69,75,69z"/>
			</g>
			<g>
				<path class="st0" d="M66.9,84h-8.1c-0.7,0-1.3-0.6-1.3-1.3c0-0.7,0.6-1.3,1.3-1.3h8.1c0.7,0,1.3,0.6,1.3,1.3
					C68.2,83.4,67.6,84,66.9,84z"/>
			</g>
		</g>
	</g>
	<g>
		<g>
			<path class="st0" d="M82.1,110.2c-8.4,0-15.3-6.8-15.3-15.3c0-8.4,6.8-15.3,15.3-15.3c8.4,0,15.3,6.8,15.3,15.3
				C97.3,103.4,90.5,110.2,82.1,110.2z M82.1,82.3c-7,0-12.7,5.7-12.7,12.7c0,7,5.7,12.7,12.7,12.7c7,0,12.7-5.7,12.7-12.7
				C94.8,87.9,89.1,82.3,82.1,82.3z"/>
		</g>
		<g>
			<path class="st0" d="M80.1,101.7c-0.3,0-0.7-0.1-0.9-0.4l-5.5-5.5c-0.5-0.5-0.5-1.3,0-1.8c0.5-0.5,1.3-0.5,1.8,0l4.6,4.6l8.5-8.5
				c0.5-0.5,1.3-0.5,1.8,0c0.5,0.5,0.5,1.3,0,1.8l-9.4,9.4C80.8,101.5,80.5,101.7,80.1,101.7z"/>
		</g>
	</g>
</g>
</svg>
