<?xml version="1.0" encoding="UTF-8"?>
<svg id="Layer_1" data-name="Layer 1" xmlns="http://www.w3.org/2000/svg" viewBox="0 0 128 128">
  <defs>
    <style>
      .cls-1 {
        fill: #0069b1;
      }
    </style>
  </defs>
  <path class="cls-1" d="m101.25,55.07c0-20.46-16.64-37.1-37.1-37.1S27.05,34.61,27.05,55.07c0,19.09,14.5,34.86,33.06,36.88v-3.02c-16.91-2.01-30.06-16.42-30.06-33.85,0-18.8,15.3-34.1,34.1-34.1s34.1,15.3,34.1,34.1-14.49,33.28-32.6,34.06v-3.25c16.32-.79,29.35-14.31,29.35-30.81s-13.84-30.85-30.85-30.85-30.85,13.84-30.85,30.85c0,15.64,11.7,28.59,26.81,30.58v-3.02c-13.45-1.96-23.81-13.57-23.81-27.56,0-15.36,12.49-27.85,27.85-27.85s27.85,12.49,27.85,27.85-11.69,27.03-26.35,27.81v-11.94h-3v36.92l-8.06-7.92-2.1,2.14,11.66,11.46,11.66-11.46-2.1-2.14-8.06,7.92v-15.73c19.76-.79,35.6-17.11,35.6-37.06Zm-37.1,54.26l-.03-.03h.07l-.03.03Z"/>
  <path class="cls-1" d="m56.98,57.62l-2.14,3.04c2.27,1.81,4.98,2.98,7.89,3.31v3.34h2.91v-3.31c4.24-.37,7.12-2.81,7.12-6.48s-2.17-5.65-7.25-6.92v-6.35c1.57.33,3.07,1.04,4.55,2.14l1.87-3.14c-1.84-1.37-3.84-2.24-6.28-2.54v-2.01h-2.91v1.94c-4.18.33-7.02,2.81-7.02,6.42s2.27,5.61,7.15,6.89v6.55c-2.17-.33-3.98-1.34-5.88-2.87Zm8.52-3.04c2.61.77,3.31,1.67,3.31,3.18,0,1.61-1.2,2.71-3.31,2.87v-6.05Zm-5.85-7.75c0-1.47,1.1-2.64,3.21-2.81v5.88c-2.57-.77-3.21-1.67-3.21-3.08Z"/>
</svg>