<?xml version="1.0" encoding="UTF-8"?>
<svg id="Layer_1" data-name="Layer 1" xmlns="http://www.w3.org/2000/svg" viewBox="0 0 128 128">
  <defs>
    <style>
      .cls-1 {
        fill: #0069b1;
      }
    </style>
  </defs>
  <path class="cls-1" d="m56.4,53.92c1.79,1.8,4.15,2.69,6.51,2.69s4.72-.9,6.51-2.69c.79-.79,1.41-1.7,1.86-2.68l-2.35-2.34c-.27,1.09-.82,2.09-1.63,2.91-2.42,2.42-6.36,2.42-8.78,0l-5.95-5.95c-1.17-1.17-1.82-2.73-1.82-4.39s.65-3.22,1.82-4.39c1.21-1.21,2.8-1.82,4.39-1.82s3.18.61,4.39,1.82l1,1c.98-.25,2-.39,3.04-.39.29,0,.57.02.86.04l-2.77-2.77c-3.59-3.59-9.43-3.59-13.02,0-1.74,1.74-2.7,4.05-2.7,6.51s.96,4.77,2.7,6.51l5.95,5.95Z"/>
  <path class="cls-1" d="m58.88,43.37c-.8.8-1.41,1.71-1.85,2.68l2.36,2.36c.26-1.07.78-2.09,1.62-2.92,1.21-1.21,2.8-1.82,4.39-1.82s3.18.61,4.39,1.82l5.95,5.95c1.17,1.17,1.82,2.73,1.82,4.39s-.65,3.22-1.82,4.39c-1.17,1.17-2.73,1.82-4.39,1.82s-3.22-.65-4.39-1.82l-1-1c-.98.25-2,.39-3.03.39-.29,0-.57-.02-.86-.04l2.77,2.77c1.74,1.74,4.05,2.7,6.51,2.7s4.77-.96,6.51-2.7,2.7-4.05,2.7-6.51-.96-4.77-2.7-6.51l-5.95-5.95c-3.59-3.59-9.43-3.59-13.02,0Z"/>
  <path class="cls-1" d="m102.77,51.21l-11.61-10.71v-7.92c0-3.58-2.92-6.5-6.5-6.5h-9.14l-4.48-4.13c-4-3.69-10.07-3.73-14.12-.1l-4.73,4.24h-8.52c-3.58,0-6.5,2.92-6.5,6.5v6.95l-11.9,10.66c-.32.28-.5.69-.5,1.12v56.02c0,.83.67,1.5,1.5,1.5h75.5c.83,0,1.5-.67,1.5-1.5v-55.03c0-.42-.17-.82-.48-1.1Zm-46.32,24.38l-28.7,28.18v-49.47l28.7,21.29Zm2.5,1.75c1.6.9,3.37,1.36,5.15,1.36,1.73,0,3.46-.44,5.03-1.3l28.96,28.44H29.92l29.03-28.51Zm12.71-1.64l28.59-20.46v48.53l-28.59-28.07Zm27.72-23.52l-8.23,5.89v-13.47l8.23,7.58Zm-40.47-28.08c2.89-2.59,7.23-2.56,10.09.07l2.09,1.93h-14.42l2.24-2Zm-15.26,5h41c1.93,0,3.5,1.57,3.5,3.5v27.61l-19.69,14.09c-2.66,1.9-6.21,1.87-8.83-.08l-19.47-14.45v-18.88h.01s-.01-.03-.01-.03v-8.26c0-1.93,1.57-3.5,3.5-3.5Zm-6.5,28.45l-8.53-6.33,8.53-7.64v13.97Z"/>
</svg>