<?xml version="1.0" encoding="UTF-8"?>
<svg id="Layer_1" data-name="Layer 1" xmlns="http://www.w3.org/2000/svg" viewBox="0 0 128 128">
  <defs>
    <style>
      .cls-1 {
        fill: #0069b1;
      }
    </style>
  </defs>
  <path class="cls-1" d="m105.86,73.4h-11.51c-5.84,0-10.6,4.76-10.6,10.6v17.29h32.71v-17.29c0-5.84-4.76-10.6-10.6-10.6Zm7.6,24.89h-26.71v-14.29c0-4.19,3.41-7.6,7.6-7.6h11.51c4.19,0,7.6,3.41,7.6,7.6v14.29Z"/>
  <path class="cls-1" d="m100.52,72.23c3.96,0,7.07-4.35,7.07-9.9,0-4.27-.86-8.23-7.07-8.23s-7.07,3.95-7.07,8.23c0,5.55,3.1,9.9,7.07,9.9Zm0-15.13c3.05,0,4.07.76,4.07,5.23,0,3.74-1.86,6.9-4.07,6.9s-4.07-3.16-4.07-6.9c0-4.47,1.02-5.23,4.07-5.23Z"/>
  <path class="cls-1" d="m69.76,73.4h-11.51c-5.84,0-10.6,4.76-10.6,10.6v17.29h32.71v-17.29c0-5.84-4.75-10.6-10.6-10.6Zm7.6,24.89h-26.71v-14.29c0-4.19,3.41-7.6,7.6-7.6h11.51c4.19,0,7.6,3.41,7.6,7.6v14.29Z"/>
  <path class="cls-1" d="m64.42,72.23c3.96,0,7.07-4.35,7.07-9.9,0-4.27-.86-8.23-7.07-8.23s-7.07,3.95-7.07,8.23c0,5.55,3.1,9.9,7.07,9.9Zm0-15.13c3.05,0,4.07.76,4.07,5.23,0,3.74-1.86,6.9-4.07,6.9s-4.07-3.16-4.07-6.9c0-4.47,1.02-5.23,4.07-5.23Z"/>
  <path class="cls-1" d="m64.42,44.83c3.96,0,7.07-4.35,7.07-9.9,0-4.27-.86-8.23-7.07-8.23s-7.07,3.95-7.07,8.23c0,5.55,3.1,9.9,7.07,9.9Zm0-15.13c3.05,0,4.07.76,4.07,5.23,0,3.74-1.86,6.9-4.07,6.9s-4.07-3.16-4.07-6.9c0-4.47,1.02-5.23,4.07-5.23Z"/>
  <path class="cls-1" d="m89.12,48.44c0-4.27-.86-8.23-7.07-8.23s-7.07,3.95-7.07,8.23c0,5.55,3.1,9.9,7.07,9.9s7.07-4.35,7.07-9.9Zm-7.07,6.9c-2.21,0-4.07-3.16-4.07-6.9,0-4.47,1.02-5.23,4.07-5.23s4.07.76,4.07,5.23c0,3.74-1.86,6.9-4.07,6.9Z"/>
  <path class="cls-1" d="m53.02,48.44c0-4.27-.86-8.23-7.07-8.23s-7.07,3.95-7.07,8.23c0,5.55,3.1,9.9,7.07,9.9s7.07-4.35,7.07-9.9Zm-7.07,6.9c-2.21,0-4.07-3.16-4.07-6.9,0-4.47,1.02-5.23,4.07-5.23s4.07.76,4.07,5.23c0,3.74-1.86,6.9-4.07,6.9Z"/>
  <path class="cls-1" d="m33.66,73.4h-11.51c-5.84,0-10.6,4.76-10.6,10.6v17.29h32.71v-17.29c0-5.84-4.76-10.6-10.6-10.6Zm7.6,24.89H14.54v-14.29c0-4.19,3.41-7.6,7.6-7.6h11.51c4.19,0,7.6,3.41,7.6,7.6v14.29Z"/>
  <path class="cls-1" d="m28.32,72.23c3.96,0,7.07-4.35,7.07-9.9,0-4.27-.86-8.23-7.07-8.23s-7.07,3.95-7.07,8.23c0,5.55,3.1,9.9,7.07,9.9Zm0-15.13c3.05,0,4.07.76,4.07,5.23,0,3.74-1.86,6.9-4.07,6.9s-4.07-3.16-4.07-6.9c0-4.47,1.02-5.23,4.07-5.23Z"/>
</svg>