<?xml version="1.0" encoding="UTF-8"?>
<svg id="Layer_1" data-name="Layer 1" xmlns="http://www.w3.org/2000/svg" viewBox="0 0 128 128">
  <defs>
    <style>
      .cls-1 {
        fill: #0069b1;
      }
    </style>
  </defs>
  <path class="cls-1" d="m108.8,29.17H19.2v54.41h43.3v13.74h-16.92v3h36.84v-3h-16.92v-13.74h15.03l2.13,10.6,4.33-7.01,5.14,8.18,5.97-3.41-4.95-8.34,15.65-.02V29.17Zm-68.09,7.06c0,3.18-2.59,5.76-5.76,5.76s-5.77-2.59-5.77-5.76v-4.06h11.53v4.06Zm3-4.05h0s11.53,0,11.53,0v4.06c0,3.18-2.59,5.76-5.76,5.76s-5.76-2.59-5.76-5.76v-4.05Zm14.53,0h11.53v4.06c0,3.18-2.59,5.76-5.76,5.76s-5.76-2.59-5.76-5.76v-4.06Zm14.53,0h11.53v4.06c0,3.18-2.59,5.76-5.76,5.76s-5.77-2.59-5.77-5.76v-4.06Zm14.53,0h11.53v4.06c0,3.18-2.59,5.76-5.76,5.76s-5.76-2.59-5.76-5.76v-4.06Zm.59,48.42l6.08,10.25-.82.47-6.17-9.82-2.86,4.64-3.25-16.18,12.7,10.65h-5.66Zm17.92-.02h-7.61l-21.97-18.43,3.71,18.43H22.2v-48.41h3.97v4.06c0,4.83,3.93,8.76,8.77,8.76,3.02,0,5.69-1.54,7.26-3.87,1.58,2.33,4.24,3.87,7.26,3.87s5.69-1.54,7.26-3.87c1.58,2.33,4.24,3.87,7.26,3.87s5.69-1.54,7.26-3.87c1.58,2.33,4.25,3.87,7.27,3.87s5.69-1.54,7.26-3.87c1.58,2.33,4.24,3.87,7.26,3.87,4.83,0,8.76-3.93,8.76-8.76v-4.06h3.97v48.41Z"/>
</svg>