<?xml version="1.0" encoding="UTF-8"?>
<svg id="Layer_1" data-name="Layer 1" xmlns="http://www.w3.org/2000/svg" viewBox="0 0 128 128">
  <defs>
    <style>
      .cls-1 {
        fill: #0069b1;
      }
    </style>
  </defs>
  <path class="cls-1" d="m104.44,37.1c-3.54-3.37-8.18-5.1-13.08-4.87-1.96.09-3.85.54-5.61,1.24l-2.64-5H28.67l-10.6,20.1v50.95h75.65v-17.28c2.5-.58,4.47-2.58,4.99-5.1,1.95-.49,3.4-2.25,3.4-4.35v-5.09c0-1.83.72-3.53,1.97-4.66,3.72-3.35,5.85-8.14,5.85-13.13s-1.95-9.44-5.49-12.81Zm-73.96-5.63h50.83l1.77,3.35c-4.23,2.6-7.34,6.92-8.26,11.93h-39.21v-8.65h42.09v-3h-45.09v11.65h-10.18l8.06-15.28Zm31.18,20.48v4.05c0,3.18-2.59,5.77-5.76,5.77s-5.76-2.59-5.76-5.77v-4.05h-3v4.05c0,3.18-2.59,5.77-5.76,5.77s-5.77-2.59-5.77-5.77v-4.05h-3v4.05c0,3.18-2.59,5.77-5.76,5.77s-5.76-2.59-5.76-5.77v-6.25h53.47c-.02,2.57.5,5.06,1.52,7.35-.52,2.67-2.89,4.66-5.64,4.66-3.18,0-5.76-2.59-5.76-5.77v-4.05h-3Zm3,44.57v-18.39c0-3.39,2.76-6.14,6.14-6.14s6.14,2.76,6.14,6.14v18.39h-12.29Zm15.29,0v-18.39c0-5.04-4.1-9.14-9.14-9.14s-9.14,4.1-9.14,9.14v18.39H21.07v-33.94c1.54,1.35,3.56,2.18,5.76,2.18,3.02,0,5.69-1.54,7.26-3.87,1.58,2.33,4.25,3.87,7.27,3.87s5.69-1.54,7.26-3.87c1.58,2.33,4.24,3.87,7.26,3.87s5.69-1.54,7.26-3.87c1.58,2.33,4.24,3.87,7.26,3.87,3.18,0,6.03-1.74,7.57-4.36.68.91,1.43,1.78,2.28,2.56,1.3,1.19,2.05,2.92,2.05,4.73v5.1c0,2.1,1.45,3.85,3.4,4.35.52,2.52,2.49,4.52,4.99,5.1v14.28h-10.77Zm5.38-27.33h13.78v1.05h-13.78v-1.05Zm12.28,5.1h-10.78c-.67,0-1.23-.44-1.42-1.05h13.63c-.19.61-.75,1.05-1.42,1.05Zm-5.39,5.13c-1.47,0-2.72-.88-3.3-2.13h6.59c-.57,1.25-1.83,2.13-3.3,2.13Zm9.85-18.61c-1.52,1.37-2.51,3.28-2.83,5.38h-14.04c-.33-2.09-1.34-4.02-2.9-5.45-3.29-3.01-5.03-7.29-4.76-11.75.45-7.37,6.58-13.42,13.96-13.77.24-.01.48-.02.72-.02,3.8,0,7.38,1.43,10.14,4.06,2.94,2.8,4.56,6.58,4.56,10.64s-1.77,8.12-4.86,10.9Z"/>
  <path class="cls-1" d="m92.22,37.21v3c5.35,0,9.71,4.35,9.71,9.71h3c0-7.01-5.7-12.71-12.71-12.71Z"/>
  <path class="cls-1" d="m25.34,87.76h32.06v-15.66H25.34v15.66Zm3-12.66h26.06v9.66h-26.06v-9.66Z"/>
  <rect class="cls-1" x="25.34" y="90.57" width="32.06" height="3"/>
  <rect class="cls-1" x="39.15" y="40.89" width="10.23" height="3"/>
  <rect class="cls-1" x="51.99" y="40.89" width="20.65" height="3"/>
</svg>