<?xml version="1.0" encoding="UTF-8"?>
<svg id="Layer_1" data-name="Layer 1" xmlns="http://www.w3.org/2000/svg" viewBox="0 0 128 128">
  <defs>
    <style>
      .cls-1 {
        fill: #0069b1;
      }
    </style>
  </defs>
  <path class="cls-1" d="m91.22,28.47h-54.44l-10.6,20.1v50.95h75.65v-50.95l-10.6-20.1Zm-6.93,23.48v4.05c0,3.18-2.59,5.77-5.77,5.77s-5.76-2.59-5.76-5.77v-4.05h-3v4.05c0,3.18-2.59,5.77-5.76,5.77s-5.76-2.59-5.76-5.77v-4.05h-3v4.05c0,3.18-2.59,5.77-5.76,5.77s-5.77-2.59-5.77-5.77v-4.05h-3v4.05c0,3.18-2.59,5.77-5.76,5.77s-5.76-2.59-5.76-5.77v-6.25h69.65v6.25c0,3.18-2.59,5.77-5.76,5.77s-5.76-2.59-5.76-5.77v-4.05h-3Zm0-5.2h-40.59v-8.65h40.59v8.65Zm-45.71-15.28h50.83l8.06,15.28h-10.18v-11.65h-46.59v11.65h-10.18l8.06-15.28Zm34.18,65.05v-18.39c0-3.39,2.76-6.14,6.14-6.14s6.14,2.76,6.14,6.14v18.39h-12.29Zm15.29,0v-18.39c0-5.04-4.1-9.14-9.14-9.14s-9.14,4.1-9.14,9.14v18.39H29.18v-33.94c1.54,1.35,3.56,2.18,5.76,2.18,3.02,0,5.69-1.54,7.26-3.87,1.58,2.33,4.25,3.87,7.27,3.87s5.69-1.54,7.26-3.87c1.58,2.33,4.24,3.87,7.26,3.87s5.69-1.54,7.26-3.87c1.58,2.33,4.24,3.87,7.26,3.87s5.69-1.54,7.27-3.87c1.58,2.33,4.24,3.87,7.26,3.87,2.21,0,4.22-.83,5.76-2.18v33.94h-10.77Z"/>
  <path class="cls-1" d="m33.44,87.76h32.06v-15.66h-32.06v15.66Zm3-12.66h26.06v9.66h-26.06v-9.66Z"/>
  <rect class="cls-1" x="33.44" y="90.57" width="32.06" height="3"/>
  <rect class="cls-1" x="47.26" y="40.89" width="10.23" height="3"/>
  <rect class="cls-1" x="60.09" y="40.89" width="20.65" height="3"/>
</svg>