<?xml version="1.0" encoding="UTF-8"?>
<svg id="Layer_1" data-name="Layer 1" xmlns="http://www.w3.org/2000/svg" viewBox="0 0 128 128">
  <defs>
    <style>
      .cls-1 {
        fill: #0069b1;
      }
    </style>
  </defs>
  <path class="cls-1" d="m87.45,76.53v21.88h-10.77v-18.39c0-5.04-4.1-9.14-9.14-9.14s-9.14,4.1-9.14,9.14v18.39H17.81v-33.94c1.54,1.35,3.56,2.18,5.76,2.18,3.02,0,5.69-1.54,7.26-3.87,1.58,2.33,4.25,3.87,7.27,3.87s5.69-1.54,7.26-3.87c1.58,2.33,4.24,3.87,7.26,3.87s5.69-1.54,7.26-3.87c1.58,2.33,4.24,3.87,7.26,3.87.48,0,.95-.05,1.41-.12-.71-.92-1.36-1.89-1.94-2.9-2.93-.27-5.24-2.74-5.24-5.74v-4.05h-3v4.05c0,3.18-2.59,5.77-5.76,5.77s-5.76-2.59-5.76-5.77v-4.05h-3v4.05c0,3.18-2.59,5.77-5.76,5.77s-5.77-2.59-5.77-5.77v-4.05h-3v4.05c0,3.18-2.59,5.77-5.76,5.77s-5.76-2.59-5.76-5.77v-6.25h45.43c0-.27-.02-.54-.02-.81,0-.74.04-1.47.1-2.19h-30.98v-8.65h33.28c.49-1.04,1.04-2.04,1.65-3H29.33v11.65h-10.18l8.06-15.28h42.86c1.01-1.09,2.12-2.1,3.3-3H25.41l-10.6,20.1v50.95h75.65v-24.88c-.5.03-1,.05-1.5.05s-1-.02-1.5-.05Zm-13.77,21.88h-12.29v-18.39c0-3.39,2.76-6.14,6.14-6.14s6.14,2.76,6.14,6.14v18.39Z"/>
  <path class="cls-1" d="m63.71,45.78c.2-1.02.47-2.02.8-3h-15.79v3h14.99Z"/>
  <rect class="cls-1" x="35.89" y="42.78" width="10.23" height="3"/>
  <rect class="cls-1" x="22.07" y="92.45" width="32.06" height="3"/>
  <path class="cls-1" d="m54.13,73.98H22.07v15.66h32.06v-15.66Zm-3,12.66h-26.06v-9.66h26.06v9.66Z"/>
  <path class="cls-1" d="m88.95,28.09c-12.56,0-22.74,10.18-22.74,22.74s10.18,22.74,22.74,22.74,22.74-10.18,22.74-22.74-10.18-22.74-22.74-22.74Zm0,42.48c-10.88,0-19.74-8.86-19.74-19.74s8.86-19.74,19.74-19.74,19.74,8.86,19.74,19.74-8.86,19.74-19.74,19.74Z"/>
  <polygon class="cls-1" points="101.38 40.01 82.92 58.47 76.53 52.08 74.41 54.2 82.92 62.71 103.5 42.13 101.38 40.01"/>
</svg>