<?xml version="1.0" encoding="UTF-8"?>
<svg id="Layer_1" data-name="Layer 1" xmlns="http://www.w3.org/2000/svg" viewBox="0 0 128 128">
  <defs>
    <style>
      .cls-1 {
        fill: #0069b1;
      }
    </style>
  </defs>
  <path class="cls-1" d="m27.98,97.1h32.06v-15.66H27.98v15.66Zm3-12.66h26.06v9.66h-26.06v-9.66Z"/>
  <rect class="cls-1" x="27.98" y="99.91" width="32.06" height="3"/>
  <rect class="cls-1" x="41.79" y="50.23" width="25.41" height="3"/>
  <path class="cls-1" d="m104.72,31.25l-.27-5.54-5.09-2.2-3.47-4.33-5.41,1.22-5.35-1.46-3.67,4.17-5.19,1.97-.52,5.52-3.04,4.64,1.53,2.57H31.32l-10.6,20.1v50.95h75.65v-50.88l-2.56-6.02,1.34.36,3.67-4.17,5.19-1.97.52-5.52,3.04-4.64-2.83-4.77Zm-25.89,30.03v4.05c0,3.18-2.59,5.76-5.76,5.76s-5.76-2.59-5.76-5.76v-4.05h-3v4.05c0,3.18-2.59,5.76-5.76,5.76s-5.76-2.59-5.76-5.76v-4.05h-3v4.05c0,3.18-2.59,5.76-5.77,5.76s-5.76-2.59-5.76-5.76v-4.05h-3v4.05c0,3.18-2.59,5.76-5.76,5.76s-5.76-2.59-5.76-5.76v-6.25h69.65v6.25c0,3.18-2.59,5.76-5.77,5.76s-5.76-2.59-5.76-5.76v-4.05h-3Zm-40.59-5.2v-8.65h40.59v8.65h-40.59Zm-5.12-15.28h42.45l.17,3.63h-40.51v11.65h-10.18l8.06-15.28Zm34.18,65.05v-18.39c0-3.39,2.76-6.14,6.14-6.14s6.14,2.76,6.14,6.14v18.39h-12.29Zm15.29,0v-18.39c0-5.04-4.1-9.14-9.14-9.14s-9.14,4.1-9.14,9.14v18.39H23.71v-33.94c1.54,1.35,3.56,2.18,5.76,2.18,3.02,0,5.69-1.54,7.26-3.87,1.58,2.33,4.24,3.87,7.26,3.87s5.69-1.54,7.27-3.87c1.58,2.33,4.24,3.87,7.26,3.87s5.69-1.54,7.26-3.87c1.58,2.33,4.24,3.87,7.26,3.87s5.69-1.54,7.26-3.87c1.58,2.33,4.24,3.87,7.26,3.87,2.21,0,4.22-.83,5.77-2.18v33.94h-10.77Zm9.71-49.77h-10.47v-7.18l2.54,3.17,5.41-1.22.33.09,2.19,5.14Zm9.29-16.45l-.41,4.4-4.14,1.57-2.92,3.32-4.27-1.16-4.32.97-2.77-3.45-4.06-1.75-.21-4.42-2.26-3.8,2.42-3.7.41-4.4,4.14-1.57,2.92-3.32,4.27,1.16,4.32-.97,2.77,3.45,4.06,1.75.21,4.42,2.26,3.8-2.42,3.7Z"/>
  <path class="cls-1" d="m85.78,34.4c-.56,0-.92.07-1.32.17l.12-1.74h4.28v-1.94h-6.18l-.29,4.96,1.28.85c.47-.2,1.05-.37,1.68-.37,1.08,0,1.78.5,1.78,1.38s-.65,1.41-1.68,1.41c-.89,0-1.64-.4-2.4-1.09l-1.34,1.6c.98.93,2.16,1.51,3.77,1.51,2.31,0,3.82-1.35,3.82-3.49,0-2.29-1.54-3.23-3.52-3.23Z"/>
  <path class="cls-1" d="m95.12,30.72c-2.69,0-4.48,2.29-4.48,5.22s1.77,5.19,4.46,5.19,4.48-2.29,4.48-5.22-1.77-5.19-4.46-5.19Zm0,8.41c-1.34,0-2.21-1.37-2.21-3.22s.85-3.19,2.18-3.19,2.21,1.38,2.21,3.22-.85,3.19-2.19,3.19Z"/>
</svg>