<?xml version="1.0" encoding="utf-8"?>
<!-- Generator: Adobe Illustrator 27.6.1, SVG Export Plug-In . SVG Version: 6.00 Build 0)  -->
<svg version="1.1" id="Layer_1" xmlns="http://www.w3.org/2000/svg" xmlns:xlink="http://www.w3.org/1999/xlink" x="0px" y="0px"
	 viewBox="0 0 128 128" style="enable-background:new 0 0 128 128;" xml:space="preserve">
<style type="text/css">
	.st0{fill:#026AB0;}
</style>
<g>
	<g>
		<path class="st0" d="M106.5,100.7H22.2V66.4c0-0.8,0.7-1.5,1.5-1.5c0.8,0,1.5,0.7,1.5,1.5v31.3h78.4V66.4c0-0.8,0.7-1.5,1.5-1.5
			c0.8,0,1.5,0.7,1.5,1.5V100.7z"/>
	</g>
	<g>
		<path class="st0" d="M58.9,100.7H34.1V65.3c0-0.8,0.7-1.5,1.5-1.5s1.5,0.7,1.5,1.5v32.5h19V66.3c0-0.8,0.7-1.5,1.5-1.5
			c0.8,0,1.5,0.7,1.5,1.5V100.7z"/>
	</g>
	<g>
		<path class="st0" d="M48.6,63.7h-1.5c-0.8,0-1.5-0.7-1.5-1.5c0-0.8,0.7-1.5,1.5-1.5h1.5c0.8,0,1.5,0.7,1.5,1.5
			C50.1,63.1,49.4,63.7,48.6,63.7z"/>
	</g>
	<g>
		<path class="st0" d="M73.6,79.2c-0.4,0-0.8-0.2-1.1-0.5c-0.6-0.6-0.5-1.5,0.1-2.1l12.3-11.5c0.6-0.6,1.5-0.5,2.1,0.1
			c0.6,0.6,0.5,1.5-0.1,2.1L74.6,78.8C74.3,79.1,74,79.2,73.6,79.2z"/>
	</g>
	<g>
		<path class="st0" d="M74,92.2c-0.4,0-0.7-0.1-1-0.4c-0.6-0.6-0.6-1.5,0-2.1l16-16c0.6-0.6,1.5-0.6,2.1,0c0.6,0.6,0.6,1.5,0,2.1
			l-16,16C74.7,92.1,74.3,92.2,74,92.2z"/>
	</g>
	<g>
		<path class="st0" d="M48.6,63.7h-1.5c-0.8,0-1.5-0.7-1.5-1.5c0-0.8,0.7-1.5,1.5-1.5h1.5c0.8,0,1.5,0.7,1.5,1.5
			C50.1,63.1,49.4,63.7,48.6,63.7z"/>
	</g>
	<g>
		<path class="st0" d="M40.8,86.4c-0.8,0-1.5-0.7-1.5-1.5v-7.5c0-0.8,0.7-1.5,1.5-1.5c0.8,0,1.5,0.7,1.5,1.5v7.5
			C42.3,85.7,41.6,86.4,40.8,86.4z"/>
	</g>
	<g>
		<path class="st0" d="M112.1,60.4c-0.6,0-1.1-0.3-1.3-0.9L97.9,30.2h-67L17.2,59.5c-0.3,0.7-1.2,1-1.9,0.7c-0.7-0.3-1-1.2-0.7-1.9
			l14.5-31h70.8l13.6,31.1c0.3,0.7,0,1.6-0.8,1.9C112.5,60.4,112.3,60.4,112.1,60.4z"/>
	</g>
	<g>
		<path class="st0" d="M32,60.4c-0.1,0-0.2,0-0.3,0c-0.8-0.2-1.3-0.9-1.1-1.7l6.1-30.2c0.2-0.8,0.9-1.3,1.7-1.1
			c0.8,0.2,1.3,0.9,1.1,1.7l-6.1,30.2C33.3,59.9,32.7,60.4,32,60.4z"/>
	</g>
	<g>
		<path class="st0" d="M96,60.4c-0.7,0-1.3-0.5-1.4-1.2l-6.3-30.2c-0.2-0.8,0.3-1.6,1.1-1.7c0.8-0.2,1.6,0.3,1.7,1.1l6.3,30.2
			c0.2,0.8-0.3,1.6-1.1,1.7C96.2,60.4,96.1,60.4,96,60.4z"/>
	</g>
	<g>
		<path class="st0" d="M79.9,60.4c-0.7,0-1.4-0.6-1.5-1.3l-3.1-30.2c-0.1-0.8,0.5-1.5,1.3-1.6c0.8-0.1,1.5,0.5,1.6,1.3l3.1,30.2
			c0.1,0.8-0.5,1.5-1.3,1.6C80,60.4,79.9,60.4,79.9,60.4z"/>
	</g>
	<g>
		<path class="st0" d="M63.9,60.4C63.9,60.4,63.9,60.4,63.9,60.4c-0.8,0-1.5-0.7-1.5-1.5l0-30.2c0-0.8,0.7-1.5,1.5-1.5c0,0,0,0,0,0
			c0.8,0,1.5,0.7,1.5,1.5l0,30.2C65.4,59.7,64.7,60.4,63.9,60.4z"/>
	</g>
	<g>
		<path class="st0" d="M48,60.4c0,0-0.1,0-0.1,0c-0.8-0.1-1.4-0.8-1.3-1.6l3.1-30.2c0.1-0.8,0.8-1.4,1.6-1.3
			c0.8,0.1,1.4,0.8,1.3,1.6l-3.1,30.2C49.3,59.8,48.7,60.4,48,60.4z"/>
	</g>
	<g>
		<path class="st0" d="M71.8,67.9c-5.3,0-9.4-3.9-9.4-9c0-0.8,0.7-1.5,1.5-1.5c0.8,0,1.5,0.7,1.5,1.5c0,3.4,2.8,6.1,6.4,6.1
			c3.6,0,6.6-2.7,6.6-6.1c0-0.8,0.7-1.5,1.5-1.5c0.8,0,1.5,0.7,1.5,1.5C81.4,63.9,77.1,67.9,71.8,67.9z"/>
	</g>
	<g>
		<path class="st0" d="M55.9,67.9c-5.3,0-9.4-3.9-9.4-9c0-0.8,0.7-1.5,1.5-1.5c0.8,0,1.5,0.7,1.5,1.5c0,3.4,2.8,6.1,6.4,6.1
			c3.6,0,6.6-2.7,6.6-6.1c0-0.8,0.7-1.5,1.5-1.5c0.8,0,1.5,0.7,1.5,1.5C65.4,63.9,61.1,67.9,55.9,67.9z"/>
	</g>
	<g>
		<path class="st0" d="M39.9,67.9c-5.3,0-9.4-3.9-9.4-9c0-0.8,0.7-1.5,1.5-1.5c0.8,0,1.5,0.7,1.5,1.5c0,3.4,2.8,6.1,6.4,6.1
			c3.6,0,6.6-2.7,6.6-6.1c0-0.8,0.7-1.5,1.5-1.5c0.8,0,1.5,0.7,1.5,1.5C49.4,63.9,45.2,67.9,39.9,67.9z"/>
	</g>
	<g>
		<path class="st0" d="M23.9,67.9c-5.2,0-9.5-4-9.5-9c0-0.8,0.7-1.5,1.5-1.5c0.8,0,1.5,0.7,1.5,1.5c0,3.3,3,6.1,6.6,6.1
			s6.6-2.7,6.6-6.1c0-0.8,0.7-1.5,1.5-1.5c0.8,0,1.5,0.7,1.5,1.5C33.5,63.9,29.2,67.9,23.9,67.9z"/>
	</g>
	<g>
		<path class="st0" d="M87.9,67.9c-0.8,0-1.6-0.1-2.4-0.3c-4.2-1-7.2-4.6-7.2-8.7c0-0.8,0.7-1.5,1.5-1.5c0.8,0,1.5,0.7,1.5,1.5
			c0,2.8,2,5.2,4.9,5.9c0.5,0.1,1.1,0.2,1.7,0.2c3.6,0,6.6-2.7,6.6-6.1c0-0.8,0.7-1.5,1.5-1.5c0.8,0,1.5,0.7,1.5,1.5
			C97.5,63.9,93.2,67.9,87.9,67.9z"/>
	</g>
	<g>
		<path class="st0" d="M104.1,67.9c-5.2,0-9.5-4-9.5-9c0-0.8,0.7-1.5,1.5-1.5c0.8,0,1.5,0.7,1.5,1.5c0,3.3,3,6.1,6.6,6.1
			c3.6,0,6.6-2.7,6.6-6.1c0-0.8,0.7-1.5,1.5-1.5c0.8,0,1.5,0.7,1.5,1.5C113.6,63.9,109.3,67.9,104.1,67.9z"/>
	</g>
</g>
</svg>
