<?xml version="1.0" encoding="UTF-8"?>
<svg id="Layer_1" data-name="Layer 1" xmlns="http://www.w3.org/2000/svg" viewBox="0 0 128 128">
  <defs>
    <style>
      .cls-1 {
        fill: #0069b1;
      }
    </style>
  </defs>
  <path class="cls-1" d="m74.4,38.58c4.12,0,7.35-4.54,7.35-10.33,0-4.45-.89-8.57-7.35-8.57s-7.35,4.12-7.35,8.57c0,5.79,3.23,10.33,7.35,10.33Zm0-15.9c3.27,0,4.35.81,4.35,5.57,0,3.97-1.99,7.33-4.35,7.33s-4.35-3.36-4.35-7.33c0-4.77,1.09-5.57,4.35-5.57Z"/>
  <rect class="cls-1" x="72.9" y="47.83" width="3" height="16.02"/>
  <path class="cls-1" d="m36.96,36.28c0-4.37.88-8.41,7.26-8.41s7.26,4.04,7.26,8.41v4.27h3v-4.27c0-7.57-3.45-11.41-10.26-11.41s-10.26,3.84-10.26,11.41v4.27h3v-4.27Z"/>
  <path class="cls-1" d="m44.22,43.08c-2.17,0-4-3.11-4-6.79h-3c0,5.49,3.07,9.79,7,9.79s7-4.3,7-9.79h-3c0,3.68-1.83,6.79-4,6.79Z"/>
  <path class="cls-1" d="m101.46,79.91c0-4.05-3.3-7.35-7.35-7.35h-9.58c-4.05,0-7.35,3.3-7.35,7.35v12.56h4.98v12.85h-6.25v-31.17h-3v31.17h-6.25v-52.94h-3v14.13h-3.26v-7.81c0-5.78-4.7-10.49-10.49-10.49h-11.37c-5.78,0-10.49,4.7-10.49,10.49v16.89h5.43l-5.27,16.66h5.81v16.05h20.39v-16.05h5.81l-5.27-16.66h5.43v-.05h3.26v32.76h32.83v-15.85h4.98v-12.56ZM31.05,58.71c0-2.44,1.17-4.6,2.98-5.97v19.86h-2.98v-13.89Zm5.98,33.56h5.69v13.05h-5.69v-13.05Zm8.69,13.05v-13.05h5.69v13.05h-5.69Zm7.19-16.05h-20.6l4.72-14.93v-22.96c.49-.1.99-.15,1.51-.15h11.37c.52,0,1.02.05,1.51.15v22.96l4.72,14.93h-3.22Zm4.48-16.66h-2.98v-19.86c1.81,1.37,2.98,3.53,2.98,5.96v13.89Zm3-.05v-3.04h3.26v3.04h-3.26Zm24.77,26.75h2.66v6.01h-2.66v-6.01Zm5.66,6.01v-6.01h2.66v6.01h-2.66Zm7.64-15.85h-1.98v-9.4h-3v16.25h-2.66v-6.21h-3v6.21h-2.66v-16.25h-3v9.4h-1.98v-9.56c0-2.4,1.95-4.35,4.35-4.35h9.58c2.4,0,4.35,1.95,4.35,4.35v9.56Z"/>
  <path class="cls-1" d="m82.16,63.04c0,3.81,3.13,8.25,7.16,8.25s7.16-4.35,7.16-8.25-3.21-7.16-7.16-7.16-7.16,3.21-7.16,7.16Zm11.32,0c0,2.36-1.92,5.25-4.16,5.25s-4.16-2.88-4.16-5.25,1.87-4.16,4.16-4.16,4.16,1.87,4.16,4.16Z"/>
  <path class="cls-1" d="m60.48,50.37c.81-3.6,4.02-6.31,7.87-6.31h4.55v1.93h3v-1.93h4.55c4.45,0,8.07,3.62,8.07,8.07v1.78h3v-1.78c0-6.1-4.96-11.07-11.07-11.07h-12.1c-4.65,0-8.63,2.88-10.27,6.95.89.68,1.7,1.47,2.4,2.36Z"/>
</svg>