<?xml version="1.0" encoding="UTF-8"?>
<svg id="Layer_1" data-name="Layer 1" xmlns="http://www.w3.org/2000/svg" viewBox="0 0 128 128">
  <defs>
    <style>
      .cls-1 {
        fill: #0069b1;
      }
    </style>
  </defs>
  <path class="cls-1" d="m81.07,40.95c2.18-3.4,3.34-7.32,3.34-11.34s-1.15-7.94-3.34-11.34l-2.52,1.62c1.87,2.91,2.86,6.27,2.86,9.72s-.99,6.8-2.86,9.72l2.52,1.62Z"/>
  <path class="cls-1" d="m75.27,34.7c.98-1.53,1.5-3.29,1.5-5.09s-.52-3.57-1.5-5.09l-2.52,1.62c.67,1.04,1.02,2.24,1.02,3.47s-.35,2.43-1.02,3.47l2.52,1.62Z"/>
  <path class="cls-1" d="m49.46,39.33c-1.87-2.91-2.86-6.27-2.86-9.72s.99-6.8,2.86-9.72l-2.52-1.62c-2.18,3.4-3.34,7.32-3.34,11.34s1.15,7.94,3.34,11.34l2.52-1.62Z"/>
  <path class="cls-1" d="m55.25,33.08c-.67-1.04-1.02-2.24-1.02-3.47s.35-2.43,1.02-3.47l-2.52-1.62c-.98,1.53-1.5,3.29-1.5,5.09s.52,3.56,1.5,5.09l2.52-1.62Z"/>
  <path class="cls-1" d="m85.24,107.42l-19.74-67.82v-3.96c2.71-.67,4.72-3.12,4.72-6.03,0-3.43-2.79-6.22-6.22-6.22s-6.22,2.79-6.22,6.22c0,2.91,2.01,5.35,4.72,6.03v3.96l-19.74,67.82h-5.76v3h54v-3h-5.76Zm-13.38-31.28l-11.44-5.37,9.69-4.59,2.76,9.48-1.01.48Zm-2.75-12.8l-12.06,5.71,2.91-10,9.15,4.29Zm-8.3-7.21l3.19-10.95,4.19,14.41-7.38-3.46Zm-4.88,16.76l.97-.46,11.44,5.37-16.05,7.6,3.64-12.51Zm-4.76,16.35l5.85-2.77,11.44,5.36-20.93,9.91,3.64-12.51Zm20.81.93l-11.44-5.36,13.18-6.24,2.76,9.48-4.5,2.13Zm-11.2-60.57c0-1.77,1.44-3.22,3.22-3.22s3.22,1.44,3.22,3.22-1.44,3.22-3.22,3.22-3.22-1.44-3.22-3.22Zm-14.37,75.99l30.91-14.63,4.79,16.45h-36.23l.53-1.82Z"/>
</svg>