<?xml version="1.0" encoding="UTF-8"?>
<svg id="Layer_1" data-name="Layer 1" xmlns="http://www.w3.org/2000/svg" viewBox="0 0 128 128">
  <defs>
    <style>
      .cls-1 {
        fill: #0069b1;
      }
    </style>
  </defs>
  <path class="cls-1" d="m64.15,79.48c8.1,0,14.69-6.59,14.69-14.69s-6.59-14.69-14.69-14.69-14.69,6.59-14.69,14.69,6.59,14.69,14.69,14.69Zm0-26.38c6.45,0,11.69,5.24,11.69,11.69s-5.24,11.69-11.69,11.69-11.69-5.24-11.69-11.69,5.24-11.69,11.69-11.69Z"/>
  <path class="cls-1" d="m60.11,67.53l-1.27,1.8c1.35,1.07,2.96,1.77,4.68,1.96v1.98h1.73v-1.96c2.52-.22,4.22-1.67,4.22-3.85s-1.29-3.35-4.3-4.11v-3.77c.93.2,1.82.62,2.7,1.27l1.11-1.86c-1.09-.81-2.28-1.33-3.73-1.51v-1.19h-1.73v1.15c-2.48.2-4.16,1.67-4.16,3.81s1.35,3.33,4.24,4.09v3.89c-1.29-.2-2.36-.79-3.49-1.71Zm5.06-1.8c1.55.46,1.96.99,1.96,1.88,0,.95-.71,1.61-1.96,1.71v-3.59Zm-3.47-4.6c0-.87.65-1.57,1.9-1.67v3.49c-1.53-.46-1.9-.99-1.9-1.82Z"/>
  <path class="cls-1" d="m82.65,20.52h-37c-3.58,0-6.5,2.92-6.5,6.5v75.55c0,3.58,2.92,6.5,6.5,6.5h37c3.58,0,6.5-2.92,6.5-6.5V27.02c0-3.58-2.92-6.5-6.5-6.5Zm-37,3h37c1.93,0,3.5,1.57,3.5,3.5v10.39h-44v-10.39c0-1.93,1.57-3.5,3.5-3.5Zm40.5,16.89v49.09h-44v-49.09h44Zm-3.5,65.66h-37c-1.93,0-3.5-1.57-3.5-3.5v-10.08h44v10.08c0,1.93-1.57,3.5-3.5,3.5Z"/>
  <rect class="cls-1" x="55.36" y="98.14" width="16.84" height="3"/>
  <rect class="cls-1" x="55.36" y="29.22" width="4.6" height="3"/>
  <rect class="cls-1" x="63.66" y="29.22" width="9.69" height="3"/>
</svg>