<?xml version="1.0" encoding="UTF-8"?>
<svg id="Layer_1" data-name="Layer 1" xmlns="http://www.w3.org/2000/svg" viewBox="0 0 128 128">
  <defs>
    <style>
      .cls-1 {
        fill: #0069b1;
      }
    </style>
  </defs>
  <rect class="cls-1" x="55.36" y="98.14" width="16.84" height="3"/>
  <rect class="cls-1" x="55.36" y="29.22" width="4.6" height="3"/>
  <rect class="cls-1" x="63.66" y="29.22" width="9.69" height="3"/>
  <path class="cls-1" d="m97.47,23.56c0-6.27-5.1-11.37-11.37-11.37-5.21,0-9.6,3.53-10.94,8.32h-29.52c-3.58,0-6.5,2.92-6.5,6.5v75.55c0,3.58,2.92,6.5,6.5,6.5h37c3.58,0,6.5-2.92,6.5-6.5V34.5c4.79-1.34,8.32-5.73,8.32-10.94Zm-55.32,16.85h44v49.09h-44v-49.09Zm40.5,65.66h-37c-1.93,0-3.5-1.57-3.5-3.5v-10.08h44v10.08c0,1.93-1.57,3.5-3.5,3.5Zm3.5-68.66h-44v-10.39c0-1.93,1.57-3.5,3.5-3.5h29.09s0,.03,0,.04c0,6.27,5.1,11.36,11.36,11.36.02,0,.03,0,.04,0v2.49Zm-.04-5.48c-4.61,0-8.36-3.75-8.36-8.36s3.75-8.37,8.36-8.37,8.37,3.75,8.37,8.37-3.75,8.36-8.37,8.36Z"/>
  <polygon class="cls-1" points="90.69 18.37 83.49 25.57 81.52 23.6 79.4 25.72 83.49 29.81 92.82 20.49 90.69 18.37"/>
</svg>