<?xml version="1.0" encoding="UTF-8"?>
<svg id="Layer_1" data-name="Layer 1" xmlns="http://www.w3.org/2000/svg" viewBox="0 0 128 128">
  <defs>
    <style>
      .cls-1 {
        fill: #0069b1;
      }
    </style>
  </defs>
  <path class="cls-1" d="m64,48.13c-4.27,0-7.74,3.47-7.74,7.74s3.47,7.74,7.74,7.74,7.74-3.47,7.74-7.74-3.47-7.74-7.74-7.74Zm0,12.47c-2.61,0-4.74-2.12-4.74-4.74s2.13-4.74,4.74-4.74,4.74,2.12,4.74,4.74-2.13,4.74-4.74,4.74Zm-22-25.72l-3,3v-11.65c0-3.58,2.92-6.5,6.5-6.5h37c3.58,0,6.5,2.92,6.5,6.5v11.65l-3-3v-8.65c0-1.93-1.57-3.5-3.5-3.5h-37c-1.93,0-3.5,1.57-3.5,3.5v8.65Zm44,53.82h-44v-12.69l-3-3v28.77c0,3.58,2.92,6.5,6.5,6.5h37c3.58,0,6.5-2.92,6.5-6.5v-28.77l-3,3v12.69Zm0,13.08c0,1.93-1.57,3.5-3.5,3.5h-37c-1.93,0-3.5-1.57-3.5-3.5v-10.08h44v10.08Zm-13.96-1.43h-16.84v-3h16.84v3Zm13.91-51.25c-.47-1.63-1.12-3.2-1.94-4.68l3.1-4.18-7.9-7.9-4.18,3.1c-1.49-.82-3.05-1.47-4.68-1.94l-.77-5.14h-11.17l-.77,5.14c-1.63.47-3.2,1.12-4.68,1.94l-4.18-3.1-7.9,7.9,3.1,4.18c-.82,1.49-1.47,3.05-1.94,4.68l-5.14.77v11.17l5.14.76c.47,1.63,1.12,3.2,1.94,4.68l-3.1,4.18,7.9,7.9,4.18-3.1c1.49.82,3.06,1.47,4.68,1.94l.76,5.14h11.17l.77-5.14c1.63-.47,3.2-1.12,4.68-1.94l4.18,3.1,7.9-7.9-3.1-4.18c.82-1.49,1.47-3.06,1.94-4.68l5.14-.76v-11.17l-5.14-.77Zm2.14,9.35l-4.56.68-.24.98c-.48,2.01-1.28,3.92-2.36,5.69l-.53.86,2.75,3.71-4.24,4.24-3.71-2.75-.86.53c-1.77,1.08-3.68,1.88-5.69,2.36l-.98.24-.68,4.56h-6l-.68-4.56-.98-.24c-2.01-.48-3.92-1.28-5.69-2.36l-.86-.53-3.71,2.75-4.24-4.24,2.75-3.71-.53-.86c-1.08-1.77-1.88-3.68-2.36-5.69l-.24-.98-4.56-.68v-6l4.56-.68.24-.98c.48-2.01,1.28-3.92,2.36-5.69l.53-.86-2.75-3.71,4.24-4.24,3.71,2.75.86-.53c1.77-1.08,3.68-1.88,5.69-2.36l.98-.24.68-4.56h6l.68,4.56.98.24c2.01.48,3.92,1.28,5.69,2.36l.86.53,3.71-2.75,4.24,4.24-2.75,3.71.53.86c1.08,1.77,1.88,3.68,2.36,5.69l.24.98,4.56.68v6Z"/>
</svg>