<?xml version="1.0" encoding="utf-8"?>
<!-- Generator: Adobe Illustrator 27.6.1, SVG Export Plug-In . SVG Version: 6.00 Build 0)  -->
<svg version="1.1" id="Layer_1" xmlns="http://www.w3.org/2000/svg" xmlns:xlink="http://www.w3.org/1999/xlink" x="0px" y="0px"
	 viewBox="0 0 128 128" style="enable-background:new 0 0 128 128;" xml:space="preserve">
<style type="text/css">
	.st0{fill:#0069B1;}
</style>
<g>
	<path class="st0" d="M56.1,27.1c0.6,0,1.2-0.5,1.2-1.2c0-0.6-0.5-1.2-1.2-1.2c-0.6,0-1.2,0.5-1.2,1.2
		C54.9,26.6,55.4,27.1,56.1,27.1z"/>
	<path class="st0" d="M65.5,100.6c-0.4,0-2.6,0-3,0c-0.9,0-1.7,0.8-1.7,1.7c0,0.9,0.8,1.7,1.7,1.7c0.4,0,2.6,0,3,0
		c0.9,0,1.7-0.8,1.7-1.7C67.2,101.3,66.4,100.6,65.5,100.6z"/>
	<path class="st0" d="M61.6,27.1h11.3c0.6,0,1.2-0.5,1.2-1.2c0-0.6-0.5-1.2-1.2-1.2H61.6c-0.6,0-1.2,0.5-1.2,1.2
		C60.5,26.6,61,27.1,61.6,27.1z"/>
	<path class="st0" d="M82.9,17.7H45.1c-3.9,0-7,3.1-7,7v78.7c0,3.9,3.1,7,7,7h37.7c3.9,0,7-3.1,7-7V24.6
		C89.9,20.8,86.7,17.7,82.9,17.7z M87.8,103.4c0,2.7-2.2,4.9-4.9,4.9H45.1c-2.7,0-4.9-2.2-4.9-4.9V24.6c0-2.7,2.2-4.9,4.9-4.9h37.7
		c2.7,0,4.9,2.2,4.9,4.9V103.4z"/>
	<path class="st0" d="M80.6,93.6H47.4c-0.6,0-1,0.5-1,1c0,0.6,0.5,1,1,1h33.1c0.6,0,1-0.5,1-1C81.6,94.1,81.1,93.6,80.6,93.6z"/>
	<path class="st0" d="M82.1,32H45.9c-0.6,0-1,0.5-1,1c0,0.6,0.5,1,1,1h36.1c0.6,0,1-0.5,1-1C83.1,32.4,82.6,32,82.1,32z"/>
	<path class="st0" d="M50.8,76.3c0,0.5,0.4,0.9,0.9,0.9h6.1c0.5,0,0.9-0.4,0.9-0.9v-6.1c0-0.5-0.4-0.9-0.9-0.9h-6.1
		c-0.5,0-0.9,0.4-0.9,0.9V76.3z M52.7,71.1h4.2v4.2h-4.2V71.1z"/>
	<path class="st0" d="M57.8,50.8h-6.1c-0.5,0-0.9,0.4-0.9,0.9v6.1c0,0.5,0.4,0.9,0.9,0.9h6.1c0.5,0,0.9-0.4,0.9-0.9v-6.1
		C58.7,51.2,58.3,50.8,57.8,50.8z M56.9,56.9h-4.2v-4.2h4.2V56.9z"/>
	<path class="st0" d="M77.2,51.7c0-0.5-0.4-0.9-0.9-0.9h-6.1c-0.5,0-0.9,0.4-0.9,0.9v6.1c0,0.5,0.4,0.9,0.9,0.9h6.1
		c0.5,0,0.9-0.4,0.9-0.9V51.7z M75.3,56.9h-4.2v-4.2h4.2V56.9z"/>
	<path class="st0" d="M61.2,50.8c-0.5,0-0.9,0.4-0.9,0.9v3c0,0.5,0.4,0.9,0.9,0.9H64c0.5,0,0.9-0.4,0.9-0.9s-0.4-0.9-0.9-0.9h-1.9
		v-2.1C62.1,51.2,61.7,50.8,61.2,50.8z"/>
	<path class="st0" d="M51.7,62h2.1c0.5,0,0.9-0.4,0.9-0.9c0-0.5-0.4-0.9-0.9-0.9h-2.1c-0.5,0-0.9,0.4-0.9,0.9
		C50.8,61.6,51.2,62,51.7,62z"/>
	<path class="st0" d="M60.3,60.1h-2.5c-0.5,0-0.9,0.4-0.9,0.9V64c0,0.5,0.4,0.9,0.9,0.9c0.5,0,0.9-0.4,0.9-0.9v-2h2.5
		c0.5,0,0.9-0.4,0.9-0.9v-3.3c0-0.5-0.4-0.9-0.9-0.9c-0.5,0-0.9,0.4-0.9,0.9V60.1z"/>
	<path class="st0" d="M67.8,61.1v-3.3c0-0.5-0.4-0.9-0.9-0.9H64c-0.5,0-0.9,0.4-0.9,0.9c0,0.5,0.4,0.9,0.9,0.9h2v1.4h-2
		c-0.5,0-0.9,0.4-0.9,0.9v2h-1.9c-0.5,0-0.9,0.4-0.9,0.9v2.8c0,0.5,0.4,0.9,0.9,0.9c0.5,0,0.9-0.4,0.9-0.9v-1.8H64
		c0.5,0,0.9-0.4,0.9-0.9v-2h2C67.4,62,67.8,61.6,67.8,61.1z"/>
	<path class="st0" d="M66.9,50.8h-1.4c-0.5,0-0.9,0.4-0.9,0.9c0,0.5,0.4,0.9,0.9,0.9H66v2.1c0,0.5,0.4,0.9,0.9,0.9
		c0.5,0,0.9-0.4,0.9-0.9v-3C67.8,51.2,67.4,50.8,66.9,50.8z"/>
	<path class="st0" d="M50.8,66.8c0,0.5,0.4,0.9,0.9,0.9c0.5,0,0.9-0.4,0.9-0.9V64c0-0.5-0.4-0.9-0.9-0.9c-0.5,0-0.9,0.4-0.9,0.9
		V66.8z"/>
	<path class="st0" d="M57.8,66.5h-1.5v-1.8c0-0.5-0.4-0.9-0.9-0.9s-0.9,0.4-0.9,0.9v2.8c0,0.5,0.4,0.9,0.9,0.9h2.5
		c0.5,0,0.9-0.4,0.9-0.9S58.3,66.5,57.8,66.5z"/>
	<path class="st0" d="M61.2,71.1H64c0.5,0,0.9-0.4,0.9-0.9v-2.7c0-0.5-0.4-0.9-0.9-0.9c-0.5,0-0.9,0.4-0.9,0.9v1.8h-1.9
		c-0.5,0-0.9,0.4-0.9,0.9C60.3,70.7,60.7,71.1,61.2,71.1z"/>
	<path class="st0" d="M61.2,75.3c-0.5,0-0.9,0.4-0.9,0.9c0,0.5,0.4,0.9,0.9,0.9H64c0.5,0,0.9-0.4,0.9-0.9v-3c0-0.5-0.4-0.9-0.9-0.9
		h-2.9c-0.5,0-0.9,0.4-0.9,0.9c0,0.5,0.4,0.9,0.9,0.9h1.9v1.2H61.2z"/>
	<path class="st0" d="M70.2,63.2H72c0.5,0,0.9-0.4,0.9-0.9c0-0.5-0.4-0.9-0.9-0.9h-1.8c-0.5,0-0.9,0.4-0.9,0.9
		C69.3,62.8,69.7,63.2,70.2,63.2z"/>
	<path class="st0" d="M76.3,77.2c0.5,0,0.9-0.4,0.9-0.9V74c0-0.5-0.4-0.9-0.9-0.9h-2.1v-2.9c0-0.5-0.4-0.9-0.9-0.9
		c-0.5,0-0.9,0.4-0.9,0.9V74c0,0.5,0.4,0.9,0.9,0.9h2.1v1.3C75.3,76.8,75.8,77.2,76.3,77.2z"/>
	<path class="st0" d="M70.2,74.2c0.5,0,0.9-0.4,0.9-0.9c0-0.5-0.4-0.9-0.9-0.9h-1.6c-0.5,0-0.9,0.4-0.9,0.9v2.1h-0.7
		c-0.5,0-0.9,0.4-0.9,0.9c0,0.5,0.4,0.9,0.9,0.9h3.3c0.5,0,0.9-0.4,0.9-0.9c0-0.5-0.4-0.9-0.9-0.9h-0.7v-1.2H70.2z"/>
	<path class="st0" d="M69.3,69.3h-1.4V64c0-0.5-0.4-0.9-0.9-0.9c-0.5,0-0.9,0.4-0.9,0.9v6.2c0,0.5,0.4,0.9,0.9,0.9h3.3
		c0.5,0,0.9-0.4,0.9-0.9v-4.1c0-0.5-0.4-0.9-0.9-0.9c-0.5,0-0.9,0.4-0.9,0.9V69.3z"/>
	<path class="st0" d="M77.2,65.4c0-0.5-0.4-0.9-0.9-0.9c-0.5,0-0.9,0.4-0.9,0.9v0.4h-2.1c-0.5,0-0.9,0.4-0.9,0.9
		c0,0.5,0.4,0.9,0.9,0.9h2.1v2.5c0,0.5,0.4,0.9,0.9,0.9c0.5,0,0.9-0.4,0.9-0.9V65.4z"/>
	<path class="st0" d="M77.2,60.9c0-0.5-0.4-0.9-0.9-0.9h-1.5c-0.5,0-0.9,0.4-0.9,0.9c0,0.5,0.4,0.9,0.9,0.9h0.6v0.7
		c0,0.5,0.4,0.9,0.9,0.9c0.5,0,0.9-0.4,0.9-0.9V60.9z"/>
	<path class="st0" d="M54.9,45.9h-8c-0.6,0-1,0.5-1,1v8c0,0.6,0.5,1,1,1c0.6,0,1-0.5,1-1v-7h7c0.6,0,1-0.5,1-1
		C55.9,46.4,55.5,45.9,54.9,45.9z"/>
	<path class="st0" d="M81.2,45.9h-8c-0.6,0-1,0.5-1,1c0,0.6,0.5,1,1,1h7v7c0,0.6,0.5,1,1,1c0.6,0,1-0.5,1-1v-8
		C82.2,46.4,81.7,45.9,81.2,45.9z"/>
	<path class="st0" d="M54.8,82.2c0.6,0,1-0.5,1-1c0-0.6-0.5-1-1-1h-7v-7c0-0.6-0.5-1-1-1c-0.6,0-1,0.5-1,1v8c0,0.6,0.5,1,1,1H54.8z"
		/>
	<path class="st0" d="M81.1,72.2c-0.6,0-1,0.5-1,1v7h-7c-0.6,0-1,0.5-1,1c0,0.6,0.5,1,1,1h8c0.6,0,1-0.5,1-1v-8
		C82.1,72.6,81.7,72.2,81.1,72.2z"/>
</g>
</svg>
