<?xml version="1.0" encoding="UTF-8"?>
<svg id="Layer_1" data-name="Layer 1" xmlns="http://www.w3.org/2000/svg" viewBox="0 0 128 128">
  <defs>
    <style>
      .cls-1 {
        fill: #0069b1;
      }
    </style>
  </defs>
  <path class="cls-1" d="m82.65,19.72h-37c-3.58,0-6.5,2.92-6.5,6.5v75.55c0,3.58,2.92,6.5,6.5,6.5h37c3.58,0,6.5-2.92,6.5-6.5V26.22c0-3.58-2.92-6.5-6.5-6.5Zm-37,3h37c1.93,0,3.5,1.57,3.5,3.5v10.39h-44v-10.39c0-1.93,1.57-3.5,3.5-3.5Zm40.5,16.89v49.09h-44v-49.09h44Zm-3.5,65.66h-37c-1.93,0-3.5-1.57-3.5-3.5v-10.08h44v10.08c0,1.93-1.57,3.5-3.5,3.5Z"/>
  <rect class="cls-1" x="55.36" y="97.35" width="16.84" height="3"/>
  <rect class="cls-1" x="55.36" y="28.43" width="4.6" height="3"/>
  <rect class="cls-1" x="63.66" y="28.43" width="9.69" height="3"/>
  <path class="cls-1" d="m52,82.57h27.49v-30.99h-30.99v27.49c0,1.93,1.57,3.5,3.5,3.5Zm24.49-13.74h-9.82c-.97,0-1.76-.79-1.76-1.76s.79-1.76,1.76-1.76h9.82v3.52Zm-24.99-14.26h24.99v7.74h-9.82c-2.63,0-4.76,2.13-4.76,4.76s2.13,4.76,4.76,4.76h9.82v7.74h-24.49c-.28,0-.5-.22-.5-.5v-24.49Z"/>
  <path class="cls-1" d="m50,48.43h29.49v-3h-29.49c-.83,0-1.5.67-1.5,1.5s.67,1.5,1.5,1.5Z"/>
</svg>