<?xml version="1.0" encoding="utf-8"?>
<!-- Generator: Adobe Illustrator 27.6.1, SVG Export Plug-In . SVG Version: 6.00 Build 0)  -->
<svg version="1.1" id="Layer_1" xmlns="http://www.w3.org/2000/svg" xmlns:xlink="http://www.w3.org/1999/xlink" x="0px" y="0px"
	 viewBox="0 0 128 128" style="enable-background:new 0 0 128 128;" xml:space="preserve">
<style type="text/css">
	.st0{fill:#0069B1;}
</style>
<g>
	<g>
		<g>
			<g>
				<path class="st0" d="M71.2,107.5H35.8c-4.5,0-8.2-3.7-8.2-8.2V28.7c0-4.5,3.7-8.2,8.2-8.2h35.4c4.5,0,8.2,3.7,8.2,8.2v8.5
					c0,0.6-0.5,1.2-1.2,1.2c-0.6,0-1.2-0.5-1.2-1.2v-8.5c0-3.2-2.6-5.9-5.9-5.9H35.8c-3.2,0-5.9,2.6-5.9,5.9v70.5
					c0,3.2,2.6,5.9,5.9,5.9h35.4c3.2,0,5.9-2.6,5.9-5.9v-14c0-0.6,0.5-1.2,1.2-1.2c0.6,0,1.2,0.5,1.2,1.2v14
					C79.4,103.8,75.8,107.5,71.2,107.5z"/>
			</g>
			<g>
				<path class="st0" d="M78.2,92.4H28.8c-0.6,0-1.2-0.5-1.2-1.2c0-0.6,0.5-1.2,1.2-1.2h49.4c0.6,0,1.2,0.5,1.2,1.2
					C79.4,91.9,78.9,92.4,78.2,92.4z"/>
			</g>
			<g>
				<path class="st0" d="M56.5,30h-5.9c-0.6,0-1.2-0.5-1.2-1.2c0-0.6,0.5-1.2,1.2-1.2h5.9c0.6,0,1.2,0.5,1.2,1.2
					C57.7,29.5,57.1,30,56.5,30z"/>
			</g>
			<g>
				<path class="st0" d="M54,103c-2.3,0-4.2-1.9-4.2-4.2c0-2.3,1.9-4.2,4.2-4.2c2.3,0,4.2,1.9,4.2,4.2C58.1,101.1,56.3,103,54,103z
					 M54,97c-1,0-1.8,0.8-1.8,1.8c0,1,0.8,1.8,1.8,1.8c1,0,1.8-0.8,1.8-1.8C55.8,97.8,55,97,54,97z"/>
			</g>
		</g>
	</g>
	<g>
		<path class="st0" d="M96.3,81.2H45.8c-2.2,0-4.1-1.8-4.1-4.1V45.4c0-2.2,1.8-4.1,4.1-4.1h50.5c2.2,0,4.1,1.8,4.1,4.1v31.8
			C100.4,79.4,98.6,81.2,96.3,81.2z M45.8,43.7c-1,0-1.7,0.8-1.7,1.7v31.8c0,1,0.8,1.7,1.7,1.7h50.5c1,0,1.7-0.8,1.7-1.7V45.4
			c0-1-0.8-1.7-1.7-1.7H45.8z"/>
	</g>
	<g>
		<path class="st0" d="M99.2,49.7H42.9c-0.6,0-1.2-0.5-1.2-1.2s0.5-1.2,1.2-1.2h56.3c0.6,0,1.2,0.5,1.2,1.2S99.9,49.7,99.2,49.7z"/>
	</g>
	<g>
		<path class="st0" d="M99.2,57.6H42.9c-0.6,0-1.2-0.5-1.2-1.2c0-0.6,0.5-1.2,1.2-1.2h56.3c0.6,0,1.2,0.5,1.2,1.2
			C100.4,57.1,99.9,57.6,99.2,57.6z"/>
	</g>
	<g>
		<g>
			<path class="st0" d="M63.4,65.1H48.4c-0.6,0-1.2-0.5-1.2-1.2c0-0.6,0.5-1.2,1.2-1.2h14.9c0.6,0,1.2,0.5,1.2,1.2
				C64.5,64.6,64,65.1,63.4,65.1z"/>
		</g>
		<g>
			<path class="st0" d="M63.4,71.3H48.4c-0.6,0-1.2-0.5-1.2-1.2c0-0.6,0.5-1.2,1.2-1.2h14.9c0.6,0,1.2,0.5,1.2,1.2
				C64.5,70.8,64,71.3,63.4,71.3z"/>
		</g>
	</g>
	<g>
		<path class="st0" d="M86.6,72.8c-3.2,0-5.7-2.6-5.7-5.7c0-3.2,2.6-5.7,5.7-5.7c3.2,0,5.7,2.6,5.7,5.7
			C92.3,70.2,89.7,72.8,86.6,72.8z M86.6,63.6c-1.9,0-3.4,1.5-3.4,3.4c0,1.9,1.5,3.4,3.4,3.4c1.9,0,3.4-1.5,3.4-3.4
			C90,65.2,88.4,63.6,86.6,63.6z"/>
	</g>
</g>
</svg>
