<?xml version="1.0" encoding="utf-8"?>
<!-- Generator: Adobe Illustrator 27.6.1, SVG Export Plug-In . SVG Version: 6.00 Build 0)  -->
<svg version="1.1" id="Layer_1" xmlns="http://www.w3.org/2000/svg" xmlns:xlink="http://www.w3.org/1999/xlink" x="0px" y="0px"
	 viewBox="0 0 128 128" style="enable-background:new 0 0 128 128;" xml:space="preserve">
<style type="text/css">
	.st0{fill:#0069B1;}
</style>
<g>
	<g>
		<g>
			<g>
				<g>
					<path class="st0" d="M35,103.5c-0.8,0-1.4-0.6-1.4-1.4V68.3c0-0.4,0.1-0.7,0.4-1l13-13c0.6-0.6,1.5-0.6,2,0s0.6,1.5,0,2
						L36.4,68.8v33.3C36.4,102.9,35.8,103.5,35,103.5z"/>
				</g>
				<g>
					<path class="st0" d="M53.6,93.3c-0.4,0-0.7-0.1-1-0.4c-0.6-0.6-0.6-1.5,0-2c1.8-1.8,2.6-3.6,2.5-5.3C55,82.9,52.7,81,52.7,81
						c-0.3-0.3-0.5-0.6-0.5-1c0-0.4,0.1-0.8,0.4-1.1l7.7-7.7c4-4,2.2-8.3,0.9-10.3L45.1,76.9c-0.6,0.6-1.5,0.6-2,0
						c-0.6-0.6-0.6-1.5,0-2l17.2-17.2c0.3-0.3,0.6-0.4,1-0.4c0.4,0,0.8,0.2,1,0.5c2.6,2.8,5.8,9.6,0,15.4l-6.7,6.7
						c1,1.1,2.2,3,2.4,5.5c0.1,2.6-1,5.1-3.4,7.5C54.3,93.1,53.9,93.3,53.6,93.3z"/>
				</g>
				<g>
					<path class="st0" d="M64.2,103.5c-0.8,0-1.4-0.6-1.4-1.4V96c0-0.7,0.6-1.4,1.3-1.4c0.6,0,5.9-0.6,5.9-5.9V82
						c0-0.8,0.6-1.4,1.4-1.4c0.8,0,1.4,0.6,1.4,1.4v6.8c0,5.6-4.2,7.9-7.3,8.5v4.9C65.6,102.9,65,103.5,64.2,103.5z"/>
				</g>
				<g>
					<path class="st0" d="M67.8,112.3c-0.8,0-1.4-0.6-1.4-1.4v-7.3H32.6v7.3c0,0.8-0.6,1.4-1.4,1.4s-1.4-0.6-1.4-1.4v-8.8
						c0-0.8,0.6-1.4,1.4-1.4h36.7c0.8,0,1.4,0.6,1.4,1.4v8.8C69.2,111.6,68.6,112.3,67.8,112.3z"/>
				</g>
				<g>
					<g>
						<path class="st0" d="M80.4,83.1h-20c-0.8,0-1.4-0.6-1.4-1.4c0-0.8,0.6-1.4,1.4-1.4h20c1.2,0,2.2-1,2.2-2.2V66.8
							c0-0.8,0.6-1.4,1.4-1.4c0.8,0,1.4,0.6,1.4,1.4v11.3C85.4,80.8,83.2,83.1,80.4,83.1z"/>
					</g>
					<g>
						<path class="st0" d="M48,67.7c-0.8,0-1.4-0.6-1.4-1.4V20.7c0-2.8,2.2-5,5-5h28.9c2.8,0,5,2.2,5,5v10.7c0,0.8-0.6,1.4-1.4,1.4
							c-0.8,0-1.4-0.6-1.4-1.4V20.7c0-1.2-1-2.2-2.2-2.2H51.5c-1.2,0-2.2,1-2.2,2.2v45.6C49.4,67.1,48.7,67.7,48,67.7z"/>
					</g>
					<g>
						<path class="st0" d="M84,73.5H69c-0.8,0-1.4-0.6-1.4-1.4c0-0.8,0.6-1.4,1.4-1.4h13.6v-3.8c0-0.8,0.6-1.4,1.4-1.4
							c0.8,0,1.4,0.6,1.4,1.4V72C85.4,72.8,84.8,73.5,84,73.5z"/>
					</g>
					<g>
						<path class="st0" d="M48,67.9c-0.8,0-1.4-0.6-1.4-1.4V23.9c0-0.8,0.6-1.4,1.4-1.4H84c0.8,0,1.4,0.6,1.4,1.4v7.5
							c0,0.8-0.6,1.4-1.4,1.4c-0.8,0-1.4-0.6-1.4-1.4v-6.1H49.4v41.2C49.4,67.3,48.7,67.9,48,67.9z"/>
					</g>
					<g>
						<path class="st0" d="M67,21.8h-2c-0.8,0-1.4-0.6-1.4-1.4c0-0.8,0.6-1.4,1.4-1.4h2c0.8,0,1.4,0.6,1.4,1.4
							C68.4,21.2,67.8,21.8,67,21.8z"/>
					</g>
					<g>
						<path class="st0" d="M69.2,78.3h-6.5c-0.8,0-1.4-0.6-1.4-1.4c0-0.8,0.6-1.4,1.4-1.4h6.5c0.8,0,1.4,0.6,1.4,1.4
							C70.7,77.6,70,78.3,69.2,78.3z"/>
					</g>
				</g>
			</g>
		</g>
	</g>
	<g>
		<g>
			<path class="st0" d="M92.9,62.4H67.6c-0.8,0-1.4-0.6-1.4-1.4c0-0.8,0.6-1.4,1.4-1.4h25.3c1.4,0,2.5-1.1,2.5-2.5V40
				c0-1.4-1.1-2.5-2.5-2.5H62.5c-1.4,0-2.5,1.1-2.5,2.5v14.4c0,0.8-0.6,1.4-1.4,1.4c-0.8,0-1.4-0.6-1.4-1.4V40
				c0-2.9,2.4-5.3,5.3-5.3h30.4c2.9,0,5.3,2.4,5.3,5.3v17.1C98.3,60,95.9,62.4,92.9,62.4z"/>
		</g>
		<g>
			<path class="st0" d="M96.8,57.9H66c-0.8,0-1.4-0.6-1.4-1.4c0-0.8,0.6-1.4,1.4-1.4h29.4v-1.5H60v0.7c0,0.8-0.6,1.4-1.4,1.4
				c-0.8,0-1.4-0.6-1.4-1.4v-2.2c0-0.8,0.6-1.4,1.4-1.4h38.2c0.8,0,1.4,0.6,1.4,1.4v4.3C98.3,57.3,97.6,57.9,96.8,57.9z"/>
		</g>
		<g>
			<path class="st0" d="M70.1,48.6H66c-2,0-3.7-1.7-3.7-3.7c0-2,1.7-3.7,3.7-3.7h4.1c2,0,3.7,1.7,3.7,3.7
				C73.8,47,72.1,48.6,70.1,48.6z M66,44.1c-0.5,0-0.9,0.4-0.9,0.9c0,0.5,0.4,0.9,0.9,0.9h4.1c0.5,0,0.9-0.4,0.9-0.9
				c0-0.5-0.4-0.9-0.9-0.9H66z"/>
		</g>
		<g>
			<path class="st0" d="M92.5,41.9H76c-0.8,0-1.4-0.6-1.4-1.4s0.6-1.4,1.4-1.4h16.5c0.8,0,1.4,0.6,1.4,1.4S93.3,41.9,92.5,41.9z"/>
		</g>
		<g>
			<path class="st0" d="M89.7,46.5H78.8c-0.8,0-1.4-0.6-1.4-1.4c0-0.8,0.6-1.4,1.4-1.4h10.9c0.8,0,1.4,0.6,1.4,1.4
				C91.1,45.9,90.5,46.5,89.7,46.5z"/>
		</g>
	</g>
</g>
</svg>
