<?xml version="1.0" encoding="UTF-8"?>
<svg id="Layer_1" data-name="Layer 1" xmlns="http://www.w3.org/2000/svg" viewBox="0 0 128 128">
  <defs>
    <style>
      .cls-1 {
        fill: #0069b1;
      }
    </style>
  </defs>
  <path class="cls-1" d="m90.23,13.9h-36.6c-4.24,0-7.69,3.45-7.69,7.69v17.07h-22.28v3h29.49v19.94h-4.2v-17.16h-3v17.16H15.53v3h37.62v34.92h37.58v-60.85h-41.78v-5.87h45.99v73.61c0,2.59-2.11,4.69-4.69,4.69h-36.6c-2.59,0-4.69-2.11-4.69-4.69v-39.03h-3v39.03c0,4.24,3.45,7.69,7.69,7.69h36.6c4.24,0,7.69-3.45,7.69-7.69V21.59c0-4.24-3.45-7.69-7.69-7.69Zm-34.09,27.77h31.58v54.85h-31.58v-54.85Zm-7.2-11.87v-8.21c0-2.59,2.11-4.69,4.69-4.69h36.6c2.59,0,4.69,2.1,4.69,4.69v8.21h-45.99Z"/>
  <rect class="cls-1" x="67.07" y="23.62" width="9.72" height="3"/>
  <rect class="cls-1" x="30.02" y="29.8" width="13.14" height="3"/>
  <rect class="cls-1" x="100.97" y="31.8" width="3" height="51.44"/>
</svg>