<?xml version="1.0" encoding="UTF-8"?>
<svg id="Layer_1" data-name="Layer 1" xmlns="http://www.w3.org/2000/svg" viewBox="0 0 128 128">
  <defs>
    <style>
      .cls-1 {
        fill: #0069b1;
      }
    </style>
  </defs>
  <path class="cls-1" d="m77.31,21.26h-33.1c-3.92,0-7.1,3.19-7.1,7.1v64.69c0,3.92,3.19,7.1,7.1,7.1h33.1c3.92,0,7.1-3.18,7.1-7.1V28.36c0-3.92-3.18-7.1-7.1-7.1Zm4.1,71.79c0,2.26-1.84,4.1-4.1,4.1h-33.1c-2.26,0-4.1-1.84-4.1-4.1V28.36c0-2.26,1.84-4.1,4.1-4.1h33.1c2.26,0,4.1,1.84,4.1,4.1v64.69Zm9.47-57.42v39.73h-4.58v-3h1.58v-33.73h-1.58v-3h4.58Zm-47.75,68.1h35.27v3h-35.27v-3ZM77.9,28.05h-34.27v26.47h34.27v-26.47Zm-3,23.47h-28.27v-20.47h28.27v20.47Zm-18.94,16.1h9.61v-9.61h-9.61v9.61Zm3-6.61h3.61v3.61h-3.61v-3.61Zm9.69,6.61h9.61v-9.61h-9.61v9.61Zm3-6.61h3.61v3.61h-3.61v-3.61Zm-28.39,6.61h9.61v-9.61h-9.61v9.61Zm3-6.61h3.61v3.61h-3.61v-3.61Zm9.69,19.19h9.61v-9.61h-9.61v9.61Zm3-6.61h3.61v3.61h-3.61v-3.61Zm9.69,6.61h9.61v-9.61h-9.61v9.61Zm3-6.61h3.61v3.61h-3.61v-3.61Zm-28.39,6.61h9.61v-9.61h-9.61v9.61Zm3-6.61h3.61v3.61h-3.61v-3.61Zm9.69,19.18h9.61v-9.61h-9.61v9.61Zm3-6.61h3.61v3.61h-3.61v-3.61Zm9.69,6.61h9.61v-9.61h-9.61v9.61Zm3-6.61h3.61v3.61h-3.61v-3.61Zm-28.39,6.61h9.61v-9.61h-9.61v9.61Zm3-6.61h3.61v3.61h-3.61v-3.61Z"/>
</svg>