<?xml version="1.0" encoding="UTF-8"?>
<svg id="Layer_1" data-name="Layer 1" xmlns="http://www.w3.org/2000/svg" viewBox="0 0 128 128">
  <defs>
    <style>
      .cls-1 {
        fill: #0069b1;
      }
    </style>
  </defs>
  <path class="cls-1" d="m82.65,19.72h-37c-3.58,0-6.5,2.92-6.5,6.5v75.55c0,3.58,2.92,6.5,6.5,6.5h37c3.58,0,6.5-2.92,6.5-6.5V26.22c0-3.58-2.92-6.5-6.5-6.5Zm-37,3h37c1.93,0,3.5,1.57,3.5,3.5v10.39h-44v-10.39c0-1.93,1.57-3.5,3.5-3.5Zm40.5,16.89v49.09h-44v-49.09h44Zm-3.5,65.66h-37c-1.93,0-3.5-1.57-3.5-3.5v-10.08h44v10.08c0,1.93-1.57,3.5-3.5,3.5Z"/>
  <rect class="cls-1" x="55.36" y="97.35" width="16.84" height="3"/>
  <rect class="cls-1" x="55.36" y="28.43" width="4.6" height="3"/>
  <rect class="cls-1" x="63.66" y="28.43" width="9.69" height="3"/>
  <path class="cls-1" d="m46.93,55.59h8.43c.83,0,1.5-.67,1.5-1.5v-8.43c0-.83-.67-1.5-1.5-1.5h-8.43c-.83,0-1.5.67-1.5,1.5v8.43c0,.83.67,1.5,1.5,1.5Zm1.5-8.43h5.43v5.43h-5.43v-5.43Z"/>
  <path class="cls-1" d="m60.14,55.59h8.43c.83,0,1.5-.67,1.5-1.5v-8.43c0-.83-.67-1.5-1.5-1.5h-8.43c-.83,0-1.5.67-1.5,1.5v8.43c0,.83.67,1.5,1.5,1.5Zm1.5-8.43h5.43v5.43h-5.43v-5.43Z"/>
  <path class="cls-1" d="m73.35,55.59h8.43c.83,0,1.5-.67,1.5-1.5v-8.43c0-.83-.67-1.5-1.5-1.5h-8.43c-.83,0-1.5.67-1.5,1.5v8.43c0,.83.67,1.5,1.5,1.5Zm1.5-8.43h5.43v5.43h-5.43v-5.43Z"/>
</svg>