<?xml version="1.0" encoding="UTF-8"?>
<svg id="Layer_1" data-name="Layer 1" xmlns="http://www.w3.org/2000/svg" viewBox="0 0 128 128">
  <defs>
    <style>
      .cls-1 {
        fill: #0069b1;
      }
    </style>
  </defs>
  <path class="cls-1" d="m87.71,24.37h-18.35v-.74c0-3.02-2.46-5.48-5.48-5.48h-31.68c-3.02,0-5.48,2.46-5.48,5.48v10.01h7.96v42.6h12.84v19.92c0,3.92,3.18,7.1,7.1,7.1h33.1c3.92,0,7.1-3.19,7.1-7.1V31.47c0-3.92-3.19-7.1-7.1-7.1Zm-18.35,9.79h15.94v20.47h-15.94v-20.47Zm0,29.96h3.61v3.61h-3.61v-3.61ZM29.72,23.63c0-1.37,1.11-2.48,2.48-2.48s2.48,1.11,2.48,2.48v7.01h-4.96v-7.01Zm7.96,10.01v-10.01c0-.89-.22-1.73-.6-2.48h26.8c1.37,0,2.48,1.11,2.48,2.48v49.61h-28.68v-39.6Zm31.68,43.06h3.61v3.61h-3.61v-3.61Zm-9.08,0v3.61h-3.61v-3.61h3.61Zm31.54,19.47c0,2.26-1.84,4.1-4.1,4.1h-33.1c-2.26,0-4.1-1.84-4.1-4.1v-19.92h3.15v7.07h9.61v-7.07h3.08v7.07h9.61v-9.61h-6.61v-2.97h6.61v-9.61h-6.61v-3.49h18.94v-26.47h-18.94v-3.79h18.35c2.26,0,4.1,1.84,4.1,4.1v64.69Z"/>
  <polygon class="cls-1" points="96.7 38.75 96.7 41.75 98.28 41.75 98.28 75.48 96.7 75.48 96.7 78.48 101.28 78.48 101.28 38.75 96.7 38.75"/>
  <rect class="cls-1" x="53.53" y="106.85" width="35.27" height="3"/>
  <path class="cls-1" d="m79.05,70.73h9.61v-9.61h-9.61v9.61Zm3-6.61h3.61v3.61h-3.61v-3.61Z"/>
  <path class="cls-1" d="m79.05,83.31h9.61v-9.61h-9.61v9.61Zm3-6.61h3.61v3.61h-3.61v-3.61Z"/>
  <path class="cls-1" d="m66.36,95.88h9.61v-9.61h-9.61v9.61Zm3-6.61h3.61v3.61h-3.61v-3.61Z"/>
  <path class="cls-1" d="m79.05,95.88h9.61v-9.61h-9.61v9.61Zm3-6.61h3.61v3.61h-3.61v-3.61Z"/>
  <path class="cls-1" d="m53.67,95.88h9.61v-9.61h-9.61v9.61Zm3-6.61h3.61v3.61h-3.61v-3.61Z"/>
  <rect class="cls-1" x="41.72" y="31.16" width="20.59" height="3"/>
  <rect class="cls-1" x="41.72" y="38.75" width="20.59" height="3"/>
  <path class="cls-1" d="m57.98,59.46v-3.77c.93.2,1.83.62,2.7,1.27l1.11-1.87c-1.09-.81-2.28-1.33-3.73-1.51v-1.19h-1.73v1.15c-2.48.2-4.17,1.67-4.17,3.81s1.35,3.33,4.25,4.09v3.89c-1.29-.2-2.36-.79-3.49-1.71l-1.27,1.81c1.35,1.07,2.96,1.77,4.68,1.96v1.98h1.73v-1.96c2.52-.22,4.23-1.67,4.23-3.85s-1.29-3.35-4.31-4.11Zm-1.57-.42c-1.53-.46-1.9-.99-1.9-1.83s.65-1.57,1.9-1.67v3.49Zm1.57,6.37v-3.59c1.55.46,1.96.99,1.96,1.89,0,.95-.71,1.61-1.96,1.71Z"/>
</svg>