<?xml version="1.0" encoding="UTF-8"?>
<svg id="Layer_1" data-name="Layer 1" xmlns="http://www.w3.org/2000/svg" viewBox="0 0 128 128">
  <defs>
    <style>
      .cls-1 {
        fill: #0069b1;
      }
    </style>
  </defs>
  <path class="cls-1" d="m100,13.09h-35.92c-3.44,0-6.23,2.8-6.23,6.23v10.24h-29.1c-3.92,0-7.1,3.19-7.1,7.1v64.69c0,3.92,3.19,7.1,7.1,7.1h33.1c3.92,0,7.1-3.19,7.1-7.1v-2.45h31.06c3.44,0,6.23-2.8,6.23-6.23V19.32c0-3.44-2.8-6.23-6.23-6.23Zm-34.06,88.26c0,2.26-1.84,4.1-4.1,4.1H28.75c-2.26,0-4.1-1.84-4.1-4.1V36.66c0-2.26,1.84-4.1,4.1-4.1h33.1c2.26,0,4.1,1.84,4.1,4.1v64.69Zm34.06-5.21h-31.06v-59.48c0-3.92-3.18-7.1-7.1-7.1h-1.23v-10.24c0-1.92,1.56-3.47,3.47-3.47h35.92c1.92,0,3.47,1.56,3.47,3.47v10.16h-32.64v2.76h32.64v47.8h-24.58v2.76h24.58v9.86c0,1.92-1.56,3.47-3.47,3.47Z"/>
  <rect class="cls-1" x="73.5" y="88.44" width="16.35" height="2.76"/>
  <rect class="cls-1" x="73.5" y="21.54" width="4.46" height="2.76"/>
  <rect class="cls-1" x="81.56" y="21.54" width="9.41" height="2.76"/>
  <polygon class="cls-1" points="75.41 43.93 70.83 43.93 70.83 46.93 72.41 46.93 72.41 80.66 70.83 80.66 70.83 83.66 75.41 83.66 75.41 43.93"/>
  <rect class="cls-1" x="27.66" y="112.03" width="35.27" height="3"/>
  <path class="cls-1" d="m62.43,36.35H28.16v26.47h34.27v-26.47Zm-3,23.47h-28.27v-20.47h28.27v20.47Z"/>
  <path class="cls-1" d="m39.67,56.74h2.8l.55-3.18h3.08l-.55,3.18h2.8l.55-3.18h2.33v-2.71h-1.87l.53-3.14h2.08v-2.71h-1.61l.53-3.1h-2.8l-.53,3.1h-3.08l.53-3.1h-2.8l-.53,3.1h-2.33v2.71h1.87l-.53,3.14h-2.08v2.71h1.61l-.55,3.18Zm4.35-9.04h3.08l-.53,3.14h-3.08l.53-3.14Z"/>
  <path class="cls-1" d="m40.49,75.92h9.61v-9.61h-9.61v9.61Zm3-6.61h3.61v3.61h-3.61v-3.61Z"/>
  <path class="cls-1" d="m53.18,75.92h9.61v-9.61h-9.61v9.61Zm3-6.61h3.61v3.61h-3.61v-3.61Z"/>
  <path class="cls-1" d="m27.8,75.92h9.61v-9.61h-9.61v9.61Zm3-6.61h3.61v3.61h-3.61v-3.61Z"/>
  <path class="cls-1" d="m40.49,88.49h9.61v-9.61h-9.61v9.61Zm3-6.61h3.61v3.61h-3.61v-3.61Z"/>
  <path class="cls-1" d="m53.18,88.49h9.61v-9.61h-9.61v9.61Zm3-6.61h3.61v3.61h-3.61v-3.61Z"/>
  <path class="cls-1" d="m27.8,88.49h9.61v-9.61h-9.61v9.61Zm3-6.61h3.61v3.61h-3.61v-3.61Z"/>
  <path class="cls-1" d="m40.49,101.06h9.61v-9.61h-9.61v9.61Zm3-6.61h3.61v3.61h-3.61v-3.61Z"/>
  <path class="cls-1" d="m53.18,101.06h9.61v-9.61h-9.61v9.61Zm3-6.61h3.61v3.61h-3.61v-3.61Z"/>
  <path class="cls-1" d="m27.8,101.06h9.61v-9.61h-9.61v9.61Zm3-6.61h3.61v3.61h-3.61v-3.61Z"/>
</svg>