<?xml version="1.0" encoding="UTF-8"?>
<svg id="Layer_1" data-name="Layer 1" xmlns="http://www.w3.org/2000/svg" viewBox="0 0 128 128">
  <defs>
    <style>
      .cls-1 {
        fill: #0069b1;
      }
    </style>
  </defs>
  <path class="cls-1" d="m100.21,76.8v-25.71c3.3-.69,5.78-3.62,5.78-7.13,0-4.02-3.27-7.28-7.28-7.28-2.15,0-4.08.94-5.41,2.43l-22.38-12.92c.23-.71.36-1.47.36-2.26,0-4.02-3.27-7.28-7.28-7.28s-7.28,3.27-7.28,7.28c0,.79.13,1.55.36,2.26l-22.38,12.92c-1.33-1.49-3.26-2.43-5.41-2.43-4.02,0-7.28,3.27-7.28,7.28,0,3.5,2.48,6.43,5.78,7.13v25.71c-3.3.69-5.78,3.62-5.78,7.13,0,4.02,3.27,7.28,7.28,7.28,2.11,0,4.01-.91,5.34-2.35l22.44,12.96c-.23.71-.36,1.47-.36,2.26,0,4.02,3.27,7.28,7.28,7.28s7.28-3.27,7.28-7.28c0-.79-.13-1.55-.36-2.26l22.44-12.96c1.33,1.44,3.23,2.35,5.34,2.35,4.02,0,7.28-3.27,7.28-7.28,0-3.5-2.48-6.43-5.78-7.13Zm-1.5-37.12c2.36,0,4.28,1.92,4.28,4.28s-1.92,4.28-4.28,4.28-4.28-1.92-4.28-4.28,1.92-4.28,4.28-4.28Zm-34.71-20.04c2.36,0,4.28,1.92,4.28,4.28s-1.92,4.28-4.28,4.28-4.28-1.92-4.28-4.28,1.92-4.28,4.28-4.28Zm-5.41,9.14c1.33,1.49,3.26,2.43,5.41,2.43s4.08-.94,5.41-2.43l22.38,12.92c-.23.71-.36,1.47-.36,2.26s.13,1.55.36,2.26l-22.38,12.92c-1.33-1.49-3.26-2.43-5.41-2.43s-4.08.94-5.41,2.43l-22.38-12.92c.23-.71.36-1.47.36-2.26s-.13-1.55-.36-2.26l22.38-12.92Zm5.41,39.5c-2.36,0-4.28-1.92-4.28-4.28s1.92-4.28,4.28-4.28,4.28,1.92,4.28,4.28-1.92,4.28-4.28,4.28Zm-38.99-24.32c0-2.36,1.92-4.28,4.28-4.28s4.28,1.92,4.28,4.28-1.92,4.28-4.28,4.28-4.28-1.92-4.28-4.28Zm4.28,44.24c-2.36,0-4.28-1.92-4.28-4.28s1.92-4.28,4.28-4.28,4.28,1.92,4.28,4.28-1.92,4.28-4.28,4.28Zm6.88-1.93c.25-.74.4-1.53.4-2.36,0-3.5-2.48-6.43-5.78-7.13v-25.71c1.54-.32,2.9-1.14,3.91-2.27l22.38,12.92c-.23.71-.36,1.47-.36,2.26,0,3.5,2.48,6.43,5.78,7.13v25.82c-1.54.32-2.9,1.14-3.91,2.27l-22.41-12.94Zm27.82,22.08c-2.36,0-4.28-1.92-4.28-4.28s1.92-4.28,4.28-4.28,4.28,1.92,4.28,4.28-1.92,4.28-4.28,4.28Zm5.41-9.14c-1.01-1.13-2.37-1.95-3.91-2.27v-25.82c3.3-.69,5.78-3.62,5.78-7.13,0-.79-.13-1.55-.36-2.26l22.38-12.92c1.02,1.13,2.37,1.95,3.91,2.27v25.71c-3.3.69-5.78,3.62-5.78,7.13,0,.83.14,1.62.4,2.36l-22.41,12.94Zm29.3-11.01c-2.36,0-4.28-1.92-4.28-4.28s1.92-4.28,4.28-4.28,4.28,1.92,4.28,4.28-1.92,4.28-4.28,4.28Z"/>
</svg>