<?xml version="1.0" encoding="UTF-8"?>
<svg id="Layer_1" data-name="Layer 1" xmlns="http://www.w3.org/2000/svg" viewBox="0 0 128 128">
  <defs>
    <style>
      .cls-1 {
        fill: #0069b1;
      }
    </style>
  </defs>
  <rect class="cls-1" x="46.79" y="26.49" width="8.59" height="3"/>
  <path class="cls-1" d="m79.57,67.11v-33.21h-3v33s-.08,0-.11,0c-.75,0-1.49.04-2.23.11V24.88c0-3.84-3.13-6.97-6.97-6.97h-32.34c-3.84,0-6.97,3.13-6.97,6.97v74.95c0,3.84,3.13,6.97,6.97,6.97h24.51c4.3,4.49,10.35,7.3,17.04,7.3,13.01,0,23.6-10.59,23.6-23.6,0-11.96-8.94-21.86-20.49-23.39ZM34.91,20.9h32.34c2.19,0,3.97,1.78,3.97,3.97v7.08H30.94v-7.08c0-2.19,1.78-3.97,3.97-3.97Zm0,82.9c-2.19,0-3.97-1.78-3.97-3.97V34.95h40.29v32.53c-1.16.26-2.28.61-3.37,1.04v-28.73h-33.56v54.13h18.8c.53,3.63,1.88,6.99,3.87,9.88h-22.06Zm23.2-28.13h-2.6c-3.39,0-6.15-2.76-6.15-6.15v-4.67l4.08,4.08,2.12-2.12-7.7-7.7-7.7,7.7,2.12,2.12,4.08-4.08v4.67c0,5.04,4.1,9.15,9.15,9.15h.53c-2.02,3.48-3.19,7.52-3.19,11.83,0,.14,0,.28.01.42h-15.56v-48.13h27.56v27.16c-2.59,1.47-4.88,3.41-6.75,5.72Zm18.34,35.42c-11.36,0-20.6-9.24-20.6-20.6s9.24-20.6,20.6-20.6,20.6,9.24,20.6,20.6-9.24,20.6-20.6,20.6Z"/>
  <path class="cls-1" d="m84.51,78.06c-.28-.36-.72-.57-1.17-.57h-13.76c-.7,0-1.31.48-1.46,1.17l-5.27,23c-.1.45,0,.91.29,1.27.28.36.72.57,1.17.57h13.76c.7,0,1.31-.48,1.46-1.17l5.27-23c.1-.45,0-.91-.29-1.27Zm-7.64,22.44h-10.68l4.59-20h10.68l-4.59,20Z"/>
  <path class="cls-1" d="m88.95,77.53c-.81-.19-1.61.32-1.8,1.13l-5.27,23c-.19.81.32,1.61,1.13,1.8.11.03.23.04.34.04.68,0,1.3-.47,1.46-1.17l5.27-23c.19-.81-.32-1.61-1.13-1.8Z"/>
</svg>