<?xml version="1.0" encoding="UTF-8"?>
<svg id="Layer_1" data-name="Layer 1" xmlns="http://www.w3.org/2000/svg" viewBox="0 0 128 128">
  <defs>
    <style>
      .cls-1 {
        fill: #0069b1;
      }
    </style>
  </defs>
  <path class="cls-1" d="m64,58.56c-7.7,0-13.97,6.27-13.97,13.97s6.27,13.97,13.97,13.97,13.97-6.27,13.97-13.97-6.27-13.97-13.97-13.97Zm0,24.93c-6.05,0-10.97-4.92-10.97-10.97s4.92-10.97,10.97-10.97,10.97,4.92,10.97,10.97-4.92,10.97-10.97,10.97Z"/>
  <path class="cls-1" d="m64.96,71.18v-3.56c.88.19,1.72.58,2.55,1.2l1.05-1.76c-1.03-.77-2.16-1.26-3.52-1.43v-1.12h-1.63v1.09c-2.34.19-3.94,1.58-3.94,3.6s1.27,3.15,4.01,3.86v3.67c-1.22-.19-2.23-.75-3.3-1.61l-1.2,1.71c1.27,1.01,2.79,1.67,4.42,1.86v1.87h1.63v-1.86c2.38-.21,3.99-1.57,3.99-3.64s-1.22-3.17-4.07-3.88Zm-1.48-.39c-1.44-.43-1.8-.94-1.8-1.72,0-.83.62-1.48,1.8-1.58v3.3Zm1.48,6.02v-3.39c1.46.43,1.86.94,1.86,1.78,0,.9-.67,1.52-1.86,1.61Z"/>
  <path class="cls-1" d="m93.41,20.26h-58.83c-3.58,0-6.5,2.92-6.5,6.5v74.48c0,3.58,2.92,6.5,6.5,6.5h58.83c3.58,0,6.5-2.92,6.5-6.5V26.76c0-3.58-2.92-6.5-6.5-6.5Zm-58.83,3h58.83c1.93,0,3.5,1.57,3.5,3.5v2.34H31.09v-2.34c0-1.93,1.57-3.5,3.5-3.5Zm62.33,8.84v59.01H31.09v-59.01h65.83Zm-3.5,72.64h-58.83c-1.93,0-3.5-1.57-3.5-3.5v-7.13h65.83v7.13c0,1.93-1.57,3.5-3.5,3.5Z"/>
  <path class="cls-1" d="m64,96.89c-1.32,0-2.39,1.07-2.39,2.39s1.07,2.39,2.39,2.39,2.39-1.07,2.39-2.39-1.07-2.39-2.39-2.39Z"/>
  <path class="cls-1" d="m53.12,44.87v6.95l.8.42c.16.08,4,2.08,10.08,2.08s9.92-2,10.08-2.08l.8-.42v-6.95l9.8-2.62-20.68-5.53-20.68,5.53,9.8,2.62Zm18.77,5.07c-1.3.51-4.09,1.39-7.88,1.39s-6.59-.88-7.88-1.39v-4.27l7.88,2.11,7.88-2.11v4.27Zm-7.88-10.11l9.07,2.42-9.07,2.42-9.07-2.42,9.07-2.42Z"/>
</svg>