<?xml version="1.0" encoding="UTF-8"?>
<svg id="Layer_1" data-name="Layer 1" xmlns="http://www.w3.org/2000/svg" viewBox="0 0 128 128">
  <defs>
    <style>
      .cls-1 {
        fill: #0069b1;
      }
    </style>
  </defs>
  <path class="cls-1" d="m91.23,64.24V30.29c0-3.58-2.92-6.5-6.5-6.5h-5.51v-5.35h-3v5.35H30.59v-5.35h-3v5.35h-5.51c-3.58,0-6.5,2.92-6.5,6.5v58.08h51.52c.78,11.81,10.63,21.19,22.63,21.19s22.69-10.18,22.69-22.69-9.38-21.86-21.19-22.63Zm14.41,11.09l-14.41,8.86v-16.93c5.92.45,11.11,3.53,14.41,8.07Zm-35.53,10.04c.73-9.66,8.45-17.38,18.11-18.11v18.11h-18.11ZM18.58,30.29c0-1.93,1.57-3.5,3.5-3.5h5.51v5.35h3v-5.35h45.63v5.35h3v-5.35h5.51c1.93,0,3.5,1.57,3.5,3.5v6.01H18.58v-6.01Zm0,9.01h69.65v24.94c-11.32.74-20.39,9.82-21.13,21.13H18.58v-46.08Zm51.54,49.08h18.11v18.11c-9.66-.73-17.38-8.45-18.11-18.11Zm21.11,18.11v-18.77l15.99-9.83c1.39,2.7,2.19,5.75,2.19,8.99,0,10.35-8.03,18.84-18.19,19.61Z"/>
  <rect class="cls-1" x="27.59" y="46.74" width="11.18" height="3"/>
  <rect class="cls-1" x="47.81" y="46.74" width="11.18" height="3"/>
  <rect class="cls-1" x="68.04" y="46.74" width="11.18" height="3"/>
  <rect class="cls-1" x="27.59" y="57.65" width="11.18" height="3"/>
  <rect class="cls-1" x="47.81" y="57.65" width="11.18" height="3"/>
  <rect class="cls-1" x="68.04" y="57.65" width="11.18" height="3"/>
  <rect class="cls-1" x="27.59" y="68.55" width="11.18" height="3"/>
  <rect class="cls-1" x="47.81" y="68.55" width="11.18" height="3"/>
</svg>