<?xml version="1.0" encoding="UTF-8"?>
<svg id="Layer_1" data-name="Layer 1" xmlns="http://www.w3.org/2000/svg" viewBox="0 0 128 128">
  <defs>
    <style>
      .cls-1 {
        fill: #0069b1;
      }
    </style>
  </defs>
  <path class="cls-1" d="m101.19,33.31c2.43,1.51,4.49,3.56,5.99,5.99,2.69,2.36,4.4,5.82,4.4,9.67s-1.71,7.31-4.4,9.67c-1.51,2.43-3.56,4.48-5.99,5.99,7.58-1.2,13.39-7.75,13.39-15.66s-5.82-14.47-13.4-15.66Z"/>
  <path class="cls-1" d="m107.41,48.98c0-8.37-6.52-15.23-14.74-15.82,2.01,1.2,3.77,2.77,5.19,4.62,3.9,2.21,6.55,6.4,6.55,11.2s-2.64,8.99-6.55,11.2c-1.42,1.85-3.18,3.42-5.19,4.62,8.22-.59,14.74-7.45,14.74-15.82Z"/>
  <path class="cls-1" d="m99.14,48.98c0-8.75-7.12-15.88-15.88-15.88-7.99,0-14.6,5.94-15.7,13.63H19.18c-3.18,0-5.76,2.58-5.76,5.76v36.71c0,3.18,2.58,5.76,5.76,5.76h59.83c3.17,0,5.76-2.58,5.76-5.76v-24.42c8.05-.76,14.38-7.55,14.38-15.8Zm-15.88-12.88c7.1,0,12.88,5.78,12.88,12.88s-5.78,12.88-12.88,12.88-12.88-5.78-12.88-12.88,5.78-12.88,12.88-12.88Zm-4.26,55.85H19.18c-1.52,0-2.76-1.24-2.76-2.76v-36.71c0-1.52,1.24-2.76,2.76-2.76h48.25c.37,7.9,6.53,14.31,14.34,15.05v24.42c0,1.52-1.24,2.76-2.76,2.76Z"/>
  <path class="cls-1" d="m78.98,51.87l-1.34,1.91c1.43,1.13,3.13,1.87,4.95,2.08v2.1h1.83v-2.08c2.66-.23,4.47-1.76,4.47-4.07s-1.36-3.55-4.55-4.34v-3.99c.99.21,1.93.65,2.85,1.34l1.18-1.97c-1.15-.86-2.41-1.41-3.95-1.59v-1.26h-1.83v1.22c-2.62.21-4.41,1.76-4.41,4.03s1.43,3.52,4.49,4.32v4.11c-1.36-.21-2.5-.84-3.69-1.8Zm5.35-1.91c1.64.48,2.08,1.05,2.08,1.99,0,1.01-.76,1.7-2.08,1.8v-3.8Zm-3.67-4.87c0-.92.69-1.66,2.01-1.76v3.69c-1.62-.48-2.01-1.05-2.01-1.93Z"/>
  <path class="cls-1" d="m35.2,54.04h-13.58v10.84h13.58v-10.84Zm-3,7.84h-7.58v-4.84h7.58v4.84Z"/>
  <rect class="cls-1" x="23.13" y="69.29" width="41.65" height="3"/>
  <rect class="cls-1" x="23.13" y="80.69" width="17.11" height="3"/>
  <path class="cls-1" d="m70.37,76.74c-1.6,0-3.04.69-4.05,1.79-1.01-1.1-2.45-1.79-4.05-1.79s-3.04.69-4.05,1.79c-1.01-1.1-2.45-1.79-4.05-1.79-3.04,0-5.5,2.47-5.5,5.5s2.47,5.5,5.5,5.5c1.6,0,3.04-.69,4.05-1.79,1.01,1.1,2.45,1.79,4.05,1.79s3.04-.69,4.05-1.79c1.01,1.1,2.45,1.79,4.05,1.79,3.04,0,5.5-2.47,5.5-5.5s-2.47-5.5-5.5-5.5Zm-16.2,8.01c-1.38,0-2.5-1.12-2.5-2.5s1.12-2.5,2.5-2.5,2.5,1.12,2.5,2.5-1.12,2.5-2.5,2.5Zm8.1,0c-1.38,0-2.5-1.12-2.5-2.5s1.12-2.5,2.5-2.5,2.5,1.12,2.5,2.5-1.12,2.5-2.5,2.5Zm8.1,0c-1.38,0-2.5-1.12-2.5-2.5s1.12-2.5,2.5-2.5,2.5,1.12,2.5,2.5-1.12,2.5-2.5,2.5Z"/>
</svg>