<?xml version="1.0" encoding="UTF-8"?>
<svg id="Layer_1" data-name="Layer 1" xmlns="http://www.w3.org/2000/svg" viewBox="0 0 128 128">
  <defs>
    <style>
      .cls-1 {
        fill: #0069b1;
      }
    </style>
  </defs>
  <polygon class="cls-1" points="78.37 44.91 76.25 42.79 66.69 52.35 66.69 17.04 63.69 17.04 63.69 52.35 54.13 42.79 52.01 44.91 65.19 58.09 78.37 44.91"/>
  <path class="cls-1" d="m108.12,70.95l-1.39-1.72c-2.53-3.12-6.81-4.06-10.42-2.29l-2.68,1.32-14.82,4.4s0-.04,0-.06c0-4.17-3.39-7.55-7.55-7.55h-12.31c-3.48-2.76-7.82-4.28-12.28-4.28-5.07,0-9.89,1.92-13.57,5.39l-1.12,1.06h0s-4.82,4.59-4.82,4.59c-.51.49-1.07.92-1.67,1.29l-1.54.95-1.91-2.95-2.52,1.63,19.67,30.37,2.52-1.63-2.1-3.24,5.53-4.03c.14-.1.31-.16.48-.16l25.38-.64c4.42-.11,8.74-1.4,12.51-3.72l23.94-14.77c.65-.4,1.1-1.07,1.23-1.83.13-.76-.08-1.54-.56-2.14Zm-26.19,16.18c-3.31,2.04-7.12,3.17-11.01,3.27l-25.38.64c-.79.02-1.54.28-2.17.74l-5.4,3.93-12.39-19.14,1.48-.92c.78-.48,1.51-1.05,2.17-1.67l6.08-5.79c3.1-2.85,7.13-4.42,11.35-4.42,3.94,0,7.77,1.39,10.78,3.92l.42.35h13.39c2.51,0,4.55,2.04,4.55,4.55s-1.89,4.42-4.31,4.55l-12.79.68.16,3,12.79-.68c2.78-.15,5.13-1.78,6.32-4.11l16.62-4.93,3.03-1.46c2.34-1.15,5.12-.54,6.77,1.49l1.16,1.43-23.63,14.58Z"/>
</svg>