<?xml version="1.0" encoding="UTF-8"?>
<svg id="Layer_1" data-name="Layer 1" xmlns="http://www.w3.org/2000/svg" viewBox="0 0 128 128">
  <defs>
    <style>
      .cls-1 {
        fill: #0069b1;
      }
    </style>
  </defs>
  <path class="cls-1" d="m80.02,74.09c-8.12,0-14.71,6.59-14.71,14.71s6.59,14.71,14.71,14.71,14.71-6.59,14.71-14.71-6.59-14.71-14.71-14.71Zm0,26.42c-6.46,0-11.71-5.25-11.71-11.71s5.25-11.71,11.71-11.71,11.71,5.25,11.71,11.71-5.25,11.71-11.71,11.71Z"/>
  <path class="cls-1" d="m81.03,87.37v-3.77c.93.2,1.83.62,2.7,1.27l1.11-1.87c-1.09-.81-2.28-1.33-3.73-1.51v-1.19h-1.73v1.15c-2.48.2-4.17,1.67-4.17,3.81s1.35,3.33,4.25,4.09v3.89c-1.29-.2-2.36-.79-3.49-1.71l-1.27,1.81c1.35,1.07,2.96,1.77,4.68,1.96v1.98h1.73v-1.96c2.52-.22,4.23-1.67,4.23-3.85s-1.29-3.35-4.31-4.11Zm-1.57-.42c-1.53-.46-1.9-.99-1.9-1.83s.65-1.57,1.9-1.67v3.49Zm1.57,6.37v-3.59c1.55.46,1.96.99,1.96,1.89,0,.95-.71,1.61-1.96,1.71Z"/>
  <rect class="cls-1" x="49.29" y="61.39" width="29.42" height="3"/>
  <rect class="cls-1" x="16.87" y="91.31" width="29.42" height="3"/>
  <rect class="cls-1" x="49.29" y="67.37" width="29.42" height="3"/>
  <rect class="cls-1" x="16.87" y="85.31" width="29.42" height="3"/>
  <path class="cls-1" d="m49.29,82.34h14.26c.41-1.05.93-2.06,1.53-3h-15.78v3Z"/>
  <path class="cls-1" d="m62.66,85.33h-13.37v3h13.05c.03-1.02.13-2.03.32-3Z"/>
  <path class="cls-1" d="m49.29,76.36h18.15c1.16-1.18,2.49-2.18,3.94-3h-22.08v3Z"/>
  <polygon class="cls-1" points="19.83 72.05 98.75 27.79 96.5 35.76 99.39 36.58 103.02 23.68 90.13 20.05 89.31 22.94 97.28 25.18 18.36 69.44 19.83 72.05"/>
  <rect class="cls-1" x="16.87" y="79.31" width="29.42" height="3"/>
  <rect class="cls-1" x="81.71" y="49.39" width="29.42" height="3"/>
  <rect class="cls-1" x="81.71" y="61.37" width="29.42" height="3"/>
  <rect class="cls-1" x="81.71" y="67.36" width="29.42" height="3"/>
  <rect class="cls-1" x="81.71" y="55.38" width="29.42" height="3"/>
  <rect class="cls-1" x="81.71" y="43.4" width="29.42" height="3"/>
  <path class="cls-1" d="m49.29,91.31v3h13.91c-.32-.97-.54-1.97-.69-3h-13.22Z"/>
  <path class="cls-1" d="m96.84,94.31h14.29v-3h-13.6c-.15,1.03-.37,2.03-.69,3Z"/>
  <path class="cls-1" d="m97.71,88.32h13.42v-3h-13.75c.19.97.3,1.98.32,3Z"/>
  <path class="cls-1" d="m96.49,82.33h14.64v-3h-16.16c.6.94,1.11,1.95,1.53,3Z"/>
  <path class="cls-1" d="m92.6,76.35h18.53v-3h-22.48c1.45.82,2.78,1.82,3.95,3Z"/>
</svg>