<?xml version="1.0" encoding="utf-8"?>
<!-- Generator: Adobe Illustrator 27.6.1, SVG Export Plug-In . SVG Version: 6.00 Build 0)  -->
<svg version="1.1" id="Layer_1" xmlns="http://www.w3.org/2000/svg" xmlns:xlink="http://www.w3.org/1999/xlink" x="0px" y="0px"
	 viewBox="0 0 128 128" style="enable-background:new 0 0 128 128;" xml:space="preserve">
<style type="text/css">
	.st0{fill:#0069B1;}
</style>
<g>
	<g>
		<g>
			<path class="st0" d="M76.4,80.4H51.6c-1.1,0-2.2-0.6-2.8-1.6c-0.6-1-0.7-2.2-0.1-3.2c2.2-4.4,3.4-9.4,3.4-14.3V61
				c0-3.2,1.3-6.3,3.6-8.5c2.3-2.3,5.4-3.5,8.6-3.4C70.7,49.2,76,54.7,76,61.4c0,4.9,1.2,9.9,3.4,14.3c0.5,1,0.5,2.2-0.1,3.2
				C78.6,79.8,77.6,80.4,76.4,80.4z M64,51.5c-2.5,0-4.9,1-6.7,2.7c-1.8,1.8-2.9,4.2-2.9,6.8v0.4c0,5.3-1.3,10.6-3.7,15.4
				c-0.2,0.4,0,0.7,0,0.8c0.1,0.1,0.3,0.4,0.7,0.4h24.9c0.4,0,0.7-0.3,0.7-0.4c0.1-0.1,0.2-0.5,0-0.8c-2.4-4.8-3.7-10.1-3.7-15.4
				c0-5.4-4.2-9.8-9.4-9.9C64.1,51.5,64.1,51.5,64,51.5z"/>
		</g>
		<g>
			<path class="st0" d="M64,85.8c-2.9,0-5.3-2.4-5.3-5.3v-1.3c0-0.7,0.5-1.2,1.2-1.2s1.2,0.5,1.2,1.2v1.3c0,1.6,1.3,2.9,2.9,2.9
				c1.6,0,2.9-1.3,2.9-2.9v-1.3c0-0.7,0.5-1.2,1.2-1.2c0.7,0,1.2,0.5,1.2,1.2v1.3C69.3,83.4,66.9,85.8,64,85.8z"/>
		</g>
		<g>
			<path class="st0" d="M64,51.5c-2.5,0-4.6-2.1-4.6-4.6c0-2.5,2.1-4.6,4.6-4.6c2.5,0,4.6,2.1,4.6,4.6C68.6,49.4,66.5,51.5,64,51.5z
				 M64,44.6c-1.2,0-2.2,1-2.2,2.2c0,1.2,1,2.2,2.2,2.2c1.2,0,2.2-1,2.2-2.2C66.2,45.6,65.2,44.6,64,44.6z"/>
		</g>
	</g>
	<g>
		<g>
			<g>
				<path class="st0" d="M92.7,93.8c-0.3,0-0.6-0.1-0.9-0.4c-0.5-0.5-0.5-1.2,0-1.7c7.5-7.5,11.6-17.4,11.6-28
					c0-10.3-3.9-20-11.1-27.4c-0.5-0.5-0.4-1.2,0-1.7c0.5-0.5,1.2-0.4,1.7,0c7.6,7.9,11.7,18.2,11.7,29.1c0,11.2-4.4,21.8-12.3,29.7
					C93.3,93.7,93,93.8,92.7,93.8z"/>
			</g>
			<g>
				<path class="st0" d="M84.7,85.7c-0.3,0-0.6-0.1-0.9-0.4c-0.5-0.5-0.5-1.2,0-1.7c5.3-5.3,8.3-12.4,8.3-19.9
					c0-7.3-2.8-14.2-7.8-19.5c-0.5-0.5-0.4-1.2,0-1.7c0.5-0.5,1.2-0.4,1.7,0c5.5,5.7,8.5,13.3,8.5,21.2c0,8.2-3.2,15.9-9,21.6
					C85.3,85.6,85,85.7,84.7,85.7z"/>
			</g>
		</g>
		<g>
			<g>
				<path class="st0" d="M35.3,93.8c-0.3,0-0.6-0.1-0.9-0.4c-7.9-7.9-12.3-18.5-12.3-29.7c0-10.9,4.2-21.2,11.7-29.1
					c0.5-0.5,1.2-0.5,1.7,0c0.5,0.5,0.5,1.2,0,1.7c-7.1,7.4-11.1,17.2-11.1,27.4c0,10.6,4.1,20.5,11.6,28c0.5,0.5,0.5,1.2,0,1.7
					C35.9,93.7,35.6,93.8,35.3,93.8z"/>
			</g>
			<g>
				<path class="st0" d="M43.3,85.7c-0.3,0-0.6-0.1-0.9-0.4c-5.8-5.8-9-13.5-9-21.6c0-7.9,3-15.4,8.5-21.2c0.5-0.5,1.2-0.5,1.7,0
					c0.5,0.5,0.5,1.2,0,1.7c-5.1,5.3-7.8,12.2-7.8,19.5c0,7.5,2.9,14.6,8.3,19.9c0.5,0.5,0.5,1.2,0,1.7C44,85.6,43.7,85.7,43.3,85.7
					z"/>
			</g>
		</g>
	</g>
</g>
</svg>
