<?xml version="1.0" encoding="UTF-8"?>
<svg id="Layer_1" data-name="Layer 1" xmlns="http://www.w3.org/2000/svg" viewBox="0 0 128 128">
  <defs>
    <style>
      .cls-1 {
        fill: #0069b1;
      }
    </style>
  </defs>
  <path class="cls-1" d="m83.98,40.83h14.2v45.93h3v-48.93h-17.2v-3h20.2v51.93h3V31.83h-23.2v-5.45h-14.68c-.59-3.28-3.47-5.77-6.91-5.77s-6.32,2.5-6.91,5.77h-14.68v5.45h-23.2v75.57h3V34.83h20.2v3h-17.2v69.57h3V40.83h57.39Zm-40.19-6v-5.45h14.65l-.08-1.75c0-2.22,1.81-4.02,4.02-4.02s4.02,1.81,4.02,4.08l-.08,1.69h14.65v8.45h-37.19v-3Z"/>
  <path class="cls-1" d="m110.5,94.84h-.44v-4.7h-20.3v3h17.3v1.7h-54.65c-.15,0-.31.02-.45.07l-15.03,4.78c-.62.2-1.05.78-1.05,1.43s.42,1.23,1.05,1.43l15.03,4.78c.15.05.3.07.45.07h58.1c3.26,0,5.92-2.65,5.92-5.92v-.72c0-3.26-2.65-5.92-5.92-5.92Zm-56.22,3h22.88v6.55h-22.88v-6.55Zm25.88,0h26.9v6.55h-26.9v-6.55Zm-28.88.43v5.69l-8.95-2.84,8.95-2.84Zm62.14,3.2c0,1.61-1.31,2.92-2.92,2.92h-.44v-6.55h.44c1.61,0,2.92,1.31,2.92,2.92v.72Z"/>
  <path class="cls-1" d="m40.16,65.9h8.66c2.95,0,5.35,2.4,5.35,5.35v6.28h3v-6.28c0-4.6-3.74-8.35-8.35-8.35h-8.66c-4.6,0-8.35,3.74-8.35,8.35v6.28h3v-6.28c0-2.95,2.4-5.35,5.35-5.35Z"/>
  <path class="cls-1" d="m39.12,52.7c0,4.38,2.5,7.82,5.69,7.82s5.69-3.43,5.69-7.82c0-3.24-.68-6.56-5.69-6.56s-5.69,3.32-5.69,6.56Zm8.38,0c0,2.84-1.42,4.82-2.69,4.82s-2.69-1.98-2.69-4.82c0-3.27.7-3.56,2.69-3.56s2.69.29,2.69,3.56Z"/>
  <rect class="cls-1" x="64" y="65.31" width="24.28" height="3"/>
  <rect class="cls-1" x="64" y="73.11" width="28.62" height="3"/>
</svg>