<?xml version="1.0" encoding="UTF-8"?>
<svg id="Layer_1" data-name="Layer 1" xmlns="http://www.w3.org/2000/svg" viewBox="0 0 128 128">
  <defs>
    <style>
      .cls-1 {
        fill: #0069b1;
      }
    </style>
  </defs>
  <path class="cls-1" d="m108.8,26.22H19.2v54.41h43.3v13.74h-16.92v3h36.84v-3h-16.92v-13.74h15.03l2.13,10.6,4.33-7.01,5.14,8.18,5.97-3.41-4.95-8.34h8.63l-.02-.02h7.03V26.22Zm-68.09,7.06c0,3.18-2.59,5.76-5.76,5.76s-5.76-2.59-5.76-5.76v-4.06h11.53v4.06Zm3-4.05h0s11.53,0,11.53,0v4.06c0,3.18-2.59,5.76-5.77,5.76s-5.76-2.59-5.76-5.76v-4.05Zm14.53,0h11.53v4.06c0,3.18-2.59,5.76-5.76,5.76s-5.76-2.59-5.76-5.76v-4.06Zm14.53,0h11.53v4.06c0,3.18-2.59,5.76-5.76,5.76s-5.76-2.59-5.76-5.76v-4.06Zm14.53,0h11.53v4.06c0,3.18-2.59,5.76-5.77,5.76s-5.76-2.59-5.76-5.76v-4.06Zm.59,48.42l6.08,10.25-.83.47-6.17-9.82-2.86,4.64-3.25-16.18,12.7,10.65h-5.66Zm17.92-.02h-7.61l-19.55-16.4c.04-.46.07-.92.07-1.4,0-8.12-6.59-14.71-14.71-14.71s-14.71,6.59-14.71,14.71,6.59,14.71,14.71,14.71c6.06,0,11.26-3.67,13.51-8.9l2.41,11.98H22.2V29.22h3.97v4.06c0,4.83,3.93,8.76,8.76,8.76,3.02,0,5.69-1.54,7.26-3.87,1.58,2.33,4.24,3.87,7.26,3.87s5.69-1.54,7.27-3.87c1.58,2.33,4.24,3.87,7.26,3.87s5.69-1.54,7.26-3.87c1.58,2.33,4.24,3.87,7.26,3.87s5.69-1.54,7.26-3.87c1.58,2.33,4.24,3.87,7.26,3.87,4.83,0,8.77-3.93,8.77-8.76v-4.06h3.97v48.41Zm-30.09-17.79c0,6.46-5.25,11.71-11.71,11.71s-11.71-5.25-11.71-11.71,5.25-11.71,11.71-11.71,11.71,5.25,11.71,11.71Z"/>
  <path class="cls-1" d="m65.01,58.4v-3.77c.93.2,1.83.62,2.7,1.27l1.11-1.87c-1.09-.81-2.28-1.33-3.73-1.51v-1.19h-1.73v1.15c-2.48.2-4.17,1.67-4.17,3.81s1.35,3.33,4.25,4.09v3.89c-1.29-.2-2.36-.79-3.49-1.71l-1.27,1.81c1.35,1.07,2.96,1.77,4.68,1.96v1.98h1.73v-1.96c2.52-.22,4.23-1.67,4.23-3.85s-1.29-3.35-4.31-4.11Zm-1.57-.42c-1.53-.46-1.9-.99-1.9-1.83s.65-1.57,1.9-1.67v3.49Zm1.57,6.37v-3.59c1.55.46,1.96.99,1.96,1.89,0,.95-.71,1.61-1.96,1.71Z"/>
</svg>