<?xml version="1.0" encoding="UTF-8"?>
<svg id="Layer_1" data-name="Layer 1" xmlns="http://www.w3.org/2000/svg" viewBox="0 0 128 128">
  <defs>
    <style>
      .cls-1 {
        fill: #0069b1;
      }
    </style>
  </defs>
  <path class="cls-1" d="m108,72.62v-17.25h-8.29c-.89-3.72-2.36-7.25-4.37-10.52l5.87-5.87-12.2-12.2-5.87,5.87c-3.28-2.01-6.81-3.47-10.52-4.37v-8.29h-17.25v8.29c-3.71.89-7.25,2.36-10.52,4.37l-5.87-5.87-12.2,12.2,5.87,5.87c-2.01,3.28-3.48,6.81-4.37,10.52h-8.29v17.25h8.29c.89,3.71,2.36,7.24,4.37,10.52l-5.87,5.87,12.2,12.2,5.87-5.87c3.28,2.01,6.81,3.48,10.52,4.37v8.29h17.25v-8.29c3.71-.89,7.24-2.36,10.52-4.37l5.87,5.87,12.2-12.2-5.87-5.87c2.01-3.28,3.47-6.81,4.37-10.52h8.29Zm-10.96-1.8c-.86,4.18-2.49,8.12-4.86,11.71l-.67,1.02,5.46,5.46-7.96,7.95-5.46-5.46-1.02.67c-3.59,2.37-7.53,4-11.71,4.86l-1.2.25v7.71h-11.25v-7.71l-1.2-.25c-4.18-.86-8.12-2.49-11.71-4.86l-1.02-.67-5.46,5.46-7.95-7.95,5.46-5.46-.67-1.02c-2.37-3.59-4-7.53-4.86-11.71l-.25-1.2h-7.71v-11.25h7.71l.25-1.2c.86-4.18,2.49-8.12,4.86-11.71l.67-1.02-5.46-5.46,7.95-7.95,5.46,5.46,1.02-.67c3.59-2.37,7.53-4,11.71-4.86l1.2-.25v-7.71h11.25v7.71l1.2.25c4.18.86,8.12,2.49,11.71,4.86l1.02.67,5.46-5.46,7.96,7.95-5.46,5.46.67,1.02c2.37,3.59,4,7.53,4.86,11.71l.25,1.2h7.71v11.25h-7.71l-.25,1.2Z"/>
  <path class="cls-1" d="m64,39.68c-13.41,0-24.32,10.91-24.32,24.32s10.91,24.32,24.32,24.32,24.32-10.91,24.32-24.32-10.91-24.32-24.32-24.32Zm0,45.64c-11.76,0-21.32-9.56-21.32-21.32s9.56-21.32,21.32-21.32,21.32,9.56,21.32,21.32-9.56,21.32-21.32,21.32Z"/>
  <rect class="cls-1" x="51.02" y="68.92" width="3" height="6.68"/>
  <rect class="cls-1" x="58.67" y="62.82" width="3" height="12.77"/>
  <rect class="cls-1" x="66.33" y="56.73" width="3" height="18.87"/>
  <rect class="cls-1" x="73.98" y="50.64" width="3" height="24.96"/>
</svg>