<?xml version="1.0" encoding="UTF-8"?>
<svg id="Layer_1" data-name="Layer 1" xmlns="http://www.w3.org/2000/svg" viewBox="0 0 128 128">
  <defs>
    <style>
      .cls-1 {
        fill: #0069b1;
      }
    </style>
  </defs>
  <path class="cls-1" d="m72.63,42.27c-5.4,0-9.79,4.39-9.79,9.79s4.39,9.79,9.79,9.79,9.79-4.39,9.79-9.79-4.39-9.79-9.79-9.79Zm0,16.58c-3.74,0-6.79-3.05-6.79-6.79s3.05-6.79,6.79-6.79,6.79,3.05,6.79,6.79-3.05,6.79-6.79,6.79Zm-42.98,22.67l1.89,2.93-2.91,1.88-1.89-2.93,2.91-1.88Zm75.77-8.89l-1.18-1.46c-2.22-2.74-5.98-3.56-9.13-2l-2.26,1.11-12.3,3.65c-.13-3.55-3.05-6.4-6.63-6.4h-10.38c-2.99-2.35-6.7-3.64-10.52-3.64-4.37,0-8.52,1.65-11.69,4.65l-1.56,1.47h0s-3.49,3.33-3.49,3.33c-.42.4-.89.76-1.39,1.07l-1.12.69-2.32-3.58-8.74,5.66,1.63,2.52,6.23-4.03,15.09,23.3-6.19,4.01,1.63,2.52,8.71-5.64-2.48-3.84,4.53-3.3c.08-.06.18-.09.28-.1l21.57-.55c3.8-.1,7.51-1.2,10.74-3.2l20.35-12.55c.61-.38,1.03-1,1.15-1.71.12-.71-.07-1.43-.52-1.99Zm-22.56,13.7c-2.78,1.71-5.98,2.67-9.24,2.75l-21.57.55c-.71.02-1.39.25-1.97.67l-4.4,3.2-10.28-15.88,1.07-.66c.67-.42,1.31-.91,1.88-1.45l5.16-4.92c2.6-2.39,5.97-3.71,9.5-3.71,3.3,0,6.5,1.17,9.02,3.28l.42.35h11.46c2.01,0,3.65,1.64,3.65,3.65s-1.52,3.54-3.45,3.64l-10.87.58.16,3,10.87-.58c2.41-.13,4.46-1.53,5.52-3.53l14.04-4.17,2.61-1.26c1.89-.93,4.15-.44,5.48,1.2l.83,1.02-19.87,12.25Zm-1.6-18.38c-.71-.84-1.57-1.55-2.53-2.1,5.29-2.35,8.99-7.65,8.99-13.8,0-8.33-6.77-15.1-15.1-15.1s-15.1,6.77-15.1,15.1c0,4.53,2.02,8.6,5.19,11.37-1.75-.97-3.64-1.68-5.6-2.09-1.63-2.72-2.59-5.88-2.59-9.28,0-9.98,8.12-18.1,18.1-18.1s18.1,8.12,18.1,18.1c0,6.85-3.83,12.83-9.46,15.9Zm-32.82-9.66h-5.63v-12.49h5.63c.58-2.26,1.48-4.41,2.67-6.43l-3.98-3.98,8.83-8.83,3.98,3.98c2.02-1.19,4.17-2.09,6.43-2.67v-5.63h12.49v5.63c2.26.58,4.41,1.48,6.43,2.67l3.99-3.98,8.83,8.83-3.98,3.98c1.19,2.02,2.09,4.17,2.67,6.43h5.63v12.49h-5.63c-.58,2.26-1.48,4.41-2.67,6.43l1.14,1.14c-.51.16-1.01.35-1.5.6l-1.44.71-2.03-2.03.67-1.02c1.54-2.34,2.61-4.9,3.17-7.63l.25-1.2h5.04v-6.49h-5.04l-.25-1.2c-.56-2.72-1.62-5.29-3.17-7.63l-.67-1.02,3.57-3.57-4.59-4.59-3.57,3.57-1.02-.67c-2.34-1.54-4.9-2.61-7.63-3.17l-1.2-.25v-5.04h-6.49v5.04l-1.2.25c-2.72.56-5.29,1.62-7.63,3.17l-1.02.67-3.57-3.57-4.59,4.59,3.57,3.57-.67,1.02c-1.54,2.34-2.61,4.91-3.17,7.63l-.25,1.2h-5.05v6.49h5.05l.25,1.2c.31,1.52.79,2.99,1.41,4.41-1.05.03-2.1.12-3.12.31-.38-.95-.7-1.93-.96-2.92Z"/>
</svg>