<?xml version="1.0" encoding="UTF-8"?>
<svg id="Layer_1" data-name="Layer 1" xmlns="http://www.w3.org/2000/svg" viewBox="0 0 128 128">
  <defs>
    <style>
      .cls-1 {
        fill: #0069b1;
      }
    </style>
  </defs>
  <path class="cls-1" d="m64,49.98c-5.71,0-6.5,3.62-6.5,7.54,0,5.07,2.85,9.04,6.5,9.04s6.5-3.97,6.5-9.04c0-3.92-.79-7.54-6.5-7.54Zm0,13.58c-1.86,0-3.5-2.82-3.5-6.04,0-3.91.83-4.54,3.5-4.54s3.5.63,3.5,4.54c0,3.56-1.84,6.04-3.5,6.04Z"/>
  <path class="cls-1" d="m64,40.03c-13.22,0-23.97,10.75-23.97,23.97s10.75,23.97,23.97,23.97,23.97-10.75,23.97-23.97-10.75-23.97-23.97-23.97Zm1.5,32.66v-2.39h3.29c3.68,0,6.67,2.99,6.67,6.67v4.56c-2.9,1.9-6.3,3.09-9.96,3.35v-9.38h-3v9.38c-3.98-.28-7.65-1.68-10.71-3.88v-4.04c0-3.68,2.99-6.67,6.67-6.67h4.04v2.39h3Zm12.96,6.46v-2.17c0-5.33-4.34-9.67-9.67-9.67h-10.33c-5.33,0-9.67,4.34-9.67,9.67v1.42c-3.56-3.76-5.76-8.82-5.76-14.39,0-11.56,9.41-20.97,20.97-20.97s20.97,9.41,20.97,20.97c0,5.96-2.51,11.33-6.51,15.15Z"/>
  <polygon class="cls-1" points="98 95.88 85.35 83.23 83.22 85.35 95.87 98 88.14 98 88.14 101 101 101 101 88.14 98 88.14 98 95.88"/>
  <polygon class="cls-1" points="30 32.11 42.65 44.77 44.77 42.65 32.13 30 39.86 30 39.86 27 27 27 27 39.86 30 39.86 30 32.11"/>
  <polygon class="cls-1" points="42.65 83.23 30 95.87 30 88.14 27 88.14 27 101 39.86 101 39.86 98 32.11 98 44.77 85.35 42.65 83.23"/>
  <polygon class="cls-1" points="88.14 27 88.14 30 95.88 30 83.23 42.65 85.35 44.78 98 32.13 98 39.86 101 39.86 101 27 88.14 27"/>
</svg>