<?xml version="1.0" encoding="UTF-8"?>
<svg id="Layer_1" data-name="Layer 1" xmlns="http://www.w3.org/2000/svg" viewBox="0 0 128 128">
  <defs>
    <style>
      .cls-1 {
        fill: #0069b1;
      }
    </style>
  </defs>
  <path class="cls-1" d="m40.19,50.04c-6.56,0-7.47,4.19-7.47,8.71,0,5.89,3.28,10.5,7.47,10.5s7.47-4.61,7.47-10.5c0-4.53-.91-8.71-7.47-8.71Zm0,16.22c-2.42,0-4.47-3.44-4.47-7.5,0-4.89,1.12-5.71,4.47-5.71s4.47.83,4.47,5.71c0,4.07-2.05,7.5-4.47,7.5Z"/>
  <path class="cls-1" d="m87.81,50.04c-6.57,0-7.47,4.19-7.47,8.71,0,5.89,3.28,10.5,7.47,10.5s7.47-4.61,7.47-10.5c0-4.53-.91-8.71-7.47-8.71Zm0,16.22c-2.42,0-4.47-3.44-4.47-7.5,0-4.89,1.12-5.71,4.47-5.71s4.47.83,4.47,5.71c0,4.07-2.05,7.5-4.47,7.5Z"/>
  <path class="cls-1" d="m87.81,33.16c-9.58,0-18.15,4.39-23.81,11.26-5.66-6.87-14.23-11.26-23.81-11.26-17,0-30.84,13.83-30.84,30.84s13.83,30.84,30.84,30.84c9.58,0,18.15-4.39,23.81-11.26,5.66,6.87,14.23,11.26,23.81,11.26,17,0,30.84-13.83,30.84-30.84s-13.83-30.84-30.84-30.84Zm-46.12,43.72v-3.14h4.22c4.55,0,8.26,3.71,8.26,8.26v6.06c-3.71,2.16-7.95,3.5-12.48,3.74v-11.55h-3v11.55c-4.9-.26-9.47-1.8-13.38-4.29v-5.51c0-4.55,3.71-8.26,8.26-8.26h5.12v3.14h3Zm15.48,9.16v-4.04c0-6.21-5.05-11.26-11.26-11.26h-12.35c-6.21,0-11.26,5.05-11.26,11.26v3.32c-6.08-5.11-9.96-12.77-9.96-21.31,0-15.35,12.49-27.84,27.84-27.84,8.92,0,16.86,4.22,21.96,10.76-3.27,4.89-5.18,10.77-5.18,17.08s1.91,12.19,5.18,17.08c-1.45,1.85-3.12,3.52-4.98,4.96Zm6.83-36.45c2.56,4.21,4.03,9.14,4.03,14.41s-1.47,10.2-4.03,14.41c-2.56-4.21-4.03-9.14-4.03-14.41s1.47-10.2,4.03-14.41Zm25.31,27.29v-3.14h4.22c4.55,0,8.26,3.71,8.26,8.26v6.06c-3.71,2.16-7.95,3.5-12.48,3.74v-11.55h-3v11.55c-4.9-.26-9.47-1.8-13.38-4.29v-5.51c0-4.55,3.71-8.26,8.26-8.26h5.12v3.14h3Zm15.48,9.16v-4.04c0-6.21-5.05-11.26-11.26-11.26h-12.35c-6.21,0-11.26,5.05-11.26,11.26v3.32c-1.5-1.26-2.87-2.68-4.08-4.23,3.27-4.89,5.18-10.77,5.18-17.08s-1.91-12.19-5.18-17.08c5.1-6.54,13.04-10.76,21.96-10.76,15.35,0,27.84,12.49,27.84,27.84,0,8.96-4.26,16.94-10.86,22.04Z"/>
</svg>