<?xml version="1.0" encoding="UTF-8"?>
<svg id="Layer_1" data-name="Layer 1" xmlns="http://www.w3.org/2000/svg" viewBox="0 0 128 128">
  <defs>
    <style>
      .cls-1 {
        fill: #0069b1;
      }
    </style>
  </defs>
  <path class="cls-1" d="m92.5,69.19v-19.26c.06-.16.1-.34.1-.53v-8.4c0-2.81-2.29-5.1-5.1-5.1H28.6c-2.81,0-5.1,2.29-5.1,5.1v38c0,2.81,2.29,5.1,5.1,5.1h11.94c-1.21-.85-2.32-1.86-3.26-3h-8.68c-1.18,0-2.1-.92-2.1-2.1v-28.1h63v18.2h-6.19c-.75-6.74-6.47-12-13.41-12h-19.9c-7.44,0-13.5,6.06-13.5,13.5s6.06,13.5,13.5,13.5h7.69c.75,6.74,6.47,12,13.41,12h19.9c7.44,0,13.5-6.06,13.5-13.5,0-6.94-5.26-12.66-12-13.41ZM26.5,47.9v-6.9c0-1.18.92-2.1,2.1-2.1h58.9c1.18,0,2.1.92,2.1,2.1v6.9H26.5Zm64.5,45.2h-19.9c-5.79,0-10.5-4.71-10.5-10.5s4.71-10.5,10.5-10.5v-3c-6.94,0-12.66,5.26-13.41,12h-7.69c-5.79,0-10.5-4.71-10.5-10.5s4.71-10.5,10.5-10.5h19.9c5.79,0,10.5,4.71,10.5,10.5s-4.71,10.5-10.5,10.5v3c6.94,0,12.66-5.26,13.41-12h7.69c5.79,0,10.5,4.71,10.5,10.5s-4.71,10.5-10.5,10.5Z"/>
</svg>