<?xml version="1.0" encoding="UTF-8"?>
<svg id="Layer_1" data-name="Layer 1" xmlns="http://www.w3.org/2000/svg" viewBox="0 0 128 128">
  <defs>
    <style>
      .cls-1 {
        fill: #0069b1;
      }
    </style>
  </defs>
  <path class="cls-1" d="m106.1,49.86h-17.87v-7.13c2.4-1.53,3.99-4.21,3.99-7.26v-5.01l-6.22-8.34H24.22l-6.22,8.34v5.01c0,4.75,3.86,8.61,8.61,8.61,2.99,0,5.58-1.38,7.13-3.51,1.51,2.15,4.05,3.51,7.06,3.51s5.57-1.39,7.11-3.54c1.54,2.15,4.12,3.54,7.11,3.54s5.57-1.39,7.11-3.54c1.54,2.15,4.12,3.54,7.11,3.54s5.64-1.4,7.19-3.56c1.55,2.16,4.16,3.56,7.18,3.56.55,0,1.09-.06,1.62-.16v5.93h-3.68c-2.15,0-3.9,1.75-3.9,3.9v4.72H27.96v3h49.68v4.61H28.81c-2.11,0-3.82-1.71-3.82-3.82v-15.25h-3v15.25c0,3.76,3.06,6.82,6.82,6.82h20.33v5.5h-6.89v3h25.72v-3h-6.89v-5.5h16.57v32.88c0,2.15,1.75,3.9,3.9,3.9h24.55c2.15,0,3.9-1.75,3.9-3.9v-48.21c0-2.15-1.75-3.9-3.9-3.9Zm-28.17-14.02h-3c0,2.99-2.44,5.25-5.69,5.25s-5.61-2.26-5.61-5.25h-3c0,2.99-2.41,5.25-5.61,5.25s-5.61-2.26-5.61-5.25h-3c0,2.99-2.41,5.25-5.61,5.25s-5.52-2.21-5.52-5.25h-3c0,2.99-2.44,5.25-5.67,5.25s-5.61-2.52-5.61-5.61v-4.02l4.72-6.33h58.78l3.12,4.18H27.44s0,3,0,3h61.78v3.17c0,3.09-2.52,5.61-5.61,5.61s-5.68-2.26-5.68-5.25Zm-19.85,38.75h-5.93v-5.5h5.93v5.5Zm23.47-21.73h24.55c.5,0,.9.4.9.9v38.71h-26.35v-38.71c0-.5.4-.9.9-.9Zm24.55,50.01h-24.55c-.5,0-.9-.41-.9-.9v-6.5h26.35v6.5c0,.5-.41.9-.9.9Z"/>
  <rect class="cls-1" x="91.83" y="97.56" width="3.99" height="3"/>
  <path class="cls-1" d="m88.73,76.1l-1.6,2.27c1.7,1.35,3.72,2.22,5.89,2.47v2.49h2.17v-2.47c3.17-.27,5.31-2.1,5.31-4.84s-1.62-4.22-5.41-5.16v-4.74c1.17.25,2.29.77,3.39,1.6l1.4-2.35c-1.37-1.02-2.87-1.67-4.69-1.9v-1.5h-2.17v1.45c-3.12.25-5.24,2.1-5.24,4.79s1.7,4.19,5.34,5.14v4.89c-1.62-.25-2.97-1-4.39-2.15Zm6.36-2.27c1.95.57,2.47,1.25,2.47,2.37,0,1.2-.9,2.02-2.47,2.15v-4.52Zm-4.37-5.79c0-1.1.82-1.97,2.39-2.1v4.39c-1.92-.57-2.39-1.25-2.39-2.29Z"/>
</svg>