<?xml version="1.0" encoding="UTF-8"?>
<svg id="Layer_1" data-name="Layer 1" xmlns="http://www.w3.org/2000/svg" viewBox="0 0 128 128">
  <defs>
    <style>
      .cls-1 {
        fill: #0069b1;
      }
    </style>
  </defs>
  <path class="cls-1" d="m46.57,86.09c0,2.08,1.69,3.78,3.78,3.78.83,0,1.58-.27,2.21-.73l7.72,4.46c-.02.14-.04.28-.04.42,0,2.08,1.69,3.78,3.78,3.78s3.78-1.69,3.78-3.78c0-.14-.03-.28-.04-.42l7.72-4.46c.62.45,1.38.73,2.21.73,2.08,0,3.78-1.69,3.78-3.78,0-1.55-.94-2.88-2.28-3.46v-8.8c1.34-.58,2.28-1.91,2.28-3.46,0-2.08-1.69-3.78-3.78-3.78-.84,0-1.61.29-2.24.75l-7.69-4.44c.02-.14.04-.28.04-.42,0-2.08-1.69-3.78-3.78-3.78s-3.78,1.69-3.78,3.78c0,.14.03.28.04.42l-7.69,4.44c-.63-.47-1.4-.75-2.24-.75-2.08,0-3.78,1.69-3.78,3.78,0,1.55.94,2.88,2.28,3.46v8.8c-1.34.58-2.28,1.91-2.28,3.46Zm27.32,0c0,.16.03.31.05.46l-7.69,4.44c-.23-.17-.47-.32-.74-.44v-8.85c1.34-.58,2.28-1.91,2.28-3.46,0-.14-.03-.28-.04-.42l7.69-4.44c.23.17.47.32.74.44v8.8c-1.34.58-2.28,1.91-2.28,3.46Zm-10.66-7.84c0-.43.35-.78.78-.78s.78.35.78.78-.35.78-.78.78-.78-.35-.78-.78Zm10.7-7.46l-7.69,4.44c-.63-.47-1.4-.75-2.24-.75s-1.61.29-2.24.75l-7.69-4.44c.02-.14.04-.28.04-.42s-.03-.28-.04-.42l7.69-4.44c.63.47,1.4.75,2.24.75s1.61-.29,2.24-.75l7.69,4.44c-.02.14-.04.28-.04.42s.03.28.04.42Zm-21.34,2.6l7.69,4.44c-.02.14-.04.28-.04.42,0,1.55.94,2.88,2.28,3.46v8.85c-.27.12-.51.27-.74.44l-7.69-4.44c.02-.15.05-.31.05-.46,0-1.55-.94-2.88-2.28-3.46v-8.8c.27-.12.51-.27.74-.44Zm-2.24,13.48c-.43,0-.78-.35-.78-.78s.35-.78.78-.78.78.35.78.78-.35.78-.78.78Zm13.66,7.93c-.43,0-.78-.35-.78-.78s.35-.78.78-.78.78.35.78.78-.35.78-.78.78Zm13.66-7.93c-.43,0-.78-.35-.78-.78s.35-.78.78-.78.78.35.78.78-.35.78-.78.78Zm0-17.28c.43,0,.78.35.78.78s-.35.78-.78.78-.78-.35-.78-.78.35-.78.78-.78Zm-13.66-7.89c.43,0,.78.35.78.78s-.35.78-.78.78-.78-.35-.78-.78.35-.78.78-.78Zm-13.66,7.89c.43,0,.78.35.78.78s-.35.78-.78.78-.78-.35-.78-.78.35-.78.78-.78Z"/>
  <path class="cls-1" d="m35.25,49.5v57.5h57.5v-57.5h-57.5Zm54.5,54.5h-51.5v-51.5h51.5v51.5Z"/>
  <path class="cls-1" d="m48.48,39.52c0-8.56,6.96-15.52,15.52-15.52s15.51,6.96,15.52,15.52v6.99h3v-6.99c0-10.21-8.31-18.52-18.52-18.52s-18.52,8.31-18.52,18.52v6.99h3v-6.99Z"/>
</svg>