<?xml version="1.0" encoding="utf-8"?>
<!-- Generator: Adobe Illustrator 27.6.1, SVG Export Plug-In . SVG Version: 6.00 Build 0)  -->
<svg version="1.1" id="Layer_1" xmlns="http://www.w3.org/2000/svg" xmlns:xlink="http://www.w3.org/1999/xlink" x="0px" y="0px"
	 viewBox="0 0 128 128" style="enable-background:new 0 0 128 128;" xml:space="preserve">
<style type="text/css">
	.st0{fill:#026AB0;}
</style>
<g>
	<g>
		<g>
			<g>
				<path class="st0" d="M90.7,84.4H59.9c-0.8,0-1.4-0.6-1.4-1.4c0-0.8,0.6-1.4,1.4-1.4h30.7c1.4,0,2.6-1.2,2.6-2.6v-58
					c0-1.4-1.2-2.6-2.6-2.6H53.5c-1.4,0-2.6,1.2-2.6,2.6v48.1c0,0.8-0.6,1.4-1.4,1.4c-0.8,0-1.4-0.6-1.4-1.4V21.1
					c0-2.9,2.4-5.3,5.3-5.3h37.1c2.9,0,5.3,2.4,5.3,5.3v58C96,82,93.6,84.4,90.7,84.4z"/>
			</g>
			<g>
				<path class="st0" d="M84.6,84.4h-9.2c-0.8,0-1.4-0.6-1.4-1.4V17.1c0-0.8,0.6-1.4,1.4-1.4h9.2c0.8,0,1.4,0.6,1.4,1.4V83
					C86,83.8,85.4,84.4,84.6,84.4z M76.8,81.6h6.4V18.5h-6.4V81.6z"/>
			</g>
		</g>
		<g>
			<path class="st0" d="M67.2,45.2c-0.8,0-1.4-0.6-1.4-1.4V22.6c0-0.8,0.6-1.4,1.4-1.4s1.4,0.6,1.4,1.4v21.2
				C68.6,44.6,68,45.2,67.2,45.2z"/>
		</g>
	</g>
	<g>
		<g>
			<path class="st0" d="M37,103.8c-0.8,0-1.4-0.6-1.4-1.4V69.8c0-0.4,0.1-0.7,0.4-1l12.5-12.5c0.5-0.5,1.4-0.5,1.9,0s0.5,1.4,0,1.9
				L38.4,70.4v32.1C38.4,103.2,37.8,103.8,37,103.8z"/>
		</g>
		<g>
			<path class="st0" d="M55,93.9c-0.3,0-0.7-0.1-1-0.4c-0.5-0.5-0.5-1.4,0-1.9c1.7-1.7,2.5-3.4,2.4-5.1c-0.1-2.6-2.3-4.4-2.3-4.4
				c-0.3-0.2-0.5-0.6-0.5-1c0-0.4,0.1-0.8,0.4-1l7.5-7.5c3.9-3.9,2.1-8,0.8-10L46.8,78.1c-0.5,0.5-1.4,0.5-1.9,0s-0.5-1.4,0-1.9
				l16.6-16.6c0.3-0.3,0.6-0.4,1-0.4c0.4,0,0.7,0.2,1,0.4c2.5,2.7,5.6,9.2,0,14.9L56.9,81c0.9,1.1,2.1,2.9,2.3,5.3
				c0.1,2.5-1,4.9-3.2,7.2C55.7,93.8,55.3,93.9,55,93.9z"/>
		</g>
		<g>
			<path class="st0" d="M65.2,103.8c-0.8,0-1.4-0.6-1.4-1.4v-5.9c0-0.7,0.6-1.3,1.3-1.4c0.6,0,5.7-0.6,5.7-5.6V83
				c0-0.8,0.6-1.4,1.4-1.4c0.8,0,1.4,0.6,1.4,1.4v6.6c0,5.4-4.1,7.6-7,8.2v4.7C66.6,103.2,66,103.8,65.2,103.8z"/>
		</g>
		<g>
			<path class="st0" d="M68.7,112.3c-0.8,0-1.4-0.6-1.4-1.4v-7.1H34.7v7.1c0,0.8-0.6,1.4-1.4,1.4c-0.8,0-1.4-0.6-1.4-1.4v-8.4
				c0-0.8,0.6-1.4,1.4-1.4h35.4c0.8,0,1.4,0.6,1.4,1.4v8.4C70.1,111.7,69.5,112.3,68.7,112.3z"/>
		</g>
	</g>
</g>
</svg>
