<?xml version="1.0" encoding="UTF-8"?>
<svg id="Layer_1" data-name="Layer 1" xmlns="http://www.w3.org/2000/svg" viewBox="0 0 128 128">
  <defs>
    <style>
      .cls-1 {
        fill: #0069b1;
      }
    </style>
  </defs>
  <path class="cls-1" d="m99.35,22.07c-8.12,0-14.71,6.59-14.71,14.71,0,5.82,3.39,10.84,8.29,13.22l-8.92,20.36c-1.13-.34-2.33-.53-3.57-.53-3.28,0-6.25,1.28-8.48,3.37l-22.72-19.04c.85-1.42,1.35-3.08,1.35-4.86,0-5.23-4.25-9.49-9.49-9.49s-9.49,4.25-9.49,9.49c0,3.17,1.57,5.98,3.97,7.71l-11.56,23.23c-.89-.28-1.84-.43-2.83-.43-5.23,0-9.49,4.25-9.49,9.49s4.25,9.49,9.49,9.49,9.49-4.25,9.49-9.49c0-3.17-1.57-5.98-3.98-7.71l11.56-23.23c.89.28,1.85.43,2.83.43,2.37,0,4.54-.88,6.2-2.33l22.71,19.04c-1.27,1.95-2.02,4.27-2.02,6.77,0,6.85,5.58,12.43,12.43,12.43s12.43-5.58,12.43-12.43c0-4.54-2.46-8.52-6.11-10.68l9-20.54c1.15.29,2.35.46,3.59.46,8.12,0,14.71-6.59,14.71-14.71s-6.59-14.71-14.71-14.71ZM21.22,95.76c-3.58,0-6.49-2.91-6.49-6.49s2.91-6.49,6.49-6.49,6.49,2.91,6.49,6.49-2.91,6.49-6.49,6.49Zm19.9-39.99c-3.58,0-6.49-2.91-6.49-6.49s2.91-6.49,6.49-6.49,6.49,2.91,6.49,6.49-2.91,6.49-6.49,6.49Zm48.75,26.48c0,5.2-4.23,9.43-9.43,9.43s-9.43-4.23-9.43-9.43,4.23-9.43,9.43-9.43,9.43,4.23,9.43,9.43Zm9.48-33.77c-6.46,0-11.71-5.25-11.71-11.71s5.25-11.71,11.71-11.71,11.71,5.25,11.71,11.71-5.25,11.71-11.71,11.71Z"/>
  <path class="cls-1" d="m100.37,35.35v-3.77c.93.2,1.83.62,2.7,1.27l1.11-1.87c-1.09-.81-2.28-1.33-3.73-1.51v-1.19h-1.73v1.15c-2.48.2-4.17,1.67-4.17,3.81s1.35,3.33,4.25,4.09v3.89c-1.29-.2-2.36-.79-3.49-1.71l-1.27,1.81c1.35,1.07,2.96,1.77,4.68,1.96v1.98h1.73v-1.96c2.52-.22,4.23-1.67,4.23-3.85s-1.29-3.35-4.31-4.11Zm-1.57-.42c-1.53-.46-1.9-.99-1.9-1.83s.65-1.57,1.9-1.67v3.49Zm1.57,6.37v-3.59c1.55.46,1.96.99,1.96,1.89,0,.95-.71,1.61-1.96,1.71Z"/>
</svg>