<?xml version="1.0" encoding="UTF-8"?>
<svg id="Layer_1" data-name="Layer 1" xmlns="http://www.w3.org/2000/svg" viewBox="0 0 128 128">
  <defs>
    <style>
      .cls-1 {
        fill: #0069b1;
      }
    </style>
  </defs>
  <path class="cls-1" d="m64,20.8c-26.93,0-32.2,14.15-32.2,38.6,0,26.36,14.44,47.8,32.2,47.8s32.2-21.45,32.2-47.8c0-24.45-5.27-38.6-32.2-38.6Zm0,83.41c-16.1,0-29.2-20.1-29.2-44.8,0-26.95,7.09-35.6,29.2-35.6s29.2,8.65,29.2,35.6c0,24.71-13.1,44.8-29.2,44.8Z"/>
  <path class="cls-1" d="m64,32.14c-9.81,0-17.79,7.98-17.79,17.79s7.98,17.79,17.79,17.79,17.79-7.98,17.79-17.79-7.98-17.79-17.79-17.79Zm-14.79,17.79c0-7.65,5.84-13.96,13.29-14.71v14.11l-9.8,10.13c-2.17-2.58-3.49-5.9-3.49-9.52Zm5.65,11.61l9.14-9.45,9.14,9.45c-2.52,1.99-5.69,3.18-9.14,3.18s-6.62-1.2-9.14-3.18Zm20.43-2.08l-9.8-10.13v-14.11c7.45.75,13.29,7.06,13.29,14.71,0,3.63-1.32,6.95-3.49,9.52Z"/>
</svg>