<?xml version="1.0" encoding="UTF-8"?>
<svg id="Layer_1" data-name="Layer 1" xmlns="http://www.w3.org/2000/svg" viewBox="0 0 128 128">
  <defs>
    <style>
      .cls-1 {
        fill: #0069b1;
      }
    </style>
  </defs>
  <path class="cls-1" d="m62.6,50.86h-11.75v11.75h11.75v-11.75Zm-3,8.75h-5.75v-5.75h5.75v5.75Z"/>
  <path class="cls-1" d="m77.45,50.86h-11.75v11.75h11.75v-11.75Zm-3,8.75h-5.75v-5.75h5.75v5.75Z"/>
  <polygon class="cls-1" points="59.6 77.45 62.6 77.45 62.6 65.71 50.85 65.71 50.85 68.71 59.6 68.71 59.6 77.45"/>
  <polygon class="cls-1" points="57.4 77.45 57.4 74.45 53.85 74.45 53.85 70.91 50.85 70.91 50.85 77.45 57.4 77.45"/>
  <path class="cls-1" d="m77.45,65.71h-11.75v11.75h11.75v-11.75Zm-3,8.75h-5.75v-5.75h5.75v5.75Z"/>
  <path class="cls-1" d="m82.65,19.72h-37c-3.58,0-6.5,2.92-6.5,6.5v75.55c0,3.58,2.92,6.5,6.5,6.5h37c3.58,0,6.5-2.92,6.5-6.5V26.22c0-3.58-2.92-6.5-6.5-6.5Zm-37,3h37c1.93,0,3.5,1.57,3.5,3.5v10.39h-44v-10.39c0-1.93,1.57-3.5,3.5-3.5Zm40.5,16.89v49.09h-44v-49.09h44Zm-3.5,65.66h-37c-1.93,0-3.5-1.57-3.5-3.5v-10.08h44v10.08c0,1.93-1.57,3.5-3.5,3.5Z"/>
  <rect class="cls-1" x="55.36" y="97.35" width="16.84" height="3"/>
  <rect class="cls-1" x="55.36" y="28.43" width="4.6" height="3"/>
  <rect class="cls-1" x="63.66" y="28.43" width="9.69" height="3"/>
</svg>