<?xml version="1.0" encoding="UTF-8"?>
<svg id="Layer_1" data-name="Layer 1" xmlns="http://www.w3.org/2000/svg" viewBox="0 0 128 128">
  <defs>
    <style>
      .cls-1 {
        fill: #0069b1;
      }
    </style>
  </defs>
  <path class="cls-1" d="m9.44,46.76v34.49h109.12v-34.49H9.44Zm106.12,31.49H12.44v-28.49h103.12v28.49Z"/>
  <rect class="cls-1" x="91.09" y="69.34" width="17.18" height="3.38"/>
  <polygon class="cls-1" points="69.36 69.82 74.2 66.96 74.2 72.59 77.59 72.59 77.59 66.96 82.43 69.82 84.15 66.91 79.22 64 84.15 61.09 82.43 58.18 77.59 61.04 77.59 55.41 74.2 55.41 74.2 61.04 69.36 58.18 67.64 61.09 72.57 64 67.64 66.91 69.36 69.82"/>
  <polygon class="cls-1" points="45.57 69.82 50.41 66.96 50.41 72.59 53.8 72.59 53.8 66.96 58.64 69.82 60.36 66.91 55.43 64 60.36 61.09 58.64 58.18 53.8 61.04 53.8 55.41 50.41 55.41 50.41 61.04 45.57 58.18 43.85 61.09 48.78 64 43.85 66.91 45.57 69.82"/>
  <polygon class="cls-1" points="21.78 69.82 26.63 66.96 26.63 72.59 30.01 72.59 30.01 66.96 34.86 69.82 36.58 66.91 31.64 64 36.58 61.09 34.86 58.18 30.01 61.04 30.01 55.41 26.63 55.41 26.63 61.04 21.78 58.18 20.06 61.09 24.99 64 20.06 66.91 21.78 69.82"/>
</svg>