<?xml version="1.0" encoding="UTF-8"?>
<svg id="Layer_1" data-name="Layer 1" xmlns="http://www.w3.org/2000/svg" viewBox="0 0 128 128">
  <defs>
    <style>
      .cls-1 {
        fill: #0069b1;
      }
    </style>
  </defs>
  <path class="cls-1" d="m102.81,33.08c-.65-1.77-1.95-3.18-3.66-3.97-11.04-5.11-22.85-7.7-35.11-7.7-13,0-25.47,2.9-37.04,8.63-1.69.84-2.96,2.28-3.56,4.07s-.48,3.7.36,5.39c1.2,2.43,3.63,3.93,6.33,3.93.52,0,1.04-.06,1.54-.17l29.02,62.47c.24.52.77.86,1.34.87h.02c.57,0,1.09-.33,1.35-.84l31.09-63.38c1.35.34,2.78.27,4.12-.23,1.77-.65,3.19-1.95,3.98-3.67.79-1.71.87-3.63.22-5.4Zm-49.54,49.55l-4.31-9.27c.17-.02.33-.05.5-.05,3,0,5.45,2.44,5.45,5.45,0,1.49-.61,2.87-1.64,3.88Zm8.82,18.98l-7.86-16.92c1.77-1.42,2.85-3.58,2.85-5.94,0-4.2-3.42-7.62-7.62-7.62-.5,0-.99.05-1.47.14l-13.54-29.14c.43-.2.86-.4,1.3-.6.55-.25,1.1-.49,1.65-.72.66-.27,1.32-.52,1.98-.78.55-.21,1.1-.42,1.66-.62.68-.24,1.36-.45,2.05-.67.55-.17,1.1-.36,1.65-.52.7-.2,1.41-.38,2.11-.56.55-.14,1.09-.29,1.64-.41.73-.17,1.47-.3,2.2-.45.54-.1,1.07-.22,1.61-.31.77-.13,1.56-.23,2.34-.33.51-.07,1.01-.15,1.53-.21.87-.1,1.74-.16,2.62-.22.43-.03.86-.08,1.29-.1,1.31-.07,2.63-.11,3.95-.11,1.24,0,2.47.03,3.7.1.44.02.87.07,1.3.1.79.06,1.57.11,2.35.19.53.06,1.06.13,1.58.2.68.09,1.36.17,2.03.27.57.09,1.14.2,1.7.31.62.11,1.25.22,1.87.36.59.13,1.18.27,1.76.41.59.14,1.18.28,1.76.44.6.16,1.19.34,1.79.52.56.17,1.13.34,1.69.52.6.2,1.19.41,1.79.62.55.2,1.1.39,1.64.6.59.23,1.18.47,1.76.71.31.13.61.26.91.39l-9.21,18.78c-1.02-.33-2.07-.5-3.16-.5-5.71,0-10.36,4.65-10.36,10.36,0,3.47,1.69,6.63,4.5,8.54l-11.37,23.17Zm9.87-31.71c0-4.06,3.3-7.36,7.36-7.36.62,0,1.23.08,1.82.23l-6.33,12.92c-1.78-1.38-2.84-3.48-2.84-5.79Zm27.91-32.68c-.46.99-1.27,1.73-2.29,2.11-1.02.37-2.12.33-3.1-.13-.04-.02-.08-.03-.12-.05,0,0,0,0,0,0-.06-.03-.12-.05-.18-.08-1.13-.52-2.27-1.01-3.43-1.47-.03-.01-.05-.02-.08-.03-2.4-.95-4.84-1.77-7.31-2.45-.03,0-.07-.02-.1-.03-1.21-.33-2.44-.64-3.67-.91-.1-.02-.21-.04-.32-.06-1.16-.25-2.33-.48-3.51-.67-.22-.04-.45-.06-.67-.09-1.06-.16-2.12-.31-3.2-.43-.52-.06-1.05-.08-1.57-.13-.78-.07-1.55-.15-2.34-.19-1.31-.07-2.63-.1-3.96-.1-1.44,0-2.88.04-4.31.13-9.72.56-19.05,3.02-27.76,7.33-.02,0-.06.02-.09.04-.56.27-1.14.41-1.75.41-1.56,0-2.95-.87-3.64-2.26-.48-.97-.55-2.07-.21-3.1s1.08-1.86,2.05-2.34c11.16-5.52,23.18-8.32,35.71-8.32,11.82,0,23.2,2.5,33.85,7.42.98.46,1.73,1.27,2.11,2.29.37,1.02.33,2.12-.13,3.1Z"/>
  <path class="cls-1" d="m49.89,43.57c-3.54,0-6.41,2.88-6.41,6.41s2.88,6.41,6.41,6.41,6.41-2.88,6.41-6.41-2.88-6.41-6.41-6.41Zm0,9.82c-1.88,0-3.41-1.53-3.41-3.41s1.53-3.41,3.41-3.41,3.41,1.53,3.41,3.41-1.53,3.41-3.41,3.41Z"/>
  <path class="cls-1" d="m79.04,49.98h3c0-3.54-2.88-6.41-6.41-6.41v3c1.88,0,3.41,1.53,3.41,3.41Z"/>
  <path class="cls-1" d="m59.75,84.62v3c3.54,0,6.41-2.88,6.41-6.41h-3c0,1.88-1.53,3.41-3.41,3.41Z"/>
  <path class="cls-1" d="m62.2,63.73c-1.88,0-3.41-1.53-3.41-3.41h-3c0,3.54,2.88,6.41,6.41,6.41v-3Z"/>
  <path class="cls-1" d="m65.6,42.64v-3c-3.54,0-6.41,2.88-6.41,6.41h3c0-1.88,1.53-3.41,3.41-3.41Z"/>
</svg>