<?xml version="1.0" encoding="utf-8"?>
<!-- Generator: Adobe Illustrator 27.6.1, SVG Export Plug-In . SVG Version: 6.00 Build 0)  -->
<svg version="1.1" id="Layer_1" xmlns="http://www.w3.org/2000/svg" xmlns:xlink="http://www.w3.org/1999/xlink" x="0px" y="0px"
	 viewBox="0 0 128 128" style="enable-background:new 0 0 128 128;" xml:space="preserve">
<style type="text/css">
	.st0{fill:#0069B1;}
</style>
<g>
	<g>
		<g>
			<path class="st0" d="M99.4,88.9h-9.8c-0.8,0-1.5-0.7-1.5-1.5c0-0.8,0.7-1.5,1.5-1.5h9.8c2.6,0,4.7-2.1,4.7-4.7V27.4
				c0-2.6-2.1-4.7-4.7-4.7H28.6c-2.6,0-4.7,2.1-4.7,4.7v53.8c0,2.6,2.1,4.7,4.7,4.7h8c0.8,0,1.5,0.7,1.5,1.5c0,0.8-0.7,1.5-1.5,1.5
				h-8c-4.2,0-7.6-3.4-7.6-7.6V27.4c0-4.2,3.4-7.6,7.6-7.6h70.7c4.2,0,7.6,3.4,7.6,7.6v53.8C107,85.4,103.6,88.9,99.4,88.9z"/>
		</g>
		<g>
			<path class="st0" d="M105.5,34.9h-83c-0.8,0-1.5-0.7-1.5-1.5c0-0.8,0.7-1.5,1.5-1.5h83c0.8,0,1.5,0.7,1.5,1.5
				C107,34.3,106.3,34.9,105.5,34.9z"/>
		</g>
		<g>
			<path class="st0" d="M98.5,29.1c-0.4,0-0.8-0.1-1-0.4c-0.1-0.1-0.2-0.3-0.3-0.5C97.1,28,97,27.8,97,27.6c0-0.2,0-0.4,0.1-0.6
				c0.1-0.2,0.2-0.3,0.3-0.5c0.6-0.6,1.6-0.6,2.1,0c0.3,0.3,0.4,0.6,0.4,1c0,0.4-0.2,0.8-0.4,1C99.3,28.9,98.9,29.1,98.5,29.1z"/>
		</g>
		<g>
			<path class="st0" d="M93,29.1c-0.4,0-0.8-0.1-1-0.4c-0.1-0.1-0.2-0.3-0.3-0.5c-0.1-0.2-0.1-0.4-0.1-0.6c0-0.2,0-0.4,0.1-0.6
				c0.1-0.2,0.2-0.3,0.3-0.5c0.6-0.6,1.6-0.6,2.1,0c0.1,0.1,0.2,0.3,0.3,0.5c0.1,0.2,0.1,0.4,0.1,0.6c0,0.2,0,0.4-0.1,0.6
				c-0.1,0.2-0.2,0.3-0.3,0.5C93.7,28.9,93.4,29.1,93,29.1z"/>
		</g>
		<g>
			<path class="st0" d="M87.4,29.1c-0.2,0-0.4,0-0.6-0.1c-0.2-0.1-0.3-0.2-0.5-0.3c-0.1-0.1-0.3-0.3-0.3-0.5
				c-0.1-0.2-0.1-0.4-0.1-0.6c0-0.2,0-0.4,0.1-0.6c0.1-0.2,0.2-0.3,0.3-0.5c0.1-0.1,0.3-0.3,0.5-0.3c0.4-0.1,0.8-0.1,1.1,0
				c0.2,0.1,0.3,0.2,0.5,0.3c0.1,0.1,0.2,0.3,0.3,0.5c0.1,0.2,0.1,0.4,0.1,0.6c0,0.2,0,0.4-0.1,0.6c-0.1,0.2-0.2,0.3-0.3,0.5
				c-0.1,0.1-0.3,0.2-0.5,0.3C87.8,29,87.6,29.1,87.4,29.1z"/>
		</g>
	</g>
	<g>
		<g>
			<path class="st0" d="M68.1,108.2h-8.2c-0.8,0-1.4-0.6-1.5-1.3l-0.5-6.3c-2.7-0.6-5.3-1.5-7.6-2.9l-4.6,3.9
				c-0.6,0.5-1.5,0.5-2-0.1l-5.8-5.8c-0.5-0.5-0.6-1.4-0.1-2l3.7-4.4c-1.6-2.4-2.7-5.1-3.4-7.9l-5.6-0.5c-0.8-0.1-1.3-0.7-1.3-1.5
				v-8.2c0-0.8,0.6-1.4,1.3-1.5l5.6-0.5c0.7-2.8,1.8-5.5,3.4-7.9l-3.7-4.4c-0.5-0.6-0.5-1.5,0.1-2l5.8-5.8c0.5-0.5,1.4-0.6,2-0.1
				l4.6,3.9c2.4-1.4,4.9-2.4,7.6-2.9l0.5-6.3c0.1-0.8,0.7-1.3,1.5-1.3h8.2c0.8,0,1.4,0.6,1.5,1.3l0.6,6.7c2.5,0.7,4.8,1.7,6.9,3.1
				l5.3-4.4c0.6-0.5,1.5-0.5,2,0.1l5.8,5.8c0.5,0.5,0.6,1.4,0.1,2l-4.6,5.5c1.2,2.1,2.1,4.3,2.7,6.7l7.3,0.6
				c0.8,0.1,1.3,0.7,1.3,1.5v8.2c0,0.8-0.6,1.4-1.3,1.5l-7.3,0.6c-0.6,2.3-1.5,4.6-2.7,6.7l4.6,5.5c0.5,0.6,0.5,1.5-0.1,2l-5.8,5.8
				c-0.5,0.5-1.4,0.6-2,0.1l-5.3-4.4c-2.2,1.4-4.5,2.4-6.9,3.1l-0.6,6.7C69.5,107.6,68.9,108.2,68.1,108.2z M61.2,105.3h5.5l0.6-6.4
				c0.1-0.6,0.5-1.2,1.1-1.3c2.8-0.7,5.5-1.9,7.9-3.5c0.5-0.4,1.3-0.4,1.8,0.1l5.1,4.3l3.9-3.9l-4.4-5.3c-0.4-0.5-0.5-1.2-0.1-1.7
				c1.5-2.4,2.5-5,3.1-7.7c0.1-0.6,0.7-1.1,1.3-1.2l7-0.6v-5.5l-7-0.6c-0.7-0.1-1.2-0.5-1.3-1.2c-0.5-2.7-1.6-5.3-3.1-7.7
				c-0.3-0.5-0.3-1.2,0.1-1.7l4.4-5.3l-3.9-3.9l-5.1,4.3c-0.5,0.4-1.3,0.5-1.8,0.1c-2.4-1.7-5.1-2.9-7.9-3.5
				c-0.6-0.1-1.1-0.7-1.1-1.3l-0.6-6.4h-5.5l-0.5,6c-0.1,0.7-0.6,1.2-1.2,1.3c-3.1,0.5-6,1.6-8.6,3.3c-0.5,0.3-1.2,0.3-1.7-0.1
				l-4.4-3.7L40.9,56l3.6,4.2c0.4,0.5,0.5,1.3,0.1,1.8c-1.9,2.7-3.2,5.6-3.8,8.8c-0.1,0.6-0.7,1.1-1.3,1.2L34,72.5V78l5.4,0.5
				c0.7,0.1,1.2,0.5,1.3,1.2c0.6,3.2,1.9,6.1,3.8,8.8c0.4,0.5,0.4,1.3-0.1,1.8l-3.6,4.2l3.9,3.9l4.4-3.7c0.5-0.4,1.2-0.5,1.7-0.1
				c2.6,1.7,5.5,2.8,8.6,3.3c0.7,0.1,1.2,0.7,1.2,1.3L61.2,105.3z M95.4,79.4L95.4,79.4L95.4,79.4z"/>
		</g>
		<g>
			<path class="st0" d="M64,91.7c-9,0-16.4-7.4-16.4-16.4c0-9,7.4-16.4,16.4-16.4c9,0,16.4,7.4,16.4,16.4C80.4,84.3,73,91.7,64,91.7
				z M64,61.8c-7.4,0-13.4,6-13.4,13.4c0,7.4,6,13.4,13.4,13.4c7.4,0,13.4-6,13.4-13.4C77.4,67.9,71.4,61.8,64,61.8z"/>
		</g>
	</g>
</g>
</svg>
