<?xml version="1.0" encoding="UTF-8"?>
<svg id="Layer_1" data-name="Layer 1" xmlns="http://www.w3.org/2000/svg" viewBox="0 0 128 128">
  <defs>
    <style>
      .cls-1 {
        fill: #0069b1;
      }
    </style>
  </defs>
  <path class="cls-1" d="m82.85,21.76h-33.5c-3.66,0-6.69,2.76-7.11,6.31-11.59.75-20.8,10.41-20.8,22.19s9.18,21.41,20.74,22.19v21.96c0,3.95,3.22,7.17,7.17,7.17h33.5c3.95,0,7.17-3.21,7.17-7.17V28.93c0-3.95-3.22-7.17-7.17-7.17Zm-58.41,28.5c0-10.61,8.63-19.24,19.24-19.24s19.24,8.63,19.24,19.24-8.63,19.24-19.24,19.24-19.24-8.63-19.24-19.24Zm31.37-18.63h24.61v20.76h-14.6c.07-.7.1-1.41.1-2.13,0-7.79-4.03-14.66-10.11-18.63Zm31.2,62.77c0,2.3-1.87,4.17-4.17,4.17h-33.5c-2.3,0-4.17-1.87-4.17-4.17v-21.96c1.1-.07,2.18-.23,3.22-.45v9.38h9.69v-9.69h-8.44c4.66-1.3,8.71-4.08,11.6-7.81v4.77h9.69v-9.69h-6.79c.49-1.14.88-2.34,1.17-3.57h18.1v-26.76h-34.57c-1.16-.28-2.36-.46-3.58-.55.39-1.89,2.07-3.32,4.08-3.32h33.5c2.3,0,4.17,1.87,4.17,4.17v65.48Zm-35.61-16.03v-3.69h3.69v3.69h-3.69Zm12.85-12.73v-3.69h3.69v3.69h-3.69Z"/>
  <polygon class="cls-1" points="91.95 36.31 91.95 39.31 93.56 39.31 93.56 73.49 91.95 73.49 91.95 76.49 96.56 76.49 96.56 36.31 91.95 36.31"/>
  <rect class="cls-1" x="48.25" y="105.24" width="35.69" height="3"/>
  <path class="cls-1" d="m74.1,68.65h9.69v-9.69h-9.69v9.69Zm3-6.69h3.69v3.69h-3.69v-3.69Z"/>
  <path class="cls-1" d="m61.25,81.38h9.69v-9.69h-9.69v9.69Zm3-6.69h3.69v3.69h-3.69v-3.69Z"/>
  <path class="cls-1" d="m74.1,81.38h9.69v-9.69h-9.69v9.69Zm3-6.69h3.69v3.69h-3.69v-3.69Z"/>
  <path class="cls-1" d="m61.25,94.1h9.69v-9.69h-9.69v9.69Zm3-6.69h3.69v3.69h-3.69v-3.69Z"/>
  <path class="cls-1" d="m74.1,94.1h9.69v-9.69h-9.69v9.69Zm3-6.69h3.69v3.69h-3.69v-3.69Z"/>
  <path class="cls-1" d="m48.41,94.1h9.69v-9.69h-9.69v9.69Zm3-6.69h3.69v3.69h-3.69v-3.69Z"/>
  <polygon class="cls-1" points="38.48 53.51 32.04 50.87 38.48 48.22 38.48 45.54 29.27 49.57 29.27 52.2 38.48 56.23 38.48 53.51"/>
  <polygon class="cls-1" points="46.9 42.4 38.47 60.02 40.93 60.02 49.36 42.4 46.9 42.4"/>
  <polygon class="cls-1" points="58.83 49.57 49.62 45.54 49.62 48.26 56.05 50.9 49.62 53.55 49.62 56.23 58.83 52.2 58.83 49.57"/>
</svg>