<?xml version="1.0" encoding="UTF-8"?>
<svg id="Layer_1" data-name="Layer 1" xmlns="http://www.w3.org/2000/svg" viewBox="0 0 128 128">
  <defs>
    <style>
      .cls-1 {
        fill: #0069b1;
      }
    </style>
  </defs>
  <path class="cls-1" d="m83.61,12.29h-38.05c-4.38,0-7.94,3.56-7.94,7.94v88.18c0,4.38,3.56,7.94,7.94,7.94h38.05c4.38,0,7.94-3.56,7.94-7.94V20.23c0-4.38-3.56-7.94-7.94-7.94Zm-38.05,3h38.05c2.72,0,4.94,2.22,4.94,4.94v8.59h-47.93v-8.59c0-2.72,2.22-4.94,4.94-4.94Zm38.05,98.05h-38.05c-2.72,0-4.94-2.22-4.94-4.94V31.82h47.93v76.59c0,2.72-2.22,4.94-4.94,4.94Z"/>
  <rect class="cls-1" x="59.53" y="22.39" width="10.11" height="3"/>
  <path class="cls-1" d="m45.11,101.19h38.95v-63.15h-38.95v63.15Zm3-60.15h32.95v57.15h-32.95v-57.15Z"/>
  <rect class="cls-1" x="94.83" y="30.84" width="3" height="53.48"/>
  <path class="cls-1" d="m51.28,67.4h11.75v-11.75h-11.75v11.75Zm3-8.75h5.75v5.75h-5.75v-5.75Z"/>
  <path class="cls-1" d="m66.13,67.4h11.75v-11.75h-11.75v11.75Zm3-8.75h5.75v5.75h-5.75v-5.75Z"/>
  <polygon class="cls-1" points="51.28 73.5 60.03 73.5 60.03 82.25 63.03 82.25 63.03 70.5 51.28 70.5 51.28 73.5"/>
  <polygon class="cls-1" points="54.28 75.7 51.28 75.7 51.28 82.25 57.83 82.25 57.83 79.25 54.28 79.25 54.28 75.7"/>
  <path class="cls-1" d="m66.13,82.25h11.75v-11.75h-11.75v11.75Zm3-8.75h5.75v5.75h-5.75v-5.75Z"/>
</svg>