<?xml version="1.0" encoding="UTF-8"?>
<svg id="Layer_1" data-name="Layer 1" xmlns="http://www.w3.org/2000/svg" viewBox="0 0 128 128">
  <defs>
    <style>
      .cls-1 {
        fill: #0069b1;
      }
    </style>
  </defs>
  <path class="cls-1" d="m44.27,41.72l1.35,3.54,5.87,17.83c.81,2.47,3.11,4.13,5.71,4.13h21.95v-3h-21.95c-1.3,0-2.45-.83-2.86-2.07l-.32-.99h25.18l3.93-11.63c.48-1.48.22-3.04-.69-4.3-.91-1.25-2.33-1.97-3.88-1.97h-30.49l-.99-2.61c-.7-1.85-2.5-3.09-4.48-3.09h-1.79v3h1.79c.74,0,1.42.47,1.68,1.16Zm8.75,16.45l-1.47-4.45h3.98l1.44,4.45h-3.95Zm12.75-7.45l-1.44-4.45h5l1.44,4.45h-5Zm5.97,3l1.44,4.45h-5l-1.44-4.45h5Zm-9.12-3h-4.9l-1.44-4.45h4.9l1.44,4.45Zm.97,3l1.44,4.45h-4.9l-1.44-4.45h4.9Zm12.74,4.45l-1.44-4.45h3.65l-1.51,4.45h-.7Zm3.67-11.16c.34.47.44,1.06.27,1.59l-.72,2.12h-5.63l-1.44-4.45h6.07c.58,0,1.11.27,1.46.74Zm-26.88-.74l1.44,4.45h-4l-1.46-4.45h4.02Z"/>
  <path class="cls-1" d="m58.43,69.08c-1.5,0-2.72,1.22-2.72,2.72s1.22,2.72,2.72,2.72,2.72-1.22,2.72-2.72-1.22-2.72-2.72-2.72Z"/>
  <path class="cls-1" d="m76.58,69.08c-1.5,0-2.72,1.22-2.72,2.72s1.22,2.72,2.72,2.72,2.72-1.22,2.72-2.72-1.22-2.72-2.72-2.72Z"/>
  <path class="cls-1" d="m16.98,27.18v57.05h45.52v13.59h-16.29v3h35.21v-3h-15.92v-13.59h25.35l20.17.1V27.18H16.98Zm91.05,54.13l-17.17-.08H19.98V30.18h88.05v51.13Z"/>
</svg>