<?xml version="1.0" encoding="UTF-8"?>
<svg id="Layer_1" data-name="Layer 1" xmlns="http://www.w3.org/2000/svg" viewBox="0 0 128 128">
  <defs>
    <style>
      .cls-1 {
        fill: #0069b1;
      }
    </style>
  </defs>
  <path class="cls-1" d="m75.52,23.83v3c3.73,0,6.77,3.04,6.77,6.77h3c0-5.39-4.38-9.77-9.77-9.77Z"/>
  <path class="cls-1" d="m75.52,19.24v3c6.27,0,11.36,5.1,11.36,11.36h3c0-7.92-6.44-14.36-14.36-14.36Z"/>
  <path class="cls-1" d="m75.52,14.64v3c8.8,0,15.96,7.16,15.96,15.96h3c0-10.45-8.5-18.96-18.96-18.96Z"/>
  <path class="cls-1" d="m73.72,27.88h-33.1c-3.92,0-7.1,3.19-7.1,7.1v64.69c0,3.92,3.19,7.1,7.1,7.1h33.1c3.92,0,7.1-3.19,7.1-7.1V34.98c0-3.92-3.18-7.1-7.1-7.1Zm4.1,71.79c0,2.26-1.84,4.1-4.1,4.1h-33.1c-2.26,0-4.1-1.84-4.1-4.1V34.98c0-2.26,1.84-4.1,4.1-4.1h33.1c2.26,0,4.1,1.84,4.1,4.1v64.69Z"/>
  <polygon class="cls-1" points="82.71 45.26 84.29 45.26 84.29 78.98 82.71 78.98 82.71 81.98 87.29 81.98 87.29 42.26 82.71 42.26 82.71 45.26"/>
  <rect class="cls-1" x="39.54" y="110.36" width="35.27" height="3"/>
  <path class="cls-1" d="m74.3,34.67h-34.27v26.47h34.27v-26.47Zm-3,23.47h-28.27v-20.47h28.27v20.47Z"/>
  <path class="cls-1" d="m52.37,74.24h9.61v-9.61h-9.61v9.61Zm3-6.61h3.61v3.61h-3.61v-3.61Z"/>
  <path class="cls-1" d="m65.06,74.24h9.61v-9.61h-9.61v9.61Zm3-6.61h3.61v3.61h-3.61v-3.61Z"/>
  <path class="cls-1" d="m39.67,74.24h9.61v-9.61h-9.61v9.61Zm3-6.61h3.61v3.61h-3.61v-3.61Z"/>
  <path class="cls-1" d="m52.37,86.82h9.61v-9.61h-9.61v9.61Zm3-6.61h3.61v3.61h-3.61v-3.61Z"/>
  <path class="cls-1" d="m65.06,86.82h9.61v-9.61h-9.61v9.61Zm3-6.61h3.61v3.61h-3.61v-3.61Z"/>
  <path class="cls-1" d="m39.67,86.82h9.61v-9.61h-9.61v9.61Zm3-6.61h3.61v3.61h-3.61v-3.61Z"/>
  <path class="cls-1" d="m52.37,99.38h9.61v-9.61h-9.61v9.61Zm3-6.61h3.61v3.61h-3.61v-3.61Z"/>
  <path class="cls-1" d="m65.06,99.38h9.61v-9.61h-9.61v9.61Zm3-6.61h3.61v3.61h-3.61v-3.61Z"/>
  <path class="cls-1" d="m39.67,99.38h9.61v-9.61h-9.61v9.61Zm3-6.61h3.61v3.61h-3.61v-3.61Z"/>
</svg>