<?xml version="1.0" encoding="utf-8"?>
<!-- Generator: Adobe Illustrator 27.6.1, SVG Export Plug-In . SVG Version: 6.00 Build 0)  -->
<svg version="1.1" id="Layer_1" xmlns="http://www.w3.org/2000/svg" xmlns:xlink="http://www.w3.org/1999/xlink" x="0px" y="0px"
	 viewBox="0 0 128 128" style="enable-background:new 0 0 128 128;" xml:space="preserve">
<style type="text/css">
	.st0{fill:#0069B1;}
</style>
<g>
	<path class="st0" d="M49.9,76.9l-2,2c3.9,5.1,9.9,8,16.3,8c2.2,0,4.3-0.3,6.2-1v-3c-1.9,0.7-4,1.1-6.2,1.1
		C58.5,84.1,53.3,81.4,49.9,76.9z"/>
	<path class="st0" d="M64.2,76.7c2.3,0,4.5-0.8,6.2-2.1v-4c-1.4,2-3.6,3.3-6.2,3.3c-3,0-5.7-1.8-6.9-4.4l-2.1,2.1
		C57.1,74.6,60.4,76.7,64.2,76.7z"/>
	<path class="st0" d="M64.2,58.7c2.6,0,4.8,1.3,6.2,3.3v-4c-1.7-1.3-3.9-2.1-6.2-2.1c-3.8,0-7.2,2.1-9,5.1l2.1,2.1
		C58.6,60.5,61.2,58.7,64.2,58.7z"/>
	<path class="st0" d="M70.5,101.7v-9.4c-0.3,0.1-0.5,0.1-0.8,0.2l-1.1,0.2v6.1H60v-6.1l-1.1-0.2c-3.3-0.7-6.5-2-9.3-3.9l-1-0.6
		l-4.3,4.3l-4.9-4.9l-2,2l6.9,6.9l4.7-4.7c2.6,1.5,5.3,2.7,8.2,3.4v6.7H70.5z"/>
	<g>
		<path class="st0" d="M47.9,53.6l2,2c3.4-4.5,8.6-7.2,14.3-7.2c2.2,0,4.3,0.4,6.2,1.1v-3c-2-0.6-4-1-6.2-1
			C57.8,45.6,51.8,48.6,47.9,53.6z"/>
		<path class="st0" d="M56.5,66.3L35.2,44.9v13.8H15.4v15.2h19.8v13.8L56.5,66.3z M18.2,71v-9.5H38v-9.7l14.5,14.5L38,80.8V71H18.2z
			"/>
		<path class="st0" d="M44.2,40.1l4.3,4.3l1-0.6c2.9-1.9,6-3.2,9.3-3.9l1.1-0.2v-6.1h8.6v6.1l1.1,0.2c0.3,0.1,0.5,0.1,0.8,0.2v-9.4
			H57.1v6.7c-2.9,0.7-5.6,1.9-8.2,3.4l-4.7-4.7L37.3,43l2,2L44.2,40.1z"/>
		<g>
			<path class="st0" d="M105.9,21H74.6c-3.7,0-6.7,3-6.7,6.7v72.5c0,3.7,3,6.7,6.7,6.7h31.3c3.7,0,6.7-3,6.7-6.7V27.8
				C112.6,24.1,109.6,21,105.9,21z M74.6,23.9h31.3c2.1,0,3.9,1.7,3.9,3.9v6.9h-39v-6.9C70.7,25.6,72.5,23.9,74.6,23.9z
				 M105.9,104.1H74.6c-2.1,0-3.9-1.7-3.9-3.9V37.5h39v62.8C109.8,102.4,108,104.1,105.9,104.1z"/>
			<rect x="86.1" y="29.4" class="st0" width="8.3" height="2.8"/>
			<path class="st0" d="M74.1,94.5h32.4V42.2H74.1V94.5z M76.9,45h26.7v46.6H76.9V45z"/>
		</g>
	</g>
</g>
</svg>
