<?xml version="1.0" encoding="UTF-8"?>
<svg id="Layer_1" data-name="Layer 1" xmlns="http://www.w3.org/2000/svg" viewBox="0 0 128 128">
  <defs>
    <style>
      .cls-1 {
        fill: #0069b1;
      }
    </style>
  </defs>
  <path class="cls-1" d="m64,38.28c-14.18,0-25.71,11.54-25.71,25.72s11.54,25.72,25.71,25.72,25.72-11.54,25.72-25.72-11.54-25.72-25.72-25.72Zm0,48.43c-12.53,0-22.71-10.19-22.71-22.72s10.19-22.72,22.71-22.72,22.72,10.19,22.72,22.72-10.19,22.72-22.72,22.72Z"/>
  <path class="cls-1" d="m56.41,28.61c18.25-3.91,36.29,6.74,41.98,24.1l-5.41-3.5-1.63,2.52,9.95,6.44,6.44-9.95-2.52-1.63-3.78,5.85c-5.91-19.18-25.67-31.04-45.66-26.75-18.26,3.92-31.29,20.29-30.98,38.94l3-.05c-.29-17.22,11.74-32.34,28.61-35.96Z"/>
  <path class="cls-1" d="m71.59,99.39c-9.46,2.03-19.13.25-27.25-5-7.04-4.55-12.17-11.25-14.73-19.1l5.41,3.5,1.63-2.52-9.95-6.44-6.44,9.95,2.52,1.63,3.78-5.84c2.7,8.79,8.34,16.28,16.15,21.34,6.42,4.15,13.74,6.3,21.21,6.3,2.76,0,5.54-.29,8.3-.88,18.26-3.92,31.29-20.29,30.98-38.94l-3,.05c.29,17.22-11.74,32.34-28.61,35.96Z"/>
  <path class="cls-1" d="m65.55,61.81v-5.79c1.43.3,2.8.94,4.14,1.95l1.71-2.86c-1.67-1.25-3.5-2.04-5.73-2.31v-1.83h-2.65v1.77c-3.81.3-6.4,2.56-6.4,5.85s2.07,5.12,6.52,6.27v5.97c-1.98-.3-3.62-1.22-5.36-2.62l-1.95,2.77c2.07,1.64,4.54,2.71,7.19,3.02v3.04h2.65v-3.01c3.87-.33,6.49-2.56,6.49-5.91s-1.98-5.15-6.61-6.3Zm-2.41-.64c-2.34-.7-2.92-1.52-2.92-2.8s1-2.41,2.92-2.56v5.36Zm2.41,9.78v-5.51c2.38.7,3.02,1.52,3.02,2.89,0,1.46-1.1,2.47-3.02,2.62Z"/>
</svg>