<?xml version="1.0" encoding="UTF-8"?>
<svg id="Layer_1" data-name="Layer 1" xmlns="http://www.w3.org/2000/svg" viewBox="0 0 128 128">
  <defs>
    <style>
      .cls-1 {
        fill: #0069b1;
      }
    </style>
  </defs>
  <path class="cls-1" d="m31.95,58.6h26.65v-26.65h-26.65v26.65Zm3-23.65h20.65v20.65h-20.65v-20.65Z"/>
  <path class="cls-1" d="m69.4,31.95v26.65h26.65v-26.65h-26.65Zm23.65,23.65h-20.65v-20.65h20.65v20.65Z"/>
  <polygon class="cls-1" points="31.95 72.4 55.6 72.4 55.6 96.05 58.6 96.05 58.6 69.4 31.95 69.4 31.95 72.4"/>
  <polygon class="cls-1" points="34.95 80.9 31.95 80.9 31.95 96.05 47.1 96.05 47.1 93.05 34.95 93.05 34.95 80.9"/>
  <path class="cls-1" d="m69.4,96.05h26.65v-26.65h-26.65v26.65Zm3-23.65h20.65v20.65h-20.65v-20.65Z"/>
  <rect class="cls-1" x="79.72" y="42.28" width="6" height="6"/>
  <rect class="cls-1" x="79.72" y="79.47" width="6" height="6"/>
  <rect class="cls-1" x="42.28" y="42.28" width="6" height="6"/>
</svg>