<?xml version="1.0" encoding="UTF-8"?>
<svg id="Layer_1" data-name="Layer 1" xmlns="http://www.w3.org/2000/svg" viewBox="0 0 128 128">
  <defs>
    <style>
      .cls-1 {
        fill: #0069b1;
      }
    </style>
  </defs>
  <path class="cls-1" d="m76.11,60.32c-.64-3.98-3.79-7.12-7.77-7.77v-2.59h-3v2.59c-3.98.64-7.12,3.79-7.77,7.77h-2.87v-9.11c0-6.1-4.97-11.07-11.07-11.07h-12.11c-6.1,0-11.07,4.97-11.07,11.07v9.11h-8.49v47.91h104.09v-47.91h-39.94Zm-9.27-4.9c3.01,0,5.54,2.09,6.22,4.9h-12.44c.68-2.81,3.21-4.9,6.22-4.9Zm-43.39-4.21c0-4.45,3.62-8.07,8.07-8.07h12.11c4.45,0,8.07,3.62,8.07,8.07v9.11h-28.25v-9.11Zm89.6,54.01H14.95v-34.59h98.09v34.59ZM14.95,67.64v-4.32h98.09v4.32H14.95Z"/>
  <path class="cls-1" d="m38.07,38.74c4.14,0,7.38-4.55,7.38-10.36,0-4.47-.89-8.6-7.38-8.6s-7.38,4.13-7.38,8.6c0,5.81,3.24,10.36,7.38,10.36Zm0-15.96c3.28,0,4.38.81,4.38,5.6,0,3.99-2,7.36-4.38,7.36s-4.38-3.37-4.38-7.36c0-4.79,1.09-5.6,4.38-5.6Z"/>
</svg>