<?xml version="1.0" encoding="utf-8"?>
<!-- Generator: Adobe Illustrator 27.6.1, SVG Export Plug-In . SVG Version: 6.00 Build 0)  -->
<svg version="1.1" id="Layer_1" xmlns="http://www.w3.org/2000/svg" xmlns:xlink="http://www.w3.org/1999/xlink" x="0px" y="0px"
	 viewBox="0 0 128 128" style="enable-background:new 0 0 128 128;" xml:space="preserve">
<style type="text/css">
	.st0{fill:#0069B1;}
</style>
<g>
	<g>
		<g>
			<path class="st0" d="M90.7,41.2H54.6c-0.7,0-1.2-0.6-1.2-1.2c0-0.7,0.6-1.2,1.2-1.2h36.1c0.7,0,1.2,0.6,1.2,1.2
				C91.9,40.6,91.4,41.2,90.7,41.2z"/>
		</g>
		<g>
			<path class="st0" d="M90.7,51H54.6c-0.7,0-1.2-0.6-1.2-1.2c0-0.7,0.6-1.2,1.2-1.2h36.1c0.7,0,1.2,0.6,1.2,1.2
				C91.9,50.5,91.4,51,90.7,51z"/>
		</g>
		<g>
			<path class="st0" d="M90.7,60.9H54.6c-0.7,0-1.2-0.6-1.2-1.2c0-0.7,0.6-1.2,1.2-1.2h36.1c0.7,0,1.2,0.6,1.2,1.2
				C91.9,60.3,91.4,60.9,90.7,60.9z"/>
		</g>
		<g>
			<path class="st0" d="M90.7,70.7H54.6c-0.7,0-1.2-0.6-1.2-1.2c0-0.7,0.6-1.2,1.2-1.2h36.1c0.7,0,1.2,0.6,1.2,1.2
				C91.9,70.1,91.4,70.7,90.7,70.7z"/>
		</g>
		<g>
			<path class="st0" d="M90.7,80.5H54.6c-0.7,0-1.2-0.6-1.2-1.2c0-0.7,0.6-1.2,1.2-1.2h36.1c0.7,0,1.2,0.6,1.2,1.2
				C91.9,80,91.4,80.5,90.7,80.5z"/>
		</g>
		<g>
			<path class="st0" d="M90.7,90.4H54.6c-0.7,0-1.2-0.6-1.2-1.2c0-0.7,0.6-1.2,1.2-1.2h36.1c0.7,0,1.2,0.6,1.2,1.2
				C91.9,89.8,91.4,90.4,90.7,90.4z"/>
		</g>
	</g>
	<g>
		<g>
			<path class="st0" d="M97.9,103H47.4c-0.7,0-1.2-0.6-1.2-1.2V34.9c0-0.7,0.6-1.2,1.2-1.2s1.2,0.6,1.2,1.2v65.6h47.9V34.9
				c0-0.7,0.6-1.2,1.2-1.2c0.7,0,1.2,0.6,1.2,1.2v66.9C99.1,102.4,98.6,103,97.9,103z"/>
		</g>
		<g>
			<path class="st0" d="M47.4,36.1c-0.7,0-1.2-0.6-1.2-1.2c0-4.1-3.3-7.4-7.4-7.4c-0.7,0-1.2-0.6-1.2-1.2s0.6-1.2,1.2-1.2
				c5.5,0,9.9,4.4,9.9,9.9C48.7,35.6,48.1,36.1,47.4,36.1z"/>
		</g>
		<g>
			<path class="st0" d="M38.7,47.2h-8.6c-0.7,0-1.2-0.6-1.2-1.2V34.9c0-5.5,4.4-9.9,9.9-9.9c0.7,0,1.2,0.6,1.2,1.2s-0.6,1.2-1.2,1.2
				c-4.1,0-7.4,3.3-7.4,7.4v9.9h7.4c0.7,0,1.2,0.6,1.2,1.2C40,46.7,39.4,47.2,38.7,47.2z"/>
		</g>
		<g>
			<path class="st0" d="M97.9,36.1c-0.7,0-1.2-0.6-1.2-1.2c0-4.1-3.3-7.4-7.4-7.4H38.8c-0.7,0-1.2-0.6-1.2-1.2s0.6-1.2,1.2-1.2h50.4
				c5.5,0,9.9,4.4,9.9,9.9C99.1,35.6,98.6,36.1,97.9,36.1z"/>
		</g>
	</g>
</g>
</svg>
