<?xml version="1.0" encoding="UTF-8"?>
<svg id="Layer_1" data-name="Layer 1" xmlns="http://www.w3.org/2000/svg" viewBox="0 0 128 128">
  <defs>
    <style>
      .cls-1 {
        fill: #0069b1;
      }
    </style>
  </defs>
  <path class="cls-1" d="m72.09,74.71v-3h-9.76v-9.38h-3v9.38h-8.9v-9.38h-3v9.38h-8.8v-9.38h-3v9.38h-9.23v3h9.23v8.92h-9.23v3h9.23v9.38h3v-9.38h8.8v9.38h3v-9.38h8.9v9.38h3v-9.38h9.76v-3h-9.76v-8.92h9.76Zm-33.46,8.92v-8.92h8.8v8.92h-8.8Zm20.7,0h-8.9v-8.92h8.9v8.92Z"/>
  <path class="cls-1" d="m77.05,101.31H21.44v-44.61h9.84v1.92h3v-1.92h28.01c-.37-1.07-.67-2.17-.9-3.3h-27.11v-3.33h-3v3.33h-13.14v51.21h62.21v-30.78c-1.13-.32-2.23-.71-3.3-1.17v28.64Z"/>
  <path class="cls-1" d="m87.63,71.71c13.03,0,23.64-10.6,23.64-23.64s-10.6-23.64-23.64-23.64-23.64,10.6-23.64,23.64,10.6,23.64,23.64,23.64Zm0-44.27c11.38,0,20.64,9.26,20.64,20.64s-9.26,20.64-20.64,20.64-20.64-9.26-20.64-20.64,9.26-20.64,20.64-20.64Z"/>
  <path class="cls-1" d="m80.84,52.67l-2.13,3.03c2.26,1.8,4.96,2.96,7.86,3.3v3.33h2.9v-3.3c4.23-.37,7.09-2.8,7.09-6.46s-2.16-5.63-7.22-6.89v-6.32c1.56.33,3.06,1.03,4.53,2.13l1.86-3.13c-1.83-1.36-3.83-2.23-6.26-2.53v-2h-2.9v1.93c-4.16.33-6.99,2.8-6.99,6.39s2.26,5.59,7.12,6.86v6.52c-2.16-.33-3.96-1.33-5.86-2.86Zm8.49-3.03c2.6.77,3.29,1.66,3.29,3.16,0,1.6-1.2,2.7-3.29,2.86v-6.02Zm-5.83-7.72c0-1.46,1.1-2.63,3.2-2.8v5.86c-2.56-.77-3.2-1.67-3.2-3.06Z"/>
  <path class="cls-1" d="m42.01,47.27c-1.79-3.92-1.46-8.41.87-12.02,1.82-2.81,4.62-4.74,7.89-5.44,2.54-.55,5.13-.29,7.47.71l-3.81,1.2.9,2.86,8.85-2.78-2.78-8.85-2.86.9,1.29,4.1c-3.02-1.38-6.39-1.78-9.69-1.07-4.05.87-7.53,3.27-9.78,6.75-2.89,4.47-3.3,10.04-1.08,14.89l2.73-1.25Z"/>
  <path class="cls-1" d="m109.95,69.59l-2.73,1.25c1.79,3.92,1.46,8.41-.87,12.02-1.82,2.81-4.62,4.74-7.89,5.44-2.54.55-5.13.29-7.47-.71l3.81-1.2-.9-2.86-8.85,2.78,2.78,8.85,2.86-.9-1.28-4.08c2.02.92,4.19,1.4,6.4,1.4,1.09,0,2.19-.12,3.29-.35,4.05-.87,7.53-3.27,9.78-6.75,2.89-4.47,3.3-10.04,1.08-14.89Z"/>
</svg>