<?xml version="1.0" encoding="UTF-8"?>
<svg id="Layer_1" data-name="Layer 1" xmlns="http://www.w3.org/2000/svg" viewBox="0 0 128 128">
  <defs>
    <style>
      .cls-1 {
        fill: #0069b1;
      }
    </style>
  </defs>
  <path class="cls-1" d="m64,63.34c3.56,0,6.82-1.26,9.37-3.37l23.33,16.02-7.23,1.1.45,2.97,11.69-1.78-1.78-11.69-2.97.45.92,6.06-22.28-15.3c2.02-2.52,3.24-5.72,3.24-9.2,0-8.13-6.61-14.74-14.74-14.74-5.42,0-10.15,2.95-12.71,7.32l-21.71-14.91-1.7,2.47,22.14,15.21c-.49,1.47-.77,3.03-.77,4.66,0,8.13,6.61,14.74,14.74,14.74Zm0-26.49c6.48,0,11.74,5.27,11.74,11.74s-5.27,11.74-11.74,11.74-11.74-5.27-11.74-11.74,5.27-11.74,11.74-11.74Z"/>
  <path class="cls-1" d="m59.94,51.34l-1.28,1.81c1.35,1.08,2.97,1.77,4.7,1.97v1.99h1.73v-1.97c2.53-.22,4.24-1.67,4.24-3.86s-1.29-3.37-4.32-4.12v-3.78c.94.2,1.83.62,2.71,1.27l1.12-1.87c-1.1-.82-2.29-1.33-3.74-1.51v-1.19h-1.73v1.15c-2.49.2-4.18,1.67-4.18,3.82s1.35,3.35,4.26,4.1v3.9c-1.29-.2-2.37-.8-3.51-1.71Zm5.08-1.81c1.55.46,1.97,1,1.97,1.89,0,.96-.72,1.61-1.97,1.71v-3.6Zm-3.49-4.62c0-.88.66-1.57,1.91-1.67v3.51c-1.53-.46-1.91-1-1.91-1.83Z"/>
  <rect class="cls-1" x="23.03" y="99.01" width="23.65" height="3"/>
  <rect class="cls-1" x="23.03" y="91.56" width="23.65" height="3"/>
  <rect class="cls-1" x="23.03" y="84.1" width="23.65" height="3"/>
  <rect class="cls-1" x="23.03" y="76.65" width="23.65" height="3"/>
  <rect class="cls-1" x="23.03" y="69.2" width="23.65" height="3"/>
  <rect class="cls-1" x="23.03" y="61.75" width="23.65" height="3"/>
  <rect class="cls-1" x="23.03" y="54.3" width="23.65" height="3"/>
  <rect class="cls-1" x="52.9" y="99.01" width="23.65" height="3"/>
  <rect class="cls-1" x="52.9" y="91.56" width="23.65" height="3"/>
  <rect class="cls-1" x="81.33" y="99.01" width="23.65" height="3"/>
  <rect class="cls-1" x="81.33" y="91.56" width="23.65" height="3"/>
  <rect class="cls-1" x="52.9" y="84.1" width="23.65" height="3"/>
  <rect class="cls-1" x="52.9" y="76.65" width="23.65" height="3"/>
</svg>