<?xml version="1.0" encoding="UTF-8"?>
<svg id="Layer_1" data-name="Layer 1" xmlns="http://www.w3.org/2000/svg" viewBox="0 0 128 128">
  <defs>
    <style>
      .cls-1 {
        fill: #0069b1;
      }
    </style>
  </defs>
  <path class="cls-1" d="m105.49,54.49c-2.54-11.08-9.25-20.51-18.88-26.55-17.74-11.12-41.03-7.49-54.61,7.99l-1.15-7.67-2.97.45,1.9,12.64,12.64-1.89-.45-2.97-7.45,1.12c12.66-14.13,34.12-17.38,50.49-7.12,8.95,5.61,15.19,14.38,17.55,24.68,2.36,10.3.57,20.91-5.04,29.86-5.62,8.95-14.38,15.19-24.68,17.55-10.3,2.36-20.91.57-29.86-5.04-16.98-10.65-23.33-32.32-14.77-50.4l-2.71-1.28c-9.21,19.46-2.38,42.77,15.89,54.23,6.86,4.3,14.63,6.52,22.53,6.52,3.19,0,6.41-.36,9.59-1.09,11.08-2.54,20.51-9.25,26.55-18.88,6.04-9.63,7.97-21.04,5.43-32.12Z"/>
  <path class="cls-1" d="m64,91.88c15.37,0,27.88-12.51,27.88-27.88s-12.51-27.88-27.88-27.88-27.88,12.51-27.88,27.88,12.51,27.88,27.88,27.88Zm0-52.76c13.72,0,24.88,11.16,24.88,24.88s-11.16,24.88-24.88,24.88-24.88-11.16-24.88-24.88,11.16-24.88,24.88-24.88Z"/>
  <path class="cls-1" d="m57.23,68.58l-2.12,3.02c2.26,1.79,4.94,2.95,7.83,3.29v3.32h2.89v-3.28c4.21-.36,7.07-2.79,7.07-6.44s-2.16-5.61-7.2-6.87v-6.3c1.56.33,3.05,1.03,4.51,2.12l1.86-3.12c-1.82-1.36-3.82-2.22-6.24-2.52v-1.99h-2.89v1.92c-4.15.33-6.97,2.79-6.97,6.37s2.26,5.57,7.1,6.83v6.5c-2.16-.33-3.95-1.33-5.84-2.85Zm8.46-3.02c2.59.76,3.29,1.66,3.29,3.15,0,1.59-1.19,2.69-3.29,2.85v-6.01Zm-5.81-7.7c0-1.46,1.09-2.62,3.19-2.79v5.84c-2.55-.76-3.19-1.66-3.19-3.05Z"/>
</svg>