<?xml version="1.0" encoding="UTF-8"?>
<svg id="Layer_1" data-name="Layer 1" xmlns="http://www.w3.org/2000/svg" viewBox="0 0 128 128">
  <defs>
    <style>
      .cls-1 {
        fill: #0069b1;
      }
    </style>
  </defs>
  <path class="cls-1" d="m30.96,24.89v45.51c0,6.37,2.8,12.38,7.68,16.47l25.36,21.28,25.36-21.28c4.88-4.1,7.68-10.1,7.68-16.47V24.89H30.96Zm63.08,45.51c0,5.48-2.41,10.65-6.61,14.17l-23.43,19.66-23.43-19.66c-4.2-3.52-6.61-8.69-6.61-14.17V27.89h60.08v42.51Z"/>
  <path class="cls-1" d="m64,78.45c10.86,0,19.69-8.83,19.69-19.69s-8.83-19.69-19.69-19.69-19.69,8.83-19.69,19.69,8.83,19.69,19.69,19.69Zm0-36.39c9.2,0,16.69,7.49,16.69,16.69s-7.49,16.69-16.69,16.69-16.69-7.49-16.69-16.69,7.49-16.69,16.69-16.69Z"/>
  <polygon class="cls-1" points="75.47 52.2 73.35 50.08 59.18 64.25 54.65 59.72 52.53 61.84 59.18 68.49 75.47 52.2"/>
</svg>