<?xml version="1.0" encoding="UTF-8"?>
<svg id="Layer_1" data-name="Layer 1" xmlns="http://www.w3.org/2000/svg" viewBox="0 0 128 128">
  <defs>
    <style>
      .cls-1 {
        fill: #0069b1;
      }
    </style>
  </defs>
  <path class="cls-1" d="m103.14,65.96c0-7.24-5.65-13.39-12.86-13.99l-.25,2.99c5.67.48,10.11,5.31,10.11,11h3Z"/>
  <path class="cls-1" d="m83.25,44.37h3c0-8.17-6.64-14.81-14.81-14.81v3c6.51,0,11.81,5.3,11.81,11.81Z"/>
  <path class="cls-1" d="m92.87,45.6c.03-.42.04-.82.04-1.22,0-11.84-9.64-21.48-21.48-21.48-6.1,0-11.85,2.57-15.92,7.08-1.18-.25-2.38-.37-3.55-.37-9.17,0-16.81,7.14-17.57,16.15-9.31,2.09-16.19,10.57-16.19,20.21,0,11.43,9.3,20.73,20.73,20.73h13.73c-.06-.66-.09-1.33-.09-2,0-.34.01-.67.03-1h-13.67c-9.77,0-17.73-7.95-17.73-17.73,0-8.59,6.39-16.1,14.87-17.48l1.24-.2.02-1.26c.11-7.95,6.67-14.42,14.63-14.42,1.23,0,2.48.16,3.71.49l.93.24.61-.74c3.53-4.26,8.71-6.71,14.23-6.71,10.19,0,18.48,8.29,18.48,18.48,0,.72-.05,1.45-.16,2.3l-.2,1.52,1.52.17c8.96,1.01,15.72,8.59,15.72,17.61,0,6-3.01,11.42-7.75,14.65.19,1.08.31,2.19.34,3.32,6.32-3.63,10.41-10.4,10.41-17.97,0-10.06-7.17-18.57-16.92-20.38Z"/>
  <path class="cls-1" d="m75.98,64.27c-11.26,0-20.42,9.16-20.42,20.42s9.16,20.42,20.42,20.42,20.42-9.16,20.42-20.42-9.16-20.42-20.42-20.42Zm0,37.84c-9.6,0-17.42-7.81-17.42-17.42s7.81-17.42,17.42-17.42,17.42,7.81,17.42,17.42-7.81,17.42-17.42,17.42Z"/>
  <path class="cls-1" d="m73.37,72.62c-4.18.9-7.57,3.83-9.06,7.83l2.81,1.05c1.14-3.04,3.71-5.27,6.88-5.95,4.21-.9,8.38,1.17,10.32,4.8l-1.9-.99-1.39,2.66,6.71,3.5,3.5-6.71-2.66-1.39-1.22,2.33c-2.33-5.28-8.14-8.4-14-7.14Z"/>
  <path class="cls-1" d="m77.96,94.04c-4.22.9-8.39-1.18-10.32-4.8l1.9.99,1.39-2.66-6.71-3.5-3.5,6.71,2.66,1.39,1.22-2.34c1.98,4.5,6.47,7.43,11.38,7.43.86,0,1.74-.09,2.61-.28,4.18-.9,7.57-3.83,9.06-7.83l-2.81-1.05c-1.14,3.04-3.71,5.27-6.88,5.95Z"/>
</svg>