<?xml version="1.0" encoding="UTF-8"?>
<svg id="Layer_1" data-name="Layer 1" xmlns="http://www.w3.org/2000/svg" viewBox="0 0 128 128">
  <defs>
    <style>
      .cls-1 {
        fill: #0069b1;
      }
    </style>
  </defs>
  <path class="cls-1" d="m84.66,46.63v2.86c0,1.28.76,2.38,1.86,2.89.14,2.29,2.03,4.11,4.35,4.11s4.21-1.82,4.35-4.11c1.09-.51,1.86-1.6,1.86-2.88v-2.86c0-.84.32-1.62.89-2.13,2.22-2.01,3.5-4.87,3.5-7.86s-1.17-5.65-3.28-7.67c-2.12-2.02-4.9-3.05-7.83-2.92-5.32.25-9.74,4.61-10.06,9.93-.2,3.21,1.05,6.3,3.43,8.47.6.54.94,1.34.94,2.17Zm9.42,1.58v1.28c0,.1-.08.18-.18.18h-6.05c-.1,0-.18-.08-.18-.18v-1.28h6.42Zm-3.21,5.28c-.56,0-1.04-.33-1.25-.81h2.51c-.22.48-.7.81-1.25.81Zm-7.58-17.31c.23-3.81,3.4-6.93,7.21-7.11.13,0,.25,0,.37,0,1.96,0,3.81.74,5.24,2.1,1.52,1.45,2.35,3.4,2.35,5.5s-.92,4.19-2.51,5.63c-.85.77-1.43,1.79-1.7,2.93h-6.77c-.28-1.14-.87-2.17-1.74-2.96-1.7-1.55-2.6-3.77-2.46-6.07Z"/>
  <circle class="cls-1" cx="56.98" cy="98.29" r="2.12"/>
  <path class="cls-1" d="m39.85,65.38v-2.35c.65.17,1.31.5,1.93.92l1.04-1.82c-.84-.59-1.79-1-2.9-1.15v-.93h-1.62v.9c-1.96.2-3.27,1.34-3.27,3.07,0,1.84,1.11,2.71,3.35,3.32v2.48c-.92-.19-1.7-.62-2.54-1.26l-1.21,1.78c1.03.78,2.34,1.31,3.68,1.48v1.57h1.62v-1.54c1.98-.22,3.3-1.36,3.3-3.08s-1.01-2.73-3.38-3.36Zm-1.46-.39c-.86-.31-1.07-.64-1.07-1.12s.33-.87,1.07-.98v2.1Zm1.46,4.89v-2.18c.84.31,1.11.64,1.11,1.17,0,.56-.37.9-1.11,1.01Z"/>
  <path class="cls-1" d="m112,41.27c0-11.65-9.48-21.13-21.13-21.13-9.78,0-18.01,6.69-20.4,15.72h-28.16v13.01h14.34v4.13h-27.84c-2.44,0-4.42,1.98-4.42,4.42v20.99l-8.38,11.38v18.08h84.75v-18.08l-8.38-11.38v-16.09c10.95-.77,19.63-9.91,19.63-21.06Zm-21.89,39.13l6.17,8.38H20.47l6.17-8.38h63.47Zm.76-57.26c10,0,18.13,8.13,18.13,18.13s-8.13,18.13-18.13,18.13-18.13-8.13-18.13-18.13,8.13-18.13,18.13-18.13Zm-45.57,15.72h24.58c-.09.79-.15,1.59-.15,2.41,0,1.58.19,3.12.52,4.6h-24.96v-7.01Zm14.34,10.01h11.54c.56,1.46,1.27,2.84,2.13,4.13h-13.67v-4.13Zm-32.26,8.54c0-.78.64-1.42,1.42-1.42h46.95c1.07,1.09,2.25,2.07,3.53,2.92h-28.47v15.57h35.42v-12.62c1.02.23,2.07.38,3.14.45v15.08H27.38v-19.99Zm55.85,4.5v9.57h-29.42v-9.57h29.42ZM19,104.86v-13.08h78.75v13.08H19Z"/>
</svg>