<?xml version="1.0" encoding="UTF-8"?>
<svg id="Layer_1" data-name="Layer 1" xmlns="http://www.w3.org/2000/svg" viewBox="0 0 128 128">
  <defs>
    <style>
      .cls-1 {
        fill: #0069b1;
      }
    </style>
  </defs>
  <path class="cls-1" d="m95.77,75.02v-22.13c2.89-.68,5.04-3.27,5.04-6.36,0-3.61-2.94-6.54-6.54-6.54-1.88,0-3.56.8-4.76,2.07l-19.25-11.11c.18-.6.28-1.23.28-1.89,0-3.61-2.94-6.54-6.54-6.54s-6.54,2.94-6.54,6.54c0,.66.1,1.29.28,1.88l-19.25,11.11c-1.19-1.27-2.88-2.06-4.76-2.06-3.61,0-6.54,2.94-6.54,6.54,0,3.09,2.16,5.68,5.04,6.36v22.13c-2.89.68-5.04,3.27-5.04,6.36,0,3.61,2.94,6.54,6.54,6.54,1.84,0,3.51-.77,4.7-2l19.31,11.15c-.18.6-.28,1.23-.28,1.88,0,3.61,2.94,6.54,6.54,6.54s6.54-2.94,6.54-6.54c0-.66-.1-1.29-.28-1.88l19.31-11.15c1.19,1.23,2.86,2,4.7,2,3.61,0,6.54-2.94,6.54-6.54,0-3.09-2.16-5.68-5.04-6.36Zm-1.5-32.04c1.95,0,3.54,1.59,3.54,3.54s-1.59,3.54-3.54,3.54-3.54-1.59-3.54-3.54c0-1.95,1.59-3.54,3.54-3.54Zm-30.27-17.48c1.95,0,3.54,1.59,3.54,3.54s-1.59,3.54-3.54,3.54-3.54-1.59-3.54-3.54,1.59-3.54,3.54-3.54Zm-33.82,21.02c0-1.95,1.59-3.54,3.54-3.54s3.54,1.59,3.54,3.54-1.59,3.54-3.54,3.54-3.54-1.59-3.54-3.54Zm3.54,38.4c-1.95,0-3.54-1.59-3.54-3.54s1.59-3.54,3.54-3.54,3.54,1.59,3.54,3.54c0,1.95-1.59,3.54-3.54,3.54Zm30.27,17.58c-1.95,0-3.54-1.59-3.54-3.54s1.59-3.54,3.54-3.54,3.54,1.59,3.54,3.54-1.59,3.54-3.54,3.54Zm23.73-21.12c0,.69.11,1.35.3,1.97l-19.28,11.13c-.87-.92-1.99-1.59-3.26-1.89v-11h-3v11c-1.27.3-2.39.97-3.26,1.88l-19.27-11.13c.2-.62.3-1.28.3-1.97h0c0-3.09-2.16-5.68-5.04-6.36v-22.13c1.24-.29,2.35-.94,3.2-1.83l10.82,6.91v-3.56l-9.28-5.93c.19-.62.3-1.28.3-1.96s-.1-1.29-.28-1.88l19.25-11.11c1.19,1.27,2.88,2.07,4.76,2.07s3.56-.8,4.76-2.06l19.25,11.11c-.18.6-.28,1.23-.28,1.89,0,.68.11,1.34.3,1.96l-9.28,5.93v3.56l10.82-6.91c.86.89,1.96,1.53,3.2,1.83v22.13c-2.89.68-5.04,3.27-5.04,6.36Zm6.54,3.54c-1.95,0-3.54-1.59-3.54-3.54s1.59-3.54,3.54-3.54,3.54,1.59,3.54,3.54-1.59,3.54-3.54,3.54Z"/>
  <path class="cls-1" d="m71.9,53.82c0-4.35-3.54-7.9-7.9-7.9s-7.9,3.54-7.9,7.9v1.29h-3.85v23.49h23.49v-23.49h-3.85v-1.29Zm-12.79,0c0-2.7,2.2-4.9,4.9-4.9s4.9,2.2,4.9,4.9v1.29h-9.79v-1.29Zm13.64,21.78h-17.49v-17.49h17.49v17.49Z"/>
</svg>