<?xml version="1.0" encoding="UTF-8"?>
<svg id="Layer_1" data-name="Layer 1" xmlns="http://www.w3.org/2000/svg" viewBox="0 0 128 128">
  <defs>
    <style>
      .cls-1 {
        fill: #0069b1;
      }
    </style>
  </defs>
  <path class="cls-1" d="m64,17.54c-10.55,0-19.62,7.16-22.05,17.42-.39,1.63-.01,3.33,1.03,4.65,1.05,1.33,2.63,2.1,4.33,2.1,2.54,0,4.74-1.75,5.35-4.26,1.32-5.43,6.35-9.17,11.93-8.9,6.21.31,11.08,5.59,11.08,12.04v1.9c0,2.62-1.78,4.86-4.33,5.46l-20.6,4.8c-5.53,1.29-9.4,6.16-9.4,11.84v45.88h45.32V40.2c0-12.5-10.17-22.66-22.66-22.66Zm1.73,71.26v-2.64h3.61c3.97,0,7.21,3.23,7.21,7.21v14.1h-25.43v-14.1c0-3.97,3.23-7.21,7.21-7.21h4.41v2.64h3Zm17.93,18.66h-4.12v-14.1c0-5.63-4.58-10.21-10.21-10.21h-11.01c-5.63,0-10.21,4.58-10.21,10.21v14.1h-3.78v-42.88c0-4.28,2.91-7.95,7.08-8.92l20.6-4.8c3.92-.91,6.65-4.36,6.65-8.38v-1.9c0-8.04-6.12-14.65-13.93-15.03-7.06-.35-13.33,4.36-14.99,11.18-.28,1.16-1.28,1.97-2.44,1.97-.77,0-1.49-.35-1.97-.96-.47-.6-.64-1.36-.47-2.1,2.11-8.9,9.97-15.11,19.13-15.11,10.84,0,19.66,8.82,19.66,19.66v67.26Z"/>
  <path class="cls-1" d="m64.23,64.69c-6,0-6.83,3.81-6.83,7.94,0,5.35,3,9.53,6.83,9.53s6.83-4.19,6.83-9.53c0-4.12-.83-7.94-6.83-7.94Zm0,14.47c-2.04,0-3.83-3.05-3.83-6.53,0-4.26.91-4.94,3.83-4.94s3.83.68,3.83,4.94c0,3.48-1.79,6.53-3.83,6.53Z"/>
  <rect class="cls-1" x="62.73" y="91.8" width="3" height="11.21"/>
</svg>