<?xml version="1.0" encoding="UTF-8"?>
<svg id="Layer_1" data-name="Layer 1" xmlns="http://www.w3.org/2000/svg" viewBox="0 0 128 128">
  <defs>
    <style>
      .cls-1 {
        fill: #0069b1;
      }
    </style>
  </defs>
  <rect class="cls-1" x="35.08" y="25.45" width="4.6" height="3"/>
  <rect class="cls-1" x="43.38" y="25.45" width="9.69" height="3"/>
  <path class="cls-1" d="m21.88,34.64h44v22.11h3v-31.5c0-3.58-2.92-6.5-6.5-6.5H25.38c-3.58,0-6.5,2.92-6.5,6.5v34.29c.84-.88,1.86-1.6,3-2.08v-22.82Zm3.5-12.89h37c1.93,0,3.5,1.57,3.5,3.5v6.39H21.88v-6.39c0-1.93,1.57-3.5,3.5-3.5Z"/>
  <path class="cls-1" d="m102.93,59.25H25.38c-3.58,0-6.5,2.92-6.5,6.5v37c0,3.58,2.92,6.5,6.5,6.5h77.55c3.58,0,6.5-2.92,6.5-6.5v-37c0-3.58-2.92-6.5-6.5-6.5Zm-10.39,3v44h-57.09v-44h57.09ZM21.88,102.75v-37c0-1.93,1.57-3.5,3.5-3.5h7.08v44h-7.08c-1.93,0-3.5-1.57-3.5-3.5Zm84.55,0c0,1.93-1.57,3.5-3.5,3.5h-7.39v-44h7.39c1.93,0,3.5,1.57,3.5,3.5v37Z"/>
  <rect class="cls-1" x="25.81" y="75.46" width="3" height="16.84"/>
  <rect class="cls-1" x="99.72" y="75.46" width="3" height="4.6"/>
  <rect class="cls-1" x="99.72" y="83.76" width="3" height="9.69"/>
  <path class="cls-1" d="m74.23,41.36c1.9-1.37,4.14-2.09,6.48-2.09,6.12,0,11.09,4.98,11.09,11.09v.24l-4.29-4.29-2.12,2.12,7.89,7.89,7.89-7.89-2.12-2.12-4.25,4.25v-.2c0-7.77-6.32-14.09-14.09-14.09-2.98,0-5.83.92-8.24,2.66-.33.24-.65.49-.96.76l1.96,2.27c.24-.21.5-.41.76-.6Z"/>
</svg>