<?xml version="1.0" encoding="UTF-8"?>
<svg id="Layer_1" data-name="Layer 1" xmlns="http://www.w3.org/2000/svg" viewBox="0 0 128 128">
  <defs>
    <style>
      .cls-1 {
        fill: #0069b1;
      }
    </style>
  </defs>
  <polygon class="cls-1" points="108.16 35.38 108.16 94.01 71.48 94.01 71.48 97.01 111.16 97.01 111.16 35.38 108.16 35.38"/>
  <polygon class="cls-1" points="19.84 35.38 16.84 35.38 16.84 97.01 56.46 97.01 56.46 94.01 19.84 94.01 19.84 35.38"/>
  <path class="cls-1" d="m104.73,30.99h-35.08c-1.84,0-3.75,1.39-5.45,2.83h-.45c-1.7-1.44-3.61-2.83-5.45-2.83H23.24v59.66h35.08c1.08,0,3.27,1.91,3.99,2.54.72.63,1.05.92,1.68.92s.95-.29,1.68-.92c.72-.63,2.92-2.54,3.99-2.54h35.08V30.99Zm-46.41,56.66H26.24v-53.66h32.08c1.08,0,3.27,1.91,3.99,2.54.07.06.12.1.18.15v52.78c-1.35-1.01-2.78-1.81-4.17-1.81Zm43.41,0h-32.08c-1.39,0-2.82.8-4.17,1.81v-52.78c.06-.05.11-.09.18-.15.72-.63,2.92-2.54,3.99-2.54h32.08v53.66Z"/>
  <path class="cls-1" d="m44.36,64.85c6.47,0,11.74-5.27,11.74-11.74s-5.27-11.74-11.74-11.74-11.74,5.27-11.74,11.74,5.27,11.74,11.74,11.74Zm0-20.48c4.82,0,8.74,3.92,8.74,8.74s-3.92,8.74-8.74,8.74-8.74-3.92-8.74-8.74,3.92-8.74,8.74-8.74Z"/>
  <polygon class="cls-1" points="50.4 50.61 48.28 48.49 43.28 53.49 40.44 50.64 38.32 52.77 43.28 57.73 50.4 50.61"/>
  <path class="cls-1" d="m83.61,64.85c6.47,0,11.74-5.27,11.74-11.74s-5.27-11.74-11.74-11.74-11.74,5.27-11.74,11.74,5.27,11.74,11.74,11.74Zm0-20.48c4.82,0,8.74,3.92,8.74,8.74s-3.92,8.74-8.74,8.74-8.74-3.92-8.74-8.74,3.92-8.74,8.74-8.74Z"/>
  <polygon class="cls-1" points="80.42 58.42 83.61 55.23 86.79 58.42 88.92 56.3 85.73 53.11 88.92 49.92 86.79 47.8 83.61 50.99 80.42 47.8 78.3 49.92 81.49 53.11 78.3 56.3 80.42 58.42"/>
  <rect class="cls-1" x="32.57" y="70.03" width="23.59" height="3"/>
  <rect class="cls-1" x="35.15" y="76.94" width="18.43" height="3"/>
  <rect class="cls-1" x="71.81" y="70.03" width="23.59" height="3"/>
  <rect class="cls-1" x="74.39" y="76.94" width="18.43" height="3"/>
</svg>