<?xml version="1.0" encoding="utf-8"?>
<!-- Generator: Adobe Illustrator 27.6.1, SVG Export Plug-In . SVG Version: 6.00 Build 0)  -->
<svg version="1.1" id="Layer_1" xmlns="http://www.w3.org/2000/svg" xmlns:xlink="http://www.w3.org/1999/xlink" x="0px" y="0px"
	 viewBox="0 0 128 128" style="enable-background:new 0 0 128 128;" xml:space="preserve">
<style type="text/css">
	.st0{fill:#0069B1;}
</style>
<g>
	<g>
		<g>
			<g>
				<g>
					<path class="st0" d="M72.8,101.1c-0.5,0-0.9,0-1.2-0.1c-3.9-1.2-23.5-1.5-30.8-1.6c-0.8,0-1.4-0.7-1.4-1.4
						c0-0.8,0.6-1.4,1.4-1.4c0,0,0,0,0,0c1.1,0,26.5,0.2,31.6,1.7c2,0.6,12.4-2.8,31.3-11.8c0.2-0.1,0.3-0.3,0.3-0.3
						c0-0.1,0-0.3-0.1-0.5c-1.7-2.4-4.8-3.3-7.6-2.2l-15.3,5.9c-1.7,0.7-3.5,0.7-5.2,0.2l-8-2.6c-0.8-0.2-1.2-1.1-0.9-1.8
						c0.2-0.8,1.1-1.2,1.8-0.9l8,2.6c1.1,0.3,2.2,0.3,3.3-0.1l15.3-5.9c4-1.5,8.5-0.2,11,3.2c0.6,0.8,0.8,1.9,0.5,2.9
						c-0.3,1-0.9,1.8-1.8,2.2C93,94.7,78.3,101.1,72.8,101.1z"/>
				</g>
				<g>
					<path class="st0" d="M78.1,86.9H55.7c-0.8,0-1.4-0.6-1.4-1.4c0-0.8,0.6-1.4,1.4-1.4h22.2c-0.1-2.7-2.3-4.9-5.1-5
						c-4-0.1-7.1-0.3-9.1-0.6c-2.2-0.3-4.2-1-6.3-1.7c-3-1-6.1-2-9.8-2c-4.8,0-10.8,5.6-12.7,7.8c-0.5,0.6-1.4,0.7-2,0.1
						c-0.6-0.5-0.7-1.4-0.1-2c0.3-0.4,7.8-8.8,14.8-8.8c4.1,0,7.6,1.2,10.7,2.2c2,0.7,3.9,1.3,5.8,1.6c1.9,0.3,4.9,0.5,8.8,0.6
						c4.4,0.1,7.8,3.7,7.8,8.1C80.8,85.7,79.6,86.9,78.1,86.9z"/>
				</g>
				<g>
					<path class="st0" d="M32.6,106.5c-0.2,0-0.4,0-0.5-0.1c-0.4-0.1-0.6-0.4-0.8-0.8L21.2,81.8c-0.3-0.7,0-1.6,0.8-1.9l9.5-4
						c0.4-0.1,0.7-0.2,1.1,0c0.4,0.1,0.6,0.4,0.8,0.8l10.1,23.8c0.3,0.7,0,1.6-0.8,1.9l-9.5,4C33,106.4,32.8,106.5,32.6,106.5z
						 M24.4,82l9,21.2l6.9-2.9l-9-21.2L24.4,82z"/>
				</g>
			</g>
		</g>
	</g>
	<g>
		<g>
			<g>
				<path class="st0" d="M74,75.1c-0.2,0-0.5-0.1-0.7-0.2c-0.7-0.4-0.9-1.3-0.5-2c1.5-2.6,2.3-5.7,2.3-8.7c0-9.6-7.8-17.5-17.5-17.5
					c-9.6,0-17.5,7.8-17.5,17.5c0,2,0.3,4,1,5.9c0.3,0.7-0.1,1.6-0.9,1.8c-0.7,0.3-1.6-0.1-1.8-0.9c-0.8-2.2-1.2-4.5-1.2-6.9
					c0-11.2,9.1-20.4,20.4-20.4C68.8,43.8,78,53,78,64.2c0,3.6-0.9,7.1-2.7,10.2C75,74.8,74.5,75.1,74,75.1z"/>
			</g>
			<g>
				<g>
					<path class="st0" d="M60.5,72.7c-0.6,0-1.1-0.3-1.3-0.9c-0.3-0.7,0.1-1.6,0.8-1.9c0.8-0.3,1.4-1.2,1.4-2.1c0-1.2-1-2.2-2.2-2.2
						h-3.1c-2.8,0-5.1-2.3-5.1-5.1c0-2.8,2.3-5.1,5.1-5.1h3.1c2.8,0,5.1,2.3,5.1,5.1c0,0.8-0.6,1.4-1.4,1.4c-0.8,0-1.4-0.6-1.4-1.4
						c0-1.2-1-2.2-2.2-2.2h-3.1c-1.2,0-2.2,1-2.2,2.2s1,2.2,2.2,2.2h3.1c2.8,0,5.1,2.3,5.1,5.1c0,2.1-1.2,3.9-3.2,4.7
						C60.9,72.7,60.7,72.7,60.5,72.7z"/>
				</g>
				<g>
					<path class="st0" d="M53,71.3c-0.5,0-0.9-0.2-1.2-0.7c-0.5-0.8-0.8-1.8-0.8-2.8c0-0.8,0.6-1.4,1.4-1.4c0.8,0,1.4,0.6,1.4,1.4
						c0,0.4,0.1,0.8,0.4,1.2c0.4,0.7,0.2,1.6-0.4,2C53.6,71.2,53.3,71.3,53,71.3z"/>
				</g>
				<g>
					<path class="st0" d="M57.6,58.3c-0.8,0-1.4-0.6-1.4-1.4v-3.4c0-0.8,0.6-1.4,1.4-1.4c0.8,0,1.4,0.6,1.4,1.4v3.4
						C59.1,57.7,58.4,58.3,57.6,58.3z"/>
				</g>
			</g>
		</g>
		<g>
			<g>
				<path class="st0" d="M99.5,31c-0.8,0-1.4-0.6-1.4-1.4c0-2.1-7.8-5.2-19.5-5.2c-11.7,0-19.5,3.1-19.5,5.2c0,0.8-0.6,1.4-1.4,1.4
					c-0.8,0-1.4-0.6-1.4-1.4c0-5.3,11.3-8,22.4-8c11.1,0,22.4,2.8,22.4,8C100.9,30.4,100.3,31,99.5,31z"/>
			</g>
			<g>
				<path class="st0" d="M78.5,47.4c-3.2,0-6.2-0.2-9-0.6c-0.8-0.1-1.3-0.8-1.2-1.6s0.9-1.3,1.6-1.2c2.7,0.4,5.6,0.6,8.6,0.6
					c11.7,0,19.5-3.1,19.5-5.2c0-0.8,0.6-1.4,1.4-1.4c0.8,0,1.4,0.6,1.4,1.4C100.9,44.6,89.7,47.4,78.5,47.4z"/>
			</g>
			<g>
				<path class="st0" d="M78.5,57.1c-0.8,0-1.4-0.6-1.4-1.4c0-0.8,0.6-1.4,1.4-1.4c11.7,0,19.5-3.1,19.5-5.2c0-0.8,0.6-1.4,1.4-1.4
					c0.8,0,1.4,0.6,1.4,1.4C100.9,54.4,89.7,57.1,78.5,57.1z"/>
			</g>
			<g>
				<path class="st0" d="M79.4,66.9c-0.8,0-1.4-0.6-1.4-1.4c0-0.8,0.6-1.4,1.4-1.5C91.6,63.8,98,60.5,98,58.8c0-0.8,0.6-1.4,1.4-1.4
					c0.8,0,1.4,0.6,1.4,1.4C100.9,64.2,89.8,66.7,79.4,66.9C79.4,66.9,79.4,66.9,79.4,66.9z"/>
			</g>
			<g>
				<path class="st0" d="M78.5,76.6c-0.8,0-1.4-0.6-1.4-1.4c0-0.8,0.6-1.4,1.4-1.4c11.7,0,19.5-3.1,19.5-5.2V33.8
					c-8.1,5.1-30.9,5.1-39,0v6.7c0,0.8-0.6,1.4-1.4,1.4c-0.8,0-1.4-0.6-1.4-1.4V29.6c0-0.8,0.6-1.4,1.4-1.4c0.8,0,1.4,0.6,1.4,1.4
					c0,2.1,7.8,5.2,19.5,5.2c11.7,0,19.5-3.1,19.5-5.2c0-0.8,0.6-1.4,1.4-1.4c0.8,0,1.4,0.6,1.4,1.4v39
					C100.9,73.9,89.7,76.6,78.5,76.6z"/>
			</g>
		</g>
	</g>
</g>
</svg>
