<?xml version="1.0" encoding="UTF-8"?>
<svg id="Layer_1" data-name="Layer 1" xmlns="http://www.w3.org/2000/svg" viewBox="0 0 128 128">
  <defs>
    <style>
      .cls-1 {
        fill: #0069b1;
      }
    </style>
  </defs>
  <path class="cls-1" d="m93.41,20.26h-58.83c-3.58,0-6.5,2.92-6.5,6.5v74.48c0,3.58,2.92,6.5,6.5,6.5h58.83c3.58,0,6.5-2.92,6.5-6.5V26.76c0-3.58-2.92-6.5-6.5-6.5Zm-58.83,3h58.83c1.93,0,3.5,1.57,3.5,3.5v2.34H31.09v-2.34c0-1.93,1.57-3.5,3.5-3.5Zm56.29,37.91v29.93h-3.87v-41.4c0-4.37-3.55-7.92-7.92-7.92h-36.92c-4.37,0-7.92,3.55-7.92,7.92v41.4h-3.15v-59.01h65.83v59.01h-2.69v-33.28h-5.1v3.35h1.76Zm-18.1,28.99v-4.03h4.03v4.03h-4.03Zm-3.35-7.37v8.32h-3.44v-8.32h-10.72v8.32h-3.44v-8.32h-10.72v8.32h-3.51v-41.4c0-2.52,2.05-4.57,4.57-4.57h36.92c2.52,0,4.57,2.05,4.57,4.57v41.4h-3.51v-8.32h-10.72Zm-10.81,7.37v-4.03h4.03v4.03h-4.03Zm-14.16,0v-4.03h4.03v4.03h-4.03Zm48.96,14.58h-58.83c-1.93,0-3.5-1.57-3.5-3.5v-7.13h65.83v7.13c0,1.93-1.57,3.5-3.5,3.5Z"/>
  <path class="cls-1" d="m64,96.89c-1.32,0-2.39,1.07-2.39,2.39s1.07,2.39,2.39,2.39,2.39-1.07,2.39-2.39-1.07-2.39-2.39-2.39Z"/>
  <path class="cls-1" d="m41.51,78.9h38.23v-29.54h-38.23v29.54Zm3.35-26.19h31.54v22.84h-31.54v-22.84Z"/>
</svg>