<?xml version="1.0" encoding="utf-8"?>
<!-- Generator: Adobe Illustrator 27.6.1, SVG Export Plug-In . SVG Version: 6.00 Build 0)  -->
<svg version="1.1" id="Layer_1" xmlns="http://www.w3.org/2000/svg" xmlns:xlink="http://www.w3.org/1999/xlink" x="0px" y="0px"
	 viewBox="0 0 128 128" style="enable-background:new 0 0 128 128;" xml:space="preserve">
<style type="text/css">
	.st0{fill:#0069B1;}
</style>
<g>
	<g>
		<path class="st0" d="M59.9,101.9c-0.3,0-0.6-0.1-0.9-0.2C31.5,85.7,29.7,69.9,29.7,69.2l0-38.1c0-0.6,0.3-1.1,0.8-1.5
			c0.5-0.3,1.1-0.4,1.7-0.3c12,3.8,23.7-1.3,27-3c0.5-0.3,1.1-0.3,1.7,0c3.3,1.7,15,6.8,27,3c0.6-0.2,1.2-0.1,1.7,0.3
			c0.5,0.3,0.8,0.9,0.8,1.5v7.7c0,1-0.8,1.8-1.8,1.8c-1,0-1.8-0.8-1.8-1.8v-5.3c-11.4,2.7-21.7-1.2-26.5-3.5
			c-4.8,2.3-15.2,6.2-26.5,3.5v35.4c0.2,1.1,2.7,14.8,26.5,29c23.8-14.1,26.4-27.9,26.5-29V57.1c0-1,0.8-1.8,1.8-1.8
			c1,0,1.8,0.8,1.8,1.8V69c-0.1,0.8-1.9,16.7-29.3,32.6C60.5,101.8,60.2,101.9,59.9,101.9z"/>
	</g>
	<g>
		<path class="st0" d="M59.8,77.9c-0.5,0-0.9-0.2-1.3-0.5L43.4,62.3c-0.7-0.7-0.7-1.9,0-2.6c0.7-0.7,1.9-0.7,2.6,0l13.8,13.8
			L95.2,38c0.7-0.7,1.9-0.7,2.6,0c0.7,0.7,0.7,1.9,0,2.6L61.1,77.4C60.7,77.7,60.2,77.9,59.8,77.9z"/>
	</g>
</g>
</svg>
