<?xml version="1.0" encoding="UTF-8"?>
<svg id="Layer_1" data-name="Layer 1" xmlns="http://www.w3.org/2000/svg" viewBox="0 0 128 128">
  <defs>
    <style>
      .cls-1 {
        fill: #0069b1;
      }
    </style>
  </defs>
  <path class="cls-1" d="m30.96,24.89v45.51c0,6.37,2.8,12.38,7.68,16.47l25.36,21.28,25.36-21.28c4.88-4.1,7.68-10.1,7.68-16.47V24.89H30.96Zm63.08,45.51c0,5.48-2.41,10.65-6.61,14.17l-23.43,19.66-23.43-19.66c-4.2-3.52-6.61-8.69-6.61-14.17V27.89h60.08v42.51Z"/>
  <path class="cls-1" d="m80.92,49.39h-33.84v33.84h33.84v-33.84Zm-3,30.84h-27.84v-27.84h27.84v27.84Z"/>
  <path class="cls-1" d="m55.87,44.39c0-4.48,3.65-8.13,8.13-8.13s8.13,3.65,8.13,8.13v2.85h3v-2.85c0-6.14-4.99-11.13-11.13-11.13s-11.13,4.99-11.13,11.13v2.85h3v-2.85Z"/>
  <path class="cls-1" d="m62.5,67.57v4.29h3v-4.29c1.63-.61,2.8-2.17,2.8-4.01,0-2.37-1.93-4.3-4.3-4.3s-4.3,1.93-4.3,4.3c0,1.84,1.17,3.4,2.8,4.01Zm1.5-5.31c.72,0,1.3.58,1.3,1.3s-.58,1.3-1.3,1.3-1.3-.58-1.3-1.3.58-1.3,1.3-1.3Z"/>
</svg>