<?xml version="1.0" encoding="UTF-8"?>
<svg id="Layer_1" data-name="Layer 1" xmlns="http://www.w3.org/2000/svg" viewBox="0 0 128 128">
  <defs>
    <style>
      .cls-1 {
        fill: #0069b1;
      }
    </style>
  </defs>
  <rect class="cls-1" x="36.35" y="41.29" width="24.82" height="3"/>
  <rect class="cls-1" x="36.35" y="93.37" width="46.86" height="3"/>
  <rect class="cls-1" x="51.36" y="102.02" width="16.84" height="3"/>
  <rect class="cls-1" x="51.36" y="33.1" width="4.6" height="3"/>
  <rect class="cls-1" x="59.66" y="33.1" width="1.51" height="3"/>
  <path class="cls-1" d="m64.92,68.06c-.26,1.07-.79,2.09-1.62,2.92-1.17,1.17-2.73,1.82-4.39,1.82s-3.22-.65-4.39-1.82l-5.95-5.95c-1.17-1.17-1.82-2.73-1.82-4.39s.65-3.22,1.82-4.39,2.73-1.82,4.39-1.82,3.22.65,4.39,1.82l.99.99c.98-.25,2-.39,3.04-.39.29,0,.57.02.86.04l-2.77-2.77c-1.74-1.74-4.05-2.7-6.51-2.7s-4.77.96-6.51,2.7c-1.74,1.74-2.7,4.05-2.7,6.51s.96,4.77,2.7,6.51l5.95,5.95c1.74,1.74,4.05,2.7,6.51,2.7s4.77-.96,6.51-2.7c.8-.8,1.41-1.71,1.85-2.69l-2.36-2.36Z"/>
  <path class="cls-1" d="m73.85,68.5l-5.95-5.95c-3.59-3.59-9.43-3.59-13.02,0-.79.79-1.41,1.7-1.86,2.68l2.35,2.34c.27-1.09.82-2.09,1.63-2.9,1.21-1.21,2.8-1.82,4.39-1.82s3.18.61,4.39,1.82l5.95,5.95c2.42,2.42,2.42,6.36,0,8.78-2.42,2.42-6.36,2.42-8.78,0l-1-1c-.98.25-2,.39-3.04.39-.29,0-.57-.02-.86-.04l2.77,2.77c1.79,1.79,4.15,2.69,6.51,2.69s4.72-.9,6.51-2.69c3.59-3.59,3.59-9.43,0-13.02Z"/>
  <g>
    <polygon class="cls-1" points="82.15 47.17 82.15 47.4 82.32 47.17 82.15 47.17"/>
    <path class="cls-1" d="m82.15,52.36v54.09c0,1.93-1.57,3.5-3.5,3.5h-37c-1.93,0-3.5-1.57-3.5-3.5V30.9c0-1.93,1.57-3.5,3.5-3.5h20.15v-3h-20.15c-3.58,0-6.5,2.92-6.5,6.5v75.55c0,3.58,2.92,6.5,6.5,6.5h37c3.58,0,6.5-2.92,6.5-6.5v-58.04l-3,3.95Z"/>
  </g>
  <path class="cls-1" d="m74.8,57.08v-12.8h-10V12.27h43.58v32.01h-23.86l-9.71,12.8Zm-7-15.8h10v6.88l5.23-6.88h22.35V15.27h-37.58v26.01Z"/>
</svg>