<?xml version="1.0" encoding="UTF-8"?>
<svg id="Layer_1" data-name="Layer 1" xmlns="http://www.w3.org/2000/svg" viewBox="0 0 128 128">
  <defs>
    <style>
      .cls-1 {
        fill: #0069b1;
      }
    </style>
  </defs>
  <path class="cls-1" d="m102.64,43.27l-7.91-7.91c-4.58-4.58-12.04-4.58-16.63,0-1.48,1.48-2.47,3.26-3,5.14l2.59,2.59c.14-2.04.97-4.05,2.53-5.61,1.71-1.71,3.95-2.56,6.19-2.56s4.48.85,6.19,2.56l7.91,7.91c1.65,1.65,2.56,3.85,2.56,6.19s-.91,4.54-2.56,6.19c-1.65,1.65-3.85,2.56-6.19,2.56s-4.54-.91-6.19-2.56l-2.81-2.81c-.73.11-1.46.16-2.21.16-.68,0-1.35-.05-2.01-.14l4.91,4.91c2.22,2.22,5.17,3.44,8.31,3.44s6.09-1.22,8.31-3.44c4.58-4.58,4.58-12.04,0-16.62Z"/>
  <path class="cls-1" d="m91.85,40.96c-.14,2.12-1.02,4.09-2.54,5.6-1.65,1.65-3.85,2.56-6.19,2.56s-4.54-.91-6.19-2.56l-7.91-7.91c-1.65-1.65-2.56-3.85-2.56-6.19s.91-4.54,2.56-6.19c1.65-1.65,3.85-2.56,6.19-2.56s4.54.91,6.19,2.56l2.82,2.82c.72-.11,1.45-.18,2.2-.18.68,0,1.36.06,2.02.15l-4.92-4.92c-2.22-2.22-5.17-3.44-8.31-3.44s-6.09,1.22-8.31,3.44c-4.58,4.58-4.58,12.04,0,16.62l7.91,7.91c2.29,2.29,5.3,3.44,8.31,3.44s6.02-1.15,8.31-3.44c1.45-1.45,2.47-3.22,3-5.14l-2.59-2.59Z"/>
  <path class="cls-1" d="m82.28,96.17v2.42h-2.55v-2.47c-2.11-.27-4.16-1.1-5.78-2.33l1.91-2.79c1.32,1,2.55,1.69,3.99,1.98v-3.89c-3.53-.96-5.27-2.33-5.27-5.22,0-2.72,2.06-4.51,5.14-4.83v-1.42h2.55v1.47c1.74.25,3.23.88,4.55,1.81l-1.64,2.87c-.98-.66-2.01-1.17-3.04-1.44v3.7c3.72,1,5.31,2.55,5.31,5.29s-2.08,4.51-5.19,4.85Zm-2.42-14.06c-1.18.17-1.69.76-1.69,1.54s.34,1.27,1.69,1.76v-3.31Zm2.3,7.57v3.43c1.15-.17,1.74-.71,1.74-1.59,0-.83-.42-1.35-1.74-1.84Z"/>
  <path class="cls-1" d="m94.62,66.32v37.97h-58.09V32.32h23.93c0-1.01.12-2.02.33-3h-27.26v77.98h64.09v-41.34c-.98.22-1.98.35-3,.37Z"/>
  <g>
    <path class="cls-1" d="m72.41,48.3h-31.58v3h32.97c-.58-.95-1.04-1.95-1.39-3Z"/>
    <polygon class="cls-1" points="80.62 58.73 40.83 58.73 40.83 61.73 83.62 61.73 80.62 58.73"/>
  </g>
</svg>