<?xml version="1.0" encoding="UTF-8"?>
<svg id="Layer_1" data-name="Layer 1" xmlns="http://www.w3.org/2000/svg" viewBox="0 0 128 128">
  <defs>
    <style>
      .cls-1 {
        fill: #0069b1;
      }
    </style>
  </defs>
  <path class="cls-1" d="m43.43,28.82c-14.41,0-26.13,11.72-26.13,26.13,0,9.11,4.38,19.22,12.66,29.23,6.19,7.48,12.29,12.24,12.55,12.44l.92.71.92-.71c.26-.2,6.36-4.95,12.55-12.44,8.28-10.01,12.66-20.12,12.66-29.23,0-14.41-11.72-26.13-26.13-26.13Zm0,64.67c-4.4-3.69-23.13-20.43-23.13-38.54,0-12.75,10.37-23.13,23.13-23.13s23.13,10.37,23.13,23.13c0,18.11-18.72,34.86-23.13,38.54Zm0-53.37c-8.79,0-15.95,7.15-15.95,15.95s7.15,15.95,15.95,15.95,15.95-7.15,15.95-15.95-7.15-15.95-15.95-15.95Zm0,28.9c-7.14,0-12.95-5.81-12.95-12.95s5.81-12.95,12.95-12.95,12.95,5.81,12.95,12.95-5.81,12.95-12.95,12.95Zm1.11-14.51v-4.13c1.02.22,2,.67,2.96,1.39l1.22-2.04c-1.2-.89-2.5-1.46-4.08-1.65v-1.3h-1.89v1.26c-2.72.22-4.56,1.83-4.56,4.17s1.48,3.65,4.65,4.48v4.26c-1.41-.22-2.59-.87-3.82-1.87l-1.39,1.98c1.48,1.17,3.24,1.93,5.13,2.15v2.17h1.89v-2.15c2.76-.24,4.63-1.82,4.63-4.21s-1.41-3.67-4.72-4.5Zm-1.72-.46c-1.67-.5-2.09-1.09-2.09-2,0-.96.72-1.72,2.09-1.83v3.82Zm1.72,6.97v-3.93c1.7.5,2.15,1.09,2.15,2.06,0,1.04-.78,1.76-2.15,1.87Zm45.64,10.89l.92.71.92-.71c.65-.5,15.93-12.49,15.93-26.42,0-9.29-7.56-16.85-16.85-16.85s-16.85,7.56-16.85,16.85c0,13.93,15.28,25.91,15.93,26.42Zm.92-40.27c7.64,0,13.85,6.21,13.85,13.85,0,10.61-10.62,20.52-13.85,23.28-3.23-2.77-13.85-12.67-13.85-23.28,0-7.64,6.21-13.85,13.85-13.85Zm8.88,14.55c0-4.9-3.98-8.88-8.88-8.88s-8.88,3.98-8.88,8.88,3.98,8.88,8.88,8.88,8.88-3.98,8.88-8.88Zm-14.76,0c0-3.24,2.64-5.88,5.88-5.88s5.88,2.64,5.88,5.88-2.64,5.88-5.88,5.88-5.88-2.64-5.88-5.88Zm-.83,38.13l2.12,2.12,3.03-3.03c-.62,7.23-6.69,12.93-14.08,12.93-2.88,0-5.65-.86-8.01-2.49l-6.94-5.58-1.88,2.34,6.98,5.61.08.06c2.88,2,6.25,3.05,9.77,3.05,9.08,0,16.52-7.11,17.09-16.05l3.15,3.15,2.12-2.12-6.71-6.71-6.71,6.71Z"/>
</svg>