<?xml version="1.0" encoding="utf-8"?>
<!-- Generator: Adobe Illustrator 27.6.1, SVG Export Plug-In . SVG Version: 6.00 Build 0)  -->
<svg version="1.1" id="Layer_1" xmlns="http://www.w3.org/2000/svg" xmlns:xlink="http://www.w3.org/1999/xlink" x="0px" y="0px"
	 viewBox="0 0 128 128" style="enable-background:new 0 0 128 128;" xml:space="preserve">
<style type="text/css">
	.st0{fill:#0069B1;}
</style>
<g>
	<g>
		<path class="st0" d="M27,87.2c-0.5,0-1-0.3-1.2-0.7c-3.4-5.9-5.2-12.7-5.2-19.6c0-21.6,17.6-39.2,39.2-39.2c0.8,0,1.4,0.6,1.4,1.4
			v37.7c0,0.5-0.3,1-0.7,1.2L27.7,87C27.5,87.1,27.3,87.2,27,87.2z M58.3,30.6c-19.4,0.8-34.9,16.7-34.9,36.3
			c0,5.9,1.4,11.7,4.2,16.9L58.3,66V30.6z"/>
	</g>
	<g>
		<path class="st0" d="M101,81.4c-0.2,0-0.5-0.1-0.7-0.2L67.6,62.4c-0.4-0.3-0.7-0.7-0.7-1.2V23.4c0-0.8,0.6-1.4,1.4-1.4
			c21.6,0,39.2,17.6,39.2,39.2c0,6.9-1.8,13.7-5.2,19.6C102,81.2,101.5,81.4,101,81.4z M69.7,60.3L100.4,78c2.7-5.2,4.2-11,4.2-16.9
			c0-19.5-15.5-35.5-34.9-36.3V60.3z"/>
	</g>
	<g>
		<path class="st0" d="M59.7,106c-13.9,0-26.9-7.5-33.9-19.6c-0.4-0.7-0.2-1.6,0.5-2c0,0,0,0,0.1,0L59,65.6c0.4-0.3,1-0.3,1.4,0
			l32.7,18.9c0.3,0.2,0.6,0.5,0.7,0.9c0.1,0.4,0.1,0.8-0.1,1.1C86.6,98.5,73.6,106,59.7,106z M29,86.2c6.6,10.5,18.3,16.9,30.7,16.9
			s24.1-6.5,30.7-16.9L59.7,68.5L29,86.2z"/>
	</g>
</g>
</svg>
