<?xml version="1.0" encoding="UTF-8"?>
<svg id="Layer_1" data-name="Layer 1" xmlns="http://www.w3.org/2000/svg" viewBox="0 0 128 128">
  <defs>
    <style>
      .cls-1 {
        fill: #0069b1;
      }
    </style>
  </defs>
  <circle class="cls-1" cx="57.67" cy="101.88" r="3.8"/>
  <path class="cls-1" d="m83.07,98.08c-2.1,0-3.8,1.7-3.8,3.8s1.7,3.8,3.8,3.8,3.8-1.7,3.8-3.8-1.7-3.8-3.8-3.8Z"/>
  <path class="cls-1" d="m100.08,65.04c0-6.02-4.9-10.93-10.93-10.93h-35.35c-4.37,0-7.93-3.56-7.93-7.93s3.56-7.93,7.93-7.93h1.1v.72c0,4.27,3.48,7.75,7.75,7.75h3.67l1.86,4.06h12.2v-5.62h6.5c.83,0,1.5-.67,1.5-1.5s-.67-1.5-1.5-1.5h-6.5v-11.01h6.5c.83,0,1.5-.67,1.5-1.5s-.67-1.5-1.5-1.5h-6.5v-5.85h-3v25.48h-3.84v-14.59h-3v14.59h-.43l-1.86-4.06h-5.59c-2.62,0-4.75-2.13-4.75-4.75v-4.63c0-2.62,2.13-4.75,4.75-4.75h5.59l1.86-4.06h2.61v-3h-4.53l-1.86,4.06h-3.67c-4.27,0-7.75,3.48-7.75,7.75v.91h-1.1c-6.02,0-10.93,4.9-10.93,10.93s4.9,10.93,10.93,10.93h35.35c4.37,0,7.93,3.56,7.93,7.93,0,3.76-2.64,6.92-6.16,7.72l.75-2.23c.61-1.88.29-3.88-.88-5.48-1.17-1.6-2.97-2.52-4.95-2.52h-43.09l-1.54-4.04c-.9-2.36-3.19-3.94-5.72-3.94h-6.08v3h6.08c1.29,0,2.46.81,2.91,2.01l1.9,4.99,8.21,24.95c1.06,3.21,4.04,5.37,7.42,5.37h30.73v-3h-30.73c-2.08,0-3.92-1.33-4.57-3.31l-.71-2.17h35.65l3.54-10.47c5.7-.36,10.24-5.1,10.24-10.89Zm-11.71,1.78c.59.81.76,1.83.46,2.77l-1.14,3.37h-8.75l-2.4-7.43h9.32c1.01,0,1.93.47,2.52,1.28Zm-23.03,9.14l2.4,7.43h-8.12l-2.4-7.43h8.12Zm-9.09-3l-2.4-7.43h8.12l2.4,7.43h-8.12Zm12.25,3h8.25l2.4,7.43h-8.25l-2.4-7.43Zm3.88-3h-4.85l-2.4-7.43h8.25l2.4,7.43h-3.4Zm-21.68-7.43l2.4,7.43h-6.85l-2.44-7.43h6.9Zm-1.02,17.86l-2.45-7.43h6.84l2.4,7.43h-6.79Zm34.48,0h-1.85l-2.4-7.43h6.77l-2.51,7.43Z"/>
</svg>