<?xml version="1.0" encoding="UTF-8"?>
<svg id="Layer_1" data-name="Layer 1" xmlns="http://www.w3.org/2000/svg" viewBox="0 0 128 128">
  <defs>
    <style>
      .cls-1 {
        fill: #0069b1;
      }
    </style>
  </defs>
  <path class="cls-1" d="m55.39,28.75c0-4.91,1.02-9.93,8.61-9.93s8.61,5.02,8.61,9.93v4.93h3v-4.93c0-8.58-3.91-12.93-11.61-12.93s-11.61,4.35-11.61,12.93v4.93h3v-4.93Z"/>
  <path class="cls-1" d="m64,36.82c-2.63,0-4.84-3.7-4.84-8.07h-3c0,6.21,3.45,11.07,7.84,11.07s7.84-4.86,7.84-11.07h-3c0,4.37-2.22,8.07-4.84,8.07Z"/>
  <path class="cls-1" d="m88.79,76.94h-6.36v-22.31c0-6.55-5.33-11.87-11.87-11.87h-13.12c-6.55,0-11.87,5.33-11.87,11.87v22.31h-6.36v28h13.26v6.7h23.06v-6.7h13.26v-28Zm-3,3v19.49l-3.36-3.36v-16.13h3.36Zm-33.28,0v20.07l-3.94-3.94v-16.13h3.94Zm-5.44,18.87l3.13,3.13h-6.25l3.13-3.13Zm32.36-2.74l-3.94,3.94v-20.07h3.94v16.13Zm1.5,2.74l3.13,3.13h-6.25l3.13-3.13Zm-1.5-21.87h-3.9v-3.05h3.9v3.05Zm-3.9-29.66c2.35,1.6,3.9,4.29,3.9,7.34v16.26h-3.9v-23.61Zm-4.97-1.53c.68,0,1.34.08,1.97.22v30.96h-.04v13.18h-16.99v-13.18h-.04v-30.95c.64-.14,1.29-.23,1.97-.23h13.12Zm-21.99,8.87c0-3.05,1.55-5.75,3.9-7.34v23.61h-3.9v-16.26Zm0,19.26h3.9v3.05h-3.9v-3.05Zm-3,6.05v16.13l-3.36,3.36v-19.49h3.36Zm9.9,25h.04v-11.82h6.99v15.52h-7.03v-3.7Zm17.06,3.7h-7.03v-15.52h6.99v11.82h.04v3.7Z"/>
</svg>