<?xml version="1.0" encoding="UTF-8"?>
<svg id="Layer_1" data-name="Layer 1" xmlns="http://www.w3.org/2000/svg" viewBox="0 0 128 128">
  <defs>
    <style>
      .cls-1 {
        fill: #0069b1;
      }
    </style>
  </defs>
  <path class="cls-1" d="m82.78,36.27c2.4-3.74,3.67-8.06,3.67-12.48s-1.27-8.74-3.67-12.48l-2.52,1.62c2.09,3.26,3.2,7.01,3.2,10.86s-1.11,7.6-3.2,10.86l2.52,1.62Z"/>
  <path class="cls-1" d="m76.35,29.35c1.07-1.67,1.64-3.59,1.64-5.56s-.57-3.89-1.64-5.56l-2.52,1.62c.76,1.18,1.16,2.54,1.16,3.94s-.4,2.75-1.16,3.94l2.52,1.62Z"/>
  <path class="cls-1" d="m47.74,34.65c-2.09-3.26-3.2-7.01-3.2-10.86s1.11-7.6,3.2-10.86l-2.52-1.62c-2.4,3.74-3.67,8.06-3.67,12.48s1.27,8.74,3.67,12.48l2.52-1.62Z"/>
  <path class="cls-1" d="m54.17,27.73c-.76-1.18-1.16-2.54-1.16-3.94s.4-2.76,1.16-3.94l-2.52-1.62c-1.07,1.66-1.64,3.59-1.64,5.56s.57,3.89,1.64,5.56l2.52-1.62Z"/>
  <path class="cls-1" d="m87.42,110.21l-21.92-75.32v-4.54c2.99-.68,5.23-3.36,5.23-6.56,0-3.71-3.02-6.73-6.73-6.73s-6.73,3.02-6.73,6.73c0,3.19,2.24,5.87,5.23,6.56v4.54l-21.92,75.32h-6.51v3h59.86v-3h-6.51Zm-17.4-49.04v.02s-13.98,6.62-13.98,6.62l3.38-11.61,10.6,4.97Zm-9.75-7.89l3.73-12.81,4.91,16.86-8.63-4.05Zm12.44,22.27l-13.06-6.13,11.23-5.31,3.15,10.82-1.31.62Zm-17.79-3.89l1.21-.57,13.06,6.13-18.43,8.73,4.16-14.28Zm-5.28,18.13l6.62-3.13,13.07,6.13-23.84,11.29,4.16-14.28Zm23.2,1.33l-13.07-6.13,15.09-7.15,3.15,10.82-5.18,2.45Zm-12.58-67.32c0-2.06,1.67-3.73,3.73-3.73s3.73,1.67,3.73,3.73-1.67,3.73-3.73,3.73-3.73-1.67-3.73-3.73Zm-15.9,84.12l34.51-16.34,5.42,18.63h-40.6l.67-2.29Z"/>
</svg>