<?xml version="1.0" encoding="UTF-8"?>
<svg id="Layer_1" data-name="Layer 1" xmlns="http://www.w3.org/2000/svg" viewBox="0 0 128 128">
  <defs>
    <style>
      .cls-1 {
        fill: #0069b1;
      }
    </style>
  </defs>
  <path class="cls-1" d="m116.74,44.06l-.41-.7c-.88-1.49-2.29-2.54-3.97-2.97-1.68-.43-3.42-.18-4.9.71l-.59.35-2.7-4.55-19.5,11.57,1.53,2.58,16.92-10.04,1.17,1.97-53.1,31.51c-.13.08-.25.18-.35.29l-11.25,12.63-24.71-4.84c-1.08-.21-1.5-1.06-1.52-1.79-.02-.72.33-1.6,1.4-1.88l18.28-4.76c2.15-.56,3.61-2.42,3.65-4.64s-1.37-4.13-3.5-4.76l-17.23-5.08-.85,2.88,17.23,5.08c1.01.3,1.36,1.14,1.35,1.83s-.39,1.52-1.41,1.79l-18.28,4.76c-2.25.59-3.72,2.54-3.65,4.87.07,2.33,1.65,4.19,3.94,4.64l25.55,5h0c.09,0,.19.03.29.03.11,0,.23-.01.34-.04l17.3-4.01c.15-.03.29-.09.43-.17l56.27-33.39c1.49-.88,2.54-2.29,2.97-3.97.43-1.68.18-3.42-.71-4.9Zm-62.37,32.03l22.49-13.35,3.96,6.67-22.49,13.35-3.96-6.67Zm25.07-14.88l26.38-15.65,3.96,6.67-26.38,15.65-3.96-6.67Zm-27.44,16.77l3.53,5.96-11.14,2.58,7.6-8.54Zm60.94-27.63l-.59.35-3.96-6.67.59-.35c1.65-.98,3.78-.43,4.76,1.21l.41.7c.98,1.65.43,3.78-1.21,4.76Z"/>
</svg>