<?xml version="1.0" encoding="UTF-8"?>
<svg id="Layer_1" data-name="Layer 1" xmlns="http://www.w3.org/2000/svg" viewBox="0 0 128 128">
  <defs>
    <style>
      .cls-1 {
        fill: #0069b1;
      }
    </style>
  </defs>
  <path class="cls-1" d="m62.5,31.05v7.13h3v-7.13c3.3-.69,5.78-3.62,5.78-7.13,0-4.02-3.27-7.28-7.28-7.28s-7.28,3.27-7.28,7.28c0,3.5,2.48,6.43,5.78,7.13Zm1.5-11.41c2.36,0,4.28,1.92,4.28,4.28s-1.92,4.28-4.28,4.28-4.28-1.92-4.28-4.28,1.92-4.28,4.28-4.28Z"/>
  <path class="cls-1" d="m65.5,96.95v-7.24h-3v7.24c-3.3.69-5.78,3.62-5.78,7.13,0,4.02,3.27,7.28,7.28,7.28s7.28-3.27,7.28-7.28c0-3.5-2.48-6.43-5.78-7.13Zm-1.5,11.41c-2.36,0-4.28-1.92-4.28-4.28s1.92-4.28,4.28-4.28,4.28,1.92,4.28,4.28-1.92,4.28-4.28,4.28Z"/>
  <path class="cls-1" d="m36.58,43.96c0-4.02-3.27-7.28-7.28-7.28s-7.28,3.27-7.28,7.28,3.27,7.28,7.28,7.28c2.33,0,4.4-1.1,5.73-2.81l6.07,3.61,1.54-2.58-6.28-3.74c.14-.57.23-1.16.23-1.77Zm-7.28,4.28c-2.36,0-4.28-1.92-4.28-4.28s1.92-4.28,4.28-4.28,4.28,1.92,4.28,4.28-1.92,4.28-4.28,4.28Z"/>
  <path class="cls-1" d="m98.71,76.64c-2.33,0-4.4,1.1-5.73,2.81l-6.07-3.61-1.54,2.58,6.28,3.74c-.14.57-.23,1.16-.23,1.77,0,4.02,3.27,7.28,7.28,7.28s7.28-3.27,7.28-7.28-3.27-7.28-7.28-7.28Zm0,11.56c-2.36,0-4.28-1.92-4.28-4.28s1.92-4.28,4.28-4.28,4.28,1.92,4.28,4.28-1.92,4.28-4.28,4.28Z"/>
  <path class="cls-1" d="m63.23,41.48c-8,.38-14.64,6.93-15.13,14.92-.29,4.83,1.58,9.47,5.15,12.73,1.13,1.03,1.78,2.52,1.78,4.09v4.54c0,1.91,1.3,3.51,3.05,4,.61,2.71,3.03,4.74,5.92,4.74s5.31-2.03,5.92-4.74c1.76-.49,3.05-2.09,3.05-4v-4.54c0-1.59.62-3.05,1.7-4.03,3.34-3.02,5.26-7.32,5.26-11.81s-1.75-8.49-4.94-11.53c-3.18-3.03-7.34-4.59-11.77-4.38Zm5.57,37.46h-9.6c-.65,0-1.17-.53-1.17-1.17v-1.43h11.94v1.43c0,.65-.53,1.17-1.17,1.17Zm-4.8,4.57c-1.14,0-2.13-.64-2.66-1.57h5.32c-.53.93-1.52,1.57-2.66,1.57Zm8.66-16.53c-1.71,1.54-2.69,3.82-2.69,6.25v.1h-11.94v-.11c0-2.41-1-4.71-2.75-6.31-2.9-2.65-4.42-6.41-4.18-10.33.39-6.48,5.79-11.8,12.28-12.11.21-.01.42-.02.64-.02,3.34,0,6.49,1.26,8.92,3.57,2.58,2.46,4.01,5.79,4.01,9.36s-1.56,7.14-4.27,9.58Z"/>
  <path class="cls-1" d="m64,45.91v3c4.67,0,8.48,3.8,8.48,8.48h3c0-6.33-5.15-11.48-11.48-11.48Z"/>
  <path class="cls-1" d="m86.9,52.05l6.07-3.61c1.33,1.7,3.4,2.81,5.73,2.81,4.02,0,7.28-3.27,7.28-7.28s-3.27-7.28-7.28-7.28-7.28,3.27-7.28,7.28c0,.61.08,1.2.23,1.77l-6.28,3.74,1.54,2.58Zm11.8-12.37c2.36,0,4.28,1.92,4.28,4.28s-1.92,4.28-4.28,4.28-4.28-1.92-4.28-4.28,1.92-4.28,4.28-4.28Z"/>
  <path class="cls-1" d="m41.1,75.83l-6.07,3.61c-1.33-1.7-3.4-2.81-5.73-2.81-4.02,0-7.28,3.27-7.28,7.28s3.27,7.28,7.28,7.28,7.28-3.27,7.28-7.28c0-.61-.08-1.2-.23-1.77l6.28-3.74-1.54-2.58Zm-11.8,12.37c-2.36,0-4.28-1.92-4.28-4.28s1.92-4.28,4.28-4.28,4.28,1.92,4.28,4.28-1.92,4.28-4.28,4.28Z"/>
</svg>