<?xml version="1.0" encoding="UTF-8"?>
<svg id="Layer_1" data-name="Layer 1" xmlns="http://www.w3.org/2000/svg" viewBox="0 0 128 128">
  <defs>
    <style>
      .cls-1 {
        fill: #0069b1;
      }
    </style>
  </defs>
  <path class="cls-1" d="m83.28,27.7h-40.94c-3.66,0-6.64,2.98-6.64,6.64v12.5h10.29v55.05h43.94V34.33c0-3.66-2.98-6.64-6.64-6.64Zm-44.59,6.64c0-2.01,1.63-3.64,3.64-3.64s3.64,1.63,3.64,3.64v9.5h-7.29v-9.5Zm48.23,64.54h-37.94V34.34c0-1.35-.4-2.6-1.09-3.64h35.39c2.01,0,3.64,1.63,3.64,3.64v64.55Z"/>
  <rect class="cls-1" x="54.65" y="44.5" width="26.61" height="3"/>
  <rect class="cls-1" x="54.65" y="54.31" width="26.61" height="3"/>
  <path class="cls-1" d="m75.65,80.63v-4.87c1.21.26,2.36.8,3.49,1.64l1.44-2.41c-1.41-1.05-2.95-1.72-4.82-1.95v-1.54h-2.23v1.49c-3.21.26-5.38,2.15-5.38,4.92s1.74,4.31,5.49,5.28v5.03c-1.67-.26-3.05-1.03-4.51-2.21l-1.64,2.33c1.74,1.39,3.82,2.28,6.05,2.54v2.56h2.23v-2.54c3.26-.28,5.46-2.15,5.46-4.97s-1.67-4.33-5.56-5.31Zm-2.03-.54c-1.97-.59-2.46-1.28-2.46-2.36s.85-2.03,2.46-2.15v4.51Zm2.03,8.23v-4.64c2,.59,2.54,1.28,2.54,2.44,0,1.23-.92,2.08-2.54,2.21Z"/>
</svg>