<?xml version="1.0" encoding="UTF-8"?>
<svg id="Layer_1" data-name="Layer 1" xmlns="http://www.w3.org/2000/svg" viewBox="0 0 128 128">
  <defs>
    <style>
      .cls-1, .cls-2 {
        fill: #0069b1;
      }

      .cls-2 {
        font-family: Gotham-Bold, Gotham;
        font-size: 21.02px;
        font-weight: 700;
      }
    </style>
  </defs>
  <text class="cls-2" transform="translate(70.44 98.89)"><tspan x="0" y="0">$</tspan></text>
  <g>
    <rect class="cls-1" x="36.15" y="60.83" width="33.72" height="3"/>
    <rect class="cls-1" x="36.15" y="71.26" width="29.15" height="3"/>
    <path class="cls-1" d="m94.84,23.03c-3.19-3.05-7.38-4.6-11.81-4.4-8.03.38-14.7,6.96-15.18,14.98-.29,4.85,1.59,9.5,5.17,12.78,1.13,1.04,1.78,2.54,1.78,4.12v4.56c0,1.92,1.3,3.52,3.07,4.01.61,2.72,3.04,4.76,5.94,4.76s5.33-2.04,5.94-4.76c1.76-.49,3.07-2.09,3.07-4.01v-4.55c0-1.6.62-3.07,1.71-4.05,3.36-3.03,5.28-7.35,5.28-11.86s-1.76-8.52-4.96-11.57Zm-5.03,30.32v1.71c0,.65-.53,1.18-1.18,1.18h-9.64c-.65,0-1.18-.53-1.18-1.18v-1.71h12Zm-6,7.48c-1.15,0-2.15-.65-2.68-1.59h5.36c-.53.94-1.53,1.59-2.68,1.59Zm8.7-16.6c-1.68,1.51-2.65,3.73-2.69,6.11h-12.02c-.04-2.36-1.04-4.6-2.75-6.17-2.91-2.66-4.44-6.44-4.2-10.38.4-6.51,5.81-11.86,12.33-12.16.21-.01.43-.02.64-.02,3.36,0,6.52,1.26,8.96,3.59,2.6,2.48,4.03,5.81,4.03,9.4s-1.56,7.17-4.29,9.63Z"/>
    <path class="cls-1" d="m89.94,106.39H31.85V34.41h32.97c0-.33.01-.65.03-.98.04-.68.13-1.35.25-2.02H28.85v77.98h64.09v-48.6c-.87.66-1.89,1.12-3,1.33v44.28Z"/>
    <path class="cls-1" d="m83.81,23.08v3c4.7,0,8.52,3.82,8.52,8.52h3c0-6.35-5.17-11.52-11.52-11.52Z"/>
  </g>
</svg>