<?xml version="1.0" encoding="UTF-8"?>
<svg id="Layer_1" data-name="Layer 1" xmlns="http://www.w3.org/2000/svg" viewBox="0 0 128 128">
  <defs>
    <style>
      .cls-1 {
        fill: #0069b1;
      }
    </style>
  </defs>
  <path class="cls-1" d="m82.65,19.72h-37c-3.58,0-6.5,2.92-6.5,6.5v75.55c0,3.58,2.92,6.5,6.5,6.5h37c3.58,0,6.5-2.92,6.5-6.5V26.22c0-3.58-2.92-6.5-6.5-6.5Zm-37,3h37c1.93,0,3.5,1.57,3.5,3.5v10.39h-44v-10.39c0-1.93,1.57-3.5,3.5-3.5Zm40.5,16.89v49.09h-44v-49.09h44Zm-3.5,65.66h-37c-1.93,0-3.5-1.57-3.5-3.5v-10.08h44v10.08c0,1.93-1.57,3.5-3.5,3.5Z"/>
  <rect class="cls-1" x="55.36" y="97.35" width="16.84" height="3"/>
  <rect class="cls-1" x="55.36" y="28.43" width="4.6" height="3"/>
  <rect class="cls-1" x="63.66" y="28.43" width="9.69" height="3"/>
  <path class="cls-1" d="m63.86,80.86l2.16,2.09c4.95-5.11,7.68-11.84,7.68-18.94s-2.73-13.83-7.68-18.94l-2.16,2.09c4.41,4.55,6.83,10.54,6.83,16.86s-2.43,12.31-6.83,16.86Z"/>
  <path class="cls-1" d="m58.95,76.11l2.16,2.09c3.71-3.83,5.75-8.87,5.75-14.19s-2.04-10.36-5.75-14.19l-2.16,2.09c3.17,3.27,4.91,7.57,4.91,12.11s-1.74,8.84-4.91,12.11Z"/>
  <path class="cls-1" d="m54.04,71.36l2.16,2.09c2.46-2.55,3.82-5.9,3.82-9.44s-1.36-6.9-3.82-9.44l-2.16,2.09c1.92,1.98,2.98,4.6,2.98,7.36s-1.06,5.38-2.98,7.36Z"/>
</svg>