<?xml version="1.0" encoding="UTF-8"?>
<svg id="Layer_1" data-name="Layer 1" xmlns="http://www.w3.org/2000/svg" viewBox="0 0 128 128">
  <defs>
    <style>
      .cls-1 {
        fill: #0069b1;
      }
    </style>
  </defs>
  <path class="cls-1" d="m49.36,53.3c4.77,0,8.63-3.87,8.63-8.63s-3.87-8.63-8.63-8.63-8.63,3.87-8.63,8.63,3.87,8.63,8.63,8.63Zm0-3c-.32,0-.63-.03-.94-.08l1.99-4.27,4.57-1.14c-.07,3.04-2.57,5.5-5.63,5.5Zm4.9-8.41l-3.4.85v-3.5c1.45.4,2.67,1.37,3.4,2.65Zm-6.4-2.65v5.09l-2.15,4.61c-1.21-1.03-1.98-2.57-1.98-4.28,0-2.59,1.75-4.77,4.13-5.42Z"/>
  <polygon class="cls-1" points="73.31 71.71 63.36 63.89 55.74 69.87 51.74 66.73 46.51 70.84 48.36 73.2 51.74 70.55 55.74 73.69 63.36 67.71 73.31 75.53 80.02 70.26 78.17 67.9 73.31 71.71"/>
  <rect class="cls-1" x="63.36" y="39.49" width="3" height="11.56"/>
  <rect class="cls-1" x="68.49" y="46.5" width="3" height="4.56"/>
  <rect class="cls-1" x="73.62" y="42.49" width="3" height="8.56"/>
  <rect class="cls-1" x="78.75" y="45.5" width="3" height="5.56"/>
  <rect class="cls-1" x="83.88" y="44.5" width="3" height="6.56"/>
  <rect class="cls-1" x="53.01" y="77.54" width="20.52" height="3"/>
  <path class="cls-1" d="m86.88,85.97v-28.8h-46.35v28.8h46.35Zm-43.35-25.8h40.35v22.8h-40.35v-22.8Z"/>
  <path class="cls-1" d="m93.41,20.26h-58.83c-3.58,0-6.5,2.92-6.5,6.5v74.48c0,3.58,2.92,6.5,6.5,6.5h58.83c3.58,0,6.5-2.92,6.5-6.5V26.76c0-3.58-2.92-6.5-6.5-6.5Zm-58.83,3h58.83c1.93,0,3.5,1.57,3.5,3.5v2.34H31.09v-2.34c0-1.93,1.57-3.5,3.5-3.5Zm62.33,8.84v59.01H31.09v-59.01h65.83Zm-3.5,72.64h-58.83c-1.93,0-3.5-1.57-3.5-3.5v-7.13h65.83v7.13c0,1.93-1.57,3.5-3.5,3.5Z"/>
  <path class="cls-1" d="m64,96.89c-1.32,0-2.39,1.07-2.39,2.39s1.07,2.39,2.39,2.39,2.39-1.07,2.39-2.39-1.07-2.39-2.39-2.39Z"/>
</svg>