<?xml version="1.0" encoding="utf-8"?>
<!-- Generator: Adobe Illustrator 27.6.1, SVG Export Plug-In . SVG Version: 6.00 Build 0)  -->
<svg version="1.1" id="Layer_1" xmlns="http://www.w3.org/2000/svg" xmlns:xlink="http://www.w3.org/1999/xlink" x="0px" y="0px"
	 viewBox="0 0 128 128" style="enable-background:new 0 0 128 128;" xml:space="preserve">
<style type="text/css">
	.st0{fill:#0069B1;}
</style>
<g>
	<g>
		<g>
			<path class="st0" d="M63.2,105.4H29.6c-2.5,0-4.5-2-4.5-4.5V27.2c0-2.5,2-4.5,4.5-4.5h33.6c2.5,0,4.5,2,4.5,4.5v11.2
				c0,0.8-0.7,1.5-1.5,1.5c-0.8,0-1.5-0.7-1.5-1.5V27.2c0-0.8-0.7-1.5-1.5-1.5H29.6c-0.8,0-1.5,0.7-1.5,1.5v73.7
				c0,0.8,0.7,1.5,1.5,1.5h33.6c0.8,0,1.5-0.7,1.5-1.5V77.4c0-0.8,0.7-1.5,1.5-1.5c0.8,0,1.5,0.7,1.5,1.5v23.4
				C67.7,103.3,65.7,105.4,63.2,105.4z"/>
		</g>
		<g>
			<path class="st0" d="M46.4,100.3c-2.8,0-5.1-2.3-5.1-5.1c0-2.8,2.3-5.1,5.1-5.1c2.8,0,5.1,2.3,5.1,5.1
				C51.5,98,49.2,100.3,46.4,100.3z M46.4,93.1c-1.2,0-2.1,0.9-2.1,2.1c0,1.2,0.9,2.1,2.1,2.1c1.2,0,2.1-0.9,2.1-2.1
				C48.5,94,47.5,93.1,46.4,93.1z"/>
		</g>
		<g>
			<path class="st0" d="M66.2,36H26.6c-0.8,0-1.5-0.7-1.5-1.5c0-0.8,0.7-1.5,1.5-1.5h39.6c0.8,0,1.5,0.7,1.5,1.5
				C67.7,35.3,67,36,66.2,36z"/>
		</g>
		<g>
			<path class="st0" d="M66.2,87.8H26.6c-0.8,0-1.5-0.7-1.5-1.5c0-0.8,0.7-1.5,1.5-1.5h39.6c0.8,0,1.5,0.7,1.5,1.5
				C67.7,87.2,67,87.8,66.2,87.8z"/>
		</g>
		<g>
			<path class="st0" d="M48.3,30.8h-3.8c-0.8,0-1.5-0.7-1.5-1.5c0-0.8,0.7-1.5,1.5-1.5h3.8c0.8,0,1.5,0.7,1.5,1.5
				C49.8,30.2,49.1,30.8,48.3,30.8z"/>
		</g>
	</g>
	<g>
		<g>
			<path class="st0" d="M50.3,80.1c-0.3,0-0.6-0.1-0.9-0.3c-0.5-0.4-0.7-1-0.6-1.6l2.3-10.2V47.7c0-2.5,2.1-4.6,4.6-4.6h42.5
				c2.5,0,4.6,2.1,4.6,4.6v20.5c0,2.5-2.1,4.6-4.6,4.6H62.2l-11.1,7C50.8,80,50.6,80.1,50.3,80.1z M55.8,46.1
				c-0.9,0-1.6,0.7-1.6,1.6v20.5c0,0.1,0,0.2,0,0.3l-1.6,6.8l8.4-5.3c0.2-0.2,0.5-0.2,0.8-0.2h36.5c0.9,0,1.6-0.7,1.6-1.6V47.7
				c0-0.9-0.7-1.6-1.6-1.6H55.8z"/>
		</g>
		<g>
			<g>
				<path class="st0" d="M77.4,63.3c-3,0-5.4-2.4-5.4-5.4c0-3,2.4-5.4,5.4-5.4c3,0,5.4,2.4,5.4,5.4C82.8,60.9,80.3,63.3,77.4,63.3z
					 M77.4,55.6c-1.3,0-2.4,1.1-2.4,2.4c0,1.3,1.1,2.4,2.4,2.4c1.3,0,2.4-1.1,2.4-2.4C79.7,56.6,78.7,55.6,77.4,55.6z"/>
			</g>
			<g>
				<path class="st0" d="M91.3,63.3c-3,0-5.4-2.4-5.4-5.4c0-3,2.4-5.4,5.4-5.4c3,0,5.4,2.4,5.4,5.4C96.7,60.9,94.3,63.3,91.3,63.3z
					 M91.3,55.6c-1.3,0-2.4,1.1-2.4,2.4c0,1.3,1.1,2.4,2.4,2.4c1.3,0,2.4-1.1,2.4-2.4C93.6,56.6,92.6,55.6,91.3,55.6z"/>
			</g>
			<g>
				<path class="st0" d="M63.6,63.3c-3,0-5.4-2.4-5.4-5.4c0-3,2.4-5.4,5.4-5.4c3,0,5.4,2.4,5.4,5.4C69,60.9,66.6,63.3,63.6,63.3z
					 M63.6,55.6c-1.3,0-2.4,1.1-2.4,2.4c0,1.3,1.1,2.4,2.4,2.4c1.3,0,2.4-1.1,2.4-2.4C66,56.6,64.9,55.6,63.6,55.6z"/>
			</g>
		</g>
	</g>
</g>
</svg>
