<?xml version="1.0" encoding="UTF-8"?>
<svg id="Layer_1" data-name="Layer 1" xmlns="http://www.w3.org/2000/svg" viewBox="0 0 128 128">
  <defs>
    <style>
      .cls-1 {
        fill: #0069b1;
      }
    </style>
  </defs>
  <path class="cls-1" d="m56.33,93.83c.66,3.64,3.84,6.4,7.66,6.4s7.01-2.77,7.67-6.4c2.36-.49,4.13-2.58,4.13-5.08v-6.25c0-2.35.92-4.52,2.53-5.97,4.49-4.05,7.07-9.83,7.07-15.86s-2.35-11.4-6.63-15.48c-4.27-4.08-9.87-6.16-15.8-5.89-10.74.51-19.66,9.31-20.31,20.04-.39,6.48,2.13,12.72,6.92,17.09,1.67,1.53,2.63,3.74,2.63,6.06v6.26c0,2.5,1.78,4.59,4.13,5.08Zm-1.13-9.83h17.6v1.97h-17.6v-1.97Zm8.28-21.21c0-.29.23-.52.52-.52s.52.23.52.52-.23.52-.52.52-.52-.23-.52-.52Zm.52,34.44c-2.12,0-3.9-1.39-4.53-3.3h9.06c-.63,1.91-2.42,3.3-4.53,3.3Zm6.62-6.3h-13.23c-1.13,0-2.05-.87-2.16-1.97h17.55c-.11,1.1-1.03,1.97-2.16,1.97Zm-19.02-16.72c-4.12-3.76-6.29-9.12-5.95-14.7.56-9.22,8.23-16.79,17.46-17.22.3-.01.6-.02.9-.02,4.75,0,9.23,1.79,12.69,5.08,3.68,3.51,5.7,8.23,5.7,13.31s-2.21,10.15-6.08,13.63c-1.88,1.69-3.07,4.08-3.41,6.69h-3.08v-5.86l3.96-3.96v-2.32c1.19-.56,2.02-1.77,2.02-3.17,0-1.94-1.58-3.52-3.52-3.52s-3.52,1.58-3.52,3.52c0,1.4.83,2.6,2.02,3.17v1.08l-3.96,3.96v7.1h-1.33v-15.04c1.19-.57,2.02-1.77,2.02-3.17,0-1.94-1.58-3.52-3.52-3.52s-3.52,1.58-3.52,3.52c0,1.4.83,2.6,2.02,3.17v15.04h-1.33v-9.3l-3.48-3.48c.15-.39.24-.8.24-1.24,0-1.94-1.58-3.52-3.52-3.52s-3.52,1.58-3.52,3.52,1.58,3.52,3.52,3.52c.39,0,.76-.08,1.12-.2l2.65,2.65v8.06h-3.08c-.35-2.6-1.57-5.02-3.5-6.78Zm20.17-8.53c0-.29.23-.52.52-.52s.52.23.52.52-.23.52-.52.52-.52-.23-.52-.52Zm-16.83,1.28c0,.29-.23.52-.52.52s-.52-.23-.52-.52.23-.52.52-.52.52.23.52.52Z"/>
  <path class="cls-1" d="m76.25,60.67h3c0-8.41-6.84-15.26-15.25-15.26v3c6.76,0,12.25,5.5,12.25,12.26Z"/>
  <path class="cls-1" d="m68.88,26.72l-.35,2.98c19.08,2.26,33.48,18.49,33.48,37.73,0,20.95-17.05,38-38,38s-38-17.05-38-38c0-18.5,13.52-34.28,31.4-37.43l-4.62,5.38,2.28,1.95,8.04-9.37-9.38-8.04-1.95,2.28,5.57,4.77c-19.52,3.21-34.34,20.33-34.34,40.45,0,22.61,18.39,41,41,41s41-18.39,41-41c0-20.77-15.53-38.27-36.12-40.71Z"/>
</svg>