<?xml version="1.0" encoding="UTF-8"?>
<svg id="Layer_1" data-name="Layer 1" xmlns="http://www.w3.org/2000/svg" viewBox="0 0 128 128">
  <defs>
    <style>
      .cls-1 {
        fill: #0069b1;
      }
    </style>
  </defs>
  <rect class="cls-1" x="38.33" y="31" width="21.43" height="3"/>
  <rect class="cls-1" x="38.33" y="37.88" width="25.27" height="3"/>
  <rect class="cls-1" x="38.33" y="49.57" width="47.81" height="3"/>
  <path class="cls-1" d="m61.58,57.95h-23.26v3h18.6c1.41-1.19,2.97-2.2,4.65-3Z"/>
  <path class="cls-1" d="m38.33,83.11v3h12.48c-.41-.97-.75-1.97-1.01-3h-11.47Z"/>
  <path class="cls-1" d="m52.29,66.34h-13.97v3h12.44c.43-1.04.94-2.05,1.52-3Z"/>
  <path class="cls-1" d="m49.11,77.68c0-1,.07-1.99.21-2.96h-10.99v3h10.79s0-.03,0-.04Z"/>
  <path class="cls-1" d="m101.21,103.44l-4.15-4.15V32.57l-13.17-12.86H27.41v84.8h63.93l4.4,4.4,5.48-5.48Zm-5.48,1.23l-7.61-7.61,1.23-1.23,7.61,7.61-1.23,1.23Zm-10.95-79.9l7.1,6.93h-7.1v-6.93ZM30.41,101.51V22.71h51.37v12h12.28v61.58l-4.7-4.7-1.68,1.68-2.61-2.61c3.15-3.42,5.09-7.97,5.09-12.97,0-10.59-8.61-19.2-19.2-19.2s-19.2,8.61-19.2,19.2,8.61,19.2,19.2,19.2c4.5,0,8.64-1.57,11.92-4.18l2.68,2.68-1.68,1.68,4.45,4.45H30.41Zm40.55-7.63c-8.93,0-16.2-7.27-16.2-16.2s7.27-16.2,16.2-16.2,16.2,7.27,16.2,16.2-7.27,16.2-16.2,16.2Z"/>
  <rect class="cls-1" x="60.24" y="79" width="3" height="7.92"/>
  <rect class="cls-1" x="65.88" y="74.51" width="3" height="12.41"/>
  <rect class="cls-1" x="71.52" y="70.02" width="3" height="16.9"/>
  <rect class="cls-1" x="77.16" y="65.53" width="3" height="21.39"/>
</svg>