<?xml version="1.0" encoding="UTF-8"?>
<svg id="Layer_1" data-name="Layer 1" xmlns="http://www.w3.org/2000/svg" viewBox="0 0 128 128">
  <defs>
    <style>
      .cls-1 {
        fill: #0069b1;
      }
    </style>
  </defs>
  <path class="cls-1" d="m79.71,42.84h12.8v42.18h3v-45.18h-15.8v-2.51h18.31v47.69h3v-50.69h-21.31v-5h-13.5c-.59-3.02-3.26-5.3-6.45-5.3s-5.86,2.28-6.45,5.3h-13.5v5h-21.31v69.64h3V37.33h18.31v2.51h-15.8v64.13h3v-61.13h52.7Zm-36.9-5.51v-5h13.47l-.09-1.73c0-1.97,1.6-3.57,3.57-3.57s3.57,1.6,3.57,3.62l-.09,1.68h13.47v7.51h-33.9v-2.51Z"/>
  <path class="cls-1" d="m103.94,92.2h-.29v-4.32h-20.27v3h17.27v1.32h-51.22v.29l-17.6,5.59,17.6,5.59v.29h54.51c3.06,0,5.56-2.49,5.56-5.56v-.66c0-3.06-2.49-5.56-5.56-5.56Zm-62.2,5.89l7.7-2.44v4.89l-7.7-2.45Zm10.7,2.89v-5.77h20.77v5.77h-20.77Zm23.77,0v-5.77h24.45v5.77h-24.45Zm30.29-2.56c0,1.41-1.15,2.56-2.56,2.56h-.29v-5.77h.29c1.41,0,2.56,1.15,2.56,2.56v.66Z"/>
  <rect class="cls-1" x="59.75" y="59.42" width="25.3" height="3"/>
  <rect class="cls-1" x="59.75" y="66.58" width="29.28" height="3"/>
  <path class="cls-1" d="m43.04,75.68c6.66,0,12.07-5.42,12.07-12.07s-5.42-12.07-12.07-12.07-12.07,5.42-12.07,12.07,5.42,12.07,12.07,12.07Zm0-21.15c5,0,9.07,4.07,9.07,9.07s-4.07,9.07-9.07,9.07-9.07-4.07-9.07-9.07,4.07-9.07,9.07-9.07Z"/>
  <polygon class="cls-1" points="41.54 69.01 44.54 69.01 44.54 65.11 48.45 65.11 48.45 62.11 44.54 62.11 44.54 58.2 41.54 58.2 41.54 62.11 37.64 62.11 37.64 65.11 41.54 65.11 41.54 69.01"/>
</svg>