<?xml version="1.0" encoding="UTF-8"?>
<svg id="Layer_1" data-name="Layer 1" xmlns="http://www.w3.org/2000/svg" viewBox="0 0 128 128">
  <defs>
    <style>
      .cls-1 {
        fill: #0069b1;
      }
    </style>
  </defs>
  <path class="cls-1" d="m86.11,57.47l-2.95-.54c-.16.85-.36,1.67-.61,2.43l2.85.94c.29-.89.53-1.84.72-2.83Z"/>
  <path class="cls-1" d="m81.66,41.64c.28.82.54,1.66.76,2.49l2.9-.77c-.24-.91-.52-1.82-.83-2.7l-2.83.98Z"/>
  <path class="cls-1" d="m86.55,52.48c0-.24,0-.48,0-.72l-3,.06c0,.22,0,.44,0,.66,0,.65-.02,1.3-.07,1.92l2.99.21c.05-.69.08-1.41.08-2.13Z"/>
  <path class="cls-1" d="m86.35,48.93c-.1-.93-.24-1.87-.41-2.8l-2.95.55c.16.85.29,1.72.38,2.57l2.98-.32Z"/>
  <path class="cls-1" d="m51.58,72.23c-.88-.26-1.75-.6-2.59-1l-1.28,2.71c.98.46,1.99.85,3,1.15l.87-2.87Z"/>
  <path class="cls-1" d="m59.84,72.84l.4,2.97c1.03-.14,2.08-.35,3.12-.63l-.77-2.9c-.92.24-1.85.43-2.76.55Z"/>
  <path class="cls-1" d="m42.36,70.48c.82.7,1.68,1.34,2.55,1.9l1.63-2.52c-.77-.5-1.52-1.06-2.25-1.68l-1.94,2.29Z"/>
  <path class="cls-1" d="m57.06,76.04v-3c-.93,0-1.87-.07-2.77-.2l-.43,2.97c1.05.15,2.13.23,3.21.23Z"/>
  <path class="cls-1" d="m29.15,91.11c-.49-.81-.92-1.7-1.29-2.64l-2.79,1.09c.43,1.09.94,2.13,1.51,3.09l2.57-1.55Z"/>
  <path class="cls-1" d="m24.87,72.87l2.81,1.04c.34-.93.77-1.82,1.25-2.64l-2.59-1.52c-.57.98-1.07,2.02-1.48,3.12Z"/>
  <path class="cls-1" d="m23.55,82.94c.09,1.13.27,2.26.52,3.36l2.93-.66c-.22-.96-.37-1.95-.45-2.94l-2.99.25Z"/>
  <path class="cls-1" d="m23.5,79.54l3,.17c.05-1,.18-1.99.37-2.95l-2.94-.59c-.22,1.1-.37,2.23-.43,3.38Z"/>
  <polygon class="cls-1" points="49.24 52.79 54.38 47.65 59.53 52.79 61.65 50.67 56.5 45.52 61.65 40.38 59.53 38.26 54.38 43.4 49.24 38.26 47.11 40.38 52.26 45.52 47.11 50.67 49.24 52.79"/>
  <polygon class="cls-1" points="60.59 85.53 55.44 90.67 50.3 85.53 48.18 87.65 53.32 92.79 48.18 97.94 50.3 100.06 55.44 94.91 60.59 100.06 62.71 97.94 57.57 92.79 62.71 87.65 60.59 85.53"/>
  <polygon class="cls-1" points="106.14 42.8 104.02 40.68 98.87 45.82 93.72 40.68 91.6 42.8 96.75 47.94 91.6 53.09 93.72 55.21 98.87 50.06 104.02 55.21 106.14 53.09 100.99 47.94 106.14 42.8"/>
  <path class="cls-1" d="m69.97,37.63c2.14,1.72,4.71,2.55,7.26,2.55,3.41,0,6.79-1.49,9.09-4.35,4.01-5,3.2-12.34-1.8-16.35-5-4.01-12.34-3.2-16.35,1.8-4.01,5-3.2,12.34,1.8,16.35Zm.54-14.47c1.7-2.12,4.21-3.23,6.74-3.23,1.89,0,3.8.62,5.39,1.89,3.71,2.97,4.31,8.42,1.34,12.13-2.97,3.71-8.42,4.31-12.13,1.34-3.71-2.98-4.31-8.42-1.34-12.13Z"/>
  <path class="cls-1" d="m34.99,93.79c-2.24-.8-4.66-.68-6.8.34-2.15,1.02-3.77,2.81-4.57,5.05-.8,2.24-.68,4.66.34,6.8,1.02,2.15,2.81,3.77,5.05,4.57.98.35,1.99.52,3,.52,1.3,0,2.6-.29,3.81-.86,2.15-1.02,3.77-2.81,4.57-5.05.8-2.24.68-4.66-.34-6.8-1.02-2.15-2.81-3.77-5.05-4.57Zm2.57,10.37c-.53,1.48-1.61,2.67-3.03,3.35-1.42.68-3.03.76-4.51.23-1.48-.53-2.67-1.61-3.35-3.03-.67-1.42-.75-3.03-.22-4.51.53-1.48,1.61-2.67,3.03-3.35.8-.38,1.66-.57,2.52-.57.67,0,1.34.12,1.99.35,1.48.53,2.67,1.61,3.35,3.03s.75,3.03.22,4.51Z"/>
  <path class="cls-1" d="m41.18,63.78c.8-2.24.68-4.66-.34-6.8-2.1-4.43-7.42-6.33-11.86-4.23-4.43,2.1-6.33,7.42-4.23,11.86,1.52,3.21,4.72,5.09,8.06,5.09,1.28,0,2.57-.28,3.8-.86.91-.43,1.71-1,2.41-1.68.34.4.69.79,1.04,1.16l2.18-2.06c-.48-.51-.95-1.06-1.41-1.62.13-.27.25-.56.35-.84Zm-5.86,2.34c-2.94,1.39-6.47.13-7.86-2.8-1.39-2.94-.13-6.47,2.81-7.86.81-.39,1.67-.57,2.52-.57,2.21,0,4.33,1.25,5.34,3.37.67,1.42.75,3.03.23,4.51-.53,1.48-1.61,2.67-3.03,3.35Z"/>
  <path class="cls-1" d="m73.83,62.28c-3.43,1.63-5.68,4.73-6.4,8.18-.71.35-1.43.67-2.15.95l1.08,2.8c.29-.11.58-.24.87-.36.12,1.33.46,2.65,1.06,3.92,1.99,4.19,6.17,6.65,10.53,6.65,1.67,0,3.36-.36,4.96-1.12,5.79-2.75,8.27-9.69,5.53-15.49-2.75-5.79-9.69-8.27-15.49-5.53Zm8.68,18.3c-4.3,2.04-9.46.2-11.49-4.1s-.2-9.46,4.1-11.49c1.19-.56,2.44-.83,3.68-.83,3.23,0,6.34,1.82,7.81,4.93,2.04,4.3.2,9.45-4.1,11.49Z"/>
</svg>