<?xml version="1.0" encoding="UTF-8"?>
<svg id="Layer_1" data-name="Layer 1" xmlns="http://www.w3.org/2000/svg" viewBox="0 0 128 128">
  <defs>
    <style>
      .cls-1 {
        fill: #0069b1;
      }
    </style>
  </defs>
  <path class="cls-1" d="m108.29,47.43h-21.51l-21.82-10.54c-1.69-.81-3.57-1.25-5.44-1.25h-14.6c-.19,0-.37.04-.55.1-5.01,1.97-11.41,7.41-12.05,7.96l-14.52,10.79v-2.47h-3v31.54h3v-3.41l9.37-4.14c5.37,1.89,10.17,2.18,14.67.89.04-.01.07-.02.11-.04l4.89-1.83v12.4c0,2.71,2.21,4.92,4.92,4.92h56.53c2.71,0,4.92-2.21,4.92-4.92v-35.1c0-2.71-2.21-4.92-4.92-4.92Zm-67.34,26.62c-4.01,1.13-8.37.79-13.32-1.04-.37-.14-.77-.12-1.13.03l-8.71,3.84v-18.64l16.36-12.16s.06-.05.09-.07c.06-.06,6.31-5.44,10.97-7.37h14.31c1.42,0,2.85.33,4.13.95l16.23,7.84h-28.13c-2.71,0-4.92,2.21-4.92,4.92v6.56h-2.12v3h17.7c2.04,0,3.69,1.66,3.69,3.69s-1.66,3.69-3.69,3.69h-6.42c-1.55,0-3.07.28-4.52.82l-10.52,3.94Zm69.26,13.4c0,1.06-.86,1.92-1.92,1.92h-56.53c-1.06,0-1.92-.86-1.92-1.92v-1.76h60.37v1.76Zm0-4.76h-60.37v-6.73h60.37v6.73Zm-57.76-9.73l.08-.03c1.11-.42,2.28-.63,3.47-.63h6.42c3.69,0,6.69-3,6.69-6.69s-3-6.69-6.69-6.69h-12.58v-6.56c0-1.06.86-1.92,1.92-1.92h56.53c1.06,0,1.92.86,1.92,1.92v20.6h-57.76Z"/>
</svg>