<?xml version="1.0" encoding="UTF-8"?>
<svg id="Layer_1" data-name="Layer 1" xmlns="http://www.w3.org/2000/svg" viewBox="0 0 128 128">
  <defs>
    <style>
      .cls-1 {
        fill: #0069b1;
      }
    </style>
  </defs>
  <path class="cls-1" d="m69.26,18.55h-33.1c-3.92,0-7.1,3.19-7.1,7.1v76.69c0,3.92,3.18,7.1,7.1,7.1h33.1c3.92,0,7.1-3.18,7.1-7.1V25.65c0-3.91-3.19-7.1-7.1-7.1Zm-33.1,3h33.1c2.26,0,4.1,1.84,4.1,4.1v7.28h-41.3v-7.28c0-2.26,1.84-4.1,4.1-4.1Zm33.1,84.89h-33.1c-2.26,0-4.1-1.84-4.1-4.1V35.93h41.3v66.42c0,2.26-1.84,4.1-4.1,4.1Z"/>
  <rect class="cls-1" x="48.32" y="27.34" width="8.79" height="3"/>
  <path class="cls-1" d="m35.58,96.26h34.27v-55.31h-34.27v55.31Zm3-52.31h28.27v49.31h-28.27v-49.31Z"/>
  <path class="cls-1" d="m93.36,28.77h-14.48v30.5h-.05v22.13h3v-9.85h11.54c2.25,0,4.07-1.82,4.07-4.07v-34.63c0-2.25-1.82-4.07-4.07-4.07Zm1.07,38.71c0,.59-.48,1.07-1.07,1.07h-11.48V31.77h11.48c.59,0,1.07.48,1.07,1.07v34.63Z"/>
  <path class="cls-1" d="m89.29,57.83h-2.04c-1.95,0-3.54,1.59-3.54,3.54v2.04c0,1.95,1.59,3.54,3.54,3.54h2.04c1.95,0,3.54-1.59,3.54-3.54v-2.04c0-1.95-1.59-3.54-3.54-3.54Zm.54,5.57c0,.3-.24.54-.54.54h-2.04c-.3,0-.54-.24-.54-.54v-2.04c0-.3.24-.54.54-.54h2.04c.3,0,.54.24.54.54v2.04Z"/>
  <rect class="cls-1" x="89.78" y="34.88" width="3" height="18.33"/>
</svg>