<?xml version="1.0" encoding="UTF-8"?>
<svg id="Layer_1" data-name="Layer 1" xmlns="http://www.w3.org/2000/svg" width="45.16mm" height="45.16mm" viewBox="0 0 128 128">
  <defs>
    <style>
      .cls-1 {
        fill: #0069b1;
      }
    </style>
  </defs>
  <path class="cls-1" d="m93.41,19.26h-58.83c-3.58,0-6.5,2.92-6.5,6.5v74.48c0,3.58,2.92,6.5,6.5,6.5h58.83c3.58,0,6.5-2.92,6.5-6.5V25.76c0-3.58-2.92-6.5-6.5-6.5Zm-58.83,3h58.83c1.93,0,3.5,1.57,3.5,3.5v2.34H31.09v-2.34c0-1.93,1.57-3.5,3.5-3.5Zm62.33,8.84v59.01H31.09V31.1h65.83Zm-3.5,72.64h-58.83c-1.93,0-3.5-1.57-3.5-3.5v-7.13h65.83v7.13c0,1.93-1.57,3.5-3.5,3.5Z"/>
  <path class="cls-1" d="m64,95.89c-1.32,0-2.39,1.07-2.39,2.39s1.07,2.39,2.39,2.39,2.39-1.07,2.39-2.39-1.07-2.39-2.39-2.39Z"/>
  <rect class="cls-1" x="44" y="64.41" width="3" height="4.31"/>
  <rect class="cls-1" x="55.65" y="64.41" width="3" height="4.31"/>
  <rect class="cls-1" x="59.87" y="64.41" width="3" height="4.31"/>
  <rect class="cls-1" x="64.02" y="64.41" width="3" height="4.31"/>
  <rect class="cls-1" x="80.4" y="64.41" width="3" height="4.31"/>
  <rect class="cls-1" x="69.6" y="64.41" width="3" height="4.31"/>
  <rect class="cls-1" x="73.79" y="64.41" width="3" height="4.31"/>
  <rect class="cls-1" x="48.37" y="64.41" width="3" height="7.31"/>
  <polygon class="cls-1" points="46.1 76.13 46.1 73.13 41.6 73.13 41.6 68.63 38.6 68.63 38.6 76.13 46.1 76.13"/>
  <polygon class="cls-1" points="86.4 73.13 81.9 73.13 81.9 76.13 89.4 76.13 89.4 68.63 86.4 68.63 86.4 73.13"/>
  <polygon class="cls-1" points="41.6 47.08 46.1 47.08 46.1 44.08 38.6 44.08 38.6 51.58 41.6 51.58 41.6 47.08"/>
  <polygon class="cls-1" points="86.4 51.58 89.4 51.58 89.4 44.08 81.9 44.08 81.9 47.08 86.4 47.08 86.4 51.58"/>
  <polygon class="cls-1" points="89.4 58.61 83.4 58.61 83.4 50.53 80.4 50.53 80.4 58.61 76.79 58.61 76.79 50.53 73.79 50.53 73.79 58.61 72.6 58.61 72.6 50.53 69.6 50.53 69.6 58.61 67.02 58.61 67.02 50.53 64.02 50.53 64.02 58.61 62.87 58.61 62.87 50.53 59.87 50.53 59.87 58.61 58.65 58.61 58.65 50.53 55.65 50.53 55.65 58.61 51.37 58.61 51.37 50.53 48.37 50.53 48.37 58.61 47 58.61 47 50.53 44 50.53 44 58.61 38.6 58.61 38.6 61.61 89.4 61.61 89.4 58.61"/>
</svg>