<?xml version="1.0" encoding="UTF-8"?>
<svg id="Layer_1" data-name="Layer 1" xmlns="http://www.w3.org/2000/svg" width="45.16mm" height="45.16mm" viewBox="0 0 128 128">
  <defs>
    <style>
      .cls-1 {
        fill: #0069b1;
      }
    </style>
  </defs>
  <rect class="cls-1" x="46.18" y="27.34" width="8.79" height="3"/>
  <polygon class="cls-1" points="53.44 40.95 33.44 40.95 33.44 96.26 67.7 96.26 67.7 59.05 64.7 59.05 64.7 93.26 36.44 93.26 36.44 43.95 53.44 43.95 53.44 40.95"/>
  <path class="cls-1" d="m95.51,25.22h-34.64c-2.25,0-4.07,1.82-4.07,4.07v22.46c0,2.25,1.82,4.07,4.07,4.07h34.63c2.25,0,4.07-1.82,4.07-4.07v-22.47c0-2.25-1.82-4.07-4.07-4.07Zm1.07,10.55h-36.78v-3.11h36.78v3.11Zm-35.71-7.55h34.64c.59,0,1.07.48,1.07,1.07v.37h-36.78v-.37c0-.59.48-1.07,1.07-1.07Zm34.63,24.61h-34.63c-.59,0-1.07-.48-1.07-1.07v-12.98h36.78v12.98c0,.59-.48,1.07-1.07,1.07Z"/>
  <path class="cls-1" d="m66.98,42.11h-2.04c-1.95,0-3.54,1.59-3.54,3.54v2.04c0,1.95,1.59,3.54,3.54,3.54h2.04c1.95,0,3.54-1.59,3.54-3.54v-2.04c0-1.95-1.59-3.54-3.54-3.54Zm.54,5.57c0,.3-.24.54-.54.54h-2.04c-.3,0-.54-.24-.54-.54v-2.04c0-.3.24-.54.54-.54h2.04c.3,0,.54.24.54.54v2.04Z"/>
  <rect class="cls-1" x="75.13" y="48.18" width="18.33" height="3"/>
  <path class="cls-1" d="m53.74,53.15h-3c0,5.39,4.38,9.77,9.77,9.77v-3c-3.73,0-6.77-3.04-6.77-6.77Z"/>
  <path class="cls-1" d="m60.51,64.52c-6.27,0-11.37-5.1-11.37-11.36h-3c0,7.92,6.44,14.36,14.37,14.36v-3Z"/>
  <path class="cls-1" d="m44.55,53.15h-3c0,10.45,8.5,18.96,18.96,18.96v-3c-8.8,0-15.96-7.16-15.96-15.96Z"/>
  <path class="cls-1" d="m71.22,102.35c0,2.26-1.84,4.1-4.1,4.1h-33.1c-2.26,0-4.1-1.84-4.1-4.1V35.93h23.52v-3h-23.52v-7.28c0-2.26,1.84-4.1,4.1-4.1,0,0,33.11,0,33.12,0h5.75c-1.32-1.85-3.45-3-5.78-3h-33.1c-3.92,0-7.1,3.19-7.1,7.1v76.69c0,3.92,3.19,7.1,7.1,7.1h33.1c3.92,0,7.1-3.18,7.1-7.1v-43.19h-3v43.19Z"/>
  <rect class="cls-1" x="76.69" y="59.2" width="3" height="22.13"/>
</svg>