<?xml version="1.0" encoding="UTF-8"?>
<svg id="Layer_1" data-name="Layer 1" xmlns="http://www.w3.org/2000/svg" width="45.16mm" height="45.16mm" viewBox="0 0 128 128">
  <defs>
    <style>
      .cls-1 {
        fill: #0069b1;
      }
    </style>
  </defs>
  <path class="cls-1" d="m93.41,42.36c4.65,6.3,7.11,13.77,7.11,21.64,0,20.14-16.38,36.52-36.52,36.52s-36.52-16.38-36.52-36.52S43.86,27.48,64,27.48c7.83,0,15.24,2.43,21.51,7.02l.84-3.08c-6.59-4.54-14.27-6.94-22.36-6.94-21.79,0-39.52,17.73-39.52,39.52s17.73,39.52,39.52,39.52,39.52-17.73,39.52-39.52c0-8.13-2.42-15.87-7.02-22.49l-3.09.85Z"/>
  <path class="cls-1" d="m80.23,45.65c-4.33-3.83-10.01-6.17-16.23-6.17-13.52,0-24.52,11-24.52,24.52s11,24.52,24.52,24.52,24.52-11,24.52-24.52c0-5.15-1.6-9.93-4.32-13.88l-2.17,2.17c2.2,3.37,3.49,7.39,3.49,11.71,0,11.86-9.65,21.52-21.52,21.52s-21.52-9.65-21.52-21.52,9.65-21.52,21.52-21.52c5.39,0,10.31,2.01,14.09,5.3l-8.52,8.52c-1.57-1.14-3.48-1.83-5.57-1.83-5.25,0-9.52,4.27-9.52,9.52s4.27,9.52,9.52,9.52,9.52-4.27,9.52-9.52c0-.97-.15-1.91-.42-2.79l-2.59,2.59c0,.07.01.13.01.2,0,3.59-2.92,6.52-6.52,6.52s-6.52-2.92-6.52-6.52,2.92-6.52,6.52-6.52c1.25,0,2.42.37,3.41.98l-4.47,4.47,2.12,2.12,24.86-24.86,10.94-2.99,6.74-6.74-6.88-3.31-3.31-6.88-6.74,6.74-3.08,11.27-7.36,7.36Zm13.13-17.07l3.19-3.19,1.93,4.02,4.02,1.93-3.19,3.19-8.19,2.24,2.24-8.19Z"/>
</svg>