<?xml version="1.0" encoding="utf-8"?>
<!-- Generator: Adobe Illustrator 27.6.1, SVG Export Plug-In . SVG Version: 6.00 Build 0)  -->
<svg version="1.1" id="Layer_1" xmlns="http://www.w3.org/2000/svg" xmlns:xlink="http://www.w3.org/1999/xlink" x="0px" y="0px"
	 viewBox="0 0 128 128" style="enable-background:new 0 0 128 128;" xml:space="preserve">
<style type="text/css">
	.st0{fill:#0E6AB4;}
</style>
<g>
	<g>
		<path class="st0" d="M87.7,89.2H40.2c-0.8,0-1.5-0.7-1.5-1.5V40.2c0-0.8,0.7-1.5,1.5-1.5h47.5c0.8,0,1.5,0.7,1.5,1.5v47.5
			C89.2,88.6,88.6,89.2,87.7,89.2z M41.7,86.3h44.6V41.7H41.7V86.3z"/>
	</g>
	<g>
		<path class="st0" d="M93.3,100.3H34.7c-3.8,0-7-3.1-7-7V34.7c0-3.8,3.1-7,7-7h58.6c3.8,0,7,3.1,7,7v58.6
			C100.3,97.2,97.1,100.3,93.3,100.3z M34.7,30.6c-2.2,0-4.1,1.8-4.1,4.1v58.6c0,2.2,1.8,4.1,4.1,4.1h58.6c2.2,0,4.1-1.8,4.1-4.1
			V34.7c0-2.2-1.8-4.1-4.1-4.1H34.7z"/>
	</g>
	<g>
		<path class="st0" d="M40.2,30.6c-0.8,0-1.5-0.7-1.5-1.5V18.3c0-0.8,0.7-1.5,1.5-1.5c0.8,0,1.5,0.7,1.5,1.5v10.9
			C41.7,30,41,30.6,40.2,30.6z"/>
	</g>
	<g>
		<path class="st0" d="M40.2,111.2c-0.8,0-1.5-0.7-1.5-1.5V98.8c0-0.8,0.7-1.5,1.5-1.5c0.8,0,1.5,0.7,1.5,1.5v10.9
			C41.7,110.6,41,111.2,40.2,111.2z"/>
	</g>
	<g>
		<path class="st0" d="M49.7,30.6c-0.8,0-1.5-0.7-1.5-1.5V18.3c0-0.8,0.7-1.5,1.5-1.5c0.8,0,1.5,0.7,1.5,1.5v10.9
			C51.2,30,50.5,30.6,49.7,30.6z"/>
	</g>
	<g>
		<path class="st0" d="M49.7,111.2c-0.8,0-1.5-0.7-1.5-1.5V98.8c0-0.8,0.7-1.5,1.5-1.5c0.8,0,1.5,0.7,1.5,1.5v10.9
			C51.2,110.6,50.5,111.2,49.7,111.2z"/>
	</g>
	<g>
		<path class="st0" d="M59.2,30.6c-0.8,0-1.5-0.7-1.5-1.5V18.3c0-0.8,0.7-1.5,1.5-1.5c0.8,0,1.5,0.7,1.5,1.5v10.9
			C60.7,30,60,30.6,59.2,30.6z"/>
	</g>
	<g>
		<path class="st0" d="M59.2,111.2c-0.8,0-1.5-0.7-1.5-1.5V98.8c0-0.8,0.7-1.5,1.5-1.5c0.8,0,1.5,0.7,1.5,1.5v10.9
			C60.7,110.6,60,111.2,59.2,111.2z"/>
	</g>
	<g>
		<path class="st0" d="M68.8,30.6c-0.8,0-1.5-0.7-1.5-1.5V18.3c0-0.8,0.7-1.5,1.5-1.5c0.8,0,1.5,0.7,1.5,1.5v10.9
			C70.2,30,69.6,30.6,68.8,30.6z"/>
	</g>
	<g>
		<path class="st0" d="M68.8,111.2c-0.8,0-1.5-0.7-1.5-1.5V98.8c0-0.8,0.7-1.5,1.5-1.5c0.8,0,1.5,0.7,1.5,1.5v10.9
			C70.2,110.6,69.6,111.2,68.8,111.2z"/>
	</g>
	<g>
		<path class="st0" d="M78.3,30.6c-0.8,0-1.5-0.7-1.5-1.5V18.3c0-0.8,0.7-1.5,1.5-1.5c0.8,0,1.5,0.7,1.5,1.5v10.9
			C79.7,30,79.1,30.6,78.3,30.6z"/>
	</g>
	<g>
		<path class="st0" d="M78.3,111.2c-0.8,0-1.5-0.7-1.5-1.5V98.8c0-0.8,0.7-1.5,1.5-1.5c0.8,0,1.5,0.7,1.5,1.5v10.9
			C79.7,110.6,79.1,111.2,78.3,111.2z"/>
	</g>
	<g>
		<path class="st0" d="M87.8,30.6c-0.8,0-1.5-0.7-1.5-1.5V18.3c0-0.8,0.7-1.5,1.5-1.5s1.5,0.7,1.5,1.5v10.9
			C89.3,30,88.6,30.6,87.8,30.6z"/>
	</g>
	<g>
		<path class="st0" d="M87.8,111.2c-0.8,0-1.5-0.7-1.5-1.5V98.8c0-0.8,0.7-1.5,1.5-1.5s1.5,0.7,1.5,1.5v10.9
			C89.3,110.6,88.6,111.2,87.8,111.2z"/>
	</g>
	<g>
		<path class="st0" d="M109.7,41.7H98.8c-0.8,0-1.5-0.7-1.5-1.5s0.7-1.5,1.5-1.5h10.9c0.8,0,1.5,0.7,1.5,1.5S110.6,41.7,109.7,41.7z
			"/>
	</g>
	<g>
		<path class="st0" d="M29.2,41.7H18.3c-0.8,0-1.5-0.7-1.5-1.5s0.7-1.5,1.5-1.5h10.9c0.8,0,1.5,0.7,1.5,1.5S30,41.7,29.2,41.7z"/>
	</g>
	<g>
		<path class="st0" d="M109.7,51.2H98.8c-0.8,0-1.5-0.7-1.5-1.5c0-0.8,0.7-1.5,1.5-1.5h10.9c0.8,0,1.5,0.7,1.5,1.5
			C111.2,50.5,110.6,51.2,109.7,51.2z"/>
	</g>
	<g>
		<path class="st0" d="M29.2,51.2H18.3c-0.8,0-1.5-0.7-1.5-1.5c0-0.8,0.7-1.5,1.5-1.5h10.9c0.8,0,1.5,0.7,1.5,1.5
			C30.6,50.5,30,51.2,29.2,51.2z"/>
	</g>
	<g>
		<path class="st0" d="M109.7,60.7H98.8c-0.8,0-1.5-0.7-1.5-1.5s0.7-1.5,1.5-1.5h10.9c0.8,0,1.5,0.7,1.5,1.5S110.6,60.7,109.7,60.7z
			"/>
	</g>
	<g>
		<path class="st0" d="M29.2,60.7H18.3c-0.8,0-1.5-0.7-1.5-1.5s0.7-1.5,1.5-1.5h10.9c0.8,0,1.5,0.7,1.5,1.5S30,60.7,29.2,60.7z"/>
	</g>
	<g>
		<path class="st0" d="M109.7,70.2H98.8c-0.8,0-1.5-0.7-1.5-1.5s0.7-1.5,1.5-1.5h10.9c0.8,0,1.5,0.7,1.5,1.5S110.6,70.2,109.7,70.2z
			"/>
	</g>
	<g>
		<path class="st0" d="M29.2,70.2H18.3c-0.8,0-1.5-0.7-1.5-1.5s0.7-1.5,1.5-1.5h10.9c0.8,0,1.5,0.7,1.5,1.5S30,70.2,29.2,70.2z"/>
	</g>
	<g>
		<path class="st0" d="M109.7,79.7H98.8c-0.8,0-1.5-0.7-1.5-1.5c0-0.8,0.7-1.5,1.5-1.5h10.9c0.8,0,1.5,0.7,1.5,1.5
			C111.2,79.1,110.6,79.7,109.7,79.7z"/>
	</g>
	<g>
		<path class="st0" d="M29.2,79.7H18.3c-0.8,0-1.5-0.7-1.5-1.5c0-0.8,0.7-1.5,1.5-1.5h10.9c0.8,0,1.5,0.7,1.5,1.5
			C30.6,79.1,30,79.7,29.2,79.7z"/>
	</g>
	<g>
		<path class="st0" d="M109.7,89.3H98.8c-0.8,0-1.5-0.7-1.5-1.5c0-0.8,0.7-1.5,1.5-1.5h10.9c0.8,0,1.5,0.7,1.5,1.5
			C111.2,88.6,110.6,89.3,109.7,89.3z"/>
	</g>
	<g>
		<path class="st0" d="M29.2,89.3H18.3c-0.8,0-1.5-0.7-1.5-1.5c0-0.8,0.7-1.5,1.5-1.5h10.9c0.8,0,1.5,0.7,1.5,1.5
			C30.6,88.6,30,89.3,29.2,89.3z"/>
	</g>
</g>
</svg>
