<?xml version="1.0" encoding="UTF-8"?>
<svg id="Layer_1" data-name="Layer 1" xmlns="http://www.w3.org/2000/svg" width="45.16mm" height="45.16mm" viewBox="0 0 128 128">
  <defs>
    <style>
      .cls-1 {
        fill: #0069b1;
      }
    </style>
  </defs>
  <g>
    <path class="cls-1" d="m43.73,38.24c.96.13,1.58-.37,1.58-.37l.63.89c-.22.25-1.18.71-2.14.71-2.75.08-2.37-2.48-2.37-2.48.04-.57.7-2.76,3.34-2.61,2.62.15,1.62,3.01,1.62,3.01h-3.58s-.04.72.92.85m-.71-1.89h2.3s.07-.77-1.02-.77c-.46,0-.99.21-1.28.77"/>
    <path class="cls-1" d="m48.82,34.52h-1.31l-.86,4.85h1.42l.43-2.51c.05-.27.16-.52.35-.72.14-.16.34-.3.62-.38.73-.2,1.09.19,1.09.19l.8-1.11s-.37-.45-1.07-.45-1.13.33-1.45.64l-.02-.52Z"/>
    <path class="cls-1" d="m53.22,34.52h-1.31l-.86,4.85h1.42l.43-2.51c.05-.27.16-.52.35-.72.14-.16.34-.3.62-.38.73-.2,1.09.19,1.09.19l.8-1.11s-.37-.45-1.07-.45-1.13.33-1.45.64l-.02-.52Z"/>
    <path class="cls-1" d="m59.84,34.52h1.35l-.89,4.85h-1.26v-.6c-.59.6-1.16.69-1.8.69-1.3-.01-2.05-1.07-1.89-2.5.16-1.43,1.36-2.46,2.66-2.55,1.39-.1,1.68.64,1.68.64l.14-.54Zm-.47,2.36s.19-1.23-1.07-1.23c-1.38,0-1.52,1.36-1.52,1.36,0,0-.2,1.22,1.14,1.2,1.28-.01,1.45-1.34,1.45-1.34"/>
    <path class="cls-1" d="m40.45,34.51c.13-.74.23-1.33.23-1.33l-1.44.16-.2,1.17h-1.19l-.18,1.17h1.16l-.35,2.02s-.14.82.14,1.21c.28.38.81.82,2.44.34l-.11-1.17s-.92.38-1.05-.17c0,0-.05-.15.02-.49.02-.09.06-.35.19-1.05l-.27-.69h.98c.68,0,1.27-.49,1.38-1.17h-1.75Z"/>
    <polygon class="cls-1" points="37.68 35.68 40.11 36.37 39.84 35.68 37.68 35.68"/>
    <path class="cls-1" d="m65.95,34.67c.32.17.58.42.77.75.19.33.28.71.28,1.16,0,.53-.12,1.02-.36,1.45-.24.43-.56.77-.97,1.01-.41.24-.86.37-1.36.37-.74,0-1.26-.24-1.57-.72l-.48,2.4h-1.41l1.32-6.59h1.34l-.1.48c.4-.37.9-.55,1.49-.55.38,0,.73.09,1.05.26m-1.06,3.36c.22-.13.38-.32.51-.56.12-.24.18-.52.18-.83,0-.33-.1-.59-.29-.78-.2-.19-.47-.29-.82-.29-.27,0-.51.07-.73.2s-.38.32-.51.56c-.12.24-.18.52-.18.83,0,.33.1.59.29.78.19.19.46.29.81.29.28,0,.52-.07.74-.2"/>
    <path class="cls-1" d="m73.14,34.48l-.97,4.85h-1.34l.09-.48c-.4.37-.9.55-1.49.55-.38,0-.73-.09-1.05-.26-.32-.17-.57-.42-.76-.75-.19-.33-.28-.71-.28-1.16,0-.53.12-1.02.36-1.45.24-.43.56-.77.97-1.01.41-.24.86-.37,1.35-.37.75,0,1.27.24,1.58.73l.13-.66h1.41Zm-2.53,3.55c.22-.13.38-.32.51-.56.12-.24.18-.52.18-.83,0-.33-.1-.59-.29-.78-.2-.19-.47-.29-.82-.29-.28,0-.52.07-.74.2-.22.13-.38.32-.51.56-.12.24-.18.52-.18.83,0,.33.1.59.29.78.2.19.47.29.82.29.28,0,.52-.07.74-.2"/>
    <path class="cls-1" d="m79.08,34.48l-3.23,5.17c-.35.56-.69.95-1.01,1.17-.33.22-.73.32-1.2.32-.25,0-.5-.04-.74-.12-.24-.08-.43-.18-.57-.31l.65-1.01c.22.2.47.3.78.3.18,0,.34-.04.47-.13.13-.09.27-.24.41-.46l.05-.08-1.12-4.86h1.41l.72,3.3,2.02-3.3h1.39Z"/>
  </g>
  <g>
    <path class="cls-1" d="m90.37,70.09h0c-1.67,0-3.2.61-4.38,1.62-1.08-2.3-3.42-3.91-6.13-3.91-2.12,0-4.01.98-5.25,2.51-1.24-1.53-3.14-2.51-5.26-2.51-1.39,0-2.68.42-3.75,1.14v-13.32c0-3.72-3.03-6.75-6.76-6.75s-6.75,3.03-6.75,6.75v24.7c-3.07.63-5.39,3.36-5.39,6.62v6.18c0,13.91,11.31,25.22,25.22,25.22s25.22-11.31,25.22-25.22v-16.27c0-3.72-3.03-6.75-6.75-6.75Zm3.75,23.03c0,12.25-9.97,22.22-22.22,22.22s-22.22-9.97-22.22-22.22v-6.18c0-1.59.99-2.94,2.39-3.48v9.95h3v-37.78c0-2.07,1.68-3.75,3.76-3.75s3.75,1.68,3.75,3.75v20.85h3v-1.91c0-2.07,1.68-3.75,3.76-3.75s3.75,1.68,3.75,3.75v1.91h3v-1.91c0-2.07,1.68-3.75,3.76-3.75s3.75,1.68,3.75,3.75v2.29h3c0-2.07,1.68-3.75,3.75-3.75h0c2.07,0,3.75,1.68,3.75,3.75v16.27Z"/>
    <path class="cls-1" d="m49.07,59.8c-9.03-3.7-15.19-12.55-15.19-22.64,0-13.5,10.99-24.49,24.49-24.49s24.49,10.99,24.49,24.49c0,9.63-5.78,18.3-14.28,22.23v3.28c10.22-4.12,17.28-14.24,17.28-25.51,0-15.16-12.33-27.49-27.49-27.49s-27.49,12.33-27.49,27.49c0,11.75,7.43,22,18.19,25.86v-3.22Z"/>
  </g>
</svg>