<?xml version="1.0" encoding="utf-8"?>
<!-- Generator: Adobe Illustrator 27.6.1, SVG Export Plug-In . SVG Version: 6.00 Build 0)  -->
<svg version="1.1" id="Layer_1" xmlns="http://www.w3.org/2000/svg" xmlns:xlink="http://www.w3.org/1999/xlink" x="0px" y="0px"
	 viewBox="0 0 128 128" style="enable-background:new 0 0 128 128;" xml:space="preserve">
<style type="text/css">
	.st0{fill:#0E6AB4;}
	.st1{fill:#066AB1;}
</style>
<g>
	<g>
		<g>
			<path class="st0" d="M64,108.7c-24.6,0-44.7-20-44.7-44.7s20-44.7,44.7-44.7c24.6,0,44.7,20,44.7,44.7S88.6,108.7,64,108.7z
				 M64,22.6c-22.8,0-41.4,18.6-41.4,41.4s18.6,41.4,41.4,41.4c22.8,0,41.4-18.6,41.4-41.4S86.8,22.6,64,22.6z"/>
			<path class="st1" d="M64,108.9c-24.8,0-44.9-20.1-44.9-44.9c0-24.8,20.1-44.9,44.9-44.9s44.9,20.1,44.9,44.9
				C108.9,88.8,88.8,108.9,64,108.9z M64,19.6c-24.5,0-44.4,19.9-44.4,44.4c0,24.5,19.9,44.4,44.4,44.4s44.4-19.9,44.4-44.4
				C108.4,39.5,88.5,19.6,64,19.6z M64,105.7C41,105.7,22.3,87,22.3,64C22.3,41,41,22.3,64,22.3c23,0,41.7,18.7,41.7,41.7
				C105.7,87,87,105.7,64,105.7z M64,22.8c-22.7,0-41.2,18.5-41.2,41.2c0,22.7,18.5,41.2,41.2,41.2s41.2-18.5,41.2-41.2
				C105.2,41.3,86.7,22.8,64,22.8z"/>
		</g>
	</g>
	<g>
		<g>
			<path class="st0" d="M57.1,88.3C57,88.3,57,88.3,57.1,88.3c-0.6,0-1.1-0.3-1.4-0.7L39.5,72.9c-0.5-0.7-0.3-1.7,0.5-2.2
				c0.7-0.5,1.7-0.3,2.2,0.5l15,12.7l27.2-35.7c0.5-0.7,1.5-0.9,2.3-0.3c0.7,0.5,0.8,1.6,0.3,2.3L58.3,87.6
				C58,88,57.6,88.3,57.1,88.3z"/>
			<path class="st1" d="M57.1,88.5L57.1,88.5c-0.7,0-1.2-0.3-1.5-0.8L39.3,73.1c-0.3-0.4-0.4-0.9-0.3-1.4c0.1-0.5,0.4-0.9,0.8-1.2
				c0.4-0.3,0.9-0.4,1.4-0.3c0.5,0.1,0.9,0.4,1.2,0.8l14.8,12.5L84.2,48c0.3-0.4,0.7-0.7,1.2-0.7c0.5-0.1,1,0.1,1.4,0.4
				c0.8,0.6,1,1.8,0.4,2.6L58.5,87.8C58.2,88.3,57.6,88.5,57.1,88.5z M39.7,72.8l16.2,14.6c0.2,0.4,0.6,0.6,1.1,0.6l0.1,0.3V88
				c0.4,0,0.8-0.2,1.1-0.5L86.8,50c0.5-0.6,0.3-1.5-0.3-1.9c-0.3-0.2-0.6-0.3-1-0.3c-0.4,0-0.7,0.2-0.9,0.5L57.2,84.2L42,71.3
				c-0.2-0.3-0.5-0.5-0.9-0.6c-0.4-0.1-0.7,0-1,0.2c-0.3,0.2-0.5,0.5-0.6,0.9C39.4,72.1,39.5,72.5,39.7,72.8z"/>
		</g>
	</g>
</g>
</svg>
