<?xml version="1.0" encoding="UTF-8"?>
<svg id="Layer_1" data-name="Layer 1" xmlns="http://www.w3.org/2000/svg" width="45.16mm" height="45.16mm" viewBox="0 0 128 128">
  <defs>
    <style>
      .cls-1 {
        fill: #0069b1;
      }
    </style>
  </defs>
  <path class="cls-1" d="m108.8,81.27l-1.46-1.8c-2.63-3.24-7.08-4.22-10.86-2.36l-6.21,3.29-12.18,2.87c0-.11.02-.22.02-.33,0-4.32-3.52-7.84-7.84-7.84h-12.91c-3.64-2.89-8.17-4.48-12.84-4.48-5.29,0-10.32,2-14.16,5.63l-.81.77h0s-5.4,5.15-5.4,5.15c-.54.51-1.13.97-1.83,1.4l-3.08,2.11,1.7,2.47,3.03-2.07c.81-.5,1.57-1.09,2.26-1.74l6.34-6.04c3.27-3.02,7.51-4.68,11.97-4.68,4.14,0,8.17,1.46,11.34,4.13l.42.35h13.99c2.67,0,4.84,2.17,4.84,4.84s-2.01,4.69-4.58,4.83l-13.39.72.16,3,13.39-.72c2.86-.15,5.3-1.83,6.54-4.21l13.92-3.28,6.7-3.49c2.48-1.22,5.43-.57,7.17,1.58l1.27,1.56-24.81,15.3c-3.48,2.14-7.47,3.33-11.56,3.44l-26.57.67c-.79.02-1.54.27-2.18.72l-6.21,3.83,1.58,2.55,6.25-3.86.1-.07c.16-.12.34-.18.54-.18l26.57-.67c4.62-.12,9.13-1.46,13.06-3.88l25.07-15.46c.67-.41,1.13-1.09,1.26-1.87.13-.78-.08-1.57-.57-2.18Z"/>
  <path class="cls-1" d="m72.85,70.33c14.34,0,26-11.66,26-26s-11.66-26-26-26-26,11.66-26,26,11.66,26,26,26Zm-1.5-48.94v3.18h3v-3.18c11.49.74,20.7,9.96,21.44,21.44h-3.18v3h3.18c-.74,11.49-9.96,20.7-21.44,21.44v-3.18h-3v3.18c-11.49-.74-20.7-9.96-21.44-21.44h3.18v-3h-3.18c.74-11.49,9.96-20.7,21.44-21.44Z"/>
  <polygon class="cls-1" points="85.11 42.83 74.35 42.83 74.35 28.83 71.35 28.83 71.35 45.83 85.11 45.83 85.11 42.83"/>
</svg>