<?xml version="1.0" encoding="UTF-8"?>
<svg id="Layer_1" data-name="Layer 1" xmlns="http://www.w3.org/2000/svg" width="45.16mm" height="45.16mm" viewBox="0 0 128 128">
  <defs>
    <style>
      .cls-1 {
        fill: #0069b1;
      }
    </style>
  </defs>
  <path class="cls-1" d="m94.46,22.36v-12.72h-60.92v12.74c-4.46.99-7.8,4.97-7.8,9.72v73.4c0,6.71,5.45,12.16,12.16,12.16h52.2c6.76,0,12.26-5.5,12.26-12.26V32.1c0-4.79-3.39-8.79-7.9-9.74Zm-3.52-9.2v8.98h-53.88v-2.68h33.64v-3.52h-33.64v-2.78h53.88Zm-3.9,100.88h-4.58v-9.78h4.58v9.78Zm-8.1,0h-4.58v-9.78h4.58v9.78Zm-8.1,0h-4.58v-9.78h4.58v9.78Zm-8.1,0h-4.58v-9.78h4.58v9.78Zm-1.91-19.1l-6.92-6.92,3.23-3.23,6.92,6.92-3.23,3.23Zm-9.41-4.43l6.92,6.92-3.26,3.26-6.92-6.92,3.26-3.26Zm-5.75,5.75l6.92,6.92-3.21,3.21-6.92-6.92,3.21-3.21Zm-5.7,5.7l6.92,6.92-3.25,3.25-6.92-6.92,3.25-3.25Zm14.67,4.14v8.04h-8.04l8.04-8.04Zm44.2-.7c0,4.66-3.68,8.48-8.28,8.72v-13.38h-30.55l9.03-9.03-11.89-11.89-25.4,25.4,8.92,8.92h-2.77c-4.76,0-8.64-3.88-8.64-8.64V32.1c0-3.55,2.89-6.44,6.44-6.44h56.7c3.55,0,6.44,2.89,6.44,6.44v73.3Z"/>
  <path class="cls-1" d="m59.1,35.54c-10.67,0-19.36,8.68-19.36,19.36s8.68,19.36,19.36,19.36,19.36-8.68,19.36-19.36-8.68-19.36-19.36-19.36Zm0,35.2c-8.73,0-15.84-7.11-15.84-15.84s7.11-15.84,15.84-15.84,15.84,7.11,15.84,15.84-7.11,15.84-15.84,15.84Z"/>
  <path class="cls-1" d="m59.4,53.4v-4.1c1.1.2,2,.7,3,1.4l1.2-2c-1.2-.9-2.5-1.5-4.1-1.7v-1.3h-1.9v1.3c-2.8.2-4.6,1.8-4.6,4.2s1.5,3.7,4.7,4.5v4.3c-1.4-.2-2.6-.9-3.8-1.9l-1.4,2c1.4,1.2,3.2,2,5.1,2.2v2.2h1.9v-2.2c2.8-.3,4.6-1.9,4.6-4.4,0-2.3-1.4-3.7-4.7-4.5Zm-1.7-.3c-1.7-.5-2.1-1.1-2.1-2s.7-1.7,2.1-1.8v3.8Zm1.7,6.9v-3.9c1.7.5,2.2,1.1,2.2,2,0,1.1-.8,1.8-2.2,1.9Z"/>
</svg>