<?xml version="1.0" encoding="UTF-8"?>
<svg id="Layer_1" data-name="Layer 1" xmlns="http://www.w3.org/2000/svg" width="45.16mm" height="45.16mm" viewBox="0 0 128 128">
  <defs>
    <style>
      .cls-1 {
        fill: #0069b1;
      }
    </style>
  </defs>
  <path class="cls-1" d="m89.58,56.88h-53.57c-2.95,0-5.35,2.4-5.35,5.35v33.16c0,2.95,2.4,5.35,5.35,5.35h54.05c2.95,0,5.35-2.4,5.35-5.35v-32.69c0-3.21-2.61-5.82-5.82-5.82Zm2.82,38.51c0,1.29-1.05,2.35-2.35,2.35h-54.05c-1.29,0-2.35-1.05-2.35-2.35v-33.16c0-1.29,1.05-2.35,2.35-2.35h53.57c1.55,0,2.82,1.27,2.82,2.82v32.69Zm-12.68-41.51c.07-.62.12-1.24.12-1.86,0-8.73-7.1-15.83-15.83-15.83s-15.83,7.1-15.83,15.83c0,.62.05,1.24.12,1.86h-3.03c-.06-.62-.09-1.24-.09-1.86,0-10.38,8.45-18.83,18.83-18.83s18.83,8.45,18.83,18.83c0,.62-.04,1.24-.1,1.86h-3.02Zm24.2-1.86l-.36.69c-1.49,2.86-3.31,5.55-5.39,8.04-.25-1.12-.72-2.16-1.36-3.08,1.39-1.78,2.64-3.67,3.71-5.65-7.31-13.43-21.23-21.75-36.52-21.75s-29.22,8.31-36.52,21.75c.8,1.47,1.7,2.89,2.68,4.26-.76.74-1.37,1.63-1.8,2.62-1.47-1.96-2.78-4.03-3.91-6.19l-.36-.69.36-.69c7.72-14.84,22.88-24.05,39.55-24.05s31.84,9.22,39.55,24.05l.36.69Zm-53.29,11.47h-12.55v10.09h12.55v-10.09Zm-3,7.09h-6.55v-4.09h6.55v4.09Zm35.64,9.69h-45.19v-3h45.19v3Zm-45.19,7.3h18.46v3h-18.46v-3Zm44.18-3.57c-1.43,0-2.73.6-3.66,1.55-.93-.95-2.22-1.55-3.66-1.55s-2.73.6-3.66,1.55c-.93-.95-2.22-1.55-3.66-1.55-2.82,0-5.12,2.3-5.12,5.12s2.3,5.12,5.12,5.12c1.43,0,2.73-.6,3.66-1.55.93.95,2.22,1.55,3.66,1.55s2.73-.6,3.66-1.55c.93.95,2.22,1.55,3.66,1.55,2.82,0,5.12-2.3,5.12-5.12s-2.3-5.12-5.12-5.12Zm-14.63,7.24c-1.17,0-2.12-.95-2.12-2.12s.95-2.12,2.12-2.12,2.12.95,2.12,2.12-.95,2.12-2.12,2.12Zm7.32,0c-1.17,0-2.12-.95-2.12-2.12s.95-2.12,2.12-2.12,2.12.95,2.12,2.12-.95,2.12-2.12,2.12Zm7.31,0c-1.17,0-2.12-.95-2.12-2.12s.95-2.12,2.12-2.12,2.12.95,2.12,2.12-.95,2.12-2.12,2.12Z"/>
</svg>