<?xml version="1.0" encoding="UTF-8"?>
<svg id="Layer_1" data-name="Layer 1" xmlns="http://www.w3.org/2000/svg" width="45.16mm" height="45.16mm" viewBox="0 0 128 128">
  <defs>
    <style>
      .cls-1 {
        fill: #0069b1;
      }
    </style>
  </defs>
  <path class="cls-1" d="m90.37,70.09h0c-1.67,0-3.2.61-4.38,1.62-1.08-2.3-3.42-3.91-6.13-3.91-2.12,0-4.01.98-5.25,2.51-1.24-1.53-3.14-2.51-5.26-2.51-1.39,0-2.68.42-3.75,1.14v-13.32c0-3.72-3.03-6.75-6.76-6.75s-6.75,3.03-6.75,6.75v24.7c-3.07.63-5.39,3.36-5.39,6.62v6.18c0,13.91,11.31,25.22,25.22,25.22s25.22-11.31,25.22-25.22v-16.27c0-3.72-3.03-6.75-6.75-6.75Zm3.75,23.03c0,12.25-9.97,22.22-22.22,22.22s-22.22-9.97-22.22-22.22v-6.18c0-1.59.99-2.94,2.39-3.48v9.95h3v-37.78c0-2.07,1.68-3.75,3.76-3.75s3.75,1.68,3.75,3.75v20.85h3v-1.91c0-2.07,1.68-3.75,3.76-3.75s3.75,1.68,3.75,3.75v1.91h3v-1.91c0-2.07,1.68-3.75,3.76-3.75s3.75,1.68,3.75,3.75v2.29h3c0-2.07,1.68-3.75,3.75-3.75h0c2.07,0,3.75,1.68,3.75,3.75v16.27Z"/>
  <path class="cls-1" d="m49.07,59.8c-2.64-1.08-5.02-2.62-7.09-4.48l34.56-34.56c3.93,4.34,6.32,10.1,6.32,16.4,0,9.63-5.78,18.3-14.28,22.23v3.28c10.22-4.12,17.28-14.24,17.28-25.51,0-15.16-12.33-27.49-27.49-27.49s-27.49,12.33-27.49,27.49c0,11.75,7.43,22,18.19,25.86v-3.22Zm-15.19-22.64c0-13.5,10.99-24.49,24.49-24.49,6.12,0,11.73,2.26,16.02,5.99l-34.52,34.52c-3.75-4.32-6-9.94-6-16.02Z"/>
</svg>