<?xml version="1.0" encoding="UTF-8"?>
<svg id="Layer_1" data-name="Layer 1" xmlns="http://www.w3.org/2000/svg" width="45.16mm" height="45.16mm" viewBox="0 0 128 128">
  <defs>
    <style>
      .cls-1 {
        fill: #0069b1;
      }
    </style>
  </defs>
  <rect class="cls-1" x="62.42" y="35.6" width="3" height="5.42"/>
  <rect class="cls-1" x="47.43" y="41.81" width="3" height="5.42" transform="translate(-17.15 47.64) rotate(-45)"/>
  <rect class="cls-1" x="40.01" y="58.01" width="5.42" height="3"/>
  <rect class="cls-1" x="82.41" y="58.01" width="5.42" height="3"/>
  <rect class="cls-1" x="76.2" y="43.02" width="5.42" height="3" transform="translate(-8.37 68.84) rotate(-45)"/>
  <path class="cls-1" d="m55.77,71.41v-3.9c-2.03-2.06-3.28-4.89-3.28-8,0-6.3,5.13-11.43,11.43-11.43s11.43,5.13,11.43,11.43c0,3.12-1.26,5.94-3.29,8.01v2.21l1.71.29c2.81-2.63,4.57-6.37,4.57-10.51,0-7.96-6.47-14.43-14.43-14.43s-14.43,6.47-14.43,14.43c0,4.93,2.49,9.29,6.28,11.9Z"/>
  <path class="cls-1" d="m110.23,27.53H17.77v56.1h27.66c.21.37.46.73.77,1.05l15.33,15.36,2.12-2.12-15.33-15.35c-.78-.78-.77-2.06.02-2.83l.38-.38c.78-.78,2.06-.77,2.84.02l10.2,10.19v-29.18c0-1.1.9-2,2-2h.29c1.1,0,2,.9,2,2v14.42l17.56,2.98s3.14.68,3.17,5.09l-1.28,15.99,2.99.24,1.23-15.47h20.48V27.53Zm-3,53.1h-17.68c-.84-3.83-3.71-5.46-5.38-5.8l-15.11-2.57v-11.88c0-2.76-2.24-5-5-5h-.29c-2.76,0-5,2.24-5,5v21.94l-5.07-5.07c-1.94-1.96-5.11-1.98-7.08-.04l-.38.38c-.85.84-1.31,1.92-1.43,3.03h-24.03V30.53h86.45v50.1Z"/>
</svg>