<?xml version="1.0" encoding="UTF-8"?>
<svg id="Layer_1" data-name="Layer 1" xmlns="http://www.w3.org/2000/svg" width="45.16mm" height="45.16mm" viewBox="0 0 128 128">
  <defs>
    <style>
      .cls-1 {
        fill: #0069b1;
      }
    </style>
  </defs>
  <path class="cls-1" d="m92.32,104.03h-57.62v-61.2h10.99v7.03h3v-7.03h29.65v7.03h3v-7.03h10.99v7.58h3v-10.58h-13.99v-17.84l-5.29-5.2h-25.15l-5.21,5.21v17.84h-13.99v67.2h63.62v-12.55h-3v9.55ZM52.14,19.78h22.68l3.51,3.46v16.59h-29.65v-16.59l3.45-3.45Z"/>
  <path class="cls-1" d="m93.82,53.61c-10.39,0-18.84,8.45-18.84,18.84s8.45,18.84,18.84,18.84,18.84-8.45,18.84-18.84-8.45-18.84-18.84-18.84Zm1.5,34.6v-4.52h-3v4.52c-7.54-.71-13.55-6.72-14.26-14.26h4.52v-3h-4.52c.71-7.54,6.72-13.55,14.26-14.26v4.52h3v-4.52c7.54.71,13.55,6.72,14.26,14.26h-4.52v3h4.52c-.71,7.54-6.72,13.55-14.26,14.26Z"/>
  <polygon class="cls-1" points="95.32 62.44 92.32 62.44 92.32 73.94 99.75 73.94 99.75 70.94 95.32 70.94 95.32 62.44"/>
</svg>