<?xml version="1.0" encoding="UTF-8"?>
<svg id="Layer_1" data-name="Layer 1" xmlns="http://www.w3.org/2000/svg" width="45.16mm" height="45.16mm" viewBox="0 0 128 128">
  <defs>
    <style>
      .cls-1 {
        fill: #0069b1;
      }
    </style>
  </defs>
  <path class="cls-1" d="m62.04,102.29c0,1.32-1.07,2.39-2.39,2.39s-2.39-1.07-2.39-2.39,1.07-2.39,2.39-2.39,2.39,1.07,2.39,2.39Zm-19.71-52.99h34.64c2.25,0,4.07,1.82,4.07,4.07v22.47c0,2.25-1.82,4.07-4.07,4.07h-34.63c-2.25,0-4.07-1.82-4.07-4.07v-22.46c0-2.25,1.82-4.07,4.07-4.07Zm35.71,7.44h-36.78v3.11h36.78v-3.11Zm0,19.1v-12.98h-36.78v12.98c0,.59.48,1.07,1.07,1.07h34.63c.59,0,1.07-.48,1.07-1.07Zm-1.07-23.54h-34.64c-.59,0-1.07.48-1.07,1.07v.37h36.78v-.37c0-.59-.48-1.07-1.07-1.07Zm-24.99,17.43v2.04c0,1.95-1.59,3.54-3.54,3.54h-2.04c-1.95,0-3.54-1.59-3.54-3.54v-2.04c0-1.95,1.59-3.54,3.54-3.54h2.04c1.95,0,3.54,1.59,3.54,3.54Zm-3,0c0-.3-.24-.54-.54-.54h-2.04c-.3,0-.54.24-.54.54v2.04c0,.3.24.54.54.54h2.04c.3,0,.54-.24.54-.54v-2.04Zm7.61,5.53h18.33v-3h-18.33v3Zm37.13-21.7c.62,0,1.23-.04,1.84-.09v50.77c0,3.58-2.92,6.5-6.5,6.5H30.24c-3.58,0-6.5-2.92-6.5-6.5V29.76c0-3.58,2.92-6.5,6.5-6.5h44.27c-.46.97-.85,1.96-1.16,3H30.24c-1.93,0-3.5,1.57-3.5,3.5v2.34h45.73c0,.06,0,.13,0,.19,0,.95.09,1.89.21,2.81H26.74v59.01h65.83v-40.61c.39.02.77.06,1.16.06Zm-1.16,50.68v-7.13H26.74v7.13c0,1.93,1.57,3.5,3.5,3.5h58.83c1.93,0,3.5-1.57,3.5-3.5Zm19.42-71.94c0,10.09-8.18,18.26-18.26,18.26s-18.26-8.18-18.26-18.26,8.18-18.26,18.26-18.26,18.26,8.18,18.26,18.26Zm-3,0c0-8.42-6.85-15.26-15.26-15.26s-15.26,6.85-15.26,15.26,6.85,15.26,15.26,15.26,15.26-6.85,15.26-15.26Zm-16.76,6.09h3v-18.56h-3v18.56Zm0,6.38h3v-2.83h-3v2.83Z"/>
</svg>