<?xml version="1.0" encoding="UTF-8"?>
<svg id="Layer_1" data-name="Layer 1" xmlns="http://www.w3.org/2000/svg" width="45.16mm" height="45.16mm" viewBox="0 0 128 128">
  <defs>
    <style>
      .cls-1 {
        fill: #0069b1;
      }
    </style>
  </defs>
  <path class="cls-1" d="m40.77,66.28c-9.15,0-16.59,7.44-16.59,16.59s7.44,16.59,16.59,16.59,16.59-7.44,16.59-16.59-7.44-16.59-16.59-16.59Zm0,30.18c-7.49,0-13.59-6.1-13.59-13.59s6.1-13.59,13.59-13.59,13.59,6.1,13.59,13.59-6.1,13.59-13.59,13.59Z"/>
  <path class="cls-1" d="m76.01,31.23v27.81h27.81v-27.81h-27.81Zm24.81,24.81h-21.81v-21.81h21.81v21.81Z"/>
  <polygon class="cls-1" points="88.42 87.59 69.71 87.59 77.07 80.22 74.95 78.1 63.96 89.09 74.95 100.08 77.07 97.96 69.71 90.59 91.42 90.59 91.42 68.02 88.42 68.02 88.42 87.59"/>
  <polygon class="cls-1" points="42.27 40.41 60.98 40.41 53.61 47.78 55.73 49.9 66.72 38.91 55.73 27.92 53.61 30.04 60.98 37.41 39.27 37.41 39.27 59.98 42.27 59.98 42.27 40.41"/>
</svg>