<?xml version="1.0" encoding="UTF-8"?>
<svg id="Layer_1" data-name="Layer 1" xmlns="http://www.w3.org/2000/svg" width="45.16mm" height="45.16mm" viewBox="0 0 128 128">
  <defs>
    <style>
      .cls-1 {
        fill: #0069b1;
      }
    </style>
  </defs>
  <path class="cls-1" d="m85.77,97.11c-12.34,0-22.38-10.04-22.38-22.38s10.04-22.38,22.38-22.38,22.38,10.04,22.38,22.38-10.04,22.38-22.38,22.38Zm0-41.76c-10.69,0-19.38,8.69-19.38,19.38s8.69,19.38,19.38,19.38,19.38-8.69,19.38-19.38-8.69-19.38-19.38-19.38Z"/>
  <path class="cls-1" d="m68.81,93.59c-3.89.34-8.16.52-12.54.52-16.99,0-27.03-2.6-28-4.08v-15.58c7.27,3.48,25.47,3.61,28,3.61,1.45,0,2.9-.03,4.34-.06-.13-.98-.2-1.98-.21-3-1.37.04-2.74.06-4.13.06-16.99,0-27.03-2.6-28-4.08v-15.58c7.27,3.48,25.47,3.61,28,3.61,3.37,0,6.71-.12,9.87-.32.97-1.18,2.04-2.27,3.21-3.26-4.04.38-8.52.58-13.07.58-16.99,0-27.03-2.6-28-4.08v-15.58c7.27,3.48,25.47,3.61,28,3.61s20.73-.13,28-3.61v13.08c.5-.03,1-.05,1.5-.05s1,.02,1.5.05v-16.43c0-6.76-27.83-6.96-31-6.96s-31,.2-31,6.96v57.18c0,6.76,27.83,6.96,31,6.96,5.72,0,11.25-.3,16.05-.87-1.25-.78-2.43-1.67-3.52-2.65Zm-12.54-64.57c16.51,0,26.47,2.45,27.91,3.96-1.44,1.5-11.4,3.96-27.91,3.96s-26.47-2.45-27.91-3.96c1.44-1.5,11.4-3.96,27.91-3.96Z"/>
  <path class="cls-1" d="m87.22,83.37v2.6h-2.29v-2.63c-2.28-.26-4.41-1.18-6.2-2.6l1.68-2.39c1.5,1.21,2.91,2,4.62,2.26v-5.15c-3.83-1-5.62-2.44-5.62-5.41s2.23-4.78,5.51-5.04v-1.52h2.29v1.58c1.92.24,3.49.92,4.94,2l-1.47,2.47c-1.16-.87-2.34-1.42-3.57-1.68v4.99c3.99,1,5.7,2.6,5.7,5.44s-2.26,4.81-5.59,5.09Zm-2.18-15.7c-1.65.13-2.52,1.05-2.52,2.21s.5,1.81,2.52,2.42v-4.62Zm2.07,8.3v4.75c1.65-.13,2.6-1,2.6-2.26,0-1.18-.55-1.89-2.6-2.49Z"/>
</svg>