<?xml version="1.0" encoding="utf-8"?>
<!-- Generator: Adobe Illustrator 27.6.1, SVG Export Plug-In . SVG Version: 6.00 Build 0)  -->
<svg version="1.1" id="Layer_1" xmlns="http://www.w3.org/2000/svg" xmlns:xlink="http://www.w3.org/1999/xlink" x="0px" y="0px"
	 viewBox="0 0 128 128" style="enable-background:new 0 0 128 128;" xml:space="preserve">
<style type="text/css">
	.st0{fill:#0069B1;}
</style>
<g>
	<g>
		<g>
			<path class="st0" d="M64,84.4c-11.4,0-20.7-9.3-20.7-20.7S52.6,42.9,64,42.9c11.4,0,20.7,9.3,20.7,20.7S75.4,84.4,64,84.4z
				 M64,45.3c-10.1,0-18.4,8.2-18.4,18.4S53.9,82,64,82c10.1,0,18.4-8.2,18.4-18.4S74.1,45.3,64,45.3z"/>
		</g>
		<g>
			<g>
				<path class="st0" d="M65.6,72.4h-3.2c-2.7,0-5-2.2-5-5c0-0.6,0.5-1.2,1.2-1.2c0.6,0,1.2,0.5,1.2,1.2c0,1.4,1.2,2.6,2.6,2.6h3.2
					c1.4,0,2.6-1.2,2.6-2.6c0-1.4-1.2-2.6-2.6-2.6h-3.2c-2.7,0-5-2.2-5-4.9c0-2.7,2.2-4.9,5-4.9h3.2c2.7,0,4.9,2.2,4.9,4.9
					c0,0.6-0.5,1.2-1.2,1.2c-0.6,0-1.2-0.5-1.2-1.2c0-1.4-1.2-2.6-2.6-2.6h-3.2c-1.4,0-2.6,1.2-2.6,2.6c0,1.4,1.2,2.6,2.6,2.6h3.2
					c2.7,0,4.9,2.2,4.9,4.9S68.3,72.4,65.6,72.4z"/>
			</g>
			<g>
				<path class="st0" d="M64,57.3c-0.6,0-1.2-0.5-1.2-1.2v-3.5c0-0.6,0.5-1.2,1.2-1.2c0.6,0,1.2,0.5,1.2,1.2v3.5
					C65.2,56.7,64.6,57.3,64,57.3z"/>
			</g>
			<g>
				<path class="st0" d="M64,75.9c-0.6,0-1.2-0.5-1.2-1.2v-3.5c0-0.6,0.5-1.2,1.2-1.2c0.6,0,1.2,0.5,1.2,1.2v3.5
					C65.2,75.3,64.6,75.9,64,75.9z"/>
			</g>
		</g>
	</g>
	<g>
		<path class="st0" d="M35.4,67.5c-0.2,0-0.4-0.1-0.6-0.2L13.6,54.2c-0.3-0.2-0.6-0.6-0.6-1c0-0.4,0.2-0.8,0.6-1l21.2-13
			c0.4-0.2,0.8-0.2,1.2,0c0.4,0.2,0.6,0.6,0.6,1v5.9h9.7c0.6,0,1.2,0.5,1.2,1.2s-0.5,1.2-1.2,1.2H35.4c-0.6,0-1.2-0.5-1.2-1.2v-5
			l-17.8,11l17.8,11.1v-5.2c0-0.6,0.5-1.2,1.2-1.2h5.4c0.6,0,1.2,0.5,1.2,1.2c0,0.6-0.5,1.2-1.2,1.2h-4.3v6.1c0,0.4-0.2,0.8-0.6,1
			C35.8,67.5,35.6,67.5,35.4,67.5z"/>
	</g>
	<g>
		<path class="st0" d="M92.6,89.1c-0.2,0-0.4,0-0.6-0.1c-0.4-0.2-0.6-0.6-0.6-1v-5.9h-9.7c-0.6,0-1.2-0.5-1.2-1.2
			c0-0.6,0.5-1.2,1.2-1.2h10.8c0.6,0,1.2,0.5,1.2,1.2v5l17.8-11L93.8,63.6v5.3c0,0.6-0.5,1.2-1.2,1.2h-5.4c-0.6,0-1.2-0.5-1.2-1.2
			c0-0.6,0.5-1.2,1.2-1.2h4.3v-6.2c0-0.4,0.2-0.8,0.6-1c0.4-0.2,0.8-0.2,1.2,0l21.2,13.3c0.3,0.2,0.5,0.6,0.5,1c0,0.4-0.2,0.8-0.6,1
			l-21.2,13C93,89,92.8,89.1,92.6,89.1z"/>
	</g>
</g>
</svg>
