<?xml version="1.0" encoding="UTF-8"?>
<svg id="Layer_1" data-name="Layer 1" xmlns="http://www.w3.org/2000/svg" width="45.16mm" height="45.16mm" viewBox="0 0 128 128">
  <defs>
    <style>
      .cls-1 {
        fill: #0069b1;
      }
    </style>
  </defs>
  <path class="cls-1" d="m19.38,38.74v50.65h89.23v-50.65H19.38Zm86.23,13.53c-5.49-.68-9.85-5.04-10.53-10.53h10.53v10.53Zm0,3.03v18.45c-6.84.68-12.34,5.93-13.42,12.64h-56.2c-.28-7.58-6.15-13.75-13.61-14.49v-16.61c7.15-.71,12.85-6.41,13.56-13.56h56.11c.71,7.15,6.41,12.85,13.56,13.56Zm-72.7-13.56c-.68,5.49-5.04,9.85-10.53,10.53v-10.53h10.53Zm-10.53,33.19c5.8.72,10.33,5.54,10.61,11.46h-10.61v-11.46Zm72.84,11.46c1.03-5.06,5.21-8.97,10.39-9.62v9.62h-10.39Z"/>
  <polygon class="cls-1" points="83.49 17.98 81.37 20.1 89.86 28.6 34.52 28.6 34.52 31.6 97.1 31.6 83.49 17.98"/>
  <polygon class="cls-1" points="44.51 110.02 46.63 107.9 38.14 99.4 93.48 99.4 93.48 96.4 30.9 96.4 44.51 110.02"/>
  <path class="cls-1" d="m45.76,66.24h10.32v16.7h15.84v-16.7h10.32l-18.24-21.88-18.24,21.88Zm23.16-3v16.7h-9.84v-16.7h-6.92l11.84-14.2,11.84,14.2h-6.92Z"/>
</svg>