<?xml version="1.0" encoding="UTF-8"?>
<svg id="Layer_1" data-name="Layer 1" xmlns="http://www.w3.org/2000/svg" width="45.16mm" height="45.16mm" viewBox="0 0 128 128">
  <defs>
    <style>
      .cls-1 {
        fill: #0069b1;
      }
    </style>
  </defs>
  <path class="cls-1" d="m30.96,22.6v45.51c0,6.37,2.8,12.37,7.68,16.47l25.36,21.28,25.36-21.28c4.88-4.1,7.68-10.1,7.68-16.47V22.6H30.96Zm63.08,45.51c0,5.48-2.41,10.65-6.61,14.17l-23.43,19.66-23.43-19.66c-4.2-3.52-6.61-8.69-6.61-14.17V25.6h60.08v42.51Z"/>
  <path class="cls-1" d="m59.6,71.74l-4.93,6.2v5.12l6.9-3.63,1.44,2.23h1.93l1.59-2.17,6.8,3.58v-5.11l-4.93-6.2.13-7.94,21.54,6.04v-5.16l-21.3-15.3.13-7.87c.03-1.56-.19-3.11-.64-4.6l-.83-2.75c-.46-1.53-1.8-2.53-3.42-2.54-1.58,0-2.92.98-3.39,2.49l-.85,2.7c-.49,1.56-.73,3.18-.7,4.82l.13,7.76-21.3,15.3v5.16l21.54-6.04.13,7.94Zm2.65-20.83l-.16-9.33c-.02-1.31.17-2.61.56-3.86l.85-2.7c.08-.26.26-.39.52-.39.3,0,.47.13.55.4l.83,2.75c.36,1.2.53,2.44.51,3.69l-.16,9.44,20.55,14.76-20.7-5.8-.22,12.9,3.71,4.67-3.46-1.82-1.58,2.15-1.47-2.28-3.7,1.95,3.71-4.67-.22-12.9-20.7,5.8,20.55-14.76Z"/>
</svg>