<?xml version="1.0" encoding="UTF-8"?>
<svg id="Layer_1" data-name="Layer 1" xmlns="http://www.w3.org/2000/svg" width="45.16mm" height="45.16mm" viewBox="0 0 128 128">
  <defs>
    <style>
      .cls-1 {
        fill: #0069b1;
      }
    </style>
  </defs>
  <path class="cls-1" d="m45.78,35.51c4.5,0,8.02-4.98,8.02-11.34,0-4.87-.97-9.38-8.02-9.38s-8.02,4.51-8.02,9.38c0,6.36,3.52,11.34,8.02,11.34Zm0-17.72c3.99,0,5.02,1.31,5.02,6.38,0,4.52-2.3,8.34-5.02,8.34s-5.02-3.82-5.02-8.34c0-5.07,1.03-6.38,5.02-6.38Z"/>
  <rect class="cls-1" x="44.28" y="45.98" width="3" height="17.85"/>
  <path class="cls-1" d="m83.43,78.62c-2.15-2.87-6.23-3.46-9.1-1.31l-8.2,6.13-5.03-6.73h3.59v-25.93c0-6.71-5.46-12.16-12.16-12.16h-13.49c-6.71,0-12.16,5.46-12.16,12.16v25.93h7.09v36.5h23.62v-36.18l6.13,8.2h0s19.39,25.94,19.39,25.94c1,1.33,2.52,2.03,4.07,2.03,1.06,0,2.12-.33,3.03-1.01l11.75-8.78-18.54-24.8Zm-25.84-4.91v-3.73h4.09v3.73h-4.09Zm-27.71,0v-3.73h4.09v3.73h-4.09Zm24.71,36.5h-7.31v-34.9h-3v34.9h-7.31v-59.15h-3v15.92h-4.09v-16.2c0-5.05,4.11-9.16,9.16-9.16h5.24v2.32h3v-2.32h5.24c5.05,0,9.16,4.11,9.16,9.16v16.2h-4.09v-14.64h-3v57.87Zm21.54-30.5c1.55-1.16,3.74-.84,4.9.71l16.74,22.39-5.65,4.22c-.15-.68-.43-1.34-.88-1.94-.81-1.08-2-1.79-3.34-1.98-1.34-.19-2.68.15-3.76.96-.59.44-1.05,1-1.39,1.61l-14.83-19.84,8.2-6.13Zm9.39,29.67c-.33-.44-.47-.99-.39-1.54s.37-1.03.81-1.37c.36-.27.79-.41,1.24-.41.1,0,.2,0,.3.02.55.08,1.03.37,1.37.81.69.92.5,2.22-.42,2.9-.92.68-2.22.5-2.91-.42Z"/>
  <rect class="cls-1" x="81.67" y="80.48" width="3" height="19.82" transform="translate(-37.57 67.8) rotate(-36.79)"/>
</svg>