<?xml version="1.0" encoding="UTF-8"?>
<svg id="Layer_1" data-name="Layer 1" xmlns="http://www.w3.org/2000/svg" width="45.16mm" height="45.16mm" viewBox="0 0 128 128">
  <defs>
    <style>
      .cls-1 {
        fill: #0069b1;
      }
    </style>
  </defs>
  <path class="cls-1" d="m64,24.48c-21.79,0-39.52,17.73-39.52,39.52s17.73,39.52,39.52,39.52,39.52-17.73,39.52-39.52-17.73-39.52-39.52-39.52Zm0,76.03c-20.14,0-36.52-16.38-36.52-36.52s16.38-36.52,36.52-36.52,36.52,16.38,36.52,36.52-16.38,36.52-36.52,36.52Z"/>
  <polygon class="cls-1" points="80.42 45.46 64 61.88 47.58 45.46 45.46 47.58 61.88 64 45.46 80.42 47.58 82.54 64 66.12 80.42 82.54 82.54 80.42 66.12 64 82.54 47.58 80.42 45.46"/>
</svg>