<?xml version="1.0" encoding="UTF-8"?>
<svg id="Layer_1" data-name="Layer 1" xmlns="http://www.w3.org/2000/svg" width="45.16mm" height="45.16mm" viewBox="0 0 128 128">
  <defs>
    <style>
      .cls-1 {
        fill: #0069b1;
      }
    </style>
  </defs>
  <path class="cls-1" d="m87.21,19.43H26.72v90.83h74.56V33.18l-14.07-13.75Zm.89,5.06l8,7.82h-8v-7.82ZM29.72,107.26V22.43h55.38v12.88h13.18v71.95H29.72Z"/>
  <polygon class="cls-1" points="62.5 51.99 62.5 72.2 65.5 72.2 65.5 51.99 72.87 59.36 74.99 57.24 64 46.25 53.01 57.24 55.13 59.36 62.5 51.99"/>
  <polygon class="cls-1" points="77.55 79.83 50.45 79.83 50.45 71.51 47.45 71.51 47.45 82.83 80.55 82.83 80.55 71.51 77.55 71.51 77.55 79.83"/>
</svg>