<?xml version="1.0" encoding="utf-8"?>
<!-- Generator: Adobe Illustrator 27.6.1, SVG Export Plug-In . SVG Version: 6.00 Build 0)  -->
<svg version="1.1" id="Layer_1" xmlns="http://www.w3.org/2000/svg" xmlns:xlink="http://www.w3.org/1999/xlink" x="0px" y="0px"
	 viewBox="0 0 128 128" style="enable-background:new 0 0 128 128;" xml:space="preserve">
<style type="text/css">
	.st0{fill:#0069B1;}
</style>
<g>
	<g>
		<g>
			<path class="st0" d="M64,65.1c-7.6,0-13.8-6.2-13.8-13.8S56.4,37.5,64,37.5s13.8,6.2,13.8,13.8S71.6,65.1,64,65.1z M64,40.3
				c-6.1,0-11,4.9-11,11s4.9,11,11,11c6.1,0,11-4.9,11-11S70.1,40.3,64,40.3z"/>
		</g>
		<g>
			<path class="st0" d="M86.6,85.7H41.4c-0.8,0-1.4-0.6-1.4-1.4c0-8.6,4.6-16.6,12.1-20.8c0.6-0.3,1.4-0.2,1.8,0.4
				c0.1,0.1,3.1,3.7,10.1,3.7c7,0,9.9-3.6,10.1-3.8c0.4-0.5,1.2-0.7,1.8-0.4C83.3,67.7,88,75.7,88,84.3C88,85,87.4,85.7,86.6,85.7z
				 M42.9,82.9h42.2c-0.4-6.7-4.1-12.8-9.7-16.4c-1.6,1.4-5.2,3.9-11.4,3.9c-6.2,0-9.9-2.5-11.4-3.9C46.9,70,43.3,76.2,42.9,82.9z"
				/>
		</g>
	</g>
	<g>
		<path class="st0" d="M64,106.8c-23.6,0-42.8-19.2-42.8-42.8S40.4,21.2,64,21.2s42.8,19.2,42.8,42.8S87.6,106.8,64,106.8z M64,24
			C42,24,24,42,24,64c0,22,17.9,40,40,40s40-17.9,40-40C104,42,86,24,64,24z"/>
	</g>
</g>
</svg>
