<?xml version="1.0" encoding="utf-8"?>
<!-- Generator: Adobe Illustrator 27.6.1, SVG Export Plug-In . SVG Version: 6.00 Build 0)  -->
<svg version="1.1" id="Layer_1" xmlns="http://www.w3.org/2000/svg" xmlns:xlink="http://www.w3.org/1999/xlink" x="0px" y="0px"
	 viewBox="0 0 128 128" style="enable-background:new 0 0 128 128;" xml:space="preserve">
<style type="text/css">
	.st0{fill:#066AB1;}
</style>
<g>
	<g>
		<g>
			<path class="st0" d="M88.8,95L87.3,93c1-0.7,2-1.5,2.9-2.3l-3.9-10.3l0.5-0.6c2-2.3,3.7-4.8,5-7.6l0.3-0.7l10.2-0.5
				c0.4-1.4,0.7-2.9,0.9-4.4l-8.7-4.9l0-0.8c0-0.5,0-1,0-1.5c0-2.7-0.3-5.3-1-7.9l-0.2-0.7l6.8-6.3c-0.7-1.5-1.4-2.9-2.3-4.3
				L89.1,42l-0.5-0.6c-2-2.7-4.4-5-7.1-6.9L80.9,34l1.1-8.4c-1.5-0.7-3-1.4-4.6-2l-5.2,6.4l-0.8-0.2c-3.4-0.8-6.9-1.1-10.4-0.7
				l-0.8,0.1l-4.5-6.9c-1.6,0.3-3.1,0.8-4.7,1.3l0.1,8.3l-0.7,0.4c-3.2,1.6-6.1,3.8-8.6,6.4l-0.5,0.6L33,36.6
				c-0.9,1.1-1.7,2.4-2.5,3.6l5.9,6.8L36,47.7c-1.4,3.3-2.2,6.8-2.3,10.4l0,0.8l-9,3.8c0.1,1.3,0.2,2.7,0.4,4l9.9,1.6l0.2,0.7
				c1.1,3.3,2.7,6.3,4.8,9.1l0.5,0.6l-4.9,9.6c1,1.1,2.2,2.1,3.3,3.1l-1.6,1.9c-1.5-1.2-2.9-2.6-4.2-4l-0.6-0.6l5-9.8
				c-1.9-2.6-3.4-5.4-4.4-8.4l-10.2-1.6l-0.1-0.9c-0.3-2-0.5-4-0.6-6.1l0-0.9l9.2-3.8c0.2-3.3,1-6.6,2.2-9.7l-6-7l0.5-0.8
				c1.1-1.9,2.4-3.7,3.8-5.4l0.5-0.7l8.6,2.6c2.4-2.4,5.1-4.4,8-6l-0.1-8.5l0.8-0.3c2.2-0.8,4.4-1.4,6.7-1.9l0.8-0.2l4.6,7.1
				c3.2-0.3,6.5,0,9.7,0.7l5.3-6.5l0.8,0.3c2.3,0.8,4.5,1.7,6.6,2.8l0.8,0.4l-1.1,8.6c2.5,1.8,4.7,4,6.6,6.4l8.9-1.7l0.5,0.7
				c1.3,2,2.4,4.1,3.3,6.2l0.4,0.8l-7,6.5c0.6,2.5,0.9,5.1,0.9,7.8c0,0.3,0,0.5,0,0.8l8.9,4.9l-0.1,0.8c-0.3,2.2-0.7,4.4-1.3,6.5
				l-0.3,0.9l-10.5,0.5c-1.2,2.5-2.8,4.9-4.6,7l4,10.5L92.5,92C91.3,93,90.1,94.1,88.8,95z"/>
		</g>
		<g>
			<path class="st0" d="M47.4,73.6c-3.3-3.9-5.1-8.9-5.1-14c0-11.9,9.7-21.7,21.7-21.7s21.7,9.7,21.7,21.7c0,4.9-1.7,9.8-4.8,13.6
				l-2-1.6c2.7-3.4,4.2-7.6,4.2-12c0-10.6-8.6-19.1-19.1-19.1c-10.6,0-19.1,8.6-19.1,19.1c0,4.5,1.6,8.9,4.5,12.3L47.4,73.6z"/>
		</g>
	</g>
	<g>
		<g>
			<path class="st0" d="M64.2,79.3c-6.4,0-11.6-5.2-11.6-11.6v-9.3c0-6.4,5.2-11.6,11.6-11.6S75.9,52,75.9,58.4v9.3
				C75.9,74.1,70.6,79.3,64.2,79.3z M64.2,49.3c-5,0-9.1,4.1-9.1,9.1v9.3c0,5,4.1,9.1,9.1,9.1c5,0,9.1-4.1,9.1-9.1v-9.3
				C73.3,53.4,69.3,49.3,64.2,49.3z"/>
		</g>
		<g>
			<path class="st0" d="M77,108.5H50.9c-4.6,0-8.3-3.7-8.3-8.3v-9.6c0-1.9,1.2-3.8,3.5-5.6c1.9-1.5,4.1-2.6,6.6-3.3l8.1-2.3
				c0.7-0.2,1.4,0.2,1.6,0.9c0.2,0.7-0.2,1.4-0.9,1.6l-8.1,2.3c-2.2,0.6-4.1,1.6-5.8,2.8c-1.1,0.9-2.5,2.3-2.5,3.6v9.6
				c0,3.2,2.6,5.8,5.8,5.8H77c3.2,0,5.8-2.6,5.8-5.8v-9.6c0-1.3-1.4-2.7-2.5-3.6c-1.6-1.3-3.5-2.2-5.7-2.8L66.7,82
				c-0.7-0.2-1.1-0.9-0.9-1.6c0.2-0.7,0.9-1.1,1.6-0.9l7.9,2.2c2.5,0.7,4.8,1.8,6.6,3.3c2.3,1.8,3.5,3.7,3.5,5.6v9.6
				C85.3,104.8,81.6,108.5,77,108.5z"/>
		</g>
		<g>
			<path class="st0" d="M61.1,82c-0.7,0-1.3-0.6-1.3-1.3v-2.7c0-0.7,0.6-1.3,1.3-1.3c0.7,0,1.3,0.6,1.3,1.3v2.7
				C62.4,81.4,61.8,82,61.1,82z"/>
		</g>
		<g>
			<path class="st0" d="M67,82.1c-0.7,0-1.3-0.6-1.3-1.3v-2.7c0-0.7,0.6-1.3,1.3-1.3c0.7,0,1.3,0.6,1.3,1.3v2.7
				C68.3,81.5,67.7,82.1,67,82.1z"/>
		</g>
		<g>
			<path class="st0" d="M64,92.8c-4.1,0-7.4-4.3-7.4-9.6c0-0.6,0-1.2,0.1-1.8c0.1-0.7,0.8-1.2,1.4-1.1c0.7,0.1,1.2,0.7,1.1,1.4
				c-0.1,0.5-0.1,0.9-0.1,1.4c0,3.8,2.2,7.1,4.8,7.1c2.6,0,4.8-3.2,4.8-7.1c0-0.5,0-1-0.1-1.4c-0.1-0.7,0.4-1.3,1.1-1.4
				c0.7-0.1,1.3,0.4,1.4,1.1c0.1,0.6,0.1,1.2,0.1,1.8C71.3,88.5,68,92.8,64,92.8z"/>
		</g>
		<g>
			<path class="st0" d="M68,59.8c-1.1,0-2.1-0.2-3.1-0.7c-1.2-0.6-2-1.4-2.6-2c-0.7-0.7-1.1-1.1-1.7-1.2c-1.5-0.3-3.5,0.8-5.8,3.3
				c-0.5,0.5-1.3,0.5-1.8,0.1c-0.5-0.5-0.5-1.3-0.1-1.8c3.1-3.3,5.8-4.7,8.3-4.1c1.4,0.3,2.3,1.2,3,2c0.5,0.6,1,1.1,1.8,1.5
				c1.3,0.6,3.4,1,7.8-1.5c0.6-0.3,1.4-0.1,1.7,0.5c0.3,0.6,0.1,1.4-0.5,1.7C72.4,59.1,70.1,59.8,68,59.8z"/>
		</g>
	</g>
</g>
</svg>
