<?xml version="1.0" encoding="UTF-8"?>
<svg id="Layer_1" data-name="Layer 1" xmlns="http://www.w3.org/2000/svg" width="45.16mm" height="45.16mm" viewBox="0 0 128 128">
  <defs>
    <style>
      .cls-1 {
        fill: #0069b1;
      }
    </style>
  </defs>
  <polygon class="cls-1" points="108.76 38.72 108.76 97.36 72.08 97.36 72.08 100.36 111.76 100.36 111.76 38.72 108.76 38.72"/>
  <polygon class="cls-1" points="20.44 38.72 17.44 38.72 17.44 100.36 57.06 100.36 57.06 97.36 20.44 97.36 20.44 38.72"/>
  <path class="cls-1" d="m105.33,34.33h-35.08c-1.84,0-3.75,1.39-5.45,2.83h-.45c-1.7-1.44-3.6-2.83-5.45-2.83H23.84v59.66h35.08c1.08,0,3.27,1.91,3.99,2.54.07.06.12.1.18.15v.77h3v-.77c.06-.05.11-.09.18-.15.72-.63,2.92-2.54,3.99-2.54h35.08v-59.66Zm-37.5,15.83c1.99.41,3.86,1.19,5.57,2.31l1.02.67,2.62-2.62,2.9,2.9-2.62,2.62.67,1.02c1.13,1.71,1.91,3.58,2.31,5.57l.25,1.2h3.7v4.1h-3.7l-.25,1.2c-.41,1.99-1.19,3.86-2.31,5.57l-.67,1.02,2.62,2.62-2.9,2.9-2.62-2.62-1.02.67c-1.71,1.13-3.59,1.91-5.57,2.31l-1.2.25v3.71h-4.1v-3.71l-1.2-.25c-1.99-.41-3.86-1.19-5.57-2.31l-1.02-.67-2.62,2.62-2.9-2.9,2.62-2.62-.67-1.02c-1.13-1.71-1.91-3.59-2.31-5.57l-.25-1.2h-3.71v-4.1h3.71l.25-1.2c.41-1.99,1.19-3.86,2.31-5.57l.67-1.02-2.62-2.62,2.9-2.9,2.62,2.62,1.02-.67c1.71-1.13,3.59-1.91,5.57-2.31l1.2-.25v-3.7h4.1v3.7l1.2.25Zm-8.92,40.83H26.84v-53.66h32.08c1.08,0,3.27,1.91,3.99,2.54.07.06.12.1.18.15v3.19h-3.55v4.3c-1.53.42-2.99,1.03-4.37,1.82l-3.04-3.04-7.14,7.14,3.04,3.04c-.79,1.38-1.4,2.85-1.82,4.37h-4.3v10.1h4.3c.42,1.53,1.03,2.99,1.82,4.37l-3.04,3.04,7.14,7.14,3.04-3.04c1.38.79,2.85,1.4,4.37,1.82v4.3h3.55v4.23c-1.35-1.01-2.78-1.81-4.17-1.81Zm43.41,0h-32.08c-1.39,0-2.82.8-4.17,1.81v-4.23h3.55v-4.3c1.53-.42,2.99-1.03,4.37-1.82l3.04,3.04,7.14-7.14-3.04-3.04c.79-1.38,1.4-2.85,1.82-4.37h4.3v-10.1h-4.3c-.42-1.53-1.03-2.99-1.82-4.37l3.04-3.04-7.14-7.14-3.04,3.04c-1.38-.79-2.85-1.4-4.37-1.82v-4.3h-3.55v-3.19c.06-.05.11-.09.18-.15.72-.63,2.92-2.54,3.99-2.54h32.08v53.66Z"/>
  <path class="cls-1" d="m56.88,65.89c0,4.25,3.46,7.7,7.7,7.7s7.7-3.46,7.7-7.7-3.46-7.7-7.7-7.7-7.7,3.46-7.7,7.7Zm12.4,0c0,2.59-2.11,4.7-4.7,4.7s-4.7-2.11-4.7-4.7,2.11-4.7,4.7-4.7,4.7,2.11,4.7,4.7Z"/>
</svg>