<?xml version="1.0" encoding="utf-8"?>
<!-- Generator: Adobe Illustrator 27.6.1, SVG Export Plug-In . SVG Version: 6.00 Build 0)  -->
<svg version="1.1" id="Layer_1" xmlns="http://www.w3.org/2000/svg" xmlns:xlink="http://www.w3.org/1999/xlink" x="0px" y="0px"
	 viewBox="0 0 128 128" style="enable-background:new 0 0 128 128;" xml:space="preserve">
<style type="text/css">
	.st0{fill:#0069B1;}
</style>
<g>
	<g>
		<path class="st0" d="M63.8,107.3c-0.1,0-0.2,0-0.3,0c-4.5-0.1-8.3-1.2-13.4-3.6c-1.7-0.8-3.2-1.6-4.7-2.4c0,0-0.1,0-0.1,0
			c0,0-0.1,0-0.1-0.1l-0.1-0.1c-0.1-0.1-0.3-0.1-0.4-0.2c-3.5-1.8-8.3-2.4-12.5-2.7c-0.7-0.1-1.3-0.7-1.2-1.4
			c0.1-0.7,0.7-1.3,1.4-1.2c4.5,0.4,9.6,1,13.5,3c0,0,0,0,0,0c0.1,0.1,0.3,0.2,0.4,0.2l0.1,0c0,0,0.1,0,0.1,0.1c0,0,0,0,0,0
			c1.4,0.8,2.9,1.5,4.6,2.3c4.7,2.3,8.3,3.2,12.3,3.4c2.9,0.1,9-1.3,22-8.4c5.1-2.8,10.3-5.7,13.8-8.2c4.1-2.8,4.8-4.3,4.9-4.9
			c0-0.1,0-0.4-0.5-0.9c-0.7-0.6-2.4-0.9-6.6,0.7c-3.4,1.3-7.5,3.4-11.5,5.5c-1.5,0.8-3.1,1.6-4.7,2.4c-0.6,0.3-1.4,0.1-1.8-0.6
			c-0.3-0.6-0.1-1.4,0.6-1.8c1.5-0.8,3.1-1.6,4.6-2.4c9.2-4.9,17.2-9,21-6c1.3,1.1,1.5,2.3,1.5,3.1c-0.3,3.7-6.4,7.6-20,15.1
			C76.3,104.3,68.5,107.3,63.8,107.3z"/>
	</g>
	<g>
		<path class="st0" d="M74.8,98c-2.1,0-4.8-0.9-8.4-2.1c-1-0.3-2-0.7-2.9-1c-4.4-1.6-8.3-2.9-13.6-3.4c-0.7-0.1-1.3-0.7-1.2-1.4
			c0.1-0.7,0.7-1.3,1.4-1.2c5.7,0.5,9.7,1.9,14.3,3.5c0.9,0.3,1.9,0.7,2.9,1c3.9,1.3,7.2,2.5,8.5,1.8c0.2-0.1,0.5-0.3,0.6-0.9
			c0.6-2.1-4.9-7-12.9-10.3c-2.4-1-4.4-2.3-6.4-3.5c-2.6-1.7-5-3.2-7.6-3.6c-3.9-0.5-7.4,0.4-10.3,1.4c-2.4,0.8-4.5,1.4-6.4,1.8
			c-0.7,0.2-1.4-0.3-1.6-1c-0.2-0.7,0.3-1.4,1-1.6c1.9-0.4,3.9-1,6.2-1.8c3-1,7.1-2.1,11.5-1.5c3.3,0.4,5.9,2.1,8.7,4
			c1.9,1.2,3.8,2.4,5.9,3.3c6.6,2.7,15.9,8.5,14.4,13.5c-0.4,1.2-1,2-1.9,2.5C76.3,97.9,75.6,98,74.8,98z"/>
	</g>
	<g>
		<path class="st0" d="M76.4,86.9c-0.4,0-0.9-0.2-1.1-0.6c-0.4-0.6-0.2-1.4,0.4-1.8c0.5-0.3,1-0.7,1.6-1c5.5-3.5,11.2-7.2,15.3-7.2
			c0,0,0,0,0,0c1.8,0,3.3,0.5,4.1,1.4c0.5,0.5,0.5,1.4-0.1,1.9c-0.5,0.5-1.4,0.5-1.9-0.1c-0.2-0.3-0.9-0.5-2.2-0.5
			c-3.3,0-9,3.6-13.9,6.8c-0.5,0.3-1,0.7-1.6,1C76.9,86.8,76.7,86.9,76.4,86.9z"/>
	</g>
	<g>
		<path class="st0" d="M72.8,84.4c-0.4,0-0.8-0.2-1.1-0.5c-0.4-0.6-0.3-1.4,0.3-1.8c1-0.7,2-1.5,2.9-2.2c3.7-2.8,6.6-5.1,9.6-5.3
			c0.8-0.1,1.5,0,2.1,0.1c0.7,0.2,1.2,0.9,1,1.6c-0.2,0.7-0.9,1.2-1.6,1c-0.4-0.1-0.8-0.1-1.3-0.1c-2.2,0.2-5,2.3-8.2,4.8
			c-0.9,0.7-1.9,1.5-3,2.2C73.3,84.3,73.1,84.4,72.8,84.4z"/>
	</g>
	<g>
		<path class="st0" d="M68.8,82.1c-0.4,0-0.8-0.2-1-0.5c-0.5-0.6-0.4-1.4,0.2-1.8c1.2-1,2.1-1.8,2.8-2.5c1.7-1.6,2.9-2.7,4.9-3
			c0.8-0.1,1.5-0.1,2.1,0c0.7,0.1,1.2,0.8,1,1.5c-0.1,0.7-0.8,1.2-1.5,1c-0.2,0-0.6-0.1-1.2,0c-1.2,0.2-1.9,0.8-3.5,2.3
			c-0.8,0.7-1.7,1.6-3,2.6C69.4,82,69.1,82.1,68.8,82.1z"/>
	</g>
	<g>
		<path class="st0" d="M31.6,101.8h-8.4c-1.2,0-2.1-0.9-2.1-2.1V76.6c0-1.2,0.9-2.1,2.1-2.1h8.4c1.2,0,2.1,0.9,2.1,2.1v23.1
			C33.7,100.9,32.8,101.8,31.6,101.8z M23.7,99.2h7.4V77.1h-7.4V99.2z"/>
	</g>
	<g>
		<path class="st0" d="M53,68.2c-0.7,0-1.4-0.2-2.1-0.7c-1.1-0.8-1.6-2.1-1.4-3.4l1.7-9.8c0-0.3,0-0.6-0.3-0.8l-7.1-6.9
			c-1-0.9-1.3-2.3-0.9-3.6c0.4-1.3,1.5-2.2,2.8-2.4l9.8-1.4c0.3,0,0.5-0.2,0.7-0.5l4.4-8.9c0.6-1.2,1.8-2,3.1-2s2.6,0.8,3.1,2
			l4.4,8.9c0.1,0.3,0.4,0.4,0.7,0.5l9.8,1.4c1.3,0.2,2.4,1.1,2.8,2.4c0.4,1.3,0.1,2.7-0.9,3.6l-7.1,6.9c-0.2,0.2-0.3,0.5-0.3,0.8
			l1.7,9.8c0.2,1.3-0.3,2.6-1.4,3.4c-1.1,0.8-2.5,0.9-3.7,0.3l-8.8-4.6c-0.3-0.1-0.6-0.1-0.8,0l-8.8,4.6
			C54.1,68.1,53.5,68.2,53,68.2z M63.8,30.5c-0.2,0-0.6,0-0.8,0.5l-4.4,8.9c-0.5,1-1.5,1.8-2.6,1.9l-9.8,1.4
			c-0.5,0.1-0.7,0.4-0.7,0.6c-0.1,0.2-0.1,0.6,0.2,0.9l7.1,6.9c0.8,0.8,1.2,2,1,3.1l-1.7,9.8c-0.1,0.5,0.2,0.8,0.4,0.9
			c0.1,0.1,0.5,0.3,0.9,0.1l8.8-4.6c1-0.5,2.2-0.5,3.3,0l8.8,4.6c0.4,0.2,0.8,0,0.9-0.1c0.1-0.1,0.4-0.4,0.4-0.9l-1.7-9.8
			c-0.2-1.1,0.2-2.3,1-3.1l7.1-6.9c0.4-0.3,0.3-0.8,0.2-0.9c-0.1-0.2-0.2-0.5-0.7-0.6l-9.8-1.4c-1.1-0.2-2.1-0.9-2.6-1.9L64.6,31
			l0,0C64.3,30.6,63.9,30.5,63.8,30.5z"/>
	</g>
	<g>
		<path class="st0" d="M64,24.2c-0.7,0-1.3-0.6-1.3-1.3V22c0-0.7,0.6-1.3,1.3-1.3c0.7,0,1.3,0.6,1.3,1.3v0.9
			C65.3,23.6,64.7,24.2,64,24.2z"/>
	</g>
	<g>
		<path class="st0" d="M64,74.4c-0.7,0-1.3-0.6-1.3-1.3v-0.9c0-0.7,0.6-1.3,1.3-1.3c0.7,0,1.3,0.6,1.3,1.3V73
			C65.3,73.8,64.7,74.4,64,74.4z"/>
	</g>
	<g>
		<path class="st0" d="M89.6,49.4h-1.2c-0.7,0-1.3-0.6-1.3-1.3s0.6-1.3,1.3-1.3h1.2c0.7,0,1.3,0.6,1.3,1.3S90.3,49.4,89.6,49.4z"/>
	</g>
	<g>
		<path class="st0" d="M84.9,70.3c-0.3,0-0.7-0.1-0.9-0.4l-1.8-1.8c-0.5-0.5-0.5-1.3,0-1.9c0.5-0.5,1.3-0.5,1.9,0l1.8,1.8
			c0.5,0.5,0.5,1.3,0,1.9C85.6,70.2,85.2,70.3,84.9,70.3z"/>
	</g>
	<g>
		<path class="st0" d="M81,32.3c-0.3,0-0.7-0.1-0.9-0.4c-0.5-0.5-0.5-1.3,0-1.9l1.8-1.8c0.5-0.5,1.3-0.5,1.9,0
			c0.5,0.5,0.5,1.3,0,1.9L81.9,32C81.7,32.2,81.3,32.3,81,32.3z"/>
	</g>
	<g>
		<path class="st0" d="M39.1,49.4h-1.2c-0.7,0-1.3-0.6-1.3-1.3s0.6-1.3,1.3-1.3h1.2c0.7,0,1.3,0.6,1.3,1.3S39.8,49.4,39.1,49.4z"/>
	</g>
	<g>
		<path class="st0" d="M42.6,70.3c-0.3,0-0.7-0.1-0.9-0.4c-0.5-0.5-0.5-1.3,0-1.9l1.8-1.8c0.5-0.5,1.3-0.5,1.9,0
			c0.5,0.5,0.5,1.3,0,1.9l-1.8,1.8C43.3,70.2,43,70.3,42.6,70.3z"/>
	</g>
	<g>
		<path class="st0" d="M46.5,32.3c-0.3,0-0.7-0.1-0.9-0.4l-1.8-1.8c-0.5-0.5-0.5-1.3,0-1.9c0.5-0.5,1.3-0.5,1.9,0l1.8,1.8
			c0.5,0.5,0.5,1.3,0,1.9C47.2,32.2,46.9,32.3,46.5,32.3z"/>
	</g>
</g>
</svg>
