<?xml version="1.0" encoding="utf-8"?>
<!-- Generator: Adobe Illustrator 27.6.1, SVG Export Plug-In . SVG Version: 6.00 Build 0)  -->
<svg version="1.1" id="Layer_1" xmlns="http://www.w3.org/2000/svg" xmlns:xlink="http://www.w3.org/1999/xlink" x="0px" y="0px"
	 viewBox="0 0 128 128" style="enable-background:new 0 0 128 128;" xml:space="preserve">
<style type="text/css">
	.st0{fill:#026AB0;}
</style>
<g>
	<g>
		<g>
			<path class="st0" d="M31.8,57.8c-0.1,0-0.2,0-0.3,0c-0.8-0.2-1.2-0.9-1.1-1.7c0.8-3.6,2.3-7.1,4.2-10.2c0.4-0.7,1.3-0.9,2-0.5
				c0.7,0.4,0.9,1.3,0.5,2c-1.8,2.9-3.1,6.1-3.9,9.4C33,57.4,32.5,57.8,31.8,57.8z"/>
		</g>
		<g>
			<path class="st0" d="M35.9,82.8c-0.5,0-0.9-0.2-1.2-0.7c-2-3.2-3.4-6.6-4.2-10.2c-0.2-0.8,0.3-1.5,1.1-1.7
				c0.8-0.2,1.5,0.3,1.7,1.1c0.8,3.3,2.1,6.5,3.9,9.4c0.4,0.7,0.2,1.6-0.5,2C36.4,82.8,36.1,82.8,35.9,82.8z"/>
		</g>
		<g>
			<path class="st0" d="M71.6,97.6c-0.6,0-1.2-0.4-1.4-1.1c-0.2-0.8,0.3-1.5,1.1-1.7c3.3-0.8,6.5-2.1,9.4-3.9c0.7-0.4,1.6-0.2,2,0.5
				c0.4,0.7,0.2,1.6-0.5,2c-3.2,2-6.6,3.4-10.2,4.2C71.8,97.6,71.7,97.6,71.6,97.6z"/>
		</g>
		<g>
			<path class="st0" d="M96.2,57.8c-0.6,0-1.2-0.4-1.4-1.1c-0.8-3.3-2.1-6.5-3.9-9.4c-0.4-0.7-0.2-1.6,0.5-2c0.7-0.4,1.6-0.2,2,0.5
				c2,3.2,3.4,6.6,4.2,10.2c0.2,0.8-0.3,1.5-1.1,1.7C96.4,57.8,96.3,57.8,96.2,57.8z"/>
		</g>
		<g>
			<path class="st0" d="M92.1,82.8c-0.3,0-0.5-0.1-0.8-0.2c-0.7-0.4-0.9-1.3-0.5-2c1.8-2.9,3.1-6.1,3.9-9.4c0.2-0.8,0.9-1.2,1.7-1.1
				c0.8,0.2,1.2,0.9,1.1,1.7c-0.8,3.6-2.3,7.1-4.2,10.2C93.1,82.6,92.6,82.8,92.1,82.8z"/>
		</g>
		<g>
			<path class="st0" d="M56.4,97.6c-0.1,0-0.2,0-0.3,0c-3.6-0.9-7.1-2.3-10.2-4.2c-0.7-0.4-0.9-1.3-0.5-2c0.4-0.7,1.3-0.9,2-0.5
				c2.9,1.8,6.1,3.1,9.4,3.9c0.8,0.2,1.2,1,1.1,1.7C57.6,97.2,57.1,97.6,56.4,97.6z"/>
		</g>
		<g>
			<path class="st0" d="M71.9,106.2H56.1c-0.4,0-0.8-0.2-1-0.4c-0.3-0.3-0.4-0.7-0.4-1l0.3-8.6c0-0.8,0.7-1.4,1.4-1.4c0,0,0,0,0,0
				c0.8,0,1.4,0.7,1.4,1.5l-0.2,7.1h12.8l-0.2-7.1c0-0.8,0.6-1.5,1.4-1.5c0.7,0,1.5,0.6,1.5,1.4l0.3,8.6c0,0.4-0.1,0.8-0.4,1
				C72.6,106.1,72.3,106.2,71.9,106.2z"/>
		</g>
		<g>
			<path class="st0" d="M35.9,48c-0.4,0-0.7-0.1-1-0.4l-6.3-5.9c-0.3-0.3-0.4-0.6-0.5-1c0-0.4,0.1-0.8,0.4-1l11.1-11.1
				c0.3-0.3,0.7-0.4,1-0.4c0.4,0,0.8,0.2,1,0.5l5.9,6.3c0.5,0.6,0.5,1.5-0.1,2c-0.6,0.5-1.5,0.5-2-0.1l-4.9-5.2l-9,9l5.2,4.9
				c0.6,0.5,0.6,1.4,0.1,2C36.6,47.9,36.2,48,35.9,48z"/>
		</g>
		<g>
			<path class="st0" d="M87.3,99.8C87.3,99.8,87.3,99.8,87.3,99.8c-0.4,0-0.8-0.2-1-0.5l-5.9-6.3c-0.5-0.6-0.5-1.5,0.1-2
				c0.6-0.5,1.5-0.5,2,0.1l4.9,5.2l9-9l-5.2-4.9c-0.6-0.5-0.6-1.4-0.1-2c0.5-0.6,1.4-0.6,2-0.1l6.3,5.9c0.3,0.3,0.4,0.6,0.5,1
				c0,0.4-0.1,0.8-0.4,1L88.3,99.4C88,99.7,87.7,99.8,87.3,99.8z"/>
		</g>
		<g>
			<path class="st0" d="M23.2,73.3c-0.4,0-0.7-0.1-1-0.4c-0.3-0.3-0.4-0.6-0.4-1V56.1c0-0.4,0.2-0.8,0.4-1c0.3-0.3,0.7-0.4,1-0.4
				l8.6,0.3c0.8,0,1.4,0.7,1.4,1.5c0,0.8-0.7,1.4-1.5,1.4l-7.1-0.2v12.8l7.1-0.2c0,0,0,0,0,0c0.8,0,1.4,0.6,1.4,1.4
				c0,0.8-0.6,1.5-1.4,1.5L23.2,73.3C23.2,73.3,23.2,73.3,23.2,73.3z"/>
		</g>
		<g>
			<path class="st0" d="M104.8,73.3C104.8,73.3,104.8,73.3,104.8,73.3L96.2,73c-0.8,0-1.4-0.7-1.4-1.5c0-0.8,0.7-1.4,1.4-1.4
				c0,0,0,0,0,0l7.1,0.2V57.6l-7.1,0.2c-0.8,0-1.5-0.6-1.5-1.4c0-0.8,0.6-1.4,1.4-1.5l8.6-0.3c0.4,0,0.8,0.1,1,0.4
				c0.3,0.3,0.4,0.6,0.4,1v15.7c0,0.4-0.2,0.8-0.4,1C105.5,73.2,105.2,73.3,104.8,73.3z"/>
		</g>
		<g>
			<path class="st0" d="M92.1,48c-0.4,0-0.8-0.2-1-0.5c-0.5-0.6-0.5-1.5,0.1-2l5.2-4.9l-9-9l-4.9,5.2c-0.5,0.5-1.2,0.6-1.8,0.2
				c-2.9-1.8-6.1-3.1-9.4-3.9c-0.7-0.2-1.1-0.8-1.1-1.4l0.2-7.1H57.6l0.2,7.1c0,0.7-0.4,1.3-1.1,1.4c-3.3,0.8-6.5,2.1-9.4,3.9
				c-0.7,0.4-1.6,0.2-2-0.5c-0.4-0.7-0.2-1.6,0.5-2c2.8-1.8,5.9-3.1,9.1-4l-0.2-7.4c0-0.4,0.1-0.8,0.4-1s0.6-0.4,1-0.4h15.7
				c0.4,0,0.8,0.2,1,0.4c0.3,0.3,0.4,0.7,0.4,1l-0.2,7.4c2.8,0.8,5.6,1.9,8.1,3.3l5.1-5.4c0.3-0.3,0.6-0.4,1-0.5
				c0.4,0,0.8,0.1,1,0.4l11.1,11.1c0.3,0.3,0.4,0.6,0.4,1c0,0.4-0.2,0.8-0.5,1l-6.3,5.9C92.8,47.9,92.5,48,92.1,48z"/>
		</g>
		<g>
			<path class="st0" d="M84.8,54.9c-0.5,0-1-0.3-1.3-0.8c-2.1-4.1-5.5-7.6-9.7-9.7c-1-0.5-2-0.9-3.1-1.3c-4.4-1.4-9.2-1.4-13.6,0
				c-1,0.3-2.1,0.8-3.1,1.3c-4.1,2.1-7.6,5.5-9.7,9.7c-0.4,0.7-1.2,1-1.9,0.6c-0.7-0.4-1-1.2-0.6-1.9c2.4-4.7,6.2-8.6,10.9-10.9
				c1.1-0.6,2.3-1.1,3.5-1.4c5-1.6,10.4-1.6,15.4,0c1.2,0.4,2.4,0.9,3.5,1.4c4.7,2.4,8.6,6.3,10.9,10.9c0.4,0.7,0.1,1.6-0.6,1.9
				C85.3,54.8,85.1,54.9,84.8,54.9z"/>
		</g>
		<g>
			<path class="st0" d="M40.7,99.8c-0.4,0-0.7-0.2-1-0.4L28.6,88.3c-0.3-0.3-0.4-0.6-0.4-1c0-0.4,0.2-0.8,0.5-1l6.3-5.9
				c0.6-0.5,1.5-0.5,2,0.1c0.5,0.6,0.5,1.5-0.1,2l-5.2,4.9l9,9l4.9-5.2c0.5-0.6,1.4-0.6,2-0.1c0.6,0.5,0.6,1.4,0.1,2l-5.9,6.3
				C41.5,99.7,41.1,99.8,40.7,99.8C40.7,99.8,40.7,99.8,40.7,99.8z"/>
		</g>
		<g>
			<path class="st0" d="M64,88.8c-2.6,0-5.2-0.4-7.7-1.2c-1.2-0.4-2.4-0.9-3.5-1.4c-4.7-2.4-8.5-6.2-10.9-10.9
				c-0.6-1.1-1.1-2.3-1.4-3.5c-0.8-2.5-1.2-5.1-1.2-7.7c0-2.6,0.4-5.2,1.2-7.7c0.4-1.2,0.9-2.4,1.5-3.5c2.4-4.7,6.2-8.5,10.9-10.9
				c1.1-0.6,2.3-1.1,3.5-1.4c5-1.6,10.4-1.6,15.4,0c1.2,0.4,2.4,0.9,3.5,1.4c4.7,2.4,8.6,6.3,10.9,10.9c0.6,1.1,1.1,2.3,1.4,3.5
				c0.8,2.5,1.2,5.1,1.2,7.7s-0.4,5.2-1.2,7.7c-0.4,1.2-0.9,2.4-1.4,3.5c-2.4,4.7-6.3,8.6-10.9,10.9c-1.1,0.6-2.3,1.1-3.5,1.4
				C69.2,88.4,66.6,88.8,64,88.8z M64,42.1c-2.3,0-4.6,0.4-6.8,1.1c-1,0.3-2.1,0.8-3.1,1.3c-4.1,2.1-7.6,5.5-9.7,9.7
				c-0.5,1-0.9,2-1.3,3.1c-0.7,2.2-1.1,4.5-1.1,6.8c0,2.3,0.4,4.6,1.1,6.8c0.3,1,0.8,2.1,1.3,3.1c2.1,4.1,5.5,7.6,9.7,9.7
				c1,0.5,2,0.9,3.1,1.3c4.4,1.4,9.2,1.4,13.7,0c1-0.3,2.1-0.8,3.1-1.3c4.1-2.1,7.6-5.5,9.7-9.7c0.5-1,0.9-2,1.3-3.1
				c0.7-2.2,1.1-4.5,1.1-6.8c0-2.3-0.4-4.6-1.1-6.8c-0.3-1.1-0.8-2.1-1.3-3.1c-2.1-4.1-5.5-7.6-9.7-9.7c-1-0.5-2-0.9-3.1-1.3
				C68.6,42.4,66.3,42.1,64,42.1z"/>
		</g>
	</g>
	<g>
		<g>
			<path class="st0" d="M67.3,77.1h-6.6c-3.3,0-5.9-2.7-5.9-5.9c0-0.8,0.6-1.4,1.4-1.4s1.4,0.6,1.4,1.4c0,1.7,1.4,3.1,3.1,3.1h6.6
				c1.7,0,3.1-1.4,3.1-3.1v-2.7c0-1.7-1.4-3.1-3.1-3.1h-6.6c-3.3,0-5.9-2.7-5.9-5.9v-2.7c0-3.3,2.7-5.9,5.9-5.9h6.6
				c3.3,0,5.9,2.7,5.9,5.9c0,0.8-0.6,1.4-1.4,1.4c-0.8,0-1.4-0.6-1.4-1.4c0-1.7-1.4-3.1-3.1-3.1h-6.6c-1.7,0-3.1,1.4-3.1,3.1v2.7
				c0,1.7,1.4,3.1,3.1,3.1h6.6c3.3,0,5.9,2.7,5.9,5.9v2.7C73.3,74.4,70.6,77.1,67.3,77.1z"/>
		</g>
		<g>
			<path class="st0" d="M64,53.8c-0.8,0-1.4-0.6-1.4-1.4v-4.6c0-0.8,0.6-1.4,1.4-1.4c0.8,0,1.4,0.6,1.4,1.4v4.6
				C65.4,53.1,64.8,53.8,64,53.8z"/>
		</g>
		<g>
			<path class="st0" d="M64,81.7c-0.8,0-1.4-0.6-1.4-1.4v-4.6c0-0.8,0.6-1.4,1.4-1.4c0.8,0,1.4,0.6,1.4,1.4v4.6
				C65.4,81,64.8,81.7,64,81.7z"/>
		</g>
	</g>
</g>
</svg>
