<?xml version="1.0" encoding="UTF-8"?>
<svg id="Layer_1" data-name="Layer 1" xmlns="http://www.w3.org/2000/svg" width="45.16mm" height="45.16mm" viewBox="0 0 128 128">
  <defs>
    <style>
      .cls-1 {
        fill: #0069b1;
      }
    </style>
  </defs>
  <path class="cls-1" d="m44.17,81.71c-3.5,3.49-8.14,5.42-13.08,5.42h-13.44l8.23-8.23-2.12-2.12-11.37,11.37,11.37,11.37,2.12-2.12-7.26-7.26h12.47c5.74,0,11.14-2.24,15.2-6.3l15.57-15.57-2.12-2.12-15.57,15.57Z"/>
  <path class="cls-1" d="m102.12,78.9l8.23,8.23h-13.44c-4.94,0-9.59-1.92-13.08-5.42l-13.27-13.27-4.44-4.44,17.71-17.71c3.5-3.49,8.14-5.42,13.08-5.42h13.44l-8.23,8.23,2.12,2.12,11.37-11.37-11.37-11.37-2.12,2.12,7.26,7.26h-12.47c-5.74,0-11.14,2.24-15.2,6.3l-17.71,17.71-5.99-5.99-11.72-11.72c-4.06-4.06-9.46-6.3-15.2-6.3h-12.47l7.26-7.26-2.12-2.12-11.37,11.37,11.37,11.37,2.12-2.12-8.23-8.23h13.44c4.94,0,9.59,1.92,13.08,5.42l37.54,37.54c4.06,4.06,9.46,6.3,15.2,6.3h12.47l-7.26,7.26,2.12,2.12,11.37-11.37-11.37-11.37-2.12,2.12Z"/>
</svg>