<?xml version="1.0" encoding="UTF-8"?>
<svg id="Layer_1" data-name="Layer 1" xmlns="http://www.w3.org/2000/svg" width="45.16mm" height="45.16mm" viewBox="0 0 128 128">
  <defs>
    <style>
      .cls-1 {
        fill: #0069b1;
      }
    </style>
  </defs>
  <g>
    <path class="cls-1" d="m76.94,92.67v-2.54c3.26-.28,5.46-2.15,5.46-4.97s-1.67-4.33-5.56-5.31v-4.87c1.21.26,2.36.8,3.49,1.64l1.44-2.41c-1.41-1.05-2.95-1.72-4.82-1.95v-1.54h-2.23v1.49c-3.21.26-5.38,2.15-5.38,4.92s1.74,4.31,5.49,5.28v5.03c-1.67-.26-3.05-1.03-4.51-2.21l-1.64,2.33c1.74,1.39,3.82,2.28,6.05,2.54v2.56h2.23Zm-.1-9.77c2,.59,2.54,1.28,2.54,2.44,0,1.23-.92,2.08-2.54,2.21v-4.64Zm-4.49-5.95c0-1.13.85-2.03,2.46-2.15v4.51c-1.97-.59-2.46-1.28-2.46-2.36Z"/>
    <path class="cls-1" d="m89.74,52.84s0,0,0,0h-1.62v45.25h-37.94V33.55c0-1.34-.4-2.6-1.09-3.64h19.48c.08-1.02.23-2.02.45-3h-25.48c-3.66,0-6.64,2.98-6.64,6.64v12.5h10.29v55.05h43.94v-48.25h-1.37s0,0,0,0Zm-42.56-9.79h-7.29v-9.5c0-2.01,1.63-3.64,3.64-3.64s3.64,1.63,3.64,3.64v9.5Z"/>
    <rect class="cls-1" x="55.84" y="53.52" width="26.61" height="3"/>
    <path class="cls-1" d="m72.3,43.72h-16.47v3h18.99c-.93-.92-1.78-1.92-2.53-3Z"/>
  </g>
  <g>
    <path class="cls-1" d="m89.61,16.14c8.51,0,15.43,6.92,15.43,15.43s-6.92,15.43-15.43,15.43-15.43-6.92-15.43-15.43,6.92-15.43,15.43-15.43m0-3c-10.18,0-18.43,8.25-18.43,18.43s8.25,18.43,18.43,18.43,18.43-8.25,18.43-18.43-8.25-18.43-18.43-18.43h0Z"/>
    <rect class="cls-1" x="77.62" y="30.08" width="23.98" height="3" transform="translate(3.92 72.61) rotate(-45)"/>
    <rect class="cls-1" x="88.11" y="19.59" width="3" height="23.98" transform="translate(3.92 72.61) rotate(-45)"/>
  </g>
</svg>