<?xml version="1.0" encoding="UTF-8"?>
<svg id="Layer_1" data-name="Layer 1" xmlns="http://www.w3.org/2000/svg" width="45.16mm" height="45.16mm" viewBox="0 0 128 128">
  <defs>
    <style>
      .cls-1 {
        fill: #0069b1;
      }
    </style>
  </defs>
  <path class="cls-1" d="m74.84,52.83h-21.67c-10.27,0-18.63,8.36-18.63,18.63v37.07h58.94v-37.07c0-10.27-8.36-18.63-18.63-18.63Zm-37.31,52.7v-7.01h8.4v7.01h-8.4Zm41.54-33.62v33.62h-30.14v-33.62h-3v23.61h-8.4v-24.06c0-8.62,7.01-15.63,15.63-15.63h9.34v4.65h3v-4.65h9.34c8.62,0,15.63,7.01,15.63,15.63v24.06h-8.4v-23.61h-3Zm3,33.62v-7.01h8.4v7.01h-8.4Z"/>
  <rect class="cls-1" x="62.5" y="63.76" width="3" height="37.46"/>
  <path class="cls-1" d="m80.14,28.76l-6.57-9.82h-19.15l-6.57,9.82,16.14,21.26,16.14-21.26Zm-11.11,1.44h6.25l-9.01,11.87,2.76-11.87Zm-5.03,8.38l-1.95-8.38h3.9l-1.95,8.38Zm-2.94-11.38l-2.79-5.27h11.46l-2.79,5.27h-5.87Zm-2.09,3l2.76,11.87-9.01-11.87h6.25Zm16.52-3h-5.16l2.28-4.3,2.88,4.3Zm-20.11-4.3l2.28,4.3h-5.16l2.88-4.3Z"/>
</svg>