<?xml version="1.0" encoding="utf-8"?>
<!-- Generator: Adobe Illustrator 27.6.1, SVG Export Plug-In . SVG Version: 6.00 Build 0)  -->
<svg version="1.1" id="Layer_1" xmlns="http://www.w3.org/2000/svg" xmlns:xlink="http://www.w3.org/1999/xlink" x="0px" y="0px"
	 viewBox="0 0 128 128" style="enable-background:new 0 0 128 128;" xml:space="preserve">
<style type="text/css">
	.st0{fill:#0069B1;}
</style>
<g>
	<g>
		<path class="st0" d="M64,105.3C64,105.3,64,105.3,64,105.3C41.3,105.3,22.8,86.7,22.8,64c0-22.7,18.5-41.3,41.2-41.3
			c22.7,0.1,41.2,18.6,41.2,41.3C105.2,86.7,86.7,105.3,64,105.3z M64,25.2C42.7,25.3,25.3,42.7,25.3,64c0,21.3,17.4,38.7,38.7,38.8
			c21.3-0.1,38.7-17.5,38.7-38.8C102.7,42.7,85.3,25.3,64,25.2z"/>
	</g>
	<g>
		<path class="st0" d="M64,105.3c-0.2,0-0.4-0.1-0.6-0.2C49.9,97.9,40.1,80.6,40.1,64s9.8-33.9,23.3-41.1c0.4-0.2,0.8-0.2,1.2,0
			C78.1,30.1,87.9,47.4,87.9,64s-9.8,33.9-23.3,41.1C64.4,105.2,64.2,105.3,64,105.3z M64,25.4c-12.4,7-21.4,23.1-21.4,38.6
			s8.9,31.5,21.4,38.6c12.4-7,21.4-23.1,21.4-38.6S76.4,32.5,64,25.4z"/>
	</g>
	<g>
		<path class="st0" d="M103.9,65.3H24.1c-0.7,0-1.3-0.6-1.3-1.3s0.6-1.3,1.3-1.3h79.9c0.7,0,1.3,0.6,1.3,1.3S104.6,65.3,103.9,65.3z
			"/>
	</g>
	<g>
		<path class="st0" d="M64,105.3c-0.7,0-1.3-0.6-1.3-1.3V23.9c0-0.7,0.6-1.3,1.3-1.3c0.7,0,1.3,0.6,1.3,1.3V104
			C65.3,104.7,64.7,105.3,64,105.3z"/>
	</g>
</g>
</svg>
