<?xml version="1.0" encoding="UTF-8"?>
<svg id="Layer_1" data-name="Layer 1" xmlns="http://www.w3.org/2000/svg" width="45.16mm" height="45.16mm" viewBox="0 0 128 128">
  <defs>
    <style>
      .cls-1 {
        fill: #0069b1;
      }
    </style>
  </defs>
  <path class="cls-1" d="m64,37.26c-14.75,0-26.74,12-26.74,26.74s12,26.74,26.74,26.74,26.74-12,26.74-26.74-12-26.74-26.74-26.74Zm0,18.75c-1.43,0-2.6-1.17-2.6-2.6s1.17-2.6,2.6-2.6,2.6,1.17,2.6,2.6-1.17,2.6-2.6,2.6Zm11.02,29.01v-4.7l3.35-3.35v-5.46c2.36-.66,4.1-2.82,4.1-5.39,0-3.09-2.51-5.6-5.6-5.6s-5.6,2.51-5.6,5.6c0,2.57,1.74,4.73,4.1,5.39v4.22l-3.35,3.35v7.26c-2.06.74-4.25,1.2-6.52,1.35v-28.89c2.36-.66,4.1-2.82,4.1-5.39,0-3.09-2.51-5.6-5.6-5.6s-5.6,2.51-5.6,5.6c0,2.57,1.74,4.73,4.1,5.39v28.89c-1.9-.12-3.73-.46-5.48-1v-8.4l-4.47-4.91v-7.11c2.36-.66,4.1-2.82,4.1-5.39,0-3.09-2.51-5.6-5.6-5.6s-5.6,2.51-5.6,5.6c0,2.57,1.74,4.73,4.1,5.39v8.27l4.47,4.91v6.08c-8.12-3.78-13.76-12.01-13.76-21.53,0-13.09,10.65-23.74,23.74-23.74s23.74,10.65,23.74,23.74c0,9.11-5.17,17.04-12.72,21.02Zm1.85-16.29c-1.43,0-2.6-1.17-2.6-2.6s1.17-2.6,2.6-2.6,2.6,1.17,2.6,2.6-1.17,2.6-2.6,2.6Zm-25.82-5.24c-1.43,0-2.6-1.17-2.6-2.6s1.17-2.6,2.6-2.6,2.6,1.17,2.6,2.6-1.17,2.6-2.6,2.6Z"/>
  <path class="cls-1" d="m105.5,72v-16l-7.86-1.17c-.77-2.84-1.91-5.57-3.38-8.14l4.73-6.39-11.31-11.31-6.38,4.73c-2.56-1.47-5.29-2.6-8.14-3.37l-1.17-7.86h-16l-1.17,7.86c-2.84.77-5.57,1.91-8.14,3.37l-6.39-4.73-11.31,11.31,4.73,6.39c-1.47,2.56-2.6,5.29-3.37,8.14l-7.86,1.17v16l7.86,1.17c.77,2.84,1.91,5.57,3.38,8.14l-4.73,6.39,11.31,11.31,6.39-4.73c2.56,1.47,5.29,2.6,8.14,3.38l1.17,7.86h16l1.17-7.86c2.84-.77,5.57-1.9,8.14-3.37l6.39,4.73,11.31-11.31-4.73-6.39c1.47-2.56,2.6-5.29,3.37-8.14l7.86-1.17Zm-10.52-.52c-.78,3.23-2.05,6.3-3.79,9.13l-.53.86,4.39,5.92-7.65,7.65-5.92-4.39-.86.53c-2.84,1.74-5.91,3.01-9.13,3.79l-.98.24-1.08,7.29h-10.82l-1.08-7.28-.98-.24c-3.22-.78-6.3-2.05-9.13-3.79l-.86-.53-5.92,4.39-7.65-7.65,4.39-5.92-.53-.86c-1.74-2.84-3.01-5.91-3.79-9.13l-.24-.98-7.28-1.08v-10.82l7.28-1.08.24-.98c.78-3.22,2.05-6.3,3.79-9.13l.53-.86-4.39-5.92,7.65-7.65,5.92,4.39.86-.53c2.84-1.74,5.91-3.01,9.13-3.79l.98-.24,1.08-7.28h10.83l1.08,7.28.98.24c3.22.78,6.3,2.05,9.13,3.79l.86.53,5.92-4.39,7.65,7.65-4.39,5.92.53.86c1.74,2.84,3.01,5.91,3.79,9.13l.24.98,7.29,1.08v10.82l-7.29,1.08-.24.98Z"/>
</svg>