<?xml version="1.0" encoding="UTF-8"?>
<svg id="Layer_1" data-name="Layer 1" xmlns="http://www.w3.org/2000/svg" width="45.16mm" height="45.16mm" viewBox="0 0 128 128">
  <defs>
    <style>
      .cls-1 {
        fill: #0069b1;
      }
    </style>
  </defs>
  <path class="cls-1" d="m82.29,24.33v-4.55h-12.31c-.59-2.75-3.05-4.83-5.98-4.83s-5.38,2.07-5.98,4.83h-12.31v4.55h-19.39v88.73h75.37V24.33h-19.39Zm-33.58-1.55h12.25l-.07-1.71c0-1.72,1.4-3.12,3.12-3.12s3.12,1.4,3.11,3.16l-.07,1.67h12.25v6.57h-30.58v-6.57Zm33.58,9.57h11.38v72.35h-59.34V32.34h47.96Zm16.39,77.71H29.32V27.33h16.39v2.01h-14.38v78.35h65.34V29.34h-14.38v-2.01h16.39v82.73Z"/>
  <polygon class="cls-1" points="42.34 62.98 46.15 68.57 42.18 74.37 45.03 74.37 47.6 70.46 50.15 74.37 53.08 74.37 49.11 68.54 52.91 62.98 50.07 62.98 47.66 66.67 45.27 62.98 42.34 62.98"/>
  <path class="cls-1" d="m62.84,74.53c1.32,0,2.41-.5,3.33-1.27l1.32,1.33,1.84-1.29-1.67-1.67c.57-.76,1.06-1.61,1.5-2.41l-1.84-1.01c-.36.7-.73,1.37-1.11,1.95l-1.51-1.51c1.42-.55,2.39-1.45,2.39-2.99,0-1.63-1.27-2.88-3.2-2.88-2.2,0-3.45,1.43-3.45,3.01,0,.8.24,1.5.8,2.29-1.43.65-2.21,1.67-2.21,3.14,0,2.03,1.64,3.3,3.82,3.3Zm.99-9.79c.63,0,1.07.39,1.07,1.07,0,.73-.52,1.15-1.51,1.53-.47-.54-.67-.91-.67-1.43,0-.7.44-1.17,1.11-1.17Zm-1.24,4.88l2.18,2.21c-.52.41-1.07.65-1.64.65-.93,0-1.59-.54-1.59-1.35,0-.57.31-1.12,1.06-1.51Z"/>
  <polygon class="cls-1" points="79.25 74.37 81.75 74.37 81.75 69.83 86.13 62.98 83.28 62.98 80.51 67.55 77.8 62.98 74.87 62.98 79.25 69.88 79.25 74.37"/>
</svg>