<?xml version="1.0" encoding="UTF-8"?> <svg xmlns="http://www.w3.org/2000/svg" width="400" height="33" viewBox="0 0 400 33" fill="none"><g clip-path="url(#clip0_4866_998)"><path d="M380.587 33H377.419C376.904 33 376.489 32.584 376.489 32.0664V8.15294C376.489 7.35798 376.738 6.34118 377.152 5.70336C377.604 5.00084 379.841 1.63613 380.762 0.323529C380.882 0.147899 380.992 0 381.177 0C381.361 0 381.517 0.092437 381.517 0.369748V32.0571C381.517 32.5748 381.103 32.9908 380.587 32.9908" fill="black"></path><path d="M399.07 33H395.902C395.386 33 394.972 32.584 394.972 32.0664V8.15294C394.972 7.35798 395.22 6.34118 395.635 5.70336C396.086 5.00084 398.324 1.63613 399.245 0.323529C399.364 0.147899 399.475 0 399.659 0C399.843 0 400 0.092437 400 0.369748V32.0571C400 32.5748 399.585 32.9908 399.07 32.9908" fill="black"></path><path d="M32.0287 0.970588L0 33H4.96362C7.23824 33 9.41155 32.0941 11.0323 30.4857L32.701 8.82773C33.6311 7.89412 35.1414 7.89412 36.0715 8.82773L57.7401 30.4857C59.3517 32.0941 61.5342 33 63.8088 33H68.7724L36.7253 0.970588C35.4268 -0.323529 33.3364 -0.323529 32.0379 0.970588" fill="black"></path><path d="M132.591 0C130.316 0 128.134 0.905882 126.522 2.51429L104.853 24.1723C103.923 25.1059 102.413 25.1059 101.483 24.1723L79.8233 2.51429C78.2118 0.905882 76.0293 0 73.7546 0H68.791L100.82 32.0202C102.118 33.3143 104.209 33.3143 105.507 32.0202L137.554 0H132.591Z" fill="black"></path><path d="M240.299 12.405H237.333C236.486 12.405 235.805 13.0891 235.805 13.9395V31.4563C235.805 32.3067 236.486 32.9908 237.333 32.9908H240.299C241.146 32.9908 241.827 32.3067 241.827 31.4563V13.9395C241.827 13.0891 241.146 12.405 240.299 12.405Z" fill="black"></path><path d="M267.815 2.52353C266.194 0.915129 264.012 0.00924683 261.737 0.00924683H206.309L209.817 3.50336C211.438 5.11177 213.621 6.01765 215.895 6.01765H271.324L267.815 2.52353Z" fill="black"></path><path d="M169.582 0.970588L137.554 32.9908H142.517C144.792 32.9908 146.974 32.0849 148.586 30.4765L170.255 8.81849C171.185 7.88487 172.695 7.88487 173.625 8.81849L195.294 30.4765C196.905 32.0849 199.088 32.9908 201.363 32.9908H206.326L174.27 0.970588C172.971 -0.323529 170.881 -0.323529 169.582 0.970588Z" fill="black"></path><path d="M329.275 18.7185H334.221C339.553 18.7185 343.844 14.3 343.614 8.93866C343.393 3.8916 339.037 0.00924683 333.99 0.00924683H284.584L288.102 3.50336C289.723 5.11177 291.915 6.01765 294.189 6.01765H334.018C335.777 6.01765 337.361 7.30252 337.517 9.05883C337.692 11.037 336.127 12.7008 334.175 12.7008H286.113C285.266 12.7008 284.575 13.3849 284.575 14.2353V31.4563C284.575 32.3067 285.266 32.9908 286.113 32.9908H289.088C289.935 32.9908 290.625 32.3067 290.625 31.4563V18.7185H320.73L332.545 30.458C334.165 32.0849 336.366 32.9908 338.659 32.9908H343.623L329.275 18.7092V18.7185Z" fill="black"></path></g><defs><clipPath id="clip0_4866_998"><rect width="400" height="33" fill="white"></rect></clipPath></defs></svg> 