<?xml version="1.0" encoding="UTF-8"?> <svg xmlns="http://www.w3.org/2000/svg" width="23" height="13" viewBox="0 0 23 13" fill="none"><path d="M17.5 9H3.75V4H17.5V9ZM0 3.375C0 1.65625 1.36719 0.25 3.125 0.25H18.125C19.8438 0.25 21.25 1.65625 21.25 3.375V4C21.9141 4 22.5 4.58594 22.5 5.25V7.75C22.5 8.45312 21.9141 9 21.25 9V9.625C21.25 11.3828 19.8438 12.75 18.125 12.75H3.125C1.36719 12.75 0 11.3828 0 9.625V3.375ZM3.125 2.75C2.77344 2.75 2.5 3.0625 2.5 3.375V9.625C2.5 9.97656 2.77344 10.25 3.125 10.25H18.125C18.4375 10.25 18.75 9.97656 18.75 9.625V3.375C18.75 3.0625 18.4375 2.75 18.125 2.75H3.125Z" fill="#D9EC74"></path></svg> 