<?xml version="1.0" encoding="UTF-8"?> <svg xmlns="http://www.w3.org/2000/svg" width="20" height="21" viewBox="0 0 20 21" fill="none"><path d="M7.1875 0.5C8.35938 0.5 9.375 1.51562 9.375 2.6875V18.3125C9.375 19.5234 8.35938 20.5 7.1875 20.5C6.05469 20.5 5.11719 19.6797 5 18.5469C4.80469 18.625 4.57031 18.625 4.375 18.625C2.96875 18.625 1.875 17.5312 1.875 16.125C1.875 15.8516 1.91406 15.5781 1.99219 15.3047C0.820312 14.875 0 13.7422 0 12.375C0 11.1641 0.703125 10.0703 1.75781 9.5625C1.44531 9.13281 1.25 8.58594 1.25 8C1.25 6.82812 2.07031 5.8125 3.20312 5.57812C3.125 5.34375 3.125 5.10938 3.125 4.875C3.125 3.74219 3.90625 2.72656 5 2.45312C5.11719 1.35938 6.05469 0.5 7.1875 0.5ZM14.9609 2.45312C16.0547 2.72656 16.875 3.74219 16.875 4.875C16.875 5.10938 16.8359 5.34375 16.7578 5.57812C17.8906 5.8125 18.75 6.82812 18.75 8C18.75 8.58594 18.5156 9.13281 18.2031 9.5625C19.2578 10.0703 20 11.1641 20 12.375C20 13.7422 19.1406 14.875 17.9688 15.3047C18.0469 15.5781 18.125 15.8516 18.125 16.125C18.125 17.5312 16.9922 18.625 15.625 18.625C15.3906 18.625 15.1562 18.625 14.9609 18.5469C14.8438 19.6797 13.9062 20.5 12.8125 20.5C11.6016 20.5 10.625 19.5234 10.625 18.3125V2.6875C10.625 1.51562 11.6016 0.5 12.8125 0.5C13.9062 0.5 14.8438 1.35938 14.9609 2.45312Z" fill="#D9EC74"></path></svg> 