<?xml version="1.0" encoding="UTF-8"?> <svg xmlns="http://www.w3.org/2000/svg" width="17" height="21" viewBox="0 0 17 21" fill="none"><path d="M10.375 9.25H14.75C15.2578 9.25 15.7266 9.60156 15.8828 10.0703C16.0781 10.5781 15.9609 11.125 15.5703 11.4766L5.57031 20.2266C5.10156 20.5781 4.47656 20.6172 4.00781 20.2656C3.53906 19.9531 3.34375 19.3281 3.57812 18.7812L6.58594 11.75H2.21094C1.70312 11.75 1.23438 11.4375 1.07812 10.9688C0.882812 10.4609 1 9.91406 1.39062 9.5625L11.3906 0.8125C11.8594 0.460938 12.4844 0.421875 12.9531 0.773438C13.4219 1.08594 13.6172 1.71094 13.3828 2.25781L10.375 9.25Z" fill="#D9EC74"></path></svg> 